G04 (created by PCBNEW (2013-04-21 BZR 4107)-testing) date Thursday, 13 June 2013 16:51:55*
%MOIN*%
G04 Gerber Fmt 3.4, Leading zero omitted, Abs format*
%FSLAX34Y34*%
G01*
G70*
G90*
G04 APERTURE LIST*
%ADD10C,2.3622e-06*%
%ADD11R,0.05X0.02*%
%ADD12R,0.0597X0.0707*%
%ADD13R,0.114X0.2125*%
%ADD14R,0.1141X0.2125*%
%ADD15R,0.045X0.02*%
%ADD16R,0.055X0.035*%
%ADD17R,0.035X0.055*%
%ADD18R,0.025X0.045*%
%ADD19R,0.045X0.025*%
%ADD20R,0.1377X0.0787*%
%ADD21R,0.0314X0.0354*%
%ADD22R,0.1337X0.0472*%
%ADD23R,0.0472X0.1337*%
%ADD24R,0.0276X0.0394*%
%ADD25R,0.0984X0.2007*%
%ADD26R,0.0314X0.0314*%
%ADD27R,0.08X0.16*%
%ADD28R,0.0433X0.0748*%
%ADD29R,0.0394X0.0394*%
%ADD30R,0.0394X0.0236*%
%ADD31R,0.026X0.08*%
%ADD32R,0.08X0.22*%
%ADD33R,0.0787402X0.208661*%
%ADD34R,0.0157X0.0472*%
%ADD35R,0.102362X0.0866142*%
%ADD36R,0.11811X0.0866142*%
%ADD37R,0.0885827X0.019685*%
%ADD38R,0.0984252X0.0787402*%
G04 APERTURE END LIST*
G54D10*
G54D11*
X67983Y-56395D03*
X67983Y-56895D03*
X67983Y-57395D03*
X67983Y-57895D03*
X67983Y-58395D03*
X67983Y-58895D03*
X67983Y-59395D03*
X67983Y-59895D03*
X67983Y-60395D03*
X67983Y-60895D03*
X67983Y-61395D03*
X67983Y-61895D03*
X67983Y-62395D03*
X67983Y-62895D03*
X71583Y-62895D03*
X71583Y-62395D03*
X71583Y-61895D03*
X71583Y-61395D03*
X71583Y-60895D03*
X71583Y-60395D03*
X71583Y-59895D03*
X71583Y-59395D03*
X71583Y-58895D03*
X71583Y-58395D03*
X71583Y-57895D03*
X71583Y-57395D03*
X71583Y-56895D03*
X71583Y-56395D03*
G54D12*
X76921Y-72539D03*
X75441Y-72539D03*
X76921Y-51870D03*
X75441Y-51870D03*
X76921Y-62204D03*
X75441Y-62204D03*
G54D13*
X87894Y-51279D03*
G54D14*
X83957Y-51280D03*
G54D13*
X87894Y-61023D03*
G54D14*
X83957Y-61024D03*
G54D13*
X87894Y-70767D03*
G54D14*
X83957Y-70768D03*
G54D15*
X75820Y-54588D03*
X77920Y-54588D03*
X75820Y-54088D03*
X75820Y-53588D03*
X75820Y-53088D03*
X77920Y-54088D03*
X77920Y-53588D03*
X77920Y-53088D03*
X75820Y-75257D03*
X77920Y-75257D03*
X75820Y-74757D03*
X75820Y-74257D03*
X75820Y-73757D03*
X77920Y-74757D03*
X77920Y-74257D03*
X77920Y-73757D03*
X75820Y-64923D03*
X77920Y-64923D03*
X75820Y-64423D03*
X75820Y-63923D03*
X75820Y-63423D03*
X77920Y-64423D03*
X77920Y-63923D03*
X77920Y-63423D03*
G54D16*
X78248Y-66713D03*
X78248Y-65963D03*
G54D17*
X72459Y-60728D03*
X73209Y-60728D03*
G54D16*
X70078Y-63699D03*
X70078Y-64449D03*
X93405Y-64941D03*
X93405Y-64191D03*
X78248Y-77048D03*
X78248Y-76298D03*
X78248Y-56378D03*
X78248Y-55628D03*
X93405Y-55197D03*
X93405Y-54447D03*
G54D18*
X80310Y-65157D03*
X80910Y-65157D03*
G54D19*
X77362Y-56303D03*
X77362Y-55703D03*
G54D18*
X77652Y-62204D03*
X78252Y-62204D03*
G54D19*
X70964Y-55614D03*
X70964Y-55014D03*
X94783Y-76077D03*
X94783Y-76677D03*
X69488Y-50496D03*
X69488Y-49896D03*
X69488Y-49315D03*
X69488Y-48715D03*
X94783Y-56589D03*
X94783Y-57189D03*
G54D18*
X73331Y-57677D03*
X72731Y-57677D03*
X73331Y-57086D03*
X72731Y-57086D03*
G54D19*
X94783Y-54424D03*
X94783Y-55024D03*
X94783Y-55507D03*
X94783Y-56107D03*
G54D18*
X75684Y-56791D03*
X76284Y-56791D03*
X80310Y-54822D03*
X80910Y-54822D03*
X77652Y-51870D03*
X78252Y-51870D03*
G54D19*
X77362Y-66638D03*
X77362Y-66038D03*
X77362Y-76973D03*
X77362Y-76373D03*
G54D18*
X80310Y-75492D03*
X80910Y-75492D03*
X75684Y-77460D03*
X76284Y-77460D03*
X75684Y-67125D03*
X76284Y-67125D03*
G54D19*
X94783Y-74995D03*
X94783Y-75595D03*
X68602Y-55014D03*
X68602Y-55614D03*
X94783Y-73912D03*
X94783Y-74512D03*
X69783Y-55614D03*
X69783Y-55014D03*
X69192Y-55014D03*
X69192Y-55614D03*
X70374Y-55614D03*
X70374Y-55014D03*
G54D18*
X73331Y-59448D03*
X72731Y-59448D03*
X73331Y-60039D03*
X72731Y-60039D03*
G54D19*
X94783Y-66333D03*
X94783Y-66933D03*
G54D18*
X73331Y-58858D03*
X72731Y-58858D03*
X73331Y-58267D03*
X72731Y-58267D03*
G54D19*
X94783Y-64168D03*
X94783Y-64768D03*
X94783Y-65251D03*
X94783Y-65851D03*
G54D20*
X84350Y-73976D03*
X84350Y-76810D03*
X84350Y-54488D03*
X84350Y-57322D03*
X84350Y-64232D03*
X84350Y-67066D03*
G54D21*
X75393Y-55807D03*
X76653Y-55768D03*
X80019Y-74606D03*
X81279Y-74567D03*
X80019Y-53937D03*
X81279Y-53898D03*
X75393Y-66141D03*
X76653Y-66102D03*
X80019Y-64271D03*
X81279Y-64232D03*
X75393Y-76476D03*
X76653Y-76437D03*
G54D22*
X75139Y-69881D03*
X77756Y-69881D03*
X82144Y-69881D03*
X79527Y-69881D03*
X75139Y-49212D03*
X77756Y-49212D03*
G54D23*
X87598Y-66986D03*
X87598Y-64369D03*
X91240Y-66986D03*
X91240Y-64369D03*
G54D22*
X75139Y-59547D03*
X77756Y-59547D03*
G54D23*
X87598Y-76730D03*
X87598Y-74113D03*
X91240Y-57242D03*
X91240Y-54625D03*
X87598Y-57242D03*
X87598Y-54625D03*
G54D15*
X79560Y-63348D03*
X81660Y-63348D03*
X79560Y-62848D03*
X79560Y-62348D03*
X79560Y-61848D03*
X81660Y-62848D03*
X81660Y-62348D03*
X81660Y-61848D03*
X81660Y-65982D03*
X79560Y-65982D03*
X81660Y-66482D03*
X81660Y-66982D03*
X81660Y-67482D03*
X79560Y-66482D03*
X79560Y-66982D03*
X79560Y-67482D03*
X79560Y-73683D03*
X81660Y-73683D03*
X79560Y-73183D03*
X79560Y-72683D03*
X79560Y-72183D03*
X81660Y-73183D03*
X81660Y-72683D03*
X81660Y-72183D03*
X81660Y-76316D03*
X79560Y-76316D03*
X81660Y-76816D03*
X81660Y-77316D03*
X81660Y-77816D03*
X79560Y-76816D03*
X79560Y-77316D03*
X79560Y-77816D03*
X81660Y-55647D03*
X79560Y-55647D03*
X81660Y-56147D03*
X81660Y-56647D03*
X81660Y-57147D03*
X79560Y-56147D03*
X79560Y-56647D03*
X79560Y-57147D03*
X79560Y-53013D03*
X81660Y-53013D03*
X79560Y-52513D03*
X79560Y-52013D03*
X79560Y-51513D03*
X81660Y-52513D03*
X81660Y-52013D03*
X81660Y-51513D03*
G54D22*
X82144Y-59547D03*
X79527Y-59547D03*
X82144Y-49212D03*
X79527Y-49212D03*
G54D23*
X72440Y-48269D03*
X72440Y-50886D03*
G54D18*
X77652Y-72539D03*
X78252Y-72539D03*
G54D23*
X91240Y-76730D03*
X91240Y-74113D03*
G54D24*
X65668Y-54125D03*
X66043Y-54125D03*
X66418Y-54125D03*
X66418Y-55125D03*
X66043Y-55125D03*
X65668Y-55125D03*
G54D21*
X63976Y-54921D03*
X62716Y-54960D03*
G54D16*
X62696Y-56022D03*
X62696Y-56772D03*
X63484Y-56022D03*
X63484Y-56772D03*
X67322Y-54349D03*
X67322Y-55099D03*
G54D18*
X68508Y-53051D03*
X67908Y-53051D03*
X64768Y-56003D03*
X64168Y-56003D03*
X66146Y-56200D03*
X65546Y-56200D03*
X64463Y-54921D03*
X65063Y-54921D03*
G54D19*
X72637Y-65359D03*
X72637Y-64759D03*
X71850Y-65359D03*
X71850Y-64759D03*
X71062Y-65359D03*
X71062Y-64759D03*
X70570Y-67130D03*
X70570Y-66530D03*
X72736Y-66530D03*
X72736Y-67130D03*
X72736Y-68114D03*
X72736Y-67514D03*
X63090Y-66038D03*
X63090Y-66638D03*
X63188Y-64168D03*
X63188Y-64768D03*
G54D25*
X73897Y-75590D03*
X63897Y-75590D03*
G54D12*
X65500Y-53051D03*
X66980Y-53051D03*
G54D19*
X70866Y-69985D03*
X70866Y-69385D03*
X94192Y-65851D03*
X94192Y-65251D03*
X94094Y-56107D03*
X94094Y-55507D03*
X71850Y-69985D03*
X71850Y-69385D03*
X69389Y-64177D03*
X69389Y-63577D03*
G54D18*
X66146Y-56988D03*
X65546Y-56988D03*
G54D19*
X70177Y-48715D03*
X70177Y-49315D03*
X94094Y-75595D03*
X94094Y-74995D03*
X63090Y-73823D03*
X63090Y-73223D03*
G54D26*
X70177Y-50491D03*
X70177Y-49901D03*
X64173Y-56791D03*
X64763Y-56791D03*
X94094Y-54429D03*
X94094Y-55019D03*
X94192Y-64173D03*
X94192Y-64763D03*
X94094Y-73917D03*
X94094Y-74507D03*
G54D27*
X92305Y-68602D03*
X94505Y-68602D03*
X92305Y-58858D03*
X94505Y-58858D03*
X89352Y-48917D03*
X91552Y-48917D03*
G54D28*
X71870Y-68601D03*
X70846Y-68601D03*
G54D29*
X65475Y-64272D03*
G54D30*
X64643Y-63601D03*
X65475Y-63601D03*
X64643Y-64351D03*
G54D31*
X64777Y-69991D03*
X65277Y-69991D03*
X65777Y-69991D03*
X66277Y-69991D03*
X66777Y-69991D03*
X67277Y-69991D03*
X67777Y-69991D03*
X68277Y-69991D03*
X68777Y-69991D03*
X69277Y-69991D03*
X69277Y-66031D03*
X68777Y-66031D03*
X68277Y-66031D03*
X67777Y-66031D03*
X67277Y-66031D03*
X66777Y-66031D03*
X66277Y-66031D03*
X65777Y-66031D03*
X65277Y-66031D03*
X64777Y-66031D03*
G54D18*
X66530Y-56988D03*
X67130Y-56988D03*
X66530Y-57972D03*
X67130Y-57972D03*
X66530Y-58956D03*
X67130Y-58956D03*
X66530Y-60433D03*
X67130Y-60433D03*
G54D32*
X63090Y-68080D03*
X63090Y-71780D03*
G54D33*
X64566Y-53051D03*
X63188Y-53051D03*
G54D34*
X71270Y-67637D03*
X71526Y-67637D03*
X71780Y-67637D03*
X72036Y-67637D03*
X72036Y-66023D03*
X71780Y-66023D03*
X71526Y-66023D03*
X71270Y-66023D03*
G54D35*
X94960Y-52755D03*
X94960Y-51181D03*
G54D36*
X90551Y-52755D03*
X90551Y-51181D03*
G54D35*
X94862Y-72244D03*
X94862Y-70669D03*
G54D36*
X90452Y-72244D03*
X90452Y-70669D03*
G54D35*
X94960Y-62500D03*
X94960Y-60925D03*
G54D36*
X90551Y-62500D03*
X90551Y-60925D03*
G54D37*
X64763Y-60433D03*
X64763Y-60118D03*
X64763Y-61062D03*
X64763Y-60748D03*
X64763Y-59803D03*
G54D38*
X62568Y-62185D03*
X62568Y-58681D03*
X64714Y-62185D03*
X64714Y-58681D03*
G54D16*
X93405Y-74686D03*
X93405Y-73936D03*
X65452Y-70983D03*
X65452Y-71733D03*
X67224Y-65040D03*
X67224Y-64290D03*
G54D19*
X66535Y-64463D03*
X66535Y-65063D03*
X64763Y-71559D03*
X64763Y-70959D03*
M02*
