G04 (created by PCBNEW (2013-04-21 BZR 4107)-testing) date Thursday, 13 June 2013 16:51:55*
%MOIN*%
G04 Gerber Fmt 3.4, Leading zero omitted, Abs format*
%FSLAX34Y34*%
G01*
G70*
G90*
G04 APERTURE LIST*
%ADD10C,2.3622e-06*%
%ADD11C,0.012*%
%ADD12C,0.01*%
%ADD13C,0.015*%
%ADD14C,0.005*%
%ADD15C,0.0026*%
%ADD16C,0.004*%
%ADD17C,0.008*%
%ADD18C,0.0059*%
%ADD19C,0.006*%
%ADD20C,0.002*%
%ADD21C,0.0078*%
%ADD22C,0.0472*%
%ADD23C,0.00590551*%
%ADD24C,0.0039*%
G04 APERTURE END LIST*
G54D10*
G54D11*
X72834Y-78930D02*
X72787Y-78987D01*
X72645Y-79043D01*
X72550Y-79043D01*
X72408Y-78987D01*
X72313Y-78873D01*
X72266Y-78759D01*
X72219Y-78532D01*
X72219Y-78361D01*
X72266Y-78134D01*
X72313Y-78020D01*
X72408Y-77907D01*
X72550Y-77850D01*
X72645Y-77850D01*
X72787Y-77907D01*
X72834Y-77963D01*
X73260Y-78418D02*
X73591Y-78418D01*
X73733Y-79043D02*
X73260Y-79043D01*
X73260Y-77850D01*
X73733Y-77850D01*
X89230Y-72513D02*
X89230Y-72056D01*
X89535Y-72285D02*
X88925Y-72285D01*
X89230Y-70856D02*
X89230Y-70399D01*
X89230Y-62769D02*
X89230Y-62312D01*
X89535Y-62541D02*
X88925Y-62541D01*
X89230Y-61112D02*
X89230Y-60655D01*
X78016Y-78814D02*
X78302Y-78814D01*
X77959Y-79043D02*
X78159Y-78243D01*
X78359Y-79043D01*
X78816Y-78509D02*
X78816Y-79309D01*
X78816Y-79004D02*
X78759Y-79043D01*
X78645Y-79043D01*
X78588Y-79004D01*
X78559Y-78966D01*
X78531Y-78890D01*
X78531Y-78662D01*
X78559Y-78585D01*
X78588Y-78547D01*
X78645Y-78509D01*
X78759Y-78509D01*
X78816Y-78547D01*
X79388Y-79043D02*
X79102Y-79043D01*
X79102Y-78243D01*
X79588Y-78623D02*
X79788Y-78623D01*
X79874Y-79043D02*
X79588Y-79043D01*
X79588Y-78243D01*
X79874Y-78243D01*
X80131Y-79043D02*
X80131Y-78243D01*
X80274Y-78243D01*
X80359Y-78281D01*
X80416Y-78357D01*
X80445Y-78433D01*
X80474Y-78585D01*
X80474Y-78700D01*
X80445Y-78852D01*
X80416Y-78928D01*
X80359Y-79004D01*
X80274Y-79043D01*
X80131Y-79043D01*
X80702Y-79004D02*
X80788Y-79043D01*
X80931Y-79043D01*
X80988Y-79004D01*
X81016Y-78966D01*
X81045Y-78890D01*
X81045Y-78814D01*
X81016Y-78738D01*
X80988Y-78700D01*
X80931Y-78662D01*
X80816Y-78623D01*
X80759Y-78585D01*
X80731Y-78547D01*
X80702Y-78471D01*
X80702Y-78395D01*
X80731Y-78319D01*
X80759Y-78281D01*
X80816Y-78243D01*
X80959Y-78243D01*
X81045Y-78281D01*
X82102Y-78966D02*
X82074Y-79004D01*
X81988Y-79043D01*
X81931Y-79043D01*
X81845Y-79004D01*
X81788Y-78928D01*
X81759Y-78852D01*
X81731Y-78700D01*
X81731Y-78585D01*
X81759Y-78433D01*
X81788Y-78357D01*
X81845Y-78281D01*
X81931Y-78243D01*
X81988Y-78243D01*
X82074Y-78281D01*
X82102Y-78319D01*
X82474Y-78243D02*
X82588Y-78243D01*
X82645Y-78281D01*
X82702Y-78357D01*
X82731Y-78509D01*
X82731Y-78776D01*
X82702Y-78928D01*
X82645Y-79004D01*
X82588Y-79043D01*
X82474Y-79043D01*
X82416Y-79004D01*
X82359Y-78928D01*
X82331Y-78776D01*
X82331Y-78509D01*
X82359Y-78357D01*
X82416Y-78281D01*
X82474Y-78243D01*
X82988Y-79043D02*
X82988Y-78243D01*
X83331Y-79043D01*
X83331Y-78243D01*
X83531Y-78243D02*
X83874Y-78243D01*
X83702Y-79043D02*
X83702Y-78243D01*
X84416Y-79043D02*
X84216Y-78662D01*
X84074Y-79043D02*
X84074Y-78243D01*
X84302Y-78243D01*
X84359Y-78281D01*
X84388Y-78319D01*
X84416Y-78395D01*
X84416Y-78509D01*
X84388Y-78585D01*
X84359Y-78623D01*
X84302Y-78662D01*
X84074Y-78662D01*
X84788Y-78243D02*
X84902Y-78243D01*
X84959Y-78281D01*
X85016Y-78357D01*
X85045Y-78509D01*
X85045Y-78776D01*
X85016Y-78928D01*
X84959Y-79004D01*
X84902Y-79043D01*
X84788Y-79043D01*
X84731Y-79004D01*
X84674Y-78928D01*
X84645Y-78776D01*
X84645Y-78509D01*
X84674Y-78357D01*
X84731Y-78281D01*
X84788Y-78243D01*
X85588Y-79043D02*
X85302Y-79043D01*
X85302Y-78243D01*
X86074Y-79043D02*
X85788Y-79043D01*
X85788Y-78243D01*
X86274Y-78623D02*
X86474Y-78623D01*
X86559Y-79043D02*
X86274Y-79043D01*
X86274Y-78243D01*
X86559Y-78243D01*
X87159Y-79043D02*
X86959Y-78662D01*
X86816Y-79043D02*
X86816Y-78243D01*
X87045Y-78243D01*
X87102Y-78281D01*
X87131Y-78319D01*
X87159Y-78395D01*
X87159Y-78509D01*
X87131Y-78585D01*
X87102Y-78623D01*
X87045Y-78662D01*
X86816Y-78662D01*
X88216Y-79043D02*
X88016Y-78662D01*
X87874Y-79043D02*
X87874Y-78243D01*
X88102Y-78243D01*
X88159Y-78281D01*
X88188Y-78319D01*
X88216Y-78395D01*
X88216Y-78509D01*
X88188Y-78585D01*
X88159Y-78623D01*
X88102Y-78662D01*
X87874Y-78662D01*
X88474Y-78623D02*
X88674Y-78623D01*
X88759Y-79043D02*
X88474Y-79043D01*
X88474Y-78243D01*
X88759Y-78243D01*
X89302Y-79043D02*
X89016Y-79043D01*
X89016Y-78243D01*
X89502Y-78738D02*
X89959Y-78738D01*
X90559Y-79043D02*
X90216Y-79043D01*
X90388Y-79043D02*
X90388Y-78243D01*
X90331Y-78357D01*
X90274Y-78433D01*
X90216Y-78471D01*
X90816Y-78966D02*
X90845Y-79004D01*
X90816Y-79043D01*
X90788Y-79004D01*
X90816Y-78966D01*
X90816Y-79043D01*
X91416Y-79043D02*
X91074Y-79043D01*
X91245Y-79043D02*
X91245Y-78243D01*
X91188Y-78357D01*
X91131Y-78433D01*
X91074Y-78471D01*
X91788Y-78243D02*
X91845Y-78243D01*
X91902Y-78281D01*
X91931Y-78319D01*
X91959Y-78395D01*
X91988Y-78547D01*
X91988Y-78738D01*
X91959Y-78890D01*
X91931Y-78966D01*
X91902Y-79004D01*
X91845Y-79043D01*
X91788Y-79043D01*
X91731Y-79004D01*
X91702Y-78966D01*
X91674Y-78890D01*
X91645Y-78738D01*
X91645Y-78547D01*
X91674Y-78395D01*
X91702Y-78319D01*
X91731Y-78281D01*
X91788Y-78243D01*
X92216Y-78814D02*
X92502Y-78814D01*
X92159Y-79043D02*
X92359Y-78243D01*
X92559Y-79043D01*
X66133Y-49574D02*
X66133Y-48774D01*
X66362Y-48774D01*
X66419Y-48812D01*
X66448Y-48850D01*
X66476Y-48926D01*
X66476Y-49041D01*
X66448Y-49117D01*
X66419Y-49155D01*
X66362Y-49193D01*
X66133Y-49193D01*
X66848Y-48774D02*
X66962Y-48774D01*
X67019Y-48812D01*
X67076Y-48888D01*
X67105Y-49041D01*
X67105Y-49307D01*
X67076Y-49460D01*
X67019Y-49536D01*
X66962Y-49574D01*
X66848Y-49574D01*
X66791Y-49536D01*
X66733Y-49460D01*
X66705Y-49307D01*
X66705Y-49041D01*
X66733Y-48888D01*
X66791Y-48812D01*
X66848Y-48774D01*
X67305Y-48774D02*
X67448Y-49574D01*
X67562Y-49003D01*
X67676Y-49574D01*
X67819Y-48774D01*
X68048Y-49155D02*
X68248Y-49155D01*
X68333Y-49574D02*
X68048Y-49574D01*
X68048Y-48774D01*
X68333Y-48774D01*
X68933Y-49574D02*
X68733Y-49193D01*
X68591Y-49574D02*
X68591Y-48774D01*
X68819Y-48774D01*
X68876Y-48812D01*
X68905Y-48850D01*
X68933Y-48926D01*
X68933Y-49041D01*
X68905Y-49117D01*
X68876Y-49155D01*
X68819Y-49193D01*
X68591Y-49193D01*
X86987Y-48317D02*
X86958Y-48355D01*
X86873Y-48393D01*
X86815Y-48393D01*
X86730Y-48355D01*
X86673Y-48279D01*
X86644Y-48202D01*
X86615Y-48050D01*
X86615Y-47936D01*
X86644Y-47783D01*
X86673Y-47707D01*
X86730Y-47631D01*
X86815Y-47593D01*
X86873Y-47593D01*
X86958Y-47631D01*
X86987Y-47669D01*
X87244Y-48393D02*
X87244Y-47593D01*
X87244Y-47974D02*
X87587Y-47974D01*
X87587Y-48393D02*
X87587Y-47593D01*
X88187Y-48393D02*
X87844Y-48393D01*
X88015Y-48393D02*
X88015Y-47593D01*
X87958Y-47707D01*
X87901Y-47783D01*
X87844Y-47821D01*
X89546Y-59143D02*
X89517Y-59182D01*
X89432Y-59220D01*
X89374Y-59220D01*
X89289Y-59182D01*
X89232Y-59105D01*
X89203Y-59029D01*
X89174Y-58877D01*
X89174Y-58763D01*
X89203Y-58610D01*
X89232Y-58534D01*
X89289Y-58458D01*
X89374Y-58420D01*
X89432Y-58420D01*
X89517Y-58458D01*
X89546Y-58496D01*
X89803Y-59220D02*
X89803Y-58420D01*
X89803Y-58801D02*
X90146Y-58801D01*
X90146Y-59220D02*
X90146Y-58420D01*
X90403Y-58496D02*
X90432Y-58458D01*
X90489Y-58420D01*
X90632Y-58420D01*
X90689Y-58458D01*
X90717Y-58496D01*
X90746Y-58572D01*
X90746Y-58648D01*
X90717Y-58763D01*
X90374Y-59220D01*
X90746Y-59220D01*
X89546Y-68888D02*
X89517Y-68926D01*
X89432Y-68964D01*
X89374Y-68964D01*
X89289Y-68926D01*
X89232Y-68849D01*
X89203Y-68773D01*
X89174Y-68621D01*
X89174Y-68507D01*
X89203Y-68354D01*
X89232Y-68278D01*
X89289Y-68202D01*
X89374Y-68164D01*
X89432Y-68164D01*
X89517Y-68202D01*
X89546Y-68240D01*
X89803Y-68964D02*
X89803Y-68164D01*
X89803Y-68545D02*
X90146Y-68545D01*
X90146Y-68964D02*
X90146Y-68164D01*
X90374Y-68164D02*
X90746Y-68164D01*
X90546Y-68469D01*
X90632Y-68469D01*
X90689Y-68507D01*
X90717Y-68545D01*
X90746Y-68621D01*
X90746Y-68811D01*
X90717Y-68888D01*
X90689Y-68926D01*
X90632Y-68964D01*
X90460Y-68964D01*
X90403Y-68926D01*
X90374Y-68888D01*
X89230Y-53025D02*
X89230Y-52568D01*
X89535Y-52797D02*
X88925Y-52797D01*
X89230Y-51368D02*
X89230Y-50911D01*
X65661Y-50592D02*
X66118Y-50592D01*
X65889Y-50897D02*
X65889Y-50287D01*
X65913Y-48285D02*
X66370Y-48285D01*
X70783Y-63145D02*
X68283Y-63145D01*
X68283Y-63145D02*
X68283Y-56145D01*
X68283Y-56145D02*
X71283Y-56145D01*
X71283Y-56145D02*
X71283Y-63145D01*
X71283Y-63145D02*
X70783Y-63145D01*
X70033Y-56145D02*
X70033Y-56645D01*
X70033Y-56645D02*
X69533Y-56645D01*
X69533Y-56645D02*
X69533Y-56145D01*
G54D12*
X76024Y-72539D02*
X75866Y-72539D01*
X76457Y-72540D02*
X76102Y-72225D01*
X76102Y-72224D02*
X76102Y-72854D01*
X76102Y-72855D02*
X76417Y-72579D01*
X76417Y-72539D02*
X76575Y-72539D01*
G54D13*
X75296Y-73091D02*
X77066Y-73091D01*
X77327Y-73110D02*
G75*
G03X77327Y-73110I-43J0D01*
G74*
G01*
X76456Y-71988D02*
X76456Y-73090D01*
X75296Y-71988D02*
X77066Y-71988D01*
G54D12*
X76024Y-51870D02*
X75866Y-51870D01*
X76457Y-51871D02*
X76102Y-51556D01*
X76102Y-51555D02*
X76102Y-52185D01*
X76102Y-52186D02*
X76417Y-51910D01*
X76417Y-51870D02*
X76575Y-51870D01*
G54D13*
X75296Y-52422D02*
X77066Y-52422D01*
X77326Y-52441D02*
G75*
G03X77326Y-52441I-43J0D01*
G74*
G01*
X76456Y-51319D02*
X76456Y-52421D01*
X75296Y-51319D02*
X77066Y-51319D01*
G54D12*
X76024Y-62204D02*
X75866Y-62204D01*
X76457Y-62205D02*
X76102Y-61890D01*
X76102Y-61889D02*
X76102Y-62519D01*
X76102Y-62520D02*
X76417Y-62244D01*
X76417Y-62204D02*
X76575Y-62204D01*
G54D13*
X75296Y-62756D02*
X77066Y-62756D01*
X77326Y-62814D02*
G75*
G03X77326Y-62814I-43J0D01*
G74*
G01*
X76456Y-61653D02*
X76456Y-62755D01*
X75296Y-61653D02*
X77066Y-61653D01*
X88307Y-53523D02*
X88307Y-52519D01*
X88307Y-49055D02*
X88307Y-50039D01*
X83543Y-49055D02*
X83543Y-50039D01*
X83543Y-53523D02*
X83543Y-52519D01*
X85925Y-49055D02*
X83543Y-49055D01*
X88307Y-49055D02*
X85925Y-49055D01*
X88307Y-53524D02*
X85925Y-53524D01*
X85925Y-53524D02*
X83543Y-53524D01*
X88307Y-63267D02*
X88307Y-62263D01*
X88307Y-58799D02*
X88307Y-59783D01*
X83543Y-58799D02*
X83543Y-59783D01*
X83543Y-63267D02*
X83543Y-62263D01*
X85925Y-58799D02*
X83543Y-58799D01*
X88307Y-58799D02*
X85925Y-58799D01*
X88307Y-63268D02*
X85925Y-63268D01*
X85925Y-63268D02*
X83543Y-63268D01*
X88307Y-73011D02*
X88307Y-72007D01*
X88307Y-68543D02*
X88307Y-69527D01*
X83543Y-68543D02*
X83543Y-69527D01*
X83543Y-73011D02*
X83543Y-72007D01*
X85925Y-68543D02*
X83543Y-68543D01*
X88307Y-68543D02*
X85925Y-68543D01*
X88307Y-73012D02*
X85925Y-73012D01*
X85925Y-73012D02*
X83543Y-73012D01*
G54D14*
X77570Y-54888D02*
X77620Y-54888D01*
X77620Y-54888D02*
X77620Y-52788D01*
X76120Y-52788D02*
X76120Y-54888D01*
X76120Y-54888D02*
X77570Y-54888D01*
X76670Y-54888D02*
X76670Y-54688D01*
X76670Y-54688D02*
X77070Y-54688D01*
X77070Y-54688D02*
X77070Y-54888D01*
X76120Y-52788D02*
X77620Y-52788D01*
X77570Y-75557D02*
X77620Y-75557D01*
X77620Y-75557D02*
X77620Y-73457D01*
X76120Y-73457D02*
X76120Y-75557D01*
X76120Y-75557D02*
X77570Y-75557D01*
X76670Y-75557D02*
X76670Y-75357D01*
X76670Y-75357D02*
X77070Y-75357D01*
X77070Y-75357D02*
X77070Y-75557D01*
X76120Y-73457D02*
X77620Y-73457D01*
X77570Y-65223D02*
X77620Y-65223D01*
X77620Y-65223D02*
X77620Y-63123D01*
X76120Y-63123D02*
X76120Y-65223D01*
X76120Y-65223D02*
X77570Y-65223D01*
X76670Y-65223D02*
X76670Y-65023D01*
X76670Y-65023D02*
X77070Y-65023D01*
X77070Y-65023D02*
X77070Y-65223D01*
X76120Y-63123D02*
X77620Y-63123D01*
X78598Y-66988D02*
G75*
G03X78598Y-66988I-50J0D01*
G74*
G01*
X78548Y-66538D02*
X78548Y-66938D01*
X78548Y-66938D02*
X77948Y-66938D01*
X77948Y-66938D02*
X77948Y-66538D01*
X77948Y-66138D02*
X77948Y-65738D01*
X77948Y-65738D02*
X78548Y-65738D01*
X78548Y-65738D02*
X78548Y-66138D01*
X72234Y-61028D02*
G75*
G03X72234Y-61028I-50J0D01*
G74*
G01*
X72634Y-61028D02*
X72234Y-61028D01*
X72234Y-61028D02*
X72234Y-60428D01*
X72234Y-60428D02*
X72634Y-60428D01*
X73034Y-60428D02*
X73434Y-60428D01*
X73434Y-60428D02*
X73434Y-61028D01*
X73434Y-61028D02*
X73034Y-61028D01*
X69828Y-63424D02*
G75*
G03X69828Y-63424I-50J0D01*
G74*
G01*
X69778Y-63874D02*
X69778Y-63474D01*
X69778Y-63474D02*
X70378Y-63474D01*
X70378Y-63474D02*
X70378Y-63874D01*
X70378Y-64274D02*
X70378Y-64674D01*
X70378Y-64674D02*
X69778Y-64674D01*
X69778Y-64674D02*
X69778Y-64274D01*
X93755Y-65216D02*
G75*
G03X93755Y-65216I-50J0D01*
G74*
G01*
X93705Y-64766D02*
X93705Y-65166D01*
X93705Y-65166D02*
X93105Y-65166D01*
X93105Y-65166D02*
X93105Y-64766D01*
X93105Y-64366D02*
X93105Y-63966D01*
X93105Y-63966D02*
X93705Y-63966D01*
X93705Y-63966D02*
X93705Y-64366D01*
X78598Y-77323D02*
G75*
G03X78598Y-77323I-50J0D01*
G74*
G01*
X78548Y-76873D02*
X78548Y-77273D01*
X78548Y-77273D02*
X77948Y-77273D01*
X77948Y-77273D02*
X77948Y-76873D01*
X77948Y-76473D02*
X77948Y-76073D01*
X77948Y-76073D02*
X78548Y-76073D01*
X78548Y-76073D02*
X78548Y-76473D01*
X78598Y-56653D02*
G75*
G03X78598Y-56653I-50J0D01*
G74*
G01*
X78548Y-56203D02*
X78548Y-56603D01*
X78548Y-56603D02*
X77948Y-56603D01*
X77948Y-56603D02*
X77948Y-56203D01*
X77948Y-55803D02*
X77948Y-55403D01*
X77948Y-55403D02*
X78548Y-55403D01*
X78548Y-55403D02*
X78548Y-55803D01*
X93755Y-55472D02*
G75*
G03X93755Y-55472I-50J0D01*
G74*
G01*
X93705Y-55022D02*
X93705Y-55422D01*
X93705Y-55422D02*
X93105Y-55422D01*
X93105Y-55422D02*
X93105Y-55022D01*
X93105Y-54622D02*
X93105Y-54222D01*
X93105Y-54222D02*
X93705Y-54222D01*
X93705Y-54222D02*
X93705Y-54622D01*
X80160Y-64907D02*
X81060Y-64907D01*
X81060Y-64907D02*
X81060Y-65407D01*
X81060Y-65407D02*
X80160Y-65407D01*
X80160Y-65407D02*
X80160Y-64907D01*
X77112Y-56453D02*
X77112Y-55553D01*
X77112Y-55553D02*
X77612Y-55553D01*
X77612Y-55553D02*
X77612Y-56453D01*
X77612Y-56453D02*
X77112Y-56453D01*
X77502Y-61954D02*
X78402Y-61954D01*
X78402Y-61954D02*
X78402Y-62454D01*
X78402Y-62454D02*
X77502Y-62454D01*
X77502Y-62454D02*
X77502Y-61954D01*
X70714Y-55764D02*
X70714Y-54864D01*
X70714Y-54864D02*
X71214Y-54864D01*
X71214Y-54864D02*
X71214Y-55764D01*
X71214Y-55764D02*
X70714Y-55764D01*
X95033Y-75927D02*
X95033Y-76827D01*
X95033Y-76827D02*
X94533Y-76827D01*
X94533Y-76827D02*
X94533Y-75927D01*
X94533Y-75927D02*
X95033Y-75927D01*
X69238Y-50646D02*
X69238Y-49746D01*
X69238Y-49746D02*
X69738Y-49746D01*
X69738Y-49746D02*
X69738Y-50646D01*
X69738Y-50646D02*
X69238Y-50646D01*
X69238Y-49465D02*
X69238Y-48565D01*
X69238Y-48565D02*
X69738Y-48565D01*
X69738Y-48565D02*
X69738Y-49465D01*
X69738Y-49465D02*
X69238Y-49465D01*
X95033Y-56439D02*
X95033Y-57339D01*
X95033Y-57339D02*
X94533Y-57339D01*
X94533Y-57339D02*
X94533Y-56439D01*
X94533Y-56439D02*
X95033Y-56439D01*
X73481Y-57927D02*
X72581Y-57927D01*
X72581Y-57927D02*
X72581Y-57427D01*
X72581Y-57427D02*
X73481Y-57427D01*
X73481Y-57427D02*
X73481Y-57927D01*
X73481Y-57336D02*
X72581Y-57336D01*
X72581Y-57336D02*
X72581Y-56836D01*
X72581Y-56836D02*
X73481Y-56836D01*
X73481Y-56836D02*
X73481Y-57336D01*
X95033Y-54274D02*
X95033Y-55174D01*
X95033Y-55174D02*
X94533Y-55174D01*
X94533Y-55174D02*
X94533Y-54274D01*
X94533Y-54274D02*
X95033Y-54274D01*
X95033Y-55357D02*
X95033Y-56257D01*
X95033Y-56257D02*
X94533Y-56257D01*
X94533Y-56257D02*
X94533Y-55357D01*
X94533Y-55357D02*
X95033Y-55357D01*
X75534Y-56541D02*
X76434Y-56541D01*
X76434Y-56541D02*
X76434Y-57041D01*
X76434Y-57041D02*
X75534Y-57041D01*
X75534Y-57041D02*
X75534Y-56541D01*
X80160Y-54572D02*
X81060Y-54572D01*
X81060Y-54572D02*
X81060Y-55072D01*
X81060Y-55072D02*
X80160Y-55072D01*
X80160Y-55072D02*
X80160Y-54572D01*
X77502Y-51620D02*
X78402Y-51620D01*
X78402Y-51620D02*
X78402Y-52120D01*
X78402Y-52120D02*
X77502Y-52120D01*
X77502Y-52120D02*
X77502Y-51620D01*
X77112Y-66788D02*
X77112Y-65888D01*
X77112Y-65888D02*
X77612Y-65888D01*
X77612Y-65888D02*
X77612Y-66788D01*
X77612Y-66788D02*
X77112Y-66788D01*
X77112Y-77123D02*
X77112Y-76223D01*
X77112Y-76223D02*
X77612Y-76223D01*
X77612Y-76223D02*
X77612Y-77123D01*
X77612Y-77123D02*
X77112Y-77123D01*
X80160Y-75242D02*
X81060Y-75242D01*
X81060Y-75242D02*
X81060Y-75742D01*
X81060Y-75742D02*
X80160Y-75742D01*
X80160Y-75742D02*
X80160Y-75242D01*
X75534Y-77210D02*
X76434Y-77210D01*
X76434Y-77210D02*
X76434Y-77710D01*
X76434Y-77710D02*
X75534Y-77710D01*
X75534Y-77710D02*
X75534Y-77210D01*
X75534Y-66875D02*
X76434Y-66875D01*
X76434Y-66875D02*
X76434Y-67375D01*
X76434Y-67375D02*
X75534Y-67375D01*
X75534Y-67375D02*
X75534Y-66875D01*
X95033Y-74845D02*
X95033Y-75745D01*
X95033Y-75745D02*
X94533Y-75745D01*
X94533Y-75745D02*
X94533Y-74845D01*
X94533Y-74845D02*
X95033Y-74845D01*
X68852Y-54864D02*
X68852Y-55764D01*
X68852Y-55764D02*
X68352Y-55764D01*
X68352Y-55764D02*
X68352Y-54864D01*
X68352Y-54864D02*
X68852Y-54864D01*
X95033Y-73762D02*
X95033Y-74662D01*
X95033Y-74662D02*
X94533Y-74662D01*
X94533Y-74662D02*
X94533Y-73762D01*
X94533Y-73762D02*
X95033Y-73762D01*
X69533Y-55764D02*
X69533Y-54864D01*
X69533Y-54864D02*
X70033Y-54864D01*
X70033Y-54864D02*
X70033Y-55764D01*
X70033Y-55764D02*
X69533Y-55764D01*
X69442Y-54864D02*
X69442Y-55764D01*
X69442Y-55764D02*
X68942Y-55764D01*
X68942Y-55764D02*
X68942Y-54864D01*
X68942Y-54864D02*
X69442Y-54864D01*
X70124Y-55764D02*
X70124Y-54864D01*
X70124Y-54864D02*
X70624Y-54864D01*
X70624Y-54864D02*
X70624Y-55764D01*
X70624Y-55764D02*
X70124Y-55764D01*
X73481Y-59698D02*
X72581Y-59698D01*
X72581Y-59698D02*
X72581Y-59198D01*
X72581Y-59198D02*
X73481Y-59198D01*
X73481Y-59198D02*
X73481Y-59698D01*
X73481Y-60289D02*
X72581Y-60289D01*
X72581Y-60289D02*
X72581Y-59789D01*
X72581Y-59789D02*
X73481Y-59789D01*
X73481Y-59789D02*
X73481Y-60289D01*
X95033Y-66183D02*
X95033Y-67083D01*
X95033Y-67083D02*
X94533Y-67083D01*
X94533Y-67083D02*
X94533Y-66183D01*
X94533Y-66183D02*
X95033Y-66183D01*
X73481Y-59108D02*
X72581Y-59108D01*
X72581Y-59108D02*
X72581Y-58608D01*
X72581Y-58608D02*
X73481Y-58608D01*
X73481Y-58608D02*
X73481Y-59108D01*
X73481Y-58517D02*
X72581Y-58517D01*
X72581Y-58517D02*
X72581Y-58017D01*
X72581Y-58017D02*
X73481Y-58017D01*
X73481Y-58017D02*
X73481Y-58517D01*
X95033Y-64018D02*
X95033Y-64918D01*
X95033Y-64918D02*
X94533Y-64918D01*
X94533Y-64918D02*
X94533Y-64018D01*
X94533Y-64018D02*
X95033Y-64018D01*
X95033Y-65101D02*
X95033Y-66001D01*
X95033Y-66001D02*
X94533Y-66001D01*
X94533Y-66001D02*
X94533Y-65101D01*
X94533Y-65101D02*
X95033Y-65101D01*
G54D13*
X85516Y-73700D02*
G75*
G03X85516Y-73700I-43J0D01*
G74*
G01*
X83208Y-74527D02*
X85452Y-74527D01*
X85530Y-73976D02*
X83168Y-73976D01*
X85531Y-76771D02*
X85531Y-73976D01*
X85531Y-76770D02*
X83169Y-76770D01*
X83169Y-76771D02*
X83169Y-73976D01*
X85516Y-54212D02*
G75*
G03X85516Y-54212I-43J0D01*
G74*
G01*
X83208Y-55039D02*
X85452Y-55039D01*
X85530Y-54488D02*
X83168Y-54488D01*
X85531Y-57283D02*
X85531Y-54488D01*
X85531Y-57282D02*
X83169Y-57282D01*
X83169Y-57283D02*
X83169Y-54488D01*
X85516Y-63956D02*
G75*
G03X85516Y-63956I-43J0D01*
G74*
G01*
X83208Y-64783D02*
X85452Y-64783D01*
X85530Y-64232D02*
X83168Y-64232D01*
X85531Y-67027D02*
X85531Y-64232D01*
X85531Y-67026D02*
X83169Y-67026D01*
X83169Y-67027D02*
X83169Y-64232D01*
G54D11*
X62385Y-51212D02*
X62385Y-47212D01*
X61885Y-51212D02*
X64885Y-51212D01*
X64885Y-51212D02*
X64885Y-47212D01*
X64885Y-47212D02*
X61885Y-47212D01*
X61885Y-47212D02*
X61885Y-51212D01*
G54D12*
X75827Y-55807D02*
X75630Y-55807D01*
X76063Y-55807D02*
X76417Y-55807D01*
X76063Y-55650D02*
X76063Y-55964D01*
X75827Y-55807D02*
X76063Y-55650D01*
X75827Y-55807D02*
X76063Y-55964D01*
G54D13*
X75276Y-55374D02*
G75*
G03X75276Y-55374I-40J0D01*
G74*
G01*
X75708Y-55610D02*
X75708Y-55492D01*
X75708Y-56083D02*
X75708Y-55571D01*
X76494Y-56161D02*
X75474Y-56161D01*
X76494Y-55452D02*
X75474Y-55452D01*
G54D12*
X80453Y-74606D02*
X80256Y-74606D01*
X80689Y-74606D02*
X81043Y-74606D01*
X80689Y-74449D02*
X80689Y-74763D01*
X80453Y-74606D02*
X80689Y-74449D01*
X80453Y-74606D02*
X80689Y-74763D01*
G54D13*
X79902Y-74173D02*
G75*
G03X79902Y-74173I-40J0D01*
G74*
G01*
X80334Y-74409D02*
X80334Y-74291D01*
X80334Y-74882D02*
X80334Y-74370D01*
X81120Y-74960D02*
X80100Y-74960D01*
X81120Y-74251D02*
X80100Y-74251D01*
G54D12*
X80453Y-53937D02*
X80256Y-53937D01*
X80689Y-53937D02*
X81043Y-53937D01*
X80689Y-53780D02*
X80689Y-54094D01*
X80453Y-53937D02*
X80689Y-53780D01*
X80453Y-53937D02*
X80689Y-54094D01*
G54D13*
X79902Y-53504D02*
G75*
G03X79902Y-53504I-40J0D01*
G74*
G01*
X80334Y-53740D02*
X80334Y-53622D01*
X80334Y-54213D02*
X80334Y-53701D01*
X81120Y-54291D02*
X80100Y-54291D01*
X81120Y-53582D02*
X80100Y-53582D01*
G54D12*
X75827Y-66141D02*
X75630Y-66141D01*
X76063Y-66141D02*
X76417Y-66141D01*
X76063Y-65984D02*
X76063Y-66298D01*
X75827Y-66141D02*
X76063Y-65984D01*
X75827Y-66141D02*
X76063Y-66298D01*
G54D13*
X75276Y-65708D02*
G75*
G03X75276Y-65708I-40J0D01*
G74*
G01*
X75708Y-65944D02*
X75708Y-65826D01*
X75708Y-66417D02*
X75708Y-65905D01*
X76494Y-66495D02*
X75474Y-66495D01*
X76494Y-65786D02*
X75474Y-65786D01*
G54D12*
X80453Y-64271D02*
X80256Y-64271D01*
X80689Y-64271D02*
X81043Y-64271D01*
X80689Y-64114D02*
X80689Y-64428D01*
X80453Y-64271D02*
X80689Y-64114D01*
X80453Y-64271D02*
X80689Y-64428D01*
G54D13*
X79902Y-63838D02*
G75*
G03X79902Y-63838I-40J0D01*
G74*
G01*
X80334Y-64074D02*
X80334Y-63956D01*
X80334Y-64547D02*
X80334Y-64035D01*
X81120Y-64625D02*
X80100Y-64625D01*
X81120Y-63916D02*
X80100Y-63916D01*
G54D12*
X75827Y-76476D02*
X75630Y-76476D01*
X76063Y-76476D02*
X76417Y-76476D01*
X76063Y-76319D02*
X76063Y-76633D01*
X75827Y-76476D02*
X76063Y-76319D01*
X75827Y-76476D02*
X76063Y-76633D01*
G54D13*
X75276Y-76043D02*
G75*
G03X75276Y-76043I-40J0D01*
G74*
G01*
X75708Y-76279D02*
X75708Y-76161D01*
X75708Y-76752D02*
X75708Y-76240D01*
X76494Y-76830D02*
X75474Y-76830D01*
X76494Y-76121D02*
X75474Y-76121D01*
X77775Y-68227D02*
X78130Y-68582D01*
X78130Y-71141D02*
X77775Y-71495D01*
X74862Y-71495D02*
X74862Y-68228D01*
X77775Y-71496D02*
X74862Y-71496D01*
X78130Y-71141D02*
X78130Y-68584D01*
X77776Y-68229D02*
X74862Y-68229D01*
X78051Y-69881D02*
G75*
G03X78051Y-69881I-1575J0D01*
G74*
G01*
X79508Y-71535D02*
X79153Y-71180D01*
X79153Y-68621D02*
X79508Y-68267D01*
X82421Y-68267D02*
X82421Y-71534D01*
X79508Y-68266D02*
X82421Y-68266D01*
X79153Y-68621D02*
X79153Y-71178D01*
X79507Y-71533D02*
X82421Y-71533D01*
X82382Y-69881D02*
G75*
G03X82382Y-69881I-1575J0D01*
G74*
G01*
X77775Y-47558D02*
X78130Y-47913D01*
X78130Y-50472D02*
X77775Y-50826D01*
X74862Y-50826D02*
X74862Y-47559D01*
X77775Y-50827D02*
X74862Y-50827D01*
X78130Y-50472D02*
X78130Y-47915D01*
X77776Y-47560D02*
X74862Y-47560D01*
X78051Y-49212D02*
G75*
G03X78051Y-49212I-1575J0D01*
G74*
G01*
X85944Y-64350D02*
X86299Y-63995D01*
X88858Y-63995D02*
X89212Y-64350D01*
X89212Y-67263D02*
X85945Y-67263D01*
X89213Y-64350D02*
X89213Y-67263D01*
X88858Y-63995D02*
X86301Y-63995D01*
X85946Y-64349D02*
X85946Y-67263D01*
X89173Y-65649D02*
G75*
G03X89173Y-65649I-1575J0D01*
G74*
G01*
X89586Y-64350D02*
X89941Y-63995D01*
X92500Y-63995D02*
X92854Y-64350D01*
X92854Y-67263D02*
X89587Y-67263D01*
X92855Y-64350D02*
X92855Y-67263D01*
X92500Y-63995D02*
X89943Y-63995D01*
X89588Y-64349D02*
X89588Y-67263D01*
X92815Y-65649D02*
G75*
G03X92815Y-65649I-1575J0D01*
G74*
G01*
X77775Y-57893D02*
X78130Y-58248D01*
X78130Y-60807D02*
X77775Y-61161D01*
X74862Y-61161D02*
X74862Y-57894D01*
X77775Y-61162D02*
X74862Y-61162D01*
X78130Y-60807D02*
X78130Y-58250D01*
X77776Y-57895D02*
X74862Y-57895D01*
X78051Y-59547D02*
G75*
G03X78051Y-59547I-1575J0D01*
G74*
G01*
X85944Y-74094D02*
X86299Y-73739D01*
X88858Y-73739D02*
X89212Y-74094D01*
X89212Y-77007D02*
X85945Y-77007D01*
X89213Y-74094D02*
X89213Y-77007D01*
X88858Y-73739D02*
X86301Y-73739D01*
X85946Y-74093D02*
X85946Y-77007D01*
X89173Y-75393D02*
G75*
G03X89173Y-75393I-1575J0D01*
G74*
G01*
X89586Y-54606D02*
X89941Y-54251D01*
X92500Y-54251D02*
X92854Y-54606D01*
X92854Y-57519D02*
X89587Y-57519D01*
X92855Y-54606D02*
X92855Y-57519D01*
X92500Y-54251D02*
X89943Y-54251D01*
X89588Y-54605D02*
X89588Y-57519D01*
X92815Y-55905D02*
G75*
G03X92815Y-55905I-1575J0D01*
G74*
G01*
X85944Y-54606D02*
X86299Y-54251D01*
X88858Y-54251D02*
X89212Y-54606D01*
X89212Y-57519D02*
X85945Y-57519D01*
X89213Y-54606D02*
X89213Y-57519D01*
X88858Y-54251D02*
X86301Y-54251D01*
X85946Y-54605D02*
X85946Y-57519D01*
X89173Y-55905D02*
G75*
G03X89173Y-55905I-1575J0D01*
G74*
G01*
G54D14*
X81310Y-63648D02*
X81360Y-63648D01*
X81360Y-63648D02*
X81360Y-61548D01*
X79860Y-61548D02*
X79860Y-63648D01*
X79860Y-63648D02*
X81310Y-63648D01*
X80410Y-63648D02*
X80410Y-63448D01*
X80410Y-63448D02*
X80810Y-63448D01*
X80810Y-63448D02*
X80810Y-63648D01*
X79860Y-61548D02*
X81360Y-61548D01*
X79910Y-65682D02*
X79860Y-65682D01*
X79860Y-65682D02*
X79860Y-67782D01*
X81360Y-67782D02*
X81360Y-65682D01*
X81360Y-65682D02*
X79910Y-65682D01*
X80810Y-65682D02*
X80810Y-65882D01*
X80810Y-65882D02*
X80410Y-65882D01*
X80410Y-65882D02*
X80410Y-65682D01*
X81360Y-67782D02*
X79860Y-67782D01*
X81310Y-73983D02*
X81360Y-73983D01*
X81360Y-73983D02*
X81360Y-71883D01*
X79860Y-71883D02*
X79860Y-73983D01*
X79860Y-73983D02*
X81310Y-73983D01*
X80410Y-73983D02*
X80410Y-73783D01*
X80410Y-73783D02*
X80810Y-73783D01*
X80810Y-73783D02*
X80810Y-73983D01*
X79860Y-71883D02*
X81360Y-71883D01*
X79910Y-76016D02*
X79860Y-76016D01*
X79860Y-76016D02*
X79860Y-78116D01*
X81360Y-78116D02*
X81360Y-76016D01*
X81360Y-76016D02*
X79910Y-76016D01*
X80810Y-76016D02*
X80810Y-76216D01*
X80810Y-76216D02*
X80410Y-76216D01*
X80410Y-76216D02*
X80410Y-76016D01*
X81360Y-78116D02*
X79860Y-78116D01*
X79910Y-55347D02*
X79860Y-55347D01*
X79860Y-55347D02*
X79860Y-57447D01*
X81360Y-57447D02*
X81360Y-55347D01*
X81360Y-55347D02*
X79910Y-55347D01*
X80810Y-55347D02*
X80810Y-55547D01*
X80810Y-55547D02*
X80410Y-55547D01*
X80410Y-55547D02*
X80410Y-55347D01*
X81360Y-57447D02*
X79860Y-57447D01*
X81310Y-53313D02*
X81360Y-53313D01*
X81360Y-53313D02*
X81360Y-51213D01*
X79860Y-51213D02*
X79860Y-53313D01*
X79860Y-53313D02*
X81310Y-53313D01*
X80410Y-53313D02*
X80410Y-53113D01*
X80410Y-53113D02*
X80810Y-53113D01*
X80810Y-53113D02*
X80810Y-53313D01*
X79860Y-51213D02*
X81360Y-51213D01*
G54D13*
X79508Y-61201D02*
X79153Y-60846D01*
X79153Y-58287D02*
X79508Y-57933D01*
X82421Y-57933D02*
X82421Y-61200D01*
X79508Y-57932D02*
X82421Y-57932D01*
X79153Y-58287D02*
X79153Y-60844D01*
X79507Y-61199D02*
X82421Y-61199D01*
X82382Y-59547D02*
G75*
G03X82382Y-59547I-1575J0D01*
G74*
G01*
X79508Y-50866D02*
X79153Y-50511D01*
X79153Y-47952D02*
X79508Y-47598D01*
X82421Y-47598D02*
X82421Y-50865D01*
X79508Y-47597D02*
X82421Y-47597D01*
X79153Y-47952D02*
X79153Y-50509D01*
X79507Y-50864D02*
X82421Y-50864D01*
X82382Y-49212D02*
G75*
G03X82382Y-49212I-1575J0D01*
G74*
G01*
X74094Y-50905D02*
X73739Y-51260D01*
X71180Y-51260D02*
X70826Y-50905D01*
X70826Y-47992D02*
X74093Y-47992D01*
X70825Y-50905D02*
X70825Y-47992D01*
X71180Y-51260D02*
X73737Y-51260D01*
X74092Y-50906D02*
X74092Y-47992D01*
X74016Y-49606D02*
G75*
G03X74016Y-49606I-1575J0D01*
G74*
G01*
G54D14*
X77502Y-72289D02*
X78402Y-72289D01*
X78402Y-72289D02*
X78402Y-72789D01*
X78402Y-72789D02*
X77502Y-72789D01*
X77502Y-72789D02*
X77502Y-72289D01*
G54D13*
X89586Y-74094D02*
X89941Y-73739D01*
X92500Y-73739D02*
X92854Y-74094D01*
X92854Y-77007D02*
X89587Y-77007D01*
X92855Y-74094D02*
X92855Y-77007D01*
X92500Y-73739D02*
X89943Y-73739D01*
X89588Y-74093D02*
X89588Y-77007D01*
X92815Y-75393D02*
G75*
G03X92815Y-75393I-1575J0D01*
G74*
G01*
G54D14*
X65843Y-54925D02*
X65543Y-54725D01*
X66543Y-54925D02*
X65518Y-54925D01*
X65518Y-54925D02*
X65518Y-54325D01*
X65518Y-54325D02*
X66543Y-54325D01*
X66543Y-54325D02*
X66543Y-54925D01*
G54D12*
X63542Y-54921D02*
X63739Y-54921D01*
X63306Y-54921D02*
X62952Y-54921D01*
X63306Y-55078D02*
X63306Y-54764D01*
X63542Y-54921D02*
X63306Y-55078D01*
X63542Y-54921D02*
X63306Y-54764D01*
G54D13*
X64173Y-55354D02*
G75*
G03X64173Y-55354I-40J0D01*
G74*
G01*
X63661Y-55118D02*
X63661Y-55236D01*
X63661Y-54645D02*
X63661Y-55157D01*
X62875Y-54567D02*
X63895Y-54567D01*
X62875Y-55276D02*
X63895Y-55276D01*
G54D14*
X62446Y-55747D02*
G75*
G03X62446Y-55747I-50J0D01*
G74*
G01*
X62396Y-56197D02*
X62396Y-55797D01*
X62396Y-55797D02*
X62996Y-55797D01*
X62996Y-55797D02*
X62996Y-56197D01*
X62996Y-56597D02*
X62996Y-56997D01*
X62996Y-56997D02*
X62396Y-56997D01*
X62396Y-56997D02*
X62396Y-56597D01*
X63234Y-55747D02*
G75*
G03X63234Y-55747I-50J0D01*
G74*
G01*
X63184Y-56197D02*
X63184Y-55797D01*
X63184Y-55797D02*
X63784Y-55797D01*
X63784Y-55797D02*
X63784Y-56197D01*
X63784Y-56597D02*
X63784Y-56997D01*
X63784Y-56997D02*
X63184Y-56997D01*
X63184Y-56997D02*
X63184Y-56597D01*
X67072Y-54074D02*
G75*
G03X67072Y-54074I-50J0D01*
G74*
G01*
X67022Y-54524D02*
X67022Y-54124D01*
X67022Y-54124D02*
X67622Y-54124D01*
X67622Y-54124D02*
X67622Y-54524D01*
X67622Y-54924D02*
X67622Y-55324D01*
X67622Y-55324D02*
X67022Y-55324D01*
X67022Y-55324D02*
X67022Y-54924D01*
X68658Y-53301D02*
X67758Y-53301D01*
X67758Y-53301D02*
X67758Y-52801D01*
X67758Y-52801D02*
X68658Y-52801D01*
X68658Y-52801D02*
X68658Y-53301D01*
X64918Y-56253D02*
X64018Y-56253D01*
X64018Y-56253D02*
X64018Y-55753D01*
X64018Y-55753D02*
X64918Y-55753D01*
X64918Y-55753D02*
X64918Y-56253D01*
X66296Y-56450D02*
X65396Y-56450D01*
X65396Y-56450D02*
X65396Y-55950D01*
X65396Y-55950D02*
X66296Y-55950D01*
X66296Y-55950D02*
X66296Y-56450D01*
X64313Y-54671D02*
X65213Y-54671D01*
X65213Y-54671D02*
X65213Y-55171D01*
X65213Y-55171D02*
X64313Y-55171D01*
X64313Y-55171D02*
X64313Y-54671D01*
X72387Y-65509D02*
X72387Y-64609D01*
X72387Y-64609D02*
X72887Y-64609D01*
X72887Y-64609D02*
X72887Y-65509D01*
X72887Y-65509D02*
X72387Y-65509D01*
X71600Y-65509D02*
X71600Y-64609D01*
X71600Y-64609D02*
X72100Y-64609D01*
X72100Y-64609D02*
X72100Y-65509D01*
X72100Y-65509D02*
X71600Y-65509D01*
X70812Y-65509D02*
X70812Y-64609D01*
X70812Y-64609D02*
X71312Y-64609D01*
X71312Y-64609D02*
X71312Y-65509D01*
X71312Y-65509D02*
X70812Y-65509D01*
X70320Y-67280D02*
X70320Y-66380D01*
X70320Y-66380D02*
X70820Y-66380D01*
X70820Y-66380D02*
X70820Y-67280D01*
X70820Y-67280D02*
X70320Y-67280D01*
X72986Y-66380D02*
X72986Y-67280D01*
X72986Y-67280D02*
X72486Y-67280D01*
X72486Y-67280D02*
X72486Y-66380D01*
X72486Y-66380D02*
X72986Y-66380D01*
X72486Y-68264D02*
X72486Y-67364D01*
X72486Y-67364D02*
X72986Y-67364D01*
X72986Y-67364D02*
X72986Y-68264D01*
X72986Y-68264D02*
X72486Y-68264D01*
X63340Y-65888D02*
X63340Y-66788D01*
X63340Y-66788D02*
X62840Y-66788D01*
X62840Y-66788D02*
X62840Y-65888D01*
X62840Y-65888D02*
X63340Y-65888D01*
X63438Y-64018D02*
X63438Y-64918D01*
X63438Y-64918D02*
X62938Y-64918D01*
X62938Y-64918D02*
X62938Y-64018D01*
X62938Y-64018D02*
X63438Y-64018D01*
G54D12*
X66397Y-53051D02*
X66555Y-53051D01*
X65964Y-53050D02*
X66319Y-53365D01*
X66319Y-53366D02*
X66319Y-52736D01*
X66319Y-52735D02*
X66004Y-53011D01*
X66004Y-53051D02*
X65846Y-53051D01*
G54D13*
X67125Y-52499D02*
X65355Y-52499D01*
X64590Y-51929D02*
G75*
G03X64590Y-51929I-43J0D01*
G74*
G01*
X65965Y-53602D02*
X65965Y-52500D01*
X67125Y-53602D02*
X65355Y-53602D01*
G54D14*
X70616Y-70135D02*
X70616Y-69235D01*
X70616Y-69235D02*
X71116Y-69235D01*
X71116Y-69235D02*
X71116Y-70135D01*
X71116Y-70135D02*
X70616Y-70135D01*
X93942Y-66001D02*
X93942Y-65101D01*
X93942Y-65101D02*
X94442Y-65101D01*
X94442Y-65101D02*
X94442Y-66001D01*
X94442Y-66001D02*
X93942Y-66001D01*
X93844Y-56257D02*
X93844Y-55357D01*
X93844Y-55357D02*
X94344Y-55357D01*
X94344Y-55357D02*
X94344Y-56257D01*
X94344Y-56257D02*
X93844Y-56257D01*
X71600Y-70135D02*
X71600Y-69235D01*
X71600Y-69235D02*
X72100Y-69235D01*
X72100Y-69235D02*
X72100Y-70135D01*
X72100Y-70135D02*
X71600Y-70135D01*
X69139Y-64327D02*
X69139Y-63427D01*
X69139Y-63427D02*
X69639Y-63427D01*
X69639Y-63427D02*
X69639Y-64327D01*
X69639Y-64327D02*
X69139Y-64327D01*
X66296Y-57238D02*
X65396Y-57238D01*
X65396Y-57238D02*
X65396Y-56738D01*
X65396Y-56738D02*
X66296Y-56738D01*
X66296Y-56738D02*
X66296Y-57238D01*
X70427Y-48565D02*
X70427Y-49465D01*
X70427Y-49465D02*
X69927Y-49465D01*
X69927Y-49465D02*
X69927Y-48565D01*
X69927Y-48565D02*
X70427Y-48565D01*
X93844Y-75745D02*
X93844Y-74845D01*
X93844Y-74845D02*
X94344Y-74845D01*
X94344Y-74845D02*
X94344Y-75745D01*
X94344Y-75745D02*
X93844Y-75745D01*
X62840Y-73973D02*
X62840Y-73073D01*
X62840Y-73073D02*
X63340Y-73073D01*
X63340Y-73073D02*
X63340Y-73973D01*
X63340Y-73973D02*
X62840Y-73973D01*
G54D15*
X70000Y-50019D02*
X70354Y-50019D01*
X70354Y-50019D02*
X70354Y-49862D01*
X70000Y-49862D02*
X70354Y-49862D01*
X70000Y-50019D02*
X70000Y-49862D01*
X70000Y-50530D02*
X70354Y-50530D01*
X70354Y-50530D02*
X70354Y-50373D01*
X70000Y-50373D02*
X70354Y-50373D01*
X70000Y-50530D02*
X70000Y-50373D01*
X70000Y-50196D02*
X70059Y-50196D01*
X70059Y-50196D02*
X70059Y-50078D01*
X70000Y-50078D02*
X70059Y-50078D01*
X70000Y-50196D02*
X70000Y-50078D01*
X70295Y-50196D02*
X70354Y-50196D01*
X70354Y-50196D02*
X70354Y-50078D01*
X70295Y-50078D02*
X70354Y-50078D01*
X70295Y-50196D02*
X70295Y-50078D01*
X70118Y-50196D02*
X70236Y-50196D01*
X70236Y-50196D02*
X70236Y-50078D01*
X70118Y-50078D02*
X70236Y-50078D01*
X70118Y-50196D02*
X70118Y-50078D01*
G54D16*
X70020Y-50019D02*
X70020Y-50373D01*
X70334Y-50019D02*
X70334Y-50373D01*
G54D15*
X64645Y-56614D02*
X64645Y-56968D01*
X64645Y-56968D02*
X64802Y-56968D01*
X64802Y-56614D02*
X64802Y-56968D01*
X64645Y-56614D02*
X64802Y-56614D01*
X64134Y-56614D02*
X64134Y-56968D01*
X64134Y-56968D02*
X64291Y-56968D01*
X64291Y-56614D02*
X64291Y-56968D01*
X64134Y-56614D02*
X64291Y-56614D01*
X64468Y-56614D02*
X64468Y-56673D01*
X64468Y-56673D02*
X64586Y-56673D01*
X64586Y-56614D02*
X64586Y-56673D01*
X64468Y-56614D02*
X64586Y-56614D01*
X64468Y-56909D02*
X64468Y-56968D01*
X64468Y-56968D02*
X64586Y-56968D01*
X64586Y-56909D02*
X64586Y-56968D01*
X64468Y-56909D02*
X64586Y-56909D01*
X64468Y-56732D02*
X64468Y-56850D01*
X64468Y-56850D02*
X64586Y-56850D01*
X64586Y-56732D02*
X64586Y-56850D01*
X64468Y-56732D02*
X64586Y-56732D01*
G54D16*
X64645Y-56634D02*
X64291Y-56634D01*
X64645Y-56948D02*
X64291Y-56948D01*
G54D15*
X94271Y-54901D02*
X93917Y-54901D01*
X93917Y-54901D02*
X93917Y-55058D01*
X94271Y-55058D02*
X93917Y-55058D01*
X94271Y-54901D02*
X94271Y-55058D01*
X94271Y-54390D02*
X93917Y-54390D01*
X93917Y-54390D02*
X93917Y-54547D01*
X94271Y-54547D02*
X93917Y-54547D01*
X94271Y-54390D02*
X94271Y-54547D01*
X94271Y-54724D02*
X94212Y-54724D01*
X94212Y-54724D02*
X94212Y-54842D01*
X94271Y-54842D02*
X94212Y-54842D01*
X94271Y-54724D02*
X94271Y-54842D01*
X93976Y-54724D02*
X93917Y-54724D01*
X93917Y-54724D02*
X93917Y-54842D01*
X93976Y-54842D02*
X93917Y-54842D01*
X93976Y-54724D02*
X93976Y-54842D01*
X94153Y-54724D02*
X94035Y-54724D01*
X94035Y-54724D02*
X94035Y-54842D01*
X94153Y-54842D02*
X94035Y-54842D01*
X94153Y-54724D02*
X94153Y-54842D01*
G54D16*
X94251Y-54901D02*
X94251Y-54547D01*
X93937Y-54901D02*
X93937Y-54547D01*
G54D15*
X94369Y-64645D02*
X94015Y-64645D01*
X94015Y-64645D02*
X94015Y-64802D01*
X94369Y-64802D02*
X94015Y-64802D01*
X94369Y-64645D02*
X94369Y-64802D01*
X94369Y-64134D02*
X94015Y-64134D01*
X94015Y-64134D02*
X94015Y-64291D01*
X94369Y-64291D02*
X94015Y-64291D01*
X94369Y-64134D02*
X94369Y-64291D01*
X94369Y-64468D02*
X94310Y-64468D01*
X94310Y-64468D02*
X94310Y-64586D01*
X94369Y-64586D02*
X94310Y-64586D01*
X94369Y-64468D02*
X94369Y-64586D01*
X94074Y-64468D02*
X94015Y-64468D01*
X94015Y-64468D02*
X94015Y-64586D01*
X94074Y-64586D02*
X94015Y-64586D01*
X94074Y-64468D02*
X94074Y-64586D01*
X94251Y-64468D02*
X94133Y-64468D01*
X94133Y-64468D02*
X94133Y-64586D01*
X94251Y-64586D02*
X94133Y-64586D01*
X94251Y-64468D02*
X94251Y-64586D01*
G54D16*
X94349Y-64645D02*
X94349Y-64291D01*
X94035Y-64645D02*
X94035Y-64291D01*
G54D15*
X94271Y-74389D02*
X93917Y-74389D01*
X93917Y-74389D02*
X93917Y-74546D01*
X94271Y-74546D02*
X93917Y-74546D01*
X94271Y-74389D02*
X94271Y-74546D01*
X94271Y-73878D02*
X93917Y-73878D01*
X93917Y-73878D02*
X93917Y-74035D01*
X94271Y-74035D02*
X93917Y-74035D01*
X94271Y-73878D02*
X94271Y-74035D01*
X94271Y-74212D02*
X94212Y-74212D01*
X94212Y-74212D02*
X94212Y-74330D01*
X94271Y-74330D02*
X94212Y-74330D01*
X94271Y-74212D02*
X94271Y-74330D01*
X93976Y-74212D02*
X93917Y-74212D01*
X93917Y-74212D02*
X93917Y-74330D01*
X93976Y-74330D02*
X93917Y-74330D01*
X93976Y-74212D02*
X93976Y-74330D01*
X94153Y-74212D02*
X94035Y-74212D01*
X94035Y-74212D02*
X94035Y-74330D01*
X94153Y-74330D02*
X94035Y-74330D01*
X94153Y-74212D02*
X94153Y-74330D01*
G54D16*
X94251Y-74389D02*
X94251Y-74035D01*
X93937Y-74389D02*
X93937Y-74035D01*
G54D17*
X94955Y-69452D02*
X94055Y-69452D01*
X94055Y-67752D02*
X94955Y-67752D01*
X92755Y-69452D02*
X91855Y-69452D01*
X91855Y-67752D02*
X92755Y-67752D01*
X91855Y-69452D02*
X91855Y-67752D01*
X94955Y-67752D02*
X94955Y-69452D01*
X94955Y-59708D02*
X94055Y-59708D01*
X94055Y-58008D02*
X94955Y-58008D01*
X92755Y-59708D02*
X91855Y-59708D01*
X91855Y-58008D02*
X92755Y-58008D01*
X91855Y-59708D02*
X91855Y-58008D01*
X94955Y-58008D02*
X94955Y-59708D01*
X92002Y-49767D02*
X91102Y-49767D01*
X91102Y-48067D02*
X92002Y-48067D01*
X89802Y-49767D02*
X88902Y-49767D01*
X88902Y-48067D02*
X89802Y-48067D01*
X88902Y-49767D02*
X88902Y-48067D01*
X92002Y-48067D02*
X92002Y-49767D01*
G54D12*
X71358Y-68680D02*
X71358Y-68523D01*
X71240Y-68719D02*
X71240Y-68444D01*
X71476Y-68444D02*
X71476Y-68719D01*
G54D18*
X71201Y-68601D02*
X71083Y-68601D01*
X71634Y-68601D02*
X71516Y-68601D01*
X71240Y-68601D02*
X71122Y-68601D01*
X71594Y-68601D02*
X71476Y-68601D01*
G54D12*
X71633Y-68956D02*
X71082Y-68956D01*
X71633Y-68247D02*
X71082Y-68247D01*
G54D14*
X65594Y-64426D02*
X65594Y-64116D01*
X65334Y-64116D02*
X65594Y-64116D01*
X64784Y-64351D02*
X64524Y-64351D01*
X65334Y-63601D02*
X65594Y-63601D01*
X65334Y-64426D02*
X65594Y-64426D01*
X64784Y-63601D02*
X64524Y-63601D01*
X64784Y-64566D02*
X64784Y-63386D01*
X64784Y-63386D02*
X65334Y-63386D01*
X65334Y-63386D02*
X65334Y-64566D01*
X65334Y-64566D02*
X64784Y-64566D01*
G54D15*
X64677Y-69531D02*
X64877Y-69531D01*
X64877Y-69531D02*
X64877Y-69481D01*
X64677Y-69481D02*
X64877Y-69481D01*
X64677Y-69531D02*
X64677Y-69481D01*
X64677Y-70111D02*
X64877Y-70111D01*
X64877Y-70111D02*
X64877Y-69531D01*
X64677Y-69531D02*
X64877Y-69531D01*
X64677Y-70111D02*
X64677Y-69531D01*
X65177Y-69531D02*
X65377Y-69531D01*
X65377Y-69531D02*
X65377Y-69481D01*
X65177Y-69481D02*
X65377Y-69481D01*
X65177Y-69531D02*
X65177Y-69481D01*
X65177Y-70111D02*
X65377Y-70111D01*
X65377Y-70111D02*
X65377Y-69531D01*
X65177Y-69531D02*
X65377Y-69531D01*
X65177Y-70111D02*
X65177Y-69531D01*
X65677Y-69531D02*
X65877Y-69531D01*
X65877Y-69531D02*
X65877Y-69481D01*
X65677Y-69481D02*
X65877Y-69481D01*
X65677Y-69531D02*
X65677Y-69481D01*
X65677Y-70111D02*
X65877Y-70111D01*
X65877Y-70111D02*
X65877Y-69531D01*
X65677Y-69531D02*
X65877Y-69531D01*
X65677Y-70111D02*
X65677Y-69531D01*
X66177Y-69531D02*
X66377Y-69531D01*
X66377Y-69531D02*
X66377Y-69481D01*
X66177Y-69481D02*
X66377Y-69481D01*
X66177Y-69531D02*
X66177Y-69481D01*
X66177Y-70111D02*
X66377Y-70111D01*
X66377Y-70111D02*
X66377Y-69531D01*
X66177Y-69531D02*
X66377Y-69531D01*
X66177Y-70111D02*
X66177Y-69531D01*
X66677Y-70111D02*
X66877Y-70111D01*
X66877Y-70111D02*
X66877Y-69531D01*
X66677Y-69531D02*
X66877Y-69531D01*
X66677Y-70111D02*
X66677Y-69531D01*
X66677Y-69531D02*
X66877Y-69531D01*
X66877Y-69531D02*
X66877Y-69481D01*
X66677Y-69481D02*
X66877Y-69481D01*
X66677Y-69531D02*
X66677Y-69481D01*
X67177Y-69531D02*
X67377Y-69531D01*
X67377Y-69531D02*
X67377Y-69481D01*
X67177Y-69481D02*
X67377Y-69481D01*
X67177Y-69531D02*
X67177Y-69481D01*
X67177Y-70111D02*
X67377Y-70111D01*
X67377Y-70111D02*
X67377Y-69531D01*
X67177Y-69531D02*
X67377Y-69531D01*
X67177Y-70111D02*
X67177Y-69531D01*
X67677Y-69531D02*
X67877Y-69531D01*
X67877Y-69531D02*
X67877Y-69481D01*
X67677Y-69481D02*
X67877Y-69481D01*
X67677Y-69531D02*
X67677Y-69481D01*
X67677Y-70111D02*
X67877Y-70111D01*
X67877Y-70111D02*
X67877Y-69531D01*
X67677Y-69531D02*
X67877Y-69531D01*
X67677Y-70111D02*
X67677Y-69531D01*
X68177Y-69531D02*
X68377Y-69531D01*
X68377Y-69531D02*
X68377Y-69481D01*
X68177Y-69481D02*
X68377Y-69481D01*
X68177Y-69531D02*
X68177Y-69481D01*
X68177Y-70111D02*
X68377Y-70111D01*
X68377Y-70111D02*
X68377Y-69531D01*
X68177Y-69531D02*
X68377Y-69531D01*
X68177Y-70111D02*
X68177Y-69531D01*
X64677Y-66491D02*
X64877Y-66491D01*
X64877Y-66491D02*
X64877Y-65911D01*
X64677Y-65911D02*
X64877Y-65911D01*
X64677Y-66491D02*
X64677Y-65911D01*
X64677Y-66541D02*
X64877Y-66541D01*
X64877Y-66541D02*
X64877Y-66491D01*
X64677Y-66491D02*
X64877Y-66491D01*
X64677Y-66541D02*
X64677Y-66491D01*
X65177Y-66541D02*
X65377Y-66541D01*
X65377Y-66541D02*
X65377Y-66491D01*
X65177Y-66491D02*
X65377Y-66491D01*
X65177Y-66541D02*
X65177Y-66491D01*
X65177Y-66491D02*
X65377Y-66491D01*
X65377Y-66491D02*
X65377Y-65911D01*
X65177Y-65911D02*
X65377Y-65911D01*
X65177Y-66491D02*
X65177Y-65911D01*
X65677Y-66541D02*
X65877Y-66541D01*
X65877Y-66541D02*
X65877Y-66491D01*
X65677Y-66491D02*
X65877Y-66491D01*
X65677Y-66541D02*
X65677Y-66491D01*
X65677Y-66491D02*
X65877Y-66491D01*
X65877Y-66491D02*
X65877Y-65911D01*
X65677Y-65911D02*
X65877Y-65911D01*
X65677Y-66491D02*
X65677Y-65911D01*
X66177Y-66541D02*
X66377Y-66541D01*
X66377Y-66541D02*
X66377Y-66491D01*
X66177Y-66491D02*
X66377Y-66491D01*
X66177Y-66541D02*
X66177Y-66491D01*
X66177Y-66491D02*
X66377Y-66491D01*
X66377Y-66491D02*
X66377Y-65911D01*
X66177Y-65911D02*
X66377Y-65911D01*
X66177Y-66491D02*
X66177Y-65911D01*
X66677Y-66541D02*
X66877Y-66541D01*
X66877Y-66541D02*
X66877Y-66491D01*
X66677Y-66491D02*
X66877Y-66491D01*
X66677Y-66541D02*
X66677Y-66491D01*
X66677Y-66491D02*
X66877Y-66491D01*
X66877Y-66491D02*
X66877Y-65911D01*
X66677Y-65911D02*
X66877Y-65911D01*
X66677Y-66491D02*
X66677Y-65911D01*
X67177Y-66541D02*
X67377Y-66541D01*
X67377Y-66541D02*
X67377Y-66491D01*
X67177Y-66491D02*
X67377Y-66491D01*
X67177Y-66541D02*
X67177Y-66491D01*
X67177Y-66491D02*
X67377Y-66491D01*
X67377Y-66491D02*
X67377Y-65911D01*
X67177Y-65911D02*
X67377Y-65911D01*
X67177Y-66491D02*
X67177Y-65911D01*
X67677Y-66541D02*
X67877Y-66541D01*
X67877Y-66541D02*
X67877Y-66491D01*
X67677Y-66491D02*
X67877Y-66491D01*
X67677Y-66541D02*
X67677Y-66491D01*
X67677Y-66491D02*
X67877Y-66491D01*
X67877Y-66491D02*
X67877Y-65911D01*
X67677Y-65911D02*
X67877Y-65911D01*
X67677Y-66491D02*
X67677Y-65911D01*
X68177Y-66541D02*
X68377Y-66541D01*
X68377Y-66541D02*
X68377Y-66491D01*
X68177Y-66491D02*
X68377Y-66491D01*
X68177Y-66541D02*
X68177Y-66491D01*
X68177Y-66491D02*
X68377Y-66491D01*
X68377Y-66491D02*
X68377Y-65911D01*
X68177Y-65911D02*
X68377Y-65911D01*
X68177Y-66491D02*
X68177Y-65911D01*
X68677Y-66541D02*
X68877Y-66541D01*
X68877Y-66541D02*
X68877Y-66491D01*
X68677Y-66491D02*
X68877Y-66491D01*
X68677Y-66541D02*
X68677Y-66491D01*
X69177Y-66541D02*
X69377Y-66541D01*
X69377Y-66541D02*
X69377Y-66491D01*
X69177Y-66491D02*
X69377Y-66491D01*
X69177Y-66541D02*
X69177Y-66491D01*
X68677Y-66491D02*
X68877Y-66491D01*
X68877Y-66491D02*
X68877Y-65911D01*
X68677Y-65911D02*
X68877Y-65911D01*
X68677Y-66491D02*
X68677Y-65911D01*
X69177Y-66491D02*
X69377Y-66491D01*
X69377Y-66491D02*
X69377Y-65911D01*
X69177Y-65911D02*
X69377Y-65911D01*
X69177Y-66491D02*
X69177Y-65911D01*
X68677Y-69531D02*
X68877Y-69531D01*
X68877Y-69531D02*
X68877Y-69481D01*
X68677Y-69481D02*
X68877Y-69481D01*
X68677Y-69531D02*
X68677Y-69481D01*
X69177Y-69531D02*
X69377Y-69531D01*
X69377Y-69531D02*
X69377Y-69481D01*
X69177Y-69481D02*
X69377Y-69481D01*
X69177Y-69531D02*
X69177Y-69481D01*
X68677Y-70111D02*
X68877Y-70111D01*
X68877Y-70111D02*
X68877Y-69531D01*
X68677Y-69531D02*
X68877Y-69531D01*
X68677Y-70111D02*
X68677Y-69531D01*
X69177Y-70111D02*
X69377Y-70111D01*
X69377Y-70111D02*
X69377Y-69531D01*
X69177Y-69531D02*
X69377Y-69531D01*
X69177Y-70111D02*
X69177Y-69531D01*
G54D19*
X69437Y-66541D02*
X64617Y-66541D01*
X64617Y-69481D02*
X69437Y-69481D01*
X69587Y-69331D02*
X69587Y-66691D01*
X64467Y-66691D02*
X64467Y-69331D01*
G54D20*
X64477Y-69341D02*
X69577Y-69341D01*
G54D19*
X69437Y-69481D02*
G75*
G03X69587Y-69331I0J150D01*
G74*
G01*
X64617Y-66541D02*
G75*
G03X64467Y-66691I0J-150D01*
G74*
G01*
X69587Y-66691D02*
G75*
G03X69437Y-66541I-150J0D01*
G74*
G01*
X64467Y-69331D02*
G75*
G03X64617Y-69481I150J0D01*
G74*
G01*
X64467Y-68511D02*
G75*
G03X64467Y-67511I0J500D01*
G74*
G01*
G54D14*
X66380Y-56738D02*
X67280Y-56738D01*
X67280Y-56738D02*
X67280Y-57238D01*
X67280Y-57238D02*
X66380Y-57238D01*
X66380Y-57238D02*
X66380Y-56738D01*
X66380Y-57722D02*
X67280Y-57722D01*
X67280Y-57722D02*
X67280Y-58222D01*
X67280Y-58222D02*
X66380Y-58222D01*
X66380Y-58222D02*
X66380Y-57722D01*
X66380Y-58706D02*
X67280Y-58706D01*
X67280Y-58706D02*
X67280Y-59206D01*
X67280Y-59206D02*
X66380Y-59206D01*
X66380Y-59206D02*
X66380Y-58706D01*
X66380Y-60183D02*
X67280Y-60183D01*
X67280Y-60183D02*
X67280Y-60683D01*
X67280Y-60683D02*
X66380Y-60683D01*
X66380Y-60683D02*
X66380Y-60183D01*
G54D19*
X62091Y-67279D02*
G75*
G02X62291Y-67079I200J0D01*
G74*
G01*
X62291Y-72779D02*
G75*
G02X62091Y-72579I0J200D01*
G74*
G01*
X62291Y-72779D02*
X62571Y-72779D01*
X62291Y-67079D02*
X62571Y-67079D01*
X62091Y-67279D02*
X62091Y-72579D01*
X64090Y-72580D02*
X64090Y-67280D01*
X63890Y-72780D02*
X63610Y-72780D01*
X63890Y-67080D02*
X63610Y-67080D01*
X63890Y-67080D02*
G75*
G02X64090Y-67280I0J-200D01*
G74*
G01*
X64090Y-72580D02*
G75*
G02X63890Y-72780I-200J0D01*
G74*
G01*
X64822Y-52106D02*
X64822Y-53996D01*
X64822Y-53996D02*
X62933Y-53996D01*
X62933Y-53996D02*
X62933Y-52106D01*
X62933Y-52106D02*
X64822Y-52106D01*
G54D15*
X71211Y-67794D02*
X71329Y-67794D01*
X71329Y-67794D02*
X71329Y-67440D01*
X71211Y-67440D02*
X71329Y-67440D01*
X71211Y-67794D02*
X71211Y-67440D01*
X71466Y-67794D02*
X71585Y-67794D01*
X71585Y-67794D02*
X71585Y-67440D01*
X71466Y-67440D02*
X71585Y-67440D01*
X71466Y-67794D02*
X71466Y-67440D01*
X71721Y-67794D02*
X71840Y-67794D01*
X71840Y-67794D02*
X71840Y-67440D01*
X71721Y-67440D02*
X71840Y-67440D01*
X71721Y-67794D02*
X71721Y-67440D01*
X71977Y-67794D02*
X72095Y-67794D01*
X72095Y-67794D02*
X72095Y-67440D01*
X71977Y-67440D02*
X72095Y-67440D01*
X71977Y-67794D02*
X71977Y-67440D01*
X71977Y-66220D02*
X72095Y-66220D01*
X72095Y-66220D02*
X72095Y-65866D01*
X71977Y-65866D02*
X72095Y-65866D01*
X71977Y-66220D02*
X71977Y-65866D01*
X71721Y-66220D02*
X71840Y-66220D01*
X71840Y-66220D02*
X71840Y-65866D01*
X71721Y-65866D02*
X71840Y-65866D01*
X71721Y-66220D02*
X71721Y-65866D01*
X71466Y-66220D02*
X71585Y-66220D01*
X71585Y-66220D02*
X71585Y-65866D01*
X71466Y-65866D02*
X71585Y-65866D01*
X71466Y-66220D02*
X71466Y-65866D01*
X71211Y-66220D02*
X71329Y-66220D01*
X71329Y-66220D02*
X71329Y-65866D01*
X71211Y-65866D02*
X71329Y-65866D01*
X71211Y-66220D02*
X71211Y-65866D01*
G54D21*
X71063Y-67420D02*
X72243Y-67420D01*
X72243Y-67420D02*
X72243Y-66240D01*
X72243Y-66240D02*
X71063Y-66240D01*
X71063Y-66240D02*
X71063Y-67420D01*
G54D10*
X71256Y-67282D02*
G75*
G03X71256Y-67282I-55J0D01*
G74*
G01*
G54D22*
X94482Y-48819D02*
G75*
G03X94482Y-48819I-860J0D01*
G74*
G01*
X64639Y-77854D02*
G75*
G03X64639Y-77854I-860J0D01*
G74*
G01*
X94520Y-77854D02*
G75*
G03X94520Y-77854I-860J0D01*
G74*
G01*
G54D23*
X95511Y-51968D02*
X90984Y-51968D01*
X95511Y-50314D02*
X90984Y-50314D01*
X90984Y-50314D02*
X90984Y-53622D01*
X90984Y-53622D02*
X95511Y-53622D01*
X95511Y-53622D02*
X95511Y-50314D01*
X95413Y-71456D02*
X90885Y-71456D01*
X95413Y-69803D02*
X90885Y-69803D01*
X90885Y-69803D02*
X90885Y-73110D01*
X90885Y-73110D02*
X95413Y-73110D01*
X95413Y-73110D02*
X95413Y-69803D01*
X95511Y-61712D02*
X90984Y-61712D01*
X95511Y-60059D02*
X90984Y-60059D01*
X90984Y-60059D02*
X90984Y-63366D01*
X90984Y-63366D02*
X95511Y-63366D01*
X95511Y-63366D02*
X95511Y-60059D01*
G54D12*
X65039Y-61062D02*
X65118Y-61062D01*
X65039Y-60748D02*
X65118Y-60748D01*
X65039Y-60433D02*
X65118Y-60433D01*
X65039Y-60118D02*
X65118Y-60118D01*
X65039Y-59803D02*
X65118Y-59803D01*
X65039Y-61968D02*
X65039Y-62480D01*
X65039Y-62480D02*
X64330Y-62480D01*
X64330Y-62480D02*
X64330Y-61968D01*
X64330Y-58897D02*
X64330Y-58385D01*
X64330Y-58385D02*
X65039Y-58385D01*
X65039Y-58385D02*
X65039Y-58897D01*
X62165Y-61968D02*
X62165Y-62480D01*
X62165Y-62480D02*
X62952Y-62480D01*
X62952Y-62480D02*
X62952Y-61968D01*
X62165Y-58897D02*
X62165Y-58385D01*
X62165Y-58385D02*
X62952Y-58385D01*
X62952Y-58385D02*
X62952Y-58897D01*
X65039Y-58897D02*
X65039Y-61968D01*
X65039Y-61968D02*
X61377Y-61968D01*
X61377Y-61968D02*
X61377Y-58897D01*
X61377Y-58897D02*
X65039Y-58897D01*
G54D24*
X93755Y-74961D02*
G75*
G03X93755Y-74961I-50J0D01*
G74*
G01*
X93705Y-74511D02*
X93705Y-74911D01*
X93705Y-74911D02*
X93105Y-74911D01*
X93105Y-74911D02*
X93105Y-74511D01*
X93105Y-74111D02*
X93105Y-73711D01*
X93105Y-73711D02*
X93705Y-73711D01*
X93705Y-73711D02*
X93705Y-74111D01*
X65202Y-70708D02*
G75*
G03X65202Y-70708I-50J0D01*
G74*
G01*
X65152Y-71158D02*
X65152Y-70758D01*
X65152Y-70758D02*
X65752Y-70758D01*
X65752Y-70758D02*
X65752Y-71158D01*
X65752Y-71558D02*
X65752Y-71958D01*
X65752Y-71958D02*
X65152Y-71958D01*
X65152Y-71958D02*
X65152Y-71558D01*
X67574Y-65315D02*
G75*
G03X67574Y-65315I-50J0D01*
G74*
G01*
X67524Y-64865D02*
X67524Y-65265D01*
X67524Y-65265D02*
X66924Y-65265D01*
X66924Y-65265D02*
X66924Y-64865D01*
X66924Y-64465D02*
X66924Y-64065D01*
X66924Y-64065D02*
X67524Y-64065D01*
X67524Y-64065D02*
X67524Y-64465D01*
G54D14*
X66785Y-64313D02*
X66785Y-65213D01*
X66785Y-65213D02*
X66285Y-65213D01*
X66285Y-65213D02*
X66285Y-64313D01*
X66285Y-64313D02*
X66785Y-64313D01*
X64513Y-71709D02*
X64513Y-70809D01*
X64513Y-70809D02*
X65013Y-70809D01*
X65013Y-70809D02*
X65013Y-71709D01*
X65013Y-71709D02*
X64513Y-71709D01*
G54D10*
X62885Y-47712D02*
X62885Y-48712D01*
X63885Y-48712D01*
X63885Y-47712D01*
X62885Y-47712D01*
X63885Y-50212D02*
G75*
G03X63885Y-50212I-499J0D01*
G74*
G01*
X94212Y-48819D02*
G75*
G03X94212Y-48819I-590J0D01*
G74*
G01*
X64369Y-77854D02*
G75*
G03X64369Y-77854I-590J0D01*
G74*
G01*
X94250Y-77854D02*
G75*
G03X94250Y-77854I-590J0D01*
G74*
G01*
X70759Y-51501D02*
X70759Y-51553D01*
X71695Y-51553D01*
X71695Y-51501D01*
X70759Y-51501D01*
X70707Y-51553D02*
X70707Y-51605D01*
X70759Y-51605D01*
X70759Y-51553D01*
X70707Y-51553D01*
X71695Y-51553D02*
X71695Y-51605D01*
X71747Y-51605D01*
X71747Y-51553D01*
X71695Y-51553D01*
X71695Y-51605D02*
X71695Y-51657D01*
X71747Y-51657D01*
X71747Y-51605D01*
X71695Y-51605D01*
X70655Y-51657D02*
X70655Y-51709D01*
X70707Y-51709D01*
X70707Y-51657D01*
X70655Y-51657D01*
X71747Y-51657D02*
X71747Y-51709D01*
X71799Y-51709D01*
X71799Y-51657D01*
X71747Y-51657D01*
X70603Y-51761D02*
X70603Y-51813D01*
X70655Y-51813D01*
X70655Y-51761D01*
X70603Y-51761D01*
X71799Y-51761D02*
X71799Y-51813D01*
X71851Y-51813D01*
X71851Y-51761D01*
X71799Y-51761D01*
X70551Y-51813D02*
X70551Y-51865D01*
X70603Y-51865D01*
X70603Y-51813D01*
X70551Y-51813D01*
X70551Y-51865D02*
X70551Y-51917D01*
X70603Y-51917D01*
X70603Y-51865D01*
X70551Y-51865D01*
X71851Y-51865D02*
X71851Y-51917D01*
X71903Y-51917D01*
X71903Y-51865D01*
X71851Y-51865D01*
X70499Y-51917D02*
X70499Y-51969D01*
X70551Y-51969D01*
X70551Y-51917D01*
X70499Y-51917D01*
X71903Y-51917D02*
X71903Y-51969D01*
X71955Y-51969D01*
X71955Y-51917D01*
X71903Y-51917D01*
X70499Y-51969D02*
X70499Y-52021D01*
X70551Y-52021D01*
X70551Y-51969D01*
X70499Y-51969D01*
X70447Y-52021D02*
X70447Y-52073D01*
X70499Y-52073D01*
X70499Y-52021D01*
X70447Y-52021D01*
X71955Y-52021D02*
X71955Y-52073D01*
X72007Y-52073D01*
X72007Y-52021D01*
X71955Y-52021D01*
X70447Y-52073D02*
X70447Y-52125D01*
X70499Y-52125D01*
X70499Y-52073D01*
X70447Y-52073D01*
X70395Y-52125D02*
X70395Y-52177D01*
X70447Y-52177D01*
X70447Y-52125D01*
X70395Y-52125D01*
X72007Y-52125D02*
X72007Y-52177D01*
X72059Y-52177D01*
X72059Y-52125D01*
X72007Y-52125D01*
X72059Y-52177D02*
X72059Y-52229D01*
X72111Y-52229D01*
X72111Y-52177D01*
X72059Y-52177D01*
X70343Y-52229D02*
X70343Y-52281D01*
X70395Y-52281D01*
X70395Y-52229D01*
X70343Y-52229D01*
X72059Y-52229D02*
X72059Y-52281D01*
X72111Y-52281D01*
X72111Y-52229D01*
X72059Y-52229D01*
X69355Y-52281D02*
X69355Y-52333D01*
X70083Y-52333D01*
X70083Y-52281D01*
X69355Y-52281D01*
X70291Y-52281D02*
X70291Y-52333D01*
X70395Y-52333D01*
X70395Y-52281D01*
X70291Y-52281D01*
X72059Y-52281D02*
X72059Y-52333D01*
X72111Y-52333D01*
X72111Y-52281D01*
X72059Y-52281D01*
X69303Y-52333D02*
X69303Y-52385D01*
X69355Y-52385D01*
X69355Y-52333D01*
X69303Y-52333D01*
X70343Y-52333D02*
X70343Y-52385D01*
X70447Y-52385D01*
X70447Y-52333D01*
X70343Y-52333D01*
X69303Y-52385D02*
X69303Y-52437D01*
X69355Y-52437D01*
X69355Y-52385D01*
X69303Y-52385D01*
X70343Y-52385D02*
X70343Y-52437D01*
X70395Y-52437D01*
X70395Y-52385D01*
X70343Y-52385D01*
X72007Y-52385D02*
X72007Y-52437D01*
X72059Y-52437D01*
X72059Y-52385D01*
X72007Y-52385D01*
X69251Y-52437D02*
X69251Y-52489D01*
X69303Y-52489D01*
X69303Y-52437D01*
X69251Y-52437D01*
X70447Y-52437D02*
X70447Y-52489D01*
X70499Y-52489D01*
X70499Y-52437D01*
X70447Y-52437D01*
X71955Y-52437D02*
X71955Y-52489D01*
X72007Y-52489D01*
X72007Y-52437D01*
X71955Y-52437D01*
X69251Y-52489D02*
X69251Y-52541D01*
X69303Y-52541D01*
X69303Y-52489D01*
X69251Y-52489D01*
X70395Y-52489D02*
X70395Y-52541D01*
X70447Y-52541D01*
X70447Y-52489D01*
X70395Y-52489D01*
X70499Y-52489D02*
X70499Y-52541D01*
X70551Y-52541D01*
X70551Y-52489D01*
X70499Y-52489D01*
X71955Y-52489D02*
X71955Y-52541D01*
X72007Y-52541D01*
X72007Y-52489D01*
X71955Y-52489D01*
X69199Y-52541D02*
X69199Y-52593D01*
X69251Y-52593D01*
X69251Y-52541D01*
X69199Y-52541D01*
X70447Y-52541D02*
X70447Y-52593D01*
X70551Y-52593D01*
X70551Y-52541D01*
X70447Y-52541D01*
X71903Y-52541D02*
X71903Y-52593D01*
X71955Y-52593D01*
X71955Y-52541D01*
X71903Y-52541D01*
X69199Y-52593D02*
X69199Y-52645D01*
X69251Y-52645D01*
X69251Y-52593D01*
X69199Y-52593D01*
X70447Y-52593D02*
X70447Y-52645D01*
X70499Y-52645D01*
X70499Y-52593D01*
X70447Y-52593D01*
X70551Y-52593D02*
X70551Y-52645D01*
X70603Y-52645D01*
X70603Y-52593D01*
X70551Y-52593D01*
X71903Y-52593D02*
X71903Y-52645D01*
X71955Y-52645D01*
X71955Y-52593D01*
X71903Y-52593D01*
X69147Y-52645D02*
X69147Y-52697D01*
X69199Y-52697D01*
X69199Y-52645D01*
X69147Y-52645D01*
X70499Y-52645D02*
X70499Y-52697D01*
X70551Y-52697D01*
X70551Y-52645D01*
X70499Y-52645D01*
X71851Y-52645D02*
X71851Y-52697D01*
X71903Y-52697D01*
X71903Y-52645D01*
X71851Y-52645D01*
X69147Y-52697D02*
X69147Y-52749D01*
X69199Y-52749D01*
X69199Y-52697D01*
X69147Y-52697D01*
X70603Y-52697D02*
X70603Y-52749D01*
X70655Y-52749D01*
X70655Y-52697D01*
X70603Y-52697D01*
X69095Y-52749D02*
X69095Y-52801D01*
X69147Y-52801D01*
X69147Y-52749D01*
X69095Y-52749D01*
X70551Y-52749D02*
X70551Y-52801D01*
X70603Y-52801D01*
X70603Y-52749D01*
X70551Y-52749D01*
X70655Y-52749D02*
X70655Y-52801D01*
X70707Y-52801D01*
X70707Y-52749D01*
X70655Y-52749D01*
X71799Y-52749D02*
X71799Y-52801D01*
X71851Y-52801D01*
X71851Y-52749D01*
X71799Y-52749D01*
X70603Y-52801D02*
X70603Y-52853D01*
X70707Y-52853D01*
X70707Y-52801D01*
X70603Y-52801D01*
X71747Y-52801D02*
X71747Y-52853D01*
X71799Y-52853D01*
X71799Y-52801D01*
X71747Y-52801D01*
X69043Y-52853D02*
X69043Y-52905D01*
X69095Y-52905D01*
X69095Y-52853D01*
X69043Y-52853D01*
X70603Y-52853D02*
X70603Y-52905D01*
X70655Y-52905D01*
X70655Y-52853D01*
X70603Y-52853D01*
X70707Y-52853D02*
X70707Y-52905D01*
X70759Y-52905D01*
X70759Y-52853D01*
X70707Y-52853D01*
X71747Y-52853D02*
X71747Y-52905D01*
X71799Y-52905D01*
X71799Y-52853D01*
X71747Y-52853D01*
X68991Y-52905D02*
X68991Y-52957D01*
X69043Y-52957D01*
X69043Y-52905D01*
X68991Y-52905D01*
X70655Y-52905D02*
X70655Y-52957D01*
X70707Y-52957D01*
X70707Y-52905D01*
X70655Y-52905D01*
X71695Y-52905D02*
X71695Y-52957D01*
X71747Y-52957D01*
X71747Y-52905D01*
X71695Y-52905D01*
X72059Y-52905D02*
X72059Y-52957D01*
X72163Y-52957D01*
X72163Y-52905D01*
X72059Y-52905D01*
X68991Y-52957D02*
X68991Y-53009D01*
X69043Y-53009D01*
X69043Y-52957D01*
X68991Y-52957D01*
X70655Y-52957D02*
X70655Y-53009D01*
X70707Y-53009D01*
X70707Y-52957D01*
X70655Y-52957D01*
X70759Y-52957D02*
X70759Y-53009D01*
X71695Y-53009D01*
X71695Y-52957D01*
X70759Y-52957D01*
X72059Y-52957D02*
X72059Y-53009D01*
X72163Y-53009D01*
X72163Y-52957D01*
X72059Y-52957D01*
X70707Y-53009D02*
X70707Y-53061D01*
X70759Y-53061D01*
X70759Y-53009D01*
X70707Y-53009D01*
X70811Y-53009D02*
X70811Y-53061D01*
X71747Y-53061D01*
X71747Y-53009D01*
X70811Y-53009D01*
X72059Y-53009D02*
X72059Y-53061D01*
X72163Y-53061D01*
X72163Y-53009D01*
X72059Y-53009D01*
X68991Y-53061D02*
X68991Y-53113D01*
X69043Y-53113D01*
X69043Y-53061D01*
X68991Y-53061D01*
X70655Y-53061D02*
X70655Y-53113D01*
X70707Y-53113D01*
X70707Y-53061D01*
X70655Y-53061D01*
X70759Y-53061D02*
X70759Y-53113D01*
X70811Y-53113D01*
X70811Y-53061D01*
X70759Y-53061D01*
X72059Y-53061D02*
X72059Y-53113D01*
X72163Y-53113D01*
X72163Y-53061D01*
X72059Y-53061D01*
X68991Y-53113D02*
X68991Y-53165D01*
X69043Y-53165D01*
X69043Y-53113D01*
X68991Y-53113D01*
X70655Y-53113D02*
X70655Y-53165D01*
X70707Y-53165D01*
X70707Y-53113D01*
X70655Y-53113D01*
X71747Y-53113D02*
X71747Y-53165D01*
X71799Y-53165D01*
X71799Y-53113D01*
X71747Y-53113D01*
X72059Y-53113D02*
X72059Y-53165D01*
X72163Y-53165D01*
X72163Y-53113D01*
X72059Y-53113D01*
X69043Y-53165D02*
X69043Y-53217D01*
X69095Y-53217D01*
X69095Y-53165D01*
X69043Y-53165D01*
X70603Y-53165D02*
X70603Y-53217D01*
X70655Y-53217D01*
X70655Y-53165D01*
X70603Y-53165D01*
X70707Y-53165D02*
X70707Y-53217D01*
X70759Y-53217D01*
X70759Y-53165D01*
X70707Y-53165D01*
X71799Y-53165D02*
X71799Y-53217D01*
X71851Y-53217D01*
X71851Y-53165D01*
X71799Y-53165D01*
X72059Y-53165D02*
X72059Y-53217D01*
X72163Y-53217D01*
X72163Y-53165D01*
X72059Y-53165D01*
X69095Y-53217D02*
X69095Y-53269D01*
X69147Y-53269D01*
X69147Y-53217D01*
X69095Y-53217D01*
X70603Y-53217D02*
X70603Y-53269D01*
X70655Y-53269D01*
X70655Y-53217D01*
X70603Y-53217D01*
X71799Y-53217D02*
X71799Y-53269D01*
X71851Y-53269D01*
X71851Y-53217D01*
X71799Y-53217D01*
X72059Y-53217D02*
X72059Y-53269D01*
X72163Y-53269D01*
X72163Y-53217D01*
X72059Y-53217D01*
X69095Y-53269D02*
X69095Y-53321D01*
X69147Y-53321D01*
X69147Y-53269D01*
X69095Y-53269D01*
X70551Y-53269D02*
X70551Y-53321D01*
X70603Y-53321D01*
X70603Y-53269D01*
X70551Y-53269D01*
X70655Y-53269D02*
X70655Y-53321D01*
X70707Y-53321D01*
X70707Y-53269D01*
X70655Y-53269D01*
X71279Y-53269D02*
X71279Y-53321D01*
X71435Y-53321D01*
X71435Y-53269D01*
X71279Y-53269D01*
X71851Y-53269D02*
X71851Y-53321D01*
X71903Y-53321D01*
X71903Y-53269D01*
X71851Y-53269D01*
X72059Y-53269D02*
X72059Y-53321D01*
X72163Y-53321D01*
X72163Y-53269D01*
X72059Y-53269D01*
X72423Y-53269D02*
X72423Y-53321D01*
X72579Y-53321D01*
X72579Y-53269D01*
X72423Y-53269D01*
X73567Y-53269D02*
X73567Y-53321D01*
X73723Y-53321D01*
X73723Y-53269D01*
X73567Y-53269D01*
X74711Y-53269D02*
X74711Y-53321D01*
X74867Y-53321D01*
X74867Y-53269D01*
X74711Y-53269D01*
X69147Y-53321D02*
X69147Y-53373D01*
X69199Y-53373D01*
X69199Y-53321D01*
X69147Y-53321D01*
X70603Y-53321D02*
X70603Y-53373D01*
X70655Y-53373D01*
X70655Y-53321D01*
X70603Y-53321D01*
X70863Y-53321D02*
X70863Y-53373D01*
X70967Y-53373D01*
X70967Y-53321D01*
X70863Y-53321D01*
X71123Y-53321D02*
X71123Y-53373D01*
X71591Y-53373D01*
X71591Y-53321D01*
X71123Y-53321D01*
X71851Y-53321D02*
X71851Y-53373D01*
X71903Y-53373D01*
X71903Y-53321D01*
X71851Y-53321D01*
X72059Y-53321D02*
X72059Y-53373D01*
X72163Y-53373D01*
X72163Y-53321D01*
X72059Y-53321D01*
X72319Y-53321D02*
X72319Y-53373D01*
X72735Y-53373D01*
X72735Y-53321D01*
X72319Y-53321D01*
X73411Y-53321D02*
X73411Y-53373D01*
X73879Y-53373D01*
X73879Y-53321D01*
X73411Y-53321D01*
X74555Y-53321D02*
X74555Y-53373D01*
X75023Y-53373D01*
X75023Y-53321D01*
X74555Y-53321D01*
X70499Y-53373D02*
X70499Y-53425D01*
X70551Y-53425D01*
X70551Y-53373D01*
X70499Y-53373D01*
X70603Y-53373D02*
X70603Y-53425D01*
X70655Y-53425D01*
X70655Y-53373D01*
X70603Y-53373D01*
X70863Y-53373D02*
X70863Y-53425D01*
X70967Y-53425D01*
X70967Y-53373D01*
X70863Y-53373D01*
X71071Y-53373D02*
X71071Y-53425D01*
X71175Y-53425D01*
X71175Y-53373D01*
X71071Y-53373D01*
X71435Y-53373D02*
X71435Y-53425D01*
X71643Y-53425D01*
X71643Y-53373D01*
X71435Y-53373D01*
X71903Y-53373D02*
X71903Y-53425D01*
X71955Y-53425D01*
X71955Y-53373D01*
X71903Y-53373D01*
X72059Y-53373D02*
X72059Y-53425D01*
X72163Y-53425D01*
X72163Y-53373D01*
X72059Y-53373D01*
X72267Y-53373D02*
X72267Y-53425D01*
X72371Y-53425D01*
X72371Y-53373D01*
X72267Y-53373D01*
X72631Y-53373D02*
X72631Y-53425D01*
X72787Y-53425D01*
X72787Y-53373D01*
X72631Y-53373D01*
X73307Y-53373D02*
X73307Y-53425D01*
X73463Y-53425D01*
X73463Y-53373D01*
X73307Y-53373D01*
X73775Y-53373D02*
X73775Y-53425D01*
X73931Y-53425D01*
X73931Y-53373D01*
X73775Y-53373D01*
X74503Y-53373D02*
X74503Y-53425D01*
X74659Y-53425D01*
X74659Y-53373D01*
X74503Y-53373D01*
X74971Y-53373D02*
X74971Y-53425D01*
X75127Y-53425D01*
X75127Y-53373D01*
X74971Y-53373D01*
X69199Y-53425D02*
X69199Y-53477D01*
X69251Y-53477D01*
X69251Y-53425D01*
X69199Y-53425D01*
X70551Y-53425D02*
X70551Y-53477D01*
X70603Y-53477D01*
X70603Y-53425D01*
X70551Y-53425D01*
X70863Y-53425D02*
X70863Y-53477D01*
X70967Y-53477D01*
X70967Y-53425D01*
X70863Y-53425D01*
X71019Y-53425D02*
X71019Y-53477D01*
X71123Y-53477D01*
X71123Y-53425D01*
X71019Y-53425D01*
X71539Y-53425D02*
X71539Y-53477D01*
X71643Y-53477D01*
X71643Y-53425D01*
X71539Y-53425D01*
X72059Y-53425D02*
X72059Y-53477D01*
X72163Y-53477D01*
X72163Y-53425D01*
X72059Y-53425D01*
X72215Y-53425D02*
X72215Y-53477D01*
X72267Y-53477D01*
X72267Y-53425D01*
X72215Y-53425D01*
X72683Y-53425D02*
X72683Y-53477D01*
X72839Y-53477D01*
X72839Y-53425D01*
X72683Y-53425D01*
X73255Y-53425D02*
X73255Y-53477D01*
X73411Y-53477D01*
X73411Y-53425D01*
X73255Y-53425D01*
X73879Y-53425D02*
X73879Y-53477D01*
X73983Y-53477D01*
X73983Y-53425D01*
X73879Y-53425D01*
X74451Y-53425D02*
X74451Y-53477D01*
X74555Y-53477D01*
X74555Y-53425D01*
X74451Y-53425D01*
X75023Y-53425D02*
X75023Y-53477D01*
X75179Y-53477D01*
X75179Y-53425D01*
X75023Y-53425D01*
X69251Y-53477D02*
X69251Y-53529D01*
X69303Y-53529D01*
X69303Y-53477D01*
X69251Y-53477D01*
X70447Y-53477D02*
X70447Y-53529D01*
X70499Y-53529D01*
X70499Y-53477D01*
X70447Y-53477D01*
X70551Y-53477D02*
X70551Y-53529D01*
X70603Y-53529D01*
X70603Y-53477D01*
X70551Y-53477D01*
X70863Y-53477D02*
X70863Y-53529D01*
X71071Y-53529D01*
X71071Y-53477D01*
X70863Y-53477D01*
X71539Y-53477D02*
X71539Y-53529D01*
X71695Y-53529D01*
X71695Y-53477D01*
X71539Y-53477D01*
X72059Y-53477D02*
X72059Y-53529D01*
X72215Y-53529D01*
X72215Y-53477D01*
X72059Y-53477D01*
X72735Y-53477D02*
X72735Y-53529D01*
X72839Y-53529D01*
X72839Y-53477D01*
X72735Y-53477D01*
X73255Y-53477D02*
X73255Y-53529D01*
X73359Y-53529D01*
X73359Y-53477D01*
X73255Y-53477D01*
X73931Y-53477D02*
X73931Y-53529D01*
X74035Y-53529D01*
X74035Y-53477D01*
X73931Y-53477D01*
X74399Y-53477D02*
X74399Y-53529D01*
X74555Y-53529D01*
X74555Y-53477D01*
X74399Y-53477D01*
X75075Y-53477D02*
X75075Y-53529D01*
X75179Y-53529D01*
X75179Y-53477D01*
X75075Y-53477D01*
X69251Y-53529D02*
X69251Y-53581D01*
X69303Y-53581D01*
X69303Y-53529D01*
X69251Y-53529D01*
X70395Y-53529D02*
X70395Y-53581D01*
X70447Y-53581D01*
X70447Y-53529D01*
X70395Y-53529D01*
X70499Y-53529D02*
X70499Y-53581D01*
X70551Y-53581D01*
X70551Y-53529D01*
X70499Y-53529D01*
X70863Y-53529D02*
X70863Y-53581D01*
X71019Y-53581D01*
X71019Y-53529D01*
X70863Y-53529D01*
X71591Y-53529D02*
X71591Y-53581D01*
X71695Y-53581D01*
X71695Y-53529D01*
X71591Y-53529D01*
X72059Y-53529D02*
X72059Y-53581D01*
X72215Y-53581D01*
X72215Y-53529D01*
X72059Y-53529D01*
X72787Y-53529D02*
X72787Y-53581D01*
X72891Y-53581D01*
X72891Y-53529D01*
X72787Y-53529D01*
X73203Y-53529D02*
X73203Y-53581D01*
X73307Y-53581D01*
X73307Y-53529D01*
X73203Y-53529D01*
X73931Y-53529D02*
X73931Y-53581D01*
X74035Y-53581D01*
X74035Y-53529D01*
X73931Y-53529D01*
X74399Y-53529D02*
X74399Y-53581D01*
X74503Y-53581D01*
X74503Y-53529D01*
X74399Y-53529D01*
X75127Y-53529D02*
X75127Y-53581D01*
X75231Y-53581D01*
X75231Y-53529D01*
X75127Y-53529D01*
X69303Y-53581D02*
X69303Y-53633D01*
X69355Y-53633D01*
X69355Y-53581D01*
X69303Y-53581D01*
X70395Y-53581D02*
X70395Y-53633D01*
X70447Y-53633D01*
X70447Y-53581D01*
X70395Y-53581D01*
X70499Y-53581D02*
X70499Y-53633D01*
X70551Y-53633D01*
X70551Y-53581D01*
X70499Y-53581D01*
X70863Y-53581D02*
X70863Y-53633D01*
X71019Y-53633D01*
X71019Y-53581D01*
X70863Y-53581D01*
X71591Y-53581D02*
X71591Y-53633D01*
X71695Y-53633D01*
X71695Y-53581D01*
X71591Y-53581D01*
X72059Y-53581D02*
X72059Y-53633D01*
X72163Y-53633D01*
X72163Y-53581D01*
X72059Y-53581D01*
X72787Y-53581D02*
X72787Y-53633D01*
X72891Y-53633D01*
X72891Y-53581D01*
X72787Y-53581D01*
X73203Y-53581D02*
X73203Y-53633D01*
X73307Y-53633D01*
X73307Y-53581D01*
X73203Y-53581D01*
X73983Y-53581D02*
X73983Y-53633D01*
X74087Y-53633D01*
X74087Y-53581D01*
X73983Y-53581D01*
X74347Y-53581D02*
X74347Y-53633D01*
X74503Y-53633D01*
X74503Y-53581D01*
X74347Y-53581D01*
X75127Y-53581D02*
X75127Y-53633D01*
X75231Y-53633D01*
X75231Y-53581D01*
X75127Y-53581D01*
X70343Y-53633D02*
X70343Y-53685D01*
X70395Y-53685D01*
X70395Y-53633D01*
X70343Y-53633D01*
X70447Y-53633D02*
X70447Y-53685D01*
X70499Y-53685D01*
X70499Y-53633D01*
X70447Y-53633D01*
X70863Y-53633D02*
X70863Y-53685D01*
X71019Y-53685D01*
X71019Y-53633D01*
X70863Y-53633D01*
X71591Y-53633D02*
X71591Y-53685D01*
X71695Y-53685D01*
X71695Y-53633D01*
X71591Y-53633D01*
X72059Y-53633D02*
X72059Y-53685D01*
X72163Y-53685D01*
X72163Y-53633D01*
X72059Y-53633D01*
X72787Y-53633D02*
X72787Y-53685D01*
X72891Y-53685D01*
X72891Y-53633D01*
X72787Y-53633D01*
X73203Y-53633D02*
X73203Y-53685D01*
X73307Y-53685D01*
X73307Y-53633D01*
X73203Y-53633D01*
X73983Y-53633D02*
X73983Y-53685D01*
X74087Y-53685D01*
X74087Y-53633D01*
X73983Y-53633D01*
X74347Y-53633D02*
X74347Y-53685D01*
X74451Y-53685D01*
X74451Y-53633D01*
X74347Y-53633D01*
X75127Y-53633D02*
X75127Y-53685D01*
X75231Y-53685D01*
X75231Y-53633D01*
X75127Y-53633D01*
X69355Y-53685D02*
X69355Y-53737D01*
X69407Y-53737D01*
X69407Y-53685D01*
X69355Y-53685D01*
X70343Y-53685D02*
X70343Y-53737D01*
X70395Y-53737D01*
X70395Y-53685D01*
X70343Y-53685D01*
X70863Y-53685D02*
X70863Y-53737D01*
X71019Y-53737D01*
X71019Y-53685D01*
X70863Y-53685D01*
X71591Y-53685D02*
X71591Y-53737D01*
X71695Y-53737D01*
X71695Y-53685D01*
X71591Y-53685D01*
X72059Y-53685D02*
X72059Y-53737D01*
X72163Y-53737D01*
X72163Y-53685D01*
X72059Y-53685D01*
X72787Y-53685D02*
X72787Y-53737D01*
X72943Y-53737D01*
X72943Y-53685D01*
X72787Y-53685D01*
X73151Y-53685D02*
X73151Y-53737D01*
X73307Y-53737D01*
X73307Y-53685D01*
X73151Y-53685D01*
X73983Y-53685D02*
X73983Y-53737D01*
X74087Y-53737D01*
X74087Y-53685D01*
X73983Y-53685D01*
X74347Y-53685D02*
X74347Y-53737D01*
X74451Y-53737D01*
X74451Y-53685D01*
X74347Y-53685D01*
X75179Y-53685D02*
X75179Y-53737D01*
X75283Y-53737D01*
X75283Y-53685D01*
X75179Y-53685D01*
X69407Y-53737D02*
X69407Y-53789D01*
X70343Y-53789D01*
X70343Y-53737D01*
X69407Y-53737D01*
X70395Y-53737D02*
X70395Y-53789D01*
X70447Y-53789D01*
X70447Y-53737D01*
X70395Y-53737D01*
X70863Y-53737D02*
X70863Y-53789D01*
X70967Y-53789D01*
X70967Y-53737D01*
X70863Y-53737D01*
X71591Y-53737D02*
X71591Y-53789D01*
X71695Y-53789D01*
X71695Y-53737D01*
X71591Y-53737D01*
X72059Y-53737D02*
X72059Y-53789D01*
X72163Y-53789D01*
X72163Y-53737D01*
X72059Y-53737D01*
X72787Y-53737D02*
X72787Y-53789D01*
X72943Y-53789D01*
X72943Y-53737D01*
X72787Y-53737D01*
X73151Y-53737D02*
X73151Y-53789D01*
X74087Y-53789D01*
X74087Y-53737D01*
X73151Y-53737D01*
X74347Y-53737D02*
X74347Y-53789D01*
X75283Y-53789D01*
X75283Y-53737D01*
X74347Y-53737D01*
X70395Y-53789D02*
X70395Y-53841D01*
X70447Y-53841D01*
X70447Y-53789D01*
X70395Y-53789D01*
X70863Y-53789D02*
X70863Y-53841D01*
X70967Y-53841D01*
X70967Y-53789D01*
X70863Y-53789D01*
X71591Y-53789D02*
X71591Y-53841D01*
X71695Y-53841D01*
X71695Y-53789D01*
X71591Y-53789D01*
X72059Y-53789D02*
X72059Y-53841D01*
X72163Y-53841D01*
X72163Y-53789D01*
X72059Y-53789D01*
X72839Y-53789D02*
X72839Y-53841D01*
X72943Y-53841D01*
X72943Y-53789D01*
X72839Y-53789D01*
X73151Y-53789D02*
X73151Y-53841D01*
X74087Y-53841D01*
X74087Y-53789D01*
X73151Y-53789D01*
X74347Y-53789D02*
X74347Y-53841D01*
X75283Y-53841D01*
X75283Y-53789D01*
X74347Y-53789D01*
X70863Y-53841D02*
X70863Y-53893D01*
X70967Y-53893D01*
X70967Y-53841D01*
X70863Y-53841D01*
X71591Y-53841D02*
X71591Y-53893D01*
X71695Y-53893D01*
X71695Y-53841D01*
X71591Y-53841D01*
X72059Y-53841D02*
X72059Y-53893D01*
X72163Y-53893D01*
X72163Y-53841D01*
X72059Y-53841D01*
X72787Y-53841D02*
X72787Y-53893D01*
X72943Y-53893D01*
X72943Y-53841D01*
X72787Y-53841D01*
X73151Y-53841D02*
X73151Y-53893D01*
X73255Y-53893D01*
X73255Y-53841D01*
X73151Y-53841D01*
X74347Y-53841D02*
X74347Y-53893D01*
X74451Y-53893D01*
X74451Y-53841D01*
X74347Y-53841D01*
X70447Y-53893D02*
X70447Y-53945D01*
X70499Y-53945D01*
X70499Y-53893D01*
X70447Y-53893D01*
X70863Y-53893D02*
X70863Y-53945D01*
X70967Y-53945D01*
X70967Y-53893D01*
X70863Y-53893D01*
X71591Y-53893D02*
X71591Y-53945D01*
X71695Y-53945D01*
X71695Y-53893D01*
X71591Y-53893D01*
X72059Y-53893D02*
X72059Y-53945D01*
X72163Y-53945D01*
X72163Y-53893D01*
X72059Y-53893D01*
X72787Y-53893D02*
X72787Y-53945D01*
X72943Y-53945D01*
X72943Y-53893D01*
X72787Y-53893D01*
X73151Y-53893D02*
X73151Y-53945D01*
X73307Y-53945D01*
X73307Y-53893D01*
X73151Y-53893D01*
X74347Y-53893D02*
X74347Y-53945D01*
X74451Y-53945D01*
X74451Y-53893D01*
X74347Y-53893D01*
X70863Y-53945D02*
X70863Y-53997D01*
X70967Y-53997D01*
X70967Y-53945D01*
X70863Y-53945D01*
X71591Y-53945D02*
X71591Y-53997D01*
X71695Y-53997D01*
X71695Y-53945D01*
X71591Y-53945D01*
X72059Y-53945D02*
X72059Y-53997D01*
X72163Y-53997D01*
X72163Y-53945D01*
X72059Y-53945D01*
X72787Y-53945D02*
X72787Y-53997D01*
X72891Y-53997D01*
X72891Y-53945D01*
X72787Y-53945D01*
X73203Y-53945D02*
X73203Y-53997D01*
X73307Y-53997D01*
X73307Y-53945D01*
X73203Y-53945D01*
X74347Y-53945D02*
X74347Y-53997D01*
X74451Y-53997D01*
X74451Y-53945D01*
X74347Y-53945D01*
X70499Y-53997D02*
X70499Y-54049D01*
X70551Y-54049D01*
X70551Y-53997D01*
X70499Y-53997D01*
X70863Y-53997D02*
X70863Y-54049D01*
X70967Y-54049D01*
X70967Y-53997D01*
X70863Y-53997D01*
X71591Y-53997D02*
X71591Y-54049D01*
X71695Y-54049D01*
X71695Y-53997D01*
X71591Y-53997D01*
X72059Y-53997D02*
X72059Y-54049D01*
X72163Y-54049D01*
X72163Y-53997D01*
X72059Y-53997D01*
X72787Y-53997D02*
X72787Y-54049D01*
X72891Y-54049D01*
X72891Y-53997D01*
X72787Y-53997D01*
X73203Y-53997D02*
X73203Y-54049D01*
X73307Y-54049D01*
X73307Y-53997D01*
X73203Y-53997D01*
X74347Y-53997D02*
X74347Y-54049D01*
X74503Y-54049D01*
X74503Y-53997D01*
X74347Y-53997D01*
X70551Y-54049D02*
X70551Y-54101D01*
X70603Y-54101D01*
X70603Y-54049D01*
X70551Y-54049D01*
X70863Y-54049D02*
X70863Y-54101D01*
X70967Y-54101D01*
X70967Y-54049D01*
X70863Y-54049D01*
X71591Y-54049D02*
X71591Y-54101D01*
X71695Y-54101D01*
X71695Y-54049D01*
X71591Y-54049D01*
X72059Y-54049D02*
X72059Y-54101D01*
X72215Y-54101D01*
X72215Y-54049D01*
X72059Y-54049D01*
X72735Y-54049D02*
X72735Y-54101D01*
X72891Y-54101D01*
X72891Y-54049D01*
X72735Y-54049D01*
X73203Y-54049D02*
X73203Y-54101D01*
X73359Y-54101D01*
X73359Y-54049D01*
X73203Y-54049D01*
X73931Y-54049D02*
X73931Y-54101D01*
X74087Y-54101D01*
X74087Y-54049D01*
X73931Y-54049D01*
X74399Y-54049D02*
X74399Y-54101D01*
X74503Y-54101D01*
X74503Y-54049D01*
X74399Y-54049D01*
X75127Y-54049D02*
X75127Y-54101D01*
X75231Y-54101D01*
X75231Y-54049D01*
X75127Y-54049D01*
X70863Y-54101D02*
X70863Y-54153D01*
X70967Y-54153D01*
X70967Y-54101D01*
X70863Y-54101D01*
X71591Y-54101D02*
X71591Y-54153D01*
X71695Y-54153D01*
X71695Y-54101D01*
X71591Y-54101D01*
X72059Y-54101D02*
X72059Y-54153D01*
X72215Y-54153D01*
X72215Y-54101D01*
X72059Y-54101D01*
X72735Y-54101D02*
X72735Y-54153D01*
X72839Y-54153D01*
X72839Y-54101D01*
X72735Y-54101D01*
X73255Y-54101D02*
X73255Y-54153D01*
X73359Y-54153D01*
X73359Y-54101D01*
X73255Y-54101D01*
X73931Y-54101D02*
X73931Y-54153D01*
X74035Y-54153D01*
X74035Y-54101D01*
X73931Y-54101D01*
X74399Y-54101D02*
X74399Y-54153D01*
X74555Y-54153D01*
X74555Y-54101D01*
X74399Y-54101D01*
X75075Y-54101D02*
X75075Y-54153D01*
X75231Y-54153D01*
X75231Y-54101D01*
X75075Y-54101D01*
X70603Y-54153D02*
X70603Y-54205D01*
X70655Y-54205D01*
X70655Y-54153D01*
X70603Y-54153D01*
X70863Y-54153D02*
X70863Y-54205D01*
X70967Y-54205D01*
X70967Y-54153D01*
X70863Y-54153D01*
X71591Y-54153D02*
X71591Y-54205D01*
X71695Y-54205D01*
X71695Y-54153D01*
X71591Y-54153D01*
X71903Y-54153D02*
X71903Y-54205D01*
X71955Y-54205D01*
X71955Y-54153D01*
X71903Y-54153D01*
X72059Y-54153D02*
X72059Y-54205D01*
X72163Y-54205D01*
X72163Y-54153D01*
X72059Y-54153D01*
X72215Y-54153D02*
X72215Y-54205D01*
X72267Y-54205D01*
X72267Y-54153D01*
X72215Y-54153D01*
X72683Y-54153D02*
X72683Y-54205D01*
X72839Y-54205D01*
X72839Y-54153D01*
X72683Y-54153D01*
X73255Y-54153D02*
X73255Y-54205D01*
X73411Y-54205D01*
X73411Y-54153D01*
X73255Y-54153D01*
X73879Y-54153D02*
X73879Y-54205D01*
X74035Y-54205D01*
X74035Y-54153D01*
X73879Y-54153D01*
X74451Y-54153D02*
X74451Y-54205D01*
X74607Y-54205D01*
X74607Y-54153D01*
X74451Y-54153D01*
X75075Y-54153D02*
X75075Y-54205D01*
X75179Y-54205D01*
X75179Y-54153D01*
X75075Y-54153D01*
X70655Y-54205D02*
X70655Y-54257D01*
X70707Y-54257D01*
X70707Y-54205D01*
X70655Y-54205D01*
X70863Y-54205D02*
X70863Y-54257D01*
X70967Y-54257D01*
X70967Y-54205D01*
X70863Y-54205D01*
X71591Y-54205D02*
X71591Y-54257D01*
X71695Y-54257D01*
X71695Y-54205D01*
X71591Y-54205D01*
X72059Y-54205D02*
X72059Y-54257D01*
X72163Y-54257D01*
X72163Y-54205D01*
X72059Y-54205D01*
X72215Y-54205D02*
X72215Y-54257D01*
X72319Y-54257D01*
X72319Y-54205D01*
X72215Y-54205D01*
X72631Y-54205D02*
X72631Y-54257D01*
X72787Y-54257D01*
X72787Y-54205D01*
X72631Y-54205D01*
X73307Y-54205D02*
X73307Y-54257D01*
X73463Y-54257D01*
X73463Y-54205D01*
X73307Y-54205D01*
X73827Y-54205D02*
X73827Y-54257D01*
X73983Y-54257D01*
X73983Y-54205D01*
X73827Y-54205D01*
X74503Y-54205D02*
X74503Y-54257D01*
X74659Y-54257D01*
X74659Y-54205D01*
X74503Y-54205D01*
X74971Y-54205D02*
X74971Y-54257D01*
X75127Y-54257D01*
X75127Y-54205D01*
X74971Y-54205D01*
X70655Y-54257D02*
X70655Y-54309D01*
X70707Y-54309D01*
X70707Y-54257D01*
X70655Y-54257D01*
X70863Y-54257D02*
X70863Y-54309D01*
X71019Y-54309D01*
X71019Y-54257D01*
X70863Y-54257D01*
X71591Y-54257D02*
X71591Y-54309D01*
X71695Y-54309D01*
X71695Y-54257D01*
X71591Y-54257D01*
X71851Y-54257D02*
X71851Y-54309D01*
X71903Y-54309D01*
X71903Y-54257D01*
X71851Y-54257D01*
X72059Y-54257D02*
X72059Y-54309D01*
X72163Y-54309D01*
X72163Y-54257D01*
X72059Y-54257D01*
X72267Y-54257D02*
X72267Y-54309D01*
X72735Y-54309D01*
X72735Y-54257D01*
X72267Y-54257D01*
X73411Y-54257D02*
X73411Y-54309D01*
X73931Y-54309D01*
X73931Y-54257D01*
X73411Y-54257D01*
X74555Y-54257D02*
X74555Y-54309D01*
X75075Y-54309D01*
X75075Y-54257D01*
X74555Y-54257D01*
X70707Y-54309D02*
X70707Y-54361D01*
X70759Y-54361D01*
X70759Y-54309D01*
X70707Y-54309D01*
X72423Y-54309D02*
X72423Y-54361D01*
X72579Y-54361D01*
X72579Y-54309D01*
X72423Y-54309D01*
X73515Y-54309D02*
X73515Y-54361D01*
X73775Y-54361D01*
X73775Y-54309D01*
X73515Y-54309D01*
X74711Y-54309D02*
X74711Y-54361D01*
X74919Y-54361D01*
X74919Y-54309D01*
X74711Y-54309D01*
X71799Y-54361D02*
X71799Y-54413D01*
X71851Y-54413D01*
X71851Y-54361D01*
X71799Y-54361D01*
X70759Y-54413D02*
X70759Y-54465D01*
X70811Y-54465D01*
X70811Y-54413D01*
X70759Y-54413D01*
X71747Y-54413D02*
X71747Y-54465D01*
X71799Y-54465D01*
X71799Y-54413D01*
X71747Y-54413D01*
X70811Y-54465D02*
X70811Y-54517D01*
X71279Y-54517D01*
X71279Y-54465D01*
X70811Y-54465D01*
X71331Y-54465D02*
X71331Y-54517D01*
X71383Y-54517D01*
X71383Y-54465D01*
X71331Y-54465D01*
X71695Y-54465D02*
X71695Y-54517D01*
X71747Y-54517D01*
X71747Y-54465D01*
X71695Y-54465D01*
X72056Y-52332D02*
X72056Y-52384D01*
X72108Y-52384D01*
X72108Y-52332D01*
X72056Y-52332D01*
X71981Y-52072D02*
X71981Y-52124D01*
X72033Y-52124D01*
X72033Y-52072D01*
X71981Y-52072D01*
X71934Y-51966D02*
X71934Y-52018D01*
X71986Y-52018D01*
X71986Y-51966D01*
X71934Y-51966D01*
X71828Y-51812D02*
X71828Y-51864D01*
X71880Y-51864D01*
X71880Y-51812D01*
X71828Y-51812D01*
X71773Y-51706D02*
X71773Y-51758D01*
X71825Y-51758D01*
X71825Y-51706D01*
X71773Y-51706D01*
X70080Y-52281D02*
X70080Y-52333D01*
X70132Y-52333D01*
X70132Y-52281D01*
X70080Y-52281D01*
X70131Y-52281D02*
X70131Y-52333D01*
X70183Y-52333D01*
X70183Y-52281D01*
X70131Y-52281D01*
X70182Y-52281D02*
X70182Y-52333D01*
X70234Y-52333D01*
X70234Y-52281D01*
X70182Y-52281D01*
X70237Y-52281D02*
X70237Y-52333D01*
X70289Y-52333D01*
X70289Y-52281D01*
X70237Y-52281D01*
X71281Y-54466D02*
X71281Y-54518D01*
X71333Y-54518D01*
X71333Y-54466D01*
X71281Y-54466D01*
X71383Y-54466D02*
X71383Y-54518D01*
X71435Y-54518D01*
X71435Y-54466D01*
X71383Y-54466D01*
X71434Y-54466D02*
X71434Y-54518D01*
X71486Y-54518D01*
X71486Y-54466D01*
X71434Y-54466D01*
X71485Y-54466D02*
X71485Y-54518D01*
X71537Y-54518D01*
X71537Y-54466D01*
X71485Y-54466D01*
X71540Y-54466D02*
X71540Y-54518D01*
X71592Y-54518D01*
X71592Y-54466D01*
X71540Y-54466D01*
X71592Y-54466D02*
X71592Y-54518D01*
X71644Y-54518D01*
X71644Y-54466D01*
X71592Y-54466D01*
X71643Y-54466D02*
X71643Y-54518D01*
X71695Y-54518D01*
X71695Y-54466D01*
X71643Y-54466D01*
X70729Y-54363D02*
X70729Y-54415D01*
X70781Y-54415D01*
X70781Y-54363D01*
X70729Y-54363D01*
X70418Y-53844D02*
X70418Y-53896D01*
X70470Y-53896D01*
X70470Y-53844D01*
X70418Y-53844D01*
X70474Y-53946D02*
X70474Y-53998D01*
X70525Y-53998D01*
X70525Y-53946D01*
X70474Y-53946D01*
X70576Y-54103D02*
X70576Y-54155D01*
X70628Y-54155D01*
X70628Y-54103D01*
X70576Y-54103D01*
X71824Y-54308D02*
X71824Y-54360D01*
X71876Y-54360D01*
X71876Y-54308D01*
X71824Y-54308D01*
X71879Y-54202D02*
X71879Y-54254D01*
X71931Y-54254D01*
X71931Y-54202D01*
X71879Y-54202D01*
X68989Y-53009D02*
X68989Y-53061D01*
X69041Y-53061D01*
X69041Y-53009D01*
X68989Y-53009D01*
X69068Y-52800D02*
X69068Y-52852D01*
X69120Y-52852D01*
X69120Y-52800D01*
X69068Y-52800D01*
X70631Y-51710D02*
X70631Y-51762D01*
X70683Y-51762D01*
X70683Y-51710D01*
X70631Y-51710D01*
X70682Y-51603D02*
X70682Y-51655D01*
X70734Y-51655D01*
X70734Y-51603D01*
X70682Y-51603D01*
X69328Y-53635D02*
X69328Y-53687D01*
X69380Y-53687D01*
X69380Y-53635D01*
X69328Y-53635D01*
X69170Y-53371D02*
X69170Y-53423D01*
X69222Y-53423D01*
X69222Y-53371D01*
X69170Y-53371D01*
G54D19*
X71621Y-55741D02*
X71621Y-55984D01*
X71636Y-56012D01*
X71650Y-56026D01*
X71678Y-56041D01*
X71736Y-56041D01*
X71764Y-56026D01*
X71778Y-56012D01*
X71793Y-55984D01*
X71793Y-55741D01*
X72093Y-56041D02*
X71921Y-56041D01*
X72007Y-56041D02*
X72007Y-55741D01*
X71978Y-55784D01*
X71950Y-55812D01*
X71921Y-55826D01*
X74384Y-72182D02*
X74384Y-71882D01*
X74456Y-71882D01*
X74499Y-71897D01*
X74527Y-71925D01*
X74542Y-71954D01*
X74556Y-72011D01*
X74556Y-72054D01*
X74542Y-72111D01*
X74527Y-72140D01*
X74499Y-72168D01*
X74456Y-72182D01*
X74384Y-72182D01*
X74842Y-72182D02*
X74670Y-72182D01*
X74756Y-72182D02*
X74756Y-71882D01*
X74727Y-71925D01*
X74699Y-71954D01*
X74670Y-71968D01*
X74286Y-52005D02*
X74286Y-51705D01*
X74357Y-51705D01*
X74400Y-51720D01*
X74429Y-51748D01*
X74443Y-51777D01*
X74457Y-51834D01*
X74457Y-51877D01*
X74443Y-51934D01*
X74429Y-51962D01*
X74400Y-51991D01*
X74357Y-52005D01*
X74286Y-52005D01*
X74600Y-52005D02*
X74657Y-52005D01*
X74686Y-51991D01*
X74700Y-51977D01*
X74729Y-51934D01*
X74743Y-51877D01*
X74743Y-51762D01*
X74729Y-51734D01*
X74715Y-51720D01*
X74686Y-51705D01*
X74629Y-51705D01*
X74600Y-51720D01*
X74586Y-51734D01*
X74572Y-51762D01*
X74572Y-51834D01*
X74586Y-51862D01*
X74600Y-51877D01*
X74629Y-51891D01*
X74686Y-51891D01*
X74715Y-51877D01*
X74729Y-51862D01*
X74743Y-51834D01*
X74384Y-61848D02*
X74384Y-61548D01*
X74456Y-61548D01*
X74499Y-61562D01*
X74527Y-61591D01*
X74542Y-61619D01*
X74556Y-61676D01*
X74556Y-61719D01*
X74542Y-61776D01*
X74527Y-61805D01*
X74499Y-61834D01*
X74456Y-61848D01*
X74384Y-61848D01*
X74827Y-61548D02*
X74684Y-61548D01*
X74670Y-61691D01*
X74684Y-61676D01*
X74713Y-61662D01*
X74784Y-61662D01*
X74813Y-61676D01*
X74827Y-61691D01*
X74842Y-61719D01*
X74842Y-61791D01*
X74827Y-61819D01*
X74813Y-61834D01*
X74784Y-61848D01*
X74713Y-61848D01*
X74684Y-61834D01*
X74670Y-61819D01*
X85875Y-48856D02*
X85732Y-48856D01*
X85732Y-48556D01*
X86103Y-48656D02*
X86103Y-48856D01*
X86032Y-48541D02*
X85960Y-48756D01*
X86146Y-48756D01*
X85776Y-58600D02*
X85633Y-58600D01*
X85633Y-58300D01*
X85848Y-58300D02*
X86033Y-58300D01*
X85933Y-58414D01*
X85976Y-58414D01*
X86005Y-58428D01*
X86019Y-58443D01*
X86033Y-58471D01*
X86033Y-58543D01*
X86019Y-58571D01*
X86005Y-58585D01*
X85976Y-58600D01*
X85891Y-58600D01*
X85862Y-58585D01*
X85848Y-58571D01*
X85776Y-68344D02*
X85633Y-68344D01*
X85633Y-68044D01*
X85862Y-68072D02*
X85876Y-68058D01*
X85905Y-68044D01*
X85976Y-68044D01*
X86005Y-68058D01*
X86019Y-68072D01*
X86033Y-68101D01*
X86033Y-68130D01*
X86019Y-68172D01*
X85848Y-68344D01*
X86033Y-68344D01*
X74673Y-53674D02*
X74673Y-53917D01*
X74687Y-53945D01*
X74701Y-53960D01*
X74730Y-53974D01*
X74787Y-53974D01*
X74815Y-53960D01*
X74830Y-53945D01*
X74844Y-53917D01*
X74844Y-53674D01*
X75115Y-53774D02*
X75115Y-53974D01*
X75044Y-53660D02*
X74973Y-53874D01*
X75158Y-53874D01*
X76641Y-75623D02*
X76641Y-75865D01*
X76655Y-75894D01*
X76670Y-75908D01*
X76698Y-75923D01*
X76755Y-75923D01*
X76784Y-75908D01*
X76798Y-75894D01*
X76812Y-75865D01*
X76812Y-75623D01*
X76941Y-75651D02*
X76955Y-75637D01*
X76984Y-75623D01*
X77055Y-75623D01*
X77084Y-75637D01*
X77098Y-75651D01*
X77112Y-75680D01*
X77112Y-75708D01*
X77098Y-75751D01*
X76927Y-75923D01*
X77112Y-75923D01*
X76641Y-65386D02*
X76641Y-65629D01*
X76655Y-65658D01*
X76670Y-65672D01*
X76698Y-65686D01*
X76755Y-65686D01*
X76784Y-65672D01*
X76798Y-65658D01*
X76812Y-65629D01*
X76812Y-65386D01*
X76927Y-65386D02*
X77112Y-65386D01*
X77012Y-65501D01*
X77055Y-65501D01*
X77084Y-65515D01*
X77098Y-65529D01*
X77112Y-65558D01*
X77112Y-65629D01*
X77098Y-65658D01*
X77084Y-65672D01*
X77055Y-65686D01*
X76970Y-65686D01*
X76941Y-65672D01*
X76927Y-65658D01*
X78355Y-67712D02*
X78369Y-67726D01*
X78383Y-67769D01*
X78383Y-67798D01*
X78369Y-67841D01*
X78340Y-67869D01*
X78312Y-67883D01*
X78255Y-67898D01*
X78212Y-67898D01*
X78155Y-67883D01*
X78126Y-67869D01*
X78098Y-67841D01*
X78083Y-67798D01*
X78083Y-67769D01*
X78098Y-67726D01*
X78112Y-67712D01*
X78112Y-67598D02*
X78098Y-67583D01*
X78083Y-67555D01*
X78083Y-67483D01*
X78098Y-67455D01*
X78112Y-67441D01*
X78140Y-67426D01*
X78169Y-67426D01*
X78212Y-67441D01*
X78383Y-67612D01*
X78383Y-67426D01*
X78183Y-67169D02*
X78383Y-67169D01*
X78069Y-67241D02*
X78283Y-67312D01*
X78283Y-67126D01*
X73768Y-60835D02*
X73754Y-60849D01*
X73711Y-60864D01*
X73683Y-60864D01*
X73640Y-60849D01*
X73611Y-60821D01*
X73597Y-60792D01*
X73583Y-60735D01*
X73583Y-60692D01*
X73597Y-60635D01*
X73611Y-60606D01*
X73640Y-60578D01*
X73683Y-60564D01*
X73711Y-60564D01*
X73754Y-60578D01*
X73768Y-60592D01*
X74040Y-60564D02*
X73897Y-60564D01*
X73883Y-60706D01*
X73897Y-60692D01*
X73926Y-60678D01*
X73997Y-60678D01*
X74026Y-60692D01*
X74040Y-60706D01*
X74054Y-60735D01*
X74054Y-60806D01*
X74040Y-60835D01*
X74026Y-60849D01*
X73997Y-60864D01*
X73926Y-60864D01*
X73897Y-60849D01*
X73883Y-60835D01*
X68906Y-64124D02*
X68920Y-64139D01*
X68934Y-64181D01*
X68934Y-64210D01*
X68920Y-64253D01*
X68892Y-64281D01*
X68863Y-64296D01*
X68806Y-64310D01*
X68763Y-64310D01*
X68706Y-64296D01*
X68677Y-64281D01*
X68649Y-64253D01*
X68634Y-64210D01*
X68634Y-64181D01*
X68649Y-64139D01*
X68663Y-64124D01*
X68634Y-64024D02*
X68634Y-63839D01*
X68749Y-63939D01*
X68749Y-63896D01*
X68763Y-63867D01*
X68777Y-63853D01*
X68806Y-63839D01*
X68877Y-63839D01*
X68906Y-63853D01*
X68920Y-63867D01*
X68934Y-63896D01*
X68934Y-63981D01*
X68920Y-64010D01*
X68906Y-64024D01*
X92720Y-63689D02*
X92706Y-63704D01*
X92663Y-63718D01*
X92634Y-63718D01*
X92591Y-63704D01*
X92563Y-63675D01*
X92549Y-63646D01*
X92534Y-63589D01*
X92534Y-63546D01*
X92549Y-63489D01*
X92563Y-63461D01*
X92591Y-63432D01*
X92634Y-63418D01*
X92663Y-63418D01*
X92706Y-63432D01*
X92720Y-63446D01*
X92834Y-63446D02*
X92849Y-63432D01*
X92877Y-63418D01*
X92949Y-63418D01*
X92977Y-63432D01*
X92991Y-63446D01*
X93006Y-63475D01*
X93006Y-63504D01*
X92991Y-63546D01*
X92820Y-63718D01*
X93006Y-63718D01*
X93120Y-63446D02*
X93134Y-63432D01*
X93163Y-63418D01*
X93234Y-63418D01*
X93263Y-63432D01*
X93277Y-63446D01*
X93291Y-63475D01*
X93291Y-63504D01*
X93277Y-63546D01*
X93106Y-63718D01*
X93291Y-63718D01*
X78355Y-77805D02*
X78369Y-77820D01*
X78383Y-77863D01*
X78383Y-77891D01*
X78369Y-77934D01*
X78340Y-77963D01*
X78312Y-77977D01*
X78255Y-77991D01*
X78212Y-77991D01*
X78155Y-77977D01*
X78126Y-77963D01*
X78098Y-77934D01*
X78083Y-77891D01*
X78083Y-77863D01*
X78098Y-77820D01*
X78112Y-77805D01*
X78083Y-77548D02*
X78083Y-77605D01*
X78098Y-77634D01*
X78112Y-77648D01*
X78155Y-77677D01*
X78212Y-77691D01*
X78326Y-77691D01*
X78355Y-77677D01*
X78369Y-77663D01*
X78383Y-77634D01*
X78383Y-77577D01*
X78369Y-77548D01*
X78355Y-77534D01*
X78326Y-77520D01*
X78255Y-77520D01*
X78226Y-77534D01*
X78212Y-77548D01*
X78198Y-77577D01*
X78198Y-77634D01*
X78212Y-77663D01*
X78226Y-77677D01*
X78255Y-77691D01*
X78355Y-57377D02*
X78369Y-57392D01*
X78383Y-57435D01*
X78383Y-57463D01*
X78369Y-57506D01*
X78340Y-57535D01*
X78312Y-57549D01*
X78255Y-57563D01*
X78212Y-57563D01*
X78155Y-57549D01*
X78126Y-57535D01*
X78098Y-57506D01*
X78083Y-57463D01*
X78083Y-57435D01*
X78098Y-57392D01*
X78112Y-57377D01*
X78383Y-57092D02*
X78383Y-57263D01*
X78383Y-57177D02*
X78083Y-57177D01*
X78126Y-57206D01*
X78155Y-57235D01*
X78169Y-57263D01*
X78083Y-56820D02*
X78083Y-56963D01*
X78226Y-56977D01*
X78212Y-56963D01*
X78198Y-56935D01*
X78198Y-56863D01*
X78212Y-56835D01*
X78226Y-56820D01*
X78255Y-56806D01*
X78326Y-56806D01*
X78355Y-56820D01*
X78369Y-56835D01*
X78383Y-56863D01*
X78383Y-56935D01*
X78369Y-56963D01*
X78355Y-56977D01*
X92720Y-53945D02*
X92706Y-53960D01*
X92663Y-53974D01*
X92634Y-53974D01*
X92591Y-53960D01*
X92563Y-53931D01*
X92549Y-53902D01*
X92534Y-53845D01*
X92534Y-53802D01*
X92549Y-53745D01*
X92563Y-53717D01*
X92591Y-53688D01*
X92634Y-53674D01*
X92663Y-53674D01*
X92706Y-53688D01*
X92720Y-53702D01*
X92820Y-53674D02*
X93006Y-53674D01*
X92906Y-53788D01*
X92949Y-53788D01*
X92977Y-53802D01*
X92991Y-53817D01*
X93006Y-53845D01*
X93006Y-53917D01*
X92991Y-53945D01*
X92977Y-53960D01*
X92949Y-53974D01*
X92863Y-53974D01*
X92834Y-53960D01*
X92820Y-53945D01*
X93291Y-53974D02*
X93120Y-53974D01*
X93206Y-53974D02*
X93206Y-53674D01*
X93177Y-53717D01*
X93149Y-53745D01*
X93120Y-53760D01*
X79391Y-65342D02*
X79291Y-65199D01*
X79219Y-65342D02*
X79219Y-65042D01*
X79334Y-65042D01*
X79362Y-65056D01*
X79377Y-65070D01*
X79391Y-65099D01*
X79391Y-65142D01*
X79377Y-65170D01*
X79362Y-65185D01*
X79334Y-65199D01*
X79219Y-65199D01*
X79677Y-65342D02*
X79505Y-65342D01*
X79591Y-65342D02*
X79591Y-65042D01*
X79562Y-65085D01*
X79534Y-65113D01*
X79505Y-65127D01*
X79934Y-65142D02*
X79934Y-65342D01*
X79862Y-65027D02*
X79791Y-65242D01*
X79977Y-65242D01*
X77469Y-57279D02*
X77483Y-57293D01*
X77497Y-57336D01*
X77497Y-57365D01*
X77483Y-57408D01*
X77455Y-57436D01*
X77426Y-57450D01*
X77369Y-57465D01*
X77326Y-57465D01*
X77269Y-57450D01*
X77240Y-57436D01*
X77212Y-57408D01*
X77197Y-57365D01*
X77197Y-57336D01*
X77212Y-57293D01*
X77226Y-57279D01*
X77497Y-56993D02*
X77497Y-57165D01*
X77497Y-57079D02*
X77197Y-57079D01*
X77240Y-57108D01*
X77269Y-57136D01*
X77283Y-57165D01*
X77197Y-56736D02*
X77197Y-56793D01*
X77212Y-56822D01*
X77226Y-56836D01*
X77269Y-56865D01*
X77326Y-56879D01*
X77440Y-56879D01*
X77469Y-56865D01*
X77483Y-56850D01*
X77497Y-56822D01*
X77497Y-56765D01*
X77483Y-56736D01*
X77469Y-56722D01*
X77440Y-56708D01*
X77369Y-56708D01*
X77340Y-56722D01*
X77326Y-56736D01*
X77312Y-56765D01*
X77312Y-56822D01*
X77326Y-56850D01*
X77340Y-56865D01*
X77369Y-56879D01*
X77759Y-61622D02*
X77745Y-61637D01*
X77702Y-61651D01*
X77674Y-61651D01*
X77631Y-61637D01*
X77602Y-61608D01*
X77588Y-61580D01*
X77574Y-61522D01*
X77574Y-61480D01*
X77588Y-61422D01*
X77602Y-61394D01*
X77631Y-61365D01*
X77674Y-61351D01*
X77702Y-61351D01*
X77745Y-61365D01*
X77759Y-61380D01*
X78045Y-61651D02*
X77874Y-61651D01*
X77959Y-61651D02*
X77959Y-61351D01*
X77931Y-61394D01*
X77902Y-61422D01*
X77874Y-61437D01*
X78145Y-61351D02*
X78345Y-61351D01*
X78217Y-61651D01*
X71071Y-54479D02*
X71085Y-54493D01*
X71100Y-54536D01*
X71100Y-54564D01*
X71085Y-54607D01*
X71057Y-54636D01*
X71028Y-54650D01*
X70971Y-54664D01*
X70928Y-54664D01*
X70871Y-54650D01*
X70843Y-54636D01*
X70814Y-54607D01*
X70800Y-54564D01*
X70800Y-54536D01*
X70814Y-54493D01*
X70828Y-54479D01*
X70900Y-54221D02*
X71100Y-54221D01*
X70785Y-54293D02*
X71000Y-54364D01*
X71000Y-54179D01*
X95185Y-77555D02*
X95200Y-77569D01*
X95214Y-77612D01*
X95214Y-77640D01*
X95200Y-77683D01*
X95171Y-77712D01*
X95143Y-77726D01*
X95085Y-77740D01*
X95043Y-77740D01*
X94985Y-77726D01*
X94957Y-77712D01*
X94928Y-77683D01*
X94914Y-77640D01*
X94914Y-77612D01*
X94928Y-77569D01*
X94943Y-77555D01*
X95214Y-77269D02*
X95214Y-77440D01*
X95214Y-77355D02*
X94914Y-77355D01*
X94957Y-77383D01*
X94985Y-77412D01*
X95000Y-77440D01*
X95014Y-77012D02*
X95214Y-77012D01*
X94900Y-77083D02*
X95114Y-77155D01*
X95114Y-76969D01*
X69142Y-51316D02*
X69042Y-51173D01*
X68971Y-51316D02*
X68971Y-51016D01*
X69085Y-51016D01*
X69114Y-51031D01*
X69128Y-51045D01*
X69142Y-51073D01*
X69142Y-51116D01*
X69128Y-51145D01*
X69114Y-51159D01*
X69085Y-51173D01*
X68971Y-51173D01*
X69242Y-51016D02*
X69428Y-51016D01*
X69328Y-51131D01*
X69371Y-51131D01*
X69400Y-51145D01*
X69414Y-51159D01*
X69428Y-51188D01*
X69428Y-51259D01*
X69414Y-51288D01*
X69400Y-51302D01*
X69371Y-51316D01*
X69285Y-51316D01*
X69257Y-51302D01*
X69242Y-51288D01*
X69142Y-48167D02*
X69042Y-48024D01*
X68971Y-48167D02*
X68971Y-47867D01*
X69085Y-47867D01*
X69114Y-47881D01*
X69128Y-47895D01*
X69142Y-47924D01*
X69142Y-47967D01*
X69128Y-47995D01*
X69114Y-48010D01*
X69085Y-48024D01*
X68971Y-48024D01*
X69400Y-47967D02*
X69400Y-48167D01*
X69328Y-47852D02*
X69257Y-48067D01*
X69442Y-48067D01*
X94590Y-57685D02*
X94576Y-57700D01*
X94533Y-57714D01*
X94504Y-57714D01*
X94462Y-57700D01*
X94433Y-57671D01*
X94419Y-57643D01*
X94404Y-57585D01*
X94404Y-57543D01*
X94419Y-57485D01*
X94433Y-57457D01*
X94462Y-57428D01*
X94504Y-57414D01*
X94533Y-57414D01*
X94576Y-57428D01*
X94590Y-57443D01*
X94690Y-57414D02*
X94876Y-57414D01*
X94776Y-57528D01*
X94819Y-57528D01*
X94847Y-57543D01*
X94862Y-57557D01*
X94876Y-57585D01*
X94876Y-57657D01*
X94862Y-57685D01*
X94847Y-57700D01*
X94819Y-57714D01*
X94733Y-57714D01*
X94704Y-57700D01*
X94690Y-57685D01*
X94990Y-57443D02*
X95004Y-57428D01*
X95033Y-57414D01*
X95104Y-57414D01*
X95133Y-57428D01*
X95147Y-57443D01*
X95162Y-57471D01*
X95162Y-57500D01*
X95147Y-57543D01*
X94976Y-57714D01*
X95162Y-57714D01*
X73921Y-57812D02*
X73821Y-57670D01*
X73749Y-57812D02*
X73749Y-57512D01*
X73864Y-57512D01*
X73892Y-57527D01*
X73907Y-57541D01*
X73921Y-57570D01*
X73921Y-57612D01*
X73907Y-57641D01*
X73892Y-57655D01*
X73864Y-57670D01*
X73749Y-57670D01*
X74207Y-57812D02*
X74035Y-57812D01*
X74121Y-57812D02*
X74121Y-57512D01*
X74092Y-57555D01*
X74064Y-57584D01*
X74035Y-57598D01*
X74378Y-57641D02*
X74349Y-57627D01*
X74335Y-57612D01*
X74321Y-57584D01*
X74321Y-57570D01*
X74335Y-57541D01*
X74349Y-57527D01*
X74378Y-57512D01*
X74435Y-57512D01*
X74464Y-57527D01*
X74478Y-57541D01*
X74492Y-57570D01*
X74492Y-57584D01*
X74478Y-57612D01*
X74464Y-57627D01*
X74435Y-57641D01*
X74378Y-57641D01*
X74349Y-57655D01*
X74335Y-57670D01*
X74321Y-57698D01*
X74321Y-57755D01*
X74335Y-57784D01*
X74349Y-57798D01*
X74378Y-57812D01*
X74435Y-57812D01*
X74464Y-57798D01*
X74478Y-57784D01*
X74492Y-57755D01*
X74492Y-57698D01*
X74478Y-57670D01*
X74464Y-57655D01*
X74435Y-57641D01*
X73921Y-57222D02*
X73821Y-57079D01*
X73749Y-57222D02*
X73749Y-56922D01*
X73864Y-56922D01*
X73892Y-56936D01*
X73907Y-56950D01*
X73921Y-56979D01*
X73921Y-57022D01*
X73907Y-57050D01*
X73892Y-57065D01*
X73864Y-57079D01*
X73749Y-57079D01*
X74207Y-57222D02*
X74035Y-57222D01*
X74121Y-57222D02*
X74121Y-56922D01*
X74092Y-56965D01*
X74064Y-56993D01*
X74035Y-57008D01*
X74349Y-57222D02*
X74407Y-57222D01*
X74435Y-57208D01*
X74449Y-57193D01*
X74478Y-57150D01*
X74492Y-57093D01*
X74492Y-56979D01*
X74478Y-56950D01*
X74464Y-56936D01*
X74435Y-56922D01*
X74378Y-56922D01*
X74349Y-56936D01*
X74335Y-56950D01*
X74321Y-56979D01*
X74321Y-57050D01*
X74335Y-57079D01*
X74349Y-57093D01*
X74378Y-57108D01*
X74435Y-57108D01*
X74464Y-57093D01*
X74478Y-57079D01*
X74492Y-57050D01*
X94787Y-53974D02*
X94687Y-53831D01*
X94616Y-53974D02*
X94616Y-53674D01*
X94730Y-53674D01*
X94758Y-53688D01*
X94773Y-53702D01*
X94787Y-53731D01*
X94787Y-53774D01*
X94773Y-53802D01*
X94758Y-53817D01*
X94730Y-53831D01*
X94616Y-53831D01*
X94901Y-53702D02*
X94916Y-53688D01*
X94944Y-53674D01*
X95016Y-53674D01*
X95044Y-53688D01*
X95058Y-53702D01*
X95073Y-53731D01*
X95073Y-53760D01*
X95058Y-53802D01*
X94887Y-53974D01*
X95073Y-53974D01*
X95187Y-53702D02*
X95201Y-53688D01*
X95230Y-53674D01*
X95301Y-53674D01*
X95330Y-53688D01*
X95344Y-53702D01*
X95358Y-53731D01*
X95358Y-53760D01*
X95344Y-53802D01*
X95173Y-53974D01*
X95358Y-53974D01*
X95411Y-55999D02*
X95268Y-56099D01*
X95411Y-56171D02*
X95111Y-56171D01*
X95111Y-56057D01*
X95125Y-56028D01*
X95139Y-56014D01*
X95168Y-55999D01*
X95211Y-55999D01*
X95239Y-56014D01*
X95254Y-56028D01*
X95268Y-56057D01*
X95268Y-56171D01*
X95139Y-55885D02*
X95125Y-55871D01*
X95111Y-55842D01*
X95111Y-55771D01*
X95125Y-55742D01*
X95139Y-55728D01*
X95168Y-55714D01*
X95197Y-55714D01*
X95239Y-55728D01*
X95411Y-55899D01*
X95411Y-55714D01*
X95111Y-55614D02*
X95111Y-55428D01*
X95225Y-55528D01*
X95225Y-55485D01*
X95239Y-55457D01*
X95254Y-55442D01*
X95282Y-55428D01*
X95354Y-55428D01*
X95382Y-55442D01*
X95397Y-55457D01*
X95411Y-55485D01*
X95411Y-55571D01*
X95397Y-55599D01*
X95382Y-55614D01*
X74708Y-56730D02*
X74608Y-56587D01*
X74537Y-56730D02*
X74537Y-56430D01*
X74651Y-56430D01*
X74680Y-56444D01*
X74694Y-56458D01*
X74708Y-56487D01*
X74708Y-56530D01*
X74694Y-56558D01*
X74680Y-56573D01*
X74651Y-56587D01*
X74537Y-56587D01*
X74823Y-56458D02*
X74837Y-56444D01*
X74865Y-56430D01*
X74937Y-56430D01*
X74965Y-56444D01*
X74980Y-56458D01*
X74994Y-56487D01*
X74994Y-56515D01*
X74980Y-56558D01*
X74808Y-56730D01*
X74994Y-56730D01*
X75280Y-56730D02*
X75108Y-56730D01*
X75194Y-56730D02*
X75194Y-56430D01*
X75165Y-56473D01*
X75137Y-56501D01*
X75108Y-56515D01*
X79334Y-54860D02*
X79234Y-54717D01*
X79163Y-54860D02*
X79163Y-54560D01*
X79277Y-54560D01*
X79306Y-54574D01*
X79320Y-54588D01*
X79334Y-54617D01*
X79334Y-54660D01*
X79320Y-54688D01*
X79306Y-54702D01*
X79277Y-54717D01*
X79163Y-54717D01*
X79448Y-54588D02*
X79463Y-54574D01*
X79491Y-54560D01*
X79563Y-54560D01*
X79591Y-54574D01*
X79606Y-54588D01*
X79620Y-54617D01*
X79620Y-54645D01*
X79606Y-54688D01*
X79434Y-54860D01*
X79620Y-54860D01*
X79806Y-54560D02*
X79834Y-54560D01*
X79863Y-54574D01*
X79877Y-54588D01*
X79891Y-54617D01*
X79906Y-54674D01*
X79906Y-54745D01*
X79891Y-54802D01*
X79877Y-54831D01*
X79863Y-54845D01*
X79834Y-54860D01*
X79806Y-54860D01*
X79777Y-54845D01*
X79763Y-54831D01*
X79748Y-54802D01*
X79734Y-54745D01*
X79734Y-54674D01*
X79748Y-54617D01*
X79763Y-54588D01*
X79777Y-54574D01*
X79806Y-54560D01*
X77759Y-51288D02*
X77745Y-51302D01*
X77702Y-51316D01*
X77674Y-51316D01*
X77631Y-51302D01*
X77602Y-51273D01*
X77588Y-51245D01*
X77574Y-51188D01*
X77574Y-51145D01*
X77588Y-51088D01*
X77602Y-51059D01*
X77631Y-51031D01*
X77674Y-51016D01*
X77702Y-51016D01*
X77745Y-51031D01*
X77759Y-51045D01*
X77874Y-51045D02*
X77888Y-51031D01*
X77917Y-51016D01*
X77988Y-51016D01*
X78017Y-51031D01*
X78031Y-51045D01*
X78045Y-51073D01*
X78045Y-51102D01*
X78031Y-51145D01*
X77859Y-51316D01*
X78045Y-51316D01*
X78302Y-51016D02*
X78245Y-51016D01*
X78217Y-51031D01*
X78202Y-51045D01*
X78174Y-51088D01*
X78159Y-51145D01*
X78159Y-51259D01*
X78174Y-51288D01*
X78188Y-51302D01*
X78217Y-51316D01*
X78274Y-51316D01*
X78302Y-51302D01*
X78317Y-51288D01*
X78331Y-51259D01*
X78331Y-51188D01*
X78317Y-51159D01*
X78302Y-51145D01*
X78274Y-51131D01*
X78217Y-51131D01*
X78188Y-51145D01*
X78174Y-51159D01*
X78159Y-51188D01*
X77469Y-67614D02*
X77483Y-67628D01*
X77497Y-67671D01*
X77497Y-67699D01*
X77483Y-67742D01*
X77455Y-67771D01*
X77426Y-67785D01*
X77369Y-67799D01*
X77326Y-67799D01*
X77269Y-67785D01*
X77240Y-67771D01*
X77212Y-67742D01*
X77197Y-67699D01*
X77197Y-67671D01*
X77212Y-67628D01*
X77226Y-67614D01*
X77226Y-67499D02*
X77212Y-67485D01*
X77197Y-67456D01*
X77197Y-67385D01*
X77212Y-67356D01*
X77226Y-67342D01*
X77255Y-67328D01*
X77283Y-67328D01*
X77326Y-67342D01*
X77497Y-67514D01*
X77497Y-67328D01*
X77197Y-67056D02*
X77197Y-67199D01*
X77340Y-67214D01*
X77326Y-67199D01*
X77312Y-67171D01*
X77312Y-67099D01*
X77326Y-67071D01*
X77340Y-67056D01*
X77369Y-67042D01*
X77440Y-67042D01*
X77469Y-67056D01*
X77483Y-67071D01*
X77497Y-67099D01*
X77497Y-67171D01*
X77483Y-67199D01*
X77469Y-67214D01*
X77469Y-77707D02*
X77483Y-77721D01*
X77497Y-77764D01*
X77497Y-77793D01*
X77483Y-77836D01*
X77455Y-77864D01*
X77426Y-77878D01*
X77369Y-77893D01*
X77326Y-77893D01*
X77269Y-77878D01*
X77240Y-77864D01*
X77212Y-77836D01*
X77197Y-77793D01*
X77197Y-77764D01*
X77212Y-77721D01*
X77226Y-77707D01*
X77197Y-77607D02*
X77197Y-77407D01*
X77497Y-77536D01*
X79575Y-75430D02*
X79475Y-75288D01*
X79404Y-75430D02*
X79404Y-75130D01*
X79518Y-75130D01*
X79547Y-75145D01*
X79561Y-75159D01*
X79575Y-75188D01*
X79575Y-75230D01*
X79561Y-75259D01*
X79547Y-75273D01*
X79518Y-75288D01*
X79404Y-75288D01*
X79747Y-75259D02*
X79718Y-75245D01*
X79704Y-75230D01*
X79690Y-75202D01*
X79690Y-75188D01*
X79704Y-75159D01*
X79718Y-75145D01*
X79747Y-75130D01*
X79804Y-75130D01*
X79833Y-75145D01*
X79847Y-75159D01*
X79861Y-75188D01*
X79861Y-75202D01*
X79847Y-75230D01*
X79833Y-75245D01*
X79804Y-75259D01*
X79747Y-75259D01*
X79718Y-75273D01*
X79704Y-75288D01*
X79690Y-75316D01*
X79690Y-75373D01*
X79704Y-75402D01*
X79718Y-75416D01*
X79747Y-75430D01*
X79804Y-75430D01*
X79833Y-75416D01*
X79847Y-75402D01*
X79861Y-75373D01*
X79861Y-75316D01*
X79847Y-75288D01*
X79833Y-75273D01*
X79804Y-75259D01*
X74950Y-77596D02*
X74850Y-77453D01*
X74778Y-77596D02*
X74778Y-77296D01*
X74892Y-77296D01*
X74921Y-77310D01*
X74935Y-77324D01*
X74950Y-77353D01*
X74950Y-77396D01*
X74935Y-77424D01*
X74921Y-77439D01*
X74892Y-77453D01*
X74778Y-77453D01*
X75092Y-77596D02*
X75150Y-77596D01*
X75178Y-77582D01*
X75192Y-77567D01*
X75221Y-77524D01*
X75235Y-77467D01*
X75235Y-77353D01*
X75221Y-77324D01*
X75207Y-77310D01*
X75178Y-77296D01*
X75121Y-77296D01*
X75092Y-77310D01*
X75078Y-77324D01*
X75064Y-77353D01*
X75064Y-77424D01*
X75078Y-77453D01*
X75092Y-77467D01*
X75121Y-77482D01*
X75178Y-77482D01*
X75207Y-77467D01*
X75221Y-77453D01*
X75235Y-77424D01*
X74708Y-67261D02*
X74608Y-67118D01*
X74537Y-67261D02*
X74537Y-66961D01*
X74651Y-66961D01*
X74680Y-66975D01*
X74694Y-66990D01*
X74708Y-67018D01*
X74708Y-67061D01*
X74694Y-67090D01*
X74680Y-67104D01*
X74651Y-67118D01*
X74537Y-67118D01*
X74994Y-67261D02*
X74823Y-67261D01*
X74908Y-67261D02*
X74908Y-66961D01*
X74880Y-67004D01*
X74851Y-67033D01*
X74823Y-67047D01*
X75265Y-66961D02*
X75123Y-66961D01*
X75108Y-67104D01*
X75123Y-67090D01*
X75151Y-67075D01*
X75223Y-67075D01*
X75251Y-67090D01*
X75265Y-67104D01*
X75280Y-67133D01*
X75280Y-67204D01*
X75265Y-67233D01*
X75251Y-67247D01*
X75223Y-67261D01*
X75151Y-67261D01*
X75123Y-67247D01*
X75108Y-67233D01*
X95411Y-75488D02*
X95268Y-75588D01*
X95411Y-75659D02*
X95111Y-75659D01*
X95111Y-75545D01*
X95125Y-75516D01*
X95139Y-75502D01*
X95168Y-75488D01*
X95211Y-75488D01*
X95239Y-75502D01*
X95254Y-75516D01*
X95268Y-75545D01*
X95268Y-75659D01*
X95411Y-75202D02*
X95411Y-75373D01*
X95411Y-75288D02*
X95111Y-75288D01*
X95154Y-75316D01*
X95182Y-75345D01*
X95197Y-75373D01*
X95411Y-74916D02*
X95411Y-75088D01*
X95411Y-75002D02*
X95111Y-75002D01*
X95154Y-75030D01*
X95182Y-75059D01*
X95197Y-75088D01*
X68738Y-54479D02*
X68595Y-54579D01*
X68738Y-54650D02*
X68438Y-54650D01*
X68438Y-54536D01*
X68452Y-54507D01*
X68466Y-54493D01*
X68495Y-54479D01*
X68538Y-54479D01*
X68566Y-54493D01*
X68580Y-54507D01*
X68595Y-54536D01*
X68595Y-54650D01*
X68466Y-54364D02*
X68452Y-54350D01*
X68438Y-54321D01*
X68438Y-54250D01*
X68452Y-54221D01*
X68466Y-54207D01*
X68495Y-54193D01*
X68523Y-54193D01*
X68566Y-54207D01*
X68738Y-54379D01*
X68738Y-54193D01*
X94787Y-73462D02*
X94687Y-73319D01*
X94616Y-73462D02*
X94616Y-73162D01*
X94730Y-73162D01*
X94758Y-73176D01*
X94773Y-73191D01*
X94787Y-73219D01*
X94787Y-73262D01*
X94773Y-73291D01*
X94758Y-73305D01*
X94730Y-73319D01*
X94616Y-73319D01*
X95073Y-73462D02*
X94901Y-73462D01*
X94987Y-73462D02*
X94987Y-73162D01*
X94958Y-73205D01*
X94930Y-73233D01*
X94901Y-73248D01*
X95258Y-73162D02*
X95287Y-73162D01*
X95316Y-73176D01*
X95330Y-73191D01*
X95344Y-73219D01*
X95358Y-73276D01*
X95358Y-73348D01*
X95344Y-73405D01*
X95330Y-73433D01*
X95316Y-73448D01*
X95287Y-73462D01*
X95258Y-73462D01*
X95230Y-73448D01*
X95216Y-73433D01*
X95201Y-73405D01*
X95187Y-73348D01*
X95187Y-73276D01*
X95201Y-73219D01*
X95216Y-73191D01*
X95230Y-73176D01*
X95258Y-73162D01*
X69919Y-54479D02*
X69776Y-54579D01*
X69919Y-54650D02*
X69619Y-54650D01*
X69619Y-54536D01*
X69633Y-54507D01*
X69647Y-54493D01*
X69676Y-54479D01*
X69719Y-54479D01*
X69747Y-54493D01*
X69762Y-54507D01*
X69776Y-54536D01*
X69776Y-54650D01*
X69919Y-54193D02*
X69919Y-54364D01*
X69919Y-54279D02*
X69619Y-54279D01*
X69662Y-54307D01*
X69690Y-54336D01*
X69704Y-54364D01*
X69300Y-54479D02*
X69314Y-54493D01*
X69328Y-54536D01*
X69328Y-54564D01*
X69314Y-54607D01*
X69285Y-54636D01*
X69257Y-54650D01*
X69200Y-54664D01*
X69157Y-54664D01*
X69100Y-54650D01*
X69071Y-54636D01*
X69042Y-54607D01*
X69028Y-54564D01*
X69028Y-54536D01*
X69042Y-54493D01*
X69057Y-54479D01*
X69328Y-54193D02*
X69328Y-54364D01*
X69328Y-54279D02*
X69028Y-54279D01*
X69071Y-54307D01*
X69100Y-54336D01*
X69114Y-54364D01*
X70509Y-53987D02*
X70366Y-54087D01*
X70509Y-54158D02*
X70209Y-54158D01*
X70209Y-54044D01*
X70224Y-54015D01*
X70238Y-54001D01*
X70266Y-53987D01*
X70309Y-53987D01*
X70338Y-54001D01*
X70352Y-54015D01*
X70366Y-54044D01*
X70366Y-54158D01*
X70209Y-53715D02*
X70209Y-53858D01*
X70352Y-53872D01*
X70338Y-53858D01*
X70324Y-53829D01*
X70324Y-53758D01*
X70338Y-53729D01*
X70352Y-53715D01*
X70381Y-53701D01*
X70452Y-53701D01*
X70481Y-53715D01*
X70495Y-53729D01*
X70509Y-53758D01*
X70509Y-53829D01*
X70495Y-53858D01*
X70481Y-53872D01*
X73867Y-59584D02*
X73767Y-59441D01*
X73695Y-59584D02*
X73695Y-59284D01*
X73810Y-59284D01*
X73838Y-59298D01*
X73853Y-59313D01*
X73867Y-59341D01*
X73867Y-59384D01*
X73853Y-59413D01*
X73838Y-59427D01*
X73810Y-59441D01*
X73695Y-59441D01*
X73967Y-59284D02*
X74167Y-59284D01*
X74038Y-59584D01*
X73867Y-60175D02*
X73767Y-60032D01*
X73695Y-60175D02*
X73695Y-59875D01*
X73810Y-59875D01*
X73838Y-59889D01*
X73853Y-59903D01*
X73867Y-59932D01*
X73867Y-59975D01*
X73853Y-60003D01*
X73838Y-60017D01*
X73810Y-60032D01*
X73695Y-60032D01*
X74124Y-59875D02*
X74067Y-59875D01*
X74038Y-59889D01*
X74024Y-59903D01*
X73995Y-59946D01*
X73981Y-60003D01*
X73981Y-60117D01*
X73995Y-60146D01*
X74010Y-60160D01*
X74038Y-60175D01*
X74095Y-60175D01*
X74124Y-60160D01*
X74138Y-60146D01*
X74153Y-60117D01*
X74153Y-60046D01*
X74138Y-60017D01*
X74124Y-60003D01*
X74095Y-59989D01*
X74038Y-59989D01*
X74010Y-60003D01*
X73995Y-60017D01*
X73981Y-60046D01*
X94590Y-67528D02*
X94576Y-67542D01*
X94533Y-67556D01*
X94504Y-67556D01*
X94462Y-67542D01*
X94433Y-67514D01*
X94419Y-67485D01*
X94404Y-67428D01*
X94404Y-67385D01*
X94419Y-67328D01*
X94433Y-67299D01*
X94462Y-67271D01*
X94504Y-67256D01*
X94533Y-67256D01*
X94576Y-67271D01*
X94590Y-67285D01*
X94704Y-67285D02*
X94719Y-67271D01*
X94747Y-67256D01*
X94819Y-67256D01*
X94847Y-67271D01*
X94862Y-67285D01*
X94876Y-67314D01*
X94876Y-67342D01*
X94862Y-67385D01*
X94690Y-67556D01*
X94876Y-67556D01*
X94976Y-67256D02*
X95162Y-67256D01*
X95062Y-67371D01*
X95104Y-67371D01*
X95133Y-67385D01*
X95147Y-67399D01*
X95162Y-67428D01*
X95162Y-67499D01*
X95147Y-67528D01*
X95133Y-67542D01*
X95104Y-67556D01*
X95019Y-67556D01*
X94990Y-67542D01*
X94976Y-67528D01*
X73921Y-58993D02*
X73821Y-58851D01*
X73749Y-58993D02*
X73749Y-58693D01*
X73864Y-58693D01*
X73892Y-58708D01*
X73907Y-58722D01*
X73921Y-58751D01*
X73921Y-58793D01*
X73907Y-58822D01*
X73892Y-58836D01*
X73864Y-58851D01*
X73749Y-58851D01*
X74207Y-58993D02*
X74035Y-58993D01*
X74121Y-58993D02*
X74121Y-58693D01*
X74092Y-58736D01*
X74064Y-58765D01*
X74035Y-58779D01*
X74321Y-58722D02*
X74335Y-58708D01*
X74364Y-58693D01*
X74435Y-58693D01*
X74464Y-58708D01*
X74478Y-58722D01*
X74492Y-58751D01*
X74492Y-58779D01*
X74478Y-58822D01*
X74307Y-58993D01*
X74492Y-58993D01*
X73921Y-58403D02*
X73821Y-58260D01*
X73749Y-58403D02*
X73749Y-58103D01*
X73864Y-58103D01*
X73892Y-58117D01*
X73907Y-58132D01*
X73921Y-58160D01*
X73921Y-58203D01*
X73907Y-58232D01*
X73892Y-58246D01*
X73864Y-58260D01*
X73749Y-58260D01*
X74207Y-58403D02*
X74035Y-58403D01*
X74121Y-58403D02*
X74121Y-58103D01*
X74092Y-58146D01*
X74064Y-58174D01*
X74035Y-58189D01*
X74307Y-58103D02*
X74492Y-58103D01*
X74392Y-58217D01*
X74435Y-58217D01*
X74464Y-58232D01*
X74478Y-58246D01*
X74492Y-58274D01*
X74492Y-58346D01*
X74478Y-58374D01*
X74464Y-58389D01*
X74435Y-58403D01*
X74349Y-58403D01*
X74321Y-58389D01*
X74307Y-58374D01*
X94787Y-63718D02*
X94687Y-63575D01*
X94616Y-63718D02*
X94616Y-63418D01*
X94730Y-63418D01*
X94758Y-63432D01*
X94773Y-63446D01*
X94787Y-63475D01*
X94787Y-63518D01*
X94773Y-63546D01*
X94758Y-63561D01*
X94730Y-63575D01*
X94616Y-63575D01*
X95073Y-63718D02*
X94901Y-63718D01*
X94987Y-63718D02*
X94987Y-63418D01*
X94958Y-63461D01*
X94930Y-63489D01*
X94901Y-63504D01*
X95330Y-63418D02*
X95273Y-63418D01*
X95244Y-63432D01*
X95230Y-63446D01*
X95201Y-63489D01*
X95187Y-63546D01*
X95187Y-63661D01*
X95201Y-63689D01*
X95216Y-63704D01*
X95244Y-63718D01*
X95301Y-63718D01*
X95330Y-63704D01*
X95344Y-63689D01*
X95358Y-63661D01*
X95358Y-63589D01*
X95344Y-63561D01*
X95330Y-63546D01*
X95301Y-63532D01*
X95244Y-63532D01*
X95216Y-63546D01*
X95201Y-63561D01*
X95187Y-63589D01*
X95411Y-65744D02*
X95268Y-65844D01*
X95411Y-65915D02*
X95111Y-65915D01*
X95111Y-65801D01*
X95125Y-65772D01*
X95139Y-65758D01*
X95168Y-65744D01*
X95211Y-65744D01*
X95239Y-65758D01*
X95254Y-65772D01*
X95268Y-65801D01*
X95268Y-65915D01*
X95411Y-65458D02*
X95411Y-65629D01*
X95411Y-65544D02*
X95111Y-65544D01*
X95154Y-65572D01*
X95182Y-65601D01*
X95197Y-65629D01*
X95111Y-65358D02*
X95111Y-65158D01*
X95411Y-65286D01*
X83009Y-75615D02*
X82709Y-75615D01*
X82709Y-75543D01*
X82724Y-75500D01*
X82752Y-75472D01*
X82781Y-75457D01*
X82838Y-75443D01*
X82881Y-75443D01*
X82938Y-75457D01*
X82966Y-75472D01*
X82995Y-75500D01*
X83009Y-75543D01*
X83009Y-75615D01*
X82809Y-75186D02*
X83009Y-75186D01*
X82695Y-75257D02*
X82909Y-75329D01*
X82909Y-75143D01*
X83009Y-56269D02*
X82709Y-56269D01*
X82709Y-56198D01*
X82724Y-56155D01*
X82752Y-56126D01*
X82781Y-56112D01*
X82838Y-56098D01*
X82881Y-56098D01*
X82938Y-56112D01*
X82966Y-56126D01*
X82995Y-56155D01*
X83009Y-56198D01*
X83009Y-56269D01*
X83009Y-55812D02*
X83009Y-55984D01*
X83009Y-55898D02*
X82709Y-55898D01*
X82752Y-55926D01*
X82781Y-55955D01*
X82795Y-55984D01*
X82738Y-55698D02*
X82724Y-55684D01*
X82709Y-55655D01*
X82709Y-55584D01*
X82724Y-55555D01*
X82738Y-55541D01*
X82766Y-55526D01*
X82795Y-55526D01*
X82838Y-55541D01*
X83009Y-55712D01*
X83009Y-55526D01*
X83009Y-65871D02*
X82709Y-65871D01*
X82709Y-65799D01*
X82724Y-65756D01*
X82752Y-65728D01*
X82781Y-65713D01*
X82838Y-65699D01*
X82881Y-65699D01*
X82938Y-65713D01*
X82966Y-65728D01*
X82995Y-65756D01*
X83009Y-65799D01*
X83009Y-65871D01*
X82838Y-65528D02*
X82824Y-65556D01*
X82809Y-65571D01*
X82781Y-65585D01*
X82766Y-65585D01*
X82738Y-65571D01*
X82724Y-65556D01*
X82709Y-65528D01*
X82709Y-65471D01*
X82724Y-65442D01*
X82738Y-65428D01*
X82766Y-65413D01*
X82781Y-65413D01*
X82809Y-65428D01*
X82824Y-65442D01*
X82838Y-65471D01*
X82838Y-65528D01*
X82852Y-65556D01*
X82866Y-65571D01*
X82895Y-65585D01*
X82952Y-65585D01*
X82981Y-65571D01*
X82995Y-65556D01*
X83009Y-65528D01*
X83009Y-65471D01*
X82995Y-65442D01*
X82981Y-65428D01*
X82952Y-65413D01*
X82895Y-65413D01*
X82866Y-65428D01*
X82852Y-65442D01*
X82838Y-65471D01*
X65329Y-49348D02*
X65329Y-49048D01*
X65444Y-49048D01*
X65472Y-49062D01*
X65486Y-49076D01*
X65501Y-49105D01*
X65501Y-49148D01*
X65486Y-49176D01*
X65472Y-49191D01*
X65444Y-49205D01*
X65329Y-49205D01*
X65786Y-49348D02*
X65615Y-49348D01*
X65701Y-49348D02*
X65701Y-49048D01*
X65672Y-49091D01*
X65644Y-49119D01*
X65615Y-49134D01*
X74242Y-55942D02*
X74242Y-55642D01*
X74313Y-55642D01*
X74356Y-55657D01*
X74384Y-55685D01*
X74399Y-55714D01*
X74413Y-55771D01*
X74413Y-55814D01*
X74399Y-55871D01*
X74384Y-55899D01*
X74356Y-55928D01*
X74313Y-55942D01*
X74242Y-55942D01*
X74699Y-55942D02*
X74527Y-55942D01*
X74613Y-55942D02*
X74613Y-55642D01*
X74584Y-55685D01*
X74556Y-55714D01*
X74527Y-55728D01*
X74984Y-55942D02*
X74813Y-55942D01*
X74899Y-55942D02*
X74899Y-55642D01*
X74870Y-55685D01*
X74842Y-55714D01*
X74813Y-55728D01*
X79109Y-74742D02*
X79109Y-74442D01*
X79180Y-74442D01*
X79223Y-74456D01*
X79252Y-74484D01*
X79266Y-74513D01*
X79280Y-74570D01*
X79280Y-74613D01*
X79266Y-74670D01*
X79252Y-74699D01*
X79223Y-74727D01*
X79180Y-74742D01*
X79109Y-74742D01*
X79394Y-74470D02*
X79409Y-74456D01*
X79437Y-74442D01*
X79509Y-74442D01*
X79537Y-74456D01*
X79552Y-74470D01*
X79566Y-74499D01*
X79566Y-74527D01*
X79552Y-74570D01*
X79380Y-74742D01*
X79566Y-74742D01*
X78867Y-54072D02*
X78867Y-53772D01*
X78939Y-53772D01*
X78982Y-53787D01*
X79010Y-53815D01*
X79025Y-53844D01*
X79039Y-53901D01*
X79039Y-53944D01*
X79025Y-54001D01*
X79010Y-54029D01*
X78982Y-54058D01*
X78939Y-54072D01*
X78867Y-54072D01*
X79325Y-54072D02*
X79153Y-54072D01*
X79239Y-54072D02*
X79239Y-53772D01*
X79210Y-53815D01*
X79182Y-53844D01*
X79153Y-53858D01*
X79510Y-53772D02*
X79539Y-53772D01*
X79567Y-53787D01*
X79582Y-53801D01*
X79596Y-53829D01*
X79610Y-53887D01*
X79610Y-53958D01*
X79596Y-54015D01*
X79582Y-54044D01*
X79567Y-54058D01*
X79539Y-54072D01*
X79510Y-54072D01*
X79482Y-54058D01*
X79467Y-54044D01*
X79453Y-54015D01*
X79439Y-53958D01*
X79439Y-53887D01*
X79453Y-53829D01*
X79467Y-53801D01*
X79482Y-53787D01*
X79510Y-53772D01*
X74483Y-66277D02*
X74483Y-65977D01*
X74554Y-65977D01*
X74597Y-65991D01*
X74626Y-66020D01*
X74640Y-66048D01*
X74654Y-66106D01*
X74654Y-66148D01*
X74640Y-66206D01*
X74626Y-66234D01*
X74597Y-66263D01*
X74554Y-66277D01*
X74483Y-66277D01*
X74754Y-65977D02*
X74954Y-65977D01*
X74826Y-66277D01*
X79057Y-64420D02*
X79057Y-64120D01*
X79129Y-64120D01*
X79172Y-64134D01*
X79200Y-64163D01*
X79214Y-64191D01*
X79229Y-64248D01*
X79229Y-64291D01*
X79214Y-64348D01*
X79200Y-64377D01*
X79172Y-64406D01*
X79129Y-64420D01*
X79057Y-64420D01*
X79486Y-64120D02*
X79429Y-64120D01*
X79400Y-64134D01*
X79386Y-64148D01*
X79357Y-64191D01*
X79343Y-64248D01*
X79343Y-64363D01*
X79357Y-64391D01*
X79372Y-64406D01*
X79400Y-64420D01*
X79457Y-64420D01*
X79486Y-64406D01*
X79500Y-64391D01*
X79514Y-64363D01*
X79514Y-64291D01*
X79500Y-64263D01*
X79486Y-64248D01*
X79457Y-64234D01*
X79400Y-64234D01*
X79372Y-64248D01*
X79357Y-64263D01*
X79343Y-64291D01*
X74680Y-75923D02*
X74680Y-75623D01*
X74751Y-75623D01*
X74794Y-75637D01*
X74823Y-75665D01*
X74837Y-75694D01*
X74851Y-75751D01*
X74851Y-75794D01*
X74837Y-75851D01*
X74823Y-75880D01*
X74794Y-75908D01*
X74751Y-75923D01*
X74680Y-75923D01*
X74951Y-75623D02*
X75137Y-75623D01*
X75037Y-75737D01*
X75080Y-75737D01*
X75108Y-75751D01*
X75123Y-75765D01*
X75137Y-75794D01*
X75137Y-75865D01*
X75123Y-75894D01*
X75108Y-75908D01*
X75080Y-75923D01*
X74994Y-75923D01*
X74965Y-75908D01*
X74951Y-75894D01*
X74118Y-68512D02*
X74103Y-68526D01*
X74061Y-68541D01*
X74032Y-68541D01*
X73989Y-68526D01*
X73961Y-68498D01*
X73946Y-68469D01*
X73932Y-68412D01*
X73932Y-68369D01*
X73946Y-68312D01*
X73961Y-68284D01*
X73989Y-68255D01*
X74032Y-68241D01*
X74061Y-68241D01*
X74103Y-68255D01*
X74118Y-68269D01*
X74403Y-68541D02*
X74232Y-68541D01*
X74318Y-68541D02*
X74318Y-68241D01*
X74289Y-68284D01*
X74261Y-68312D01*
X74232Y-68326D01*
X74589Y-68241D02*
X74618Y-68241D01*
X74646Y-68255D01*
X74661Y-68269D01*
X74675Y-68298D01*
X74689Y-68355D01*
X74689Y-68426D01*
X74675Y-68484D01*
X74661Y-68512D01*
X74646Y-68526D01*
X74618Y-68541D01*
X74589Y-68541D01*
X74561Y-68526D01*
X74546Y-68512D01*
X74532Y-68484D01*
X74518Y-68426D01*
X74518Y-68355D01*
X74532Y-68298D01*
X74546Y-68269D01*
X74561Y-68255D01*
X74589Y-68241D01*
X78788Y-68512D02*
X78774Y-68526D01*
X78731Y-68541D01*
X78702Y-68541D01*
X78660Y-68526D01*
X78631Y-68498D01*
X78617Y-68469D01*
X78602Y-68412D01*
X78602Y-68369D01*
X78617Y-68312D01*
X78631Y-68284D01*
X78660Y-68255D01*
X78702Y-68241D01*
X78731Y-68241D01*
X78774Y-68255D01*
X78788Y-68269D01*
X78931Y-68541D02*
X78988Y-68541D01*
X79017Y-68526D01*
X79031Y-68512D01*
X79060Y-68469D01*
X79074Y-68412D01*
X79074Y-68298D01*
X79060Y-68269D01*
X79045Y-68255D01*
X79017Y-68241D01*
X78960Y-68241D01*
X78931Y-68255D01*
X78917Y-68269D01*
X78902Y-68298D01*
X78902Y-68369D01*
X78917Y-68398D01*
X78931Y-68412D01*
X78960Y-68426D01*
X79017Y-68426D01*
X79045Y-68412D01*
X79060Y-68398D01*
X79074Y-68369D01*
X74118Y-47843D02*
X74103Y-47857D01*
X74061Y-47871D01*
X74032Y-47871D01*
X73989Y-47857D01*
X73961Y-47829D01*
X73946Y-47800D01*
X73932Y-47743D01*
X73932Y-47700D01*
X73946Y-47643D01*
X73961Y-47614D01*
X73989Y-47586D01*
X74032Y-47571D01*
X74061Y-47571D01*
X74103Y-47586D01*
X74118Y-47600D01*
X74232Y-47600D02*
X74246Y-47586D01*
X74275Y-47571D01*
X74346Y-47571D01*
X74375Y-47586D01*
X74389Y-47600D01*
X74403Y-47629D01*
X74403Y-47657D01*
X74389Y-47700D01*
X74218Y-47871D01*
X74403Y-47871D01*
X74575Y-47700D02*
X74546Y-47686D01*
X74532Y-47671D01*
X74518Y-47643D01*
X74518Y-47629D01*
X74532Y-47600D01*
X74546Y-47586D01*
X74575Y-47571D01*
X74632Y-47571D01*
X74661Y-47586D01*
X74675Y-47600D01*
X74689Y-47629D01*
X74689Y-47643D01*
X74675Y-47671D01*
X74661Y-47686D01*
X74632Y-47700D01*
X74575Y-47700D01*
X74546Y-47714D01*
X74532Y-47729D01*
X74518Y-47757D01*
X74518Y-47814D01*
X74532Y-47843D01*
X74546Y-47857D01*
X74575Y-47871D01*
X74632Y-47871D01*
X74661Y-47857D01*
X74675Y-47843D01*
X74689Y-47814D01*
X74689Y-47757D01*
X74675Y-47729D01*
X74661Y-47714D01*
X74632Y-47700D01*
X86421Y-63788D02*
X86407Y-63802D01*
X86364Y-63816D01*
X86335Y-63816D01*
X86292Y-63802D01*
X86264Y-63773D01*
X86249Y-63745D01*
X86235Y-63688D01*
X86235Y-63645D01*
X86249Y-63588D01*
X86264Y-63559D01*
X86292Y-63531D01*
X86335Y-63516D01*
X86364Y-63516D01*
X86407Y-63531D01*
X86421Y-63545D01*
X86535Y-63545D02*
X86549Y-63531D01*
X86578Y-63516D01*
X86649Y-63516D01*
X86678Y-63531D01*
X86692Y-63545D01*
X86707Y-63573D01*
X86707Y-63602D01*
X86692Y-63645D01*
X86521Y-63816D01*
X86707Y-63816D01*
X86992Y-63816D02*
X86821Y-63816D01*
X86907Y-63816D02*
X86907Y-63516D01*
X86878Y-63559D01*
X86849Y-63588D01*
X86821Y-63602D01*
X90063Y-63788D02*
X90048Y-63802D01*
X90005Y-63816D01*
X89977Y-63816D01*
X89934Y-63802D01*
X89905Y-63773D01*
X89891Y-63745D01*
X89877Y-63688D01*
X89877Y-63645D01*
X89891Y-63588D01*
X89905Y-63559D01*
X89934Y-63531D01*
X89977Y-63516D01*
X90005Y-63516D01*
X90048Y-63531D01*
X90063Y-63545D01*
X90177Y-63545D02*
X90191Y-63531D01*
X90220Y-63516D01*
X90291Y-63516D01*
X90320Y-63531D01*
X90334Y-63545D01*
X90348Y-63573D01*
X90348Y-63602D01*
X90334Y-63645D01*
X90163Y-63816D01*
X90348Y-63816D01*
X90534Y-63516D02*
X90563Y-63516D01*
X90591Y-63531D01*
X90605Y-63545D01*
X90620Y-63573D01*
X90634Y-63631D01*
X90634Y-63702D01*
X90620Y-63759D01*
X90605Y-63788D01*
X90591Y-63802D01*
X90563Y-63816D01*
X90534Y-63816D01*
X90505Y-63802D01*
X90491Y-63788D01*
X90477Y-63759D01*
X90463Y-63702D01*
X90463Y-63631D01*
X90477Y-63573D01*
X90491Y-63545D01*
X90505Y-63531D01*
X90534Y-63516D01*
X76283Y-57685D02*
X76269Y-57700D01*
X76226Y-57714D01*
X76197Y-57714D01*
X76154Y-57700D01*
X76126Y-57671D01*
X76112Y-57643D01*
X76097Y-57585D01*
X76097Y-57543D01*
X76112Y-57485D01*
X76126Y-57457D01*
X76154Y-57428D01*
X76197Y-57414D01*
X76226Y-57414D01*
X76269Y-57428D01*
X76283Y-57443D01*
X76569Y-57714D02*
X76397Y-57714D01*
X76483Y-57714D02*
X76483Y-57414D01*
X76454Y-57457D01*
X76426Y-57485D01*
X76397Y-57500D01*
X76712Y-57714D02*
X76769Y-57714D01*
X76797Y-57700D01*
X76812Y-57685D01*
X76840Y-57643D01*
X76854Y-57585D01*
X76854Y-57471D01*
X76840Y-57443D01*
X76826Y-57428D01*
X76797Y-57414D01*
X76740Y-57414D01*
X76712Y-57428D01*
X76697Y-57443D01*
X76683Y-57471D01*
X76683Y-57543D01*
X76697Y-57571D01*
X76712Y-57585D01*
X76740Y-57600D01*
X76797Y-57600D01*
X76826Y-57585D01*
X76840Y-57571D01*
X76854Y-57543D01*
X86421Y-73532D02*
X86407Y-73546D01*
X86364Y-73560D01*
X86335Y-73560D01*
X86292Y-73546D01*
X86264Y-73518D01*
X86249Y-73489D01*
X86235Y-73432D01*
X86235Y-73389D01*
X86249Y-73332D01*
X86264Y-73303D01*
X86292Y-73275D01*
X86335Y-73260D01*
X86364Y-73260D01*
X86407Y-73275D01*
X86421Y-73289D01*
X86707Y-73560D02*
X86535Y-73560D01*
X86621Y-73560D02*
X86621Y-73260D01*
X86592Y-73303D01*
X86564Y-73332D01*
X86535Y-73346D01*
X86992Y-73560D02*
X86821Y-73560D01*
X86907Y-73560D02*
X86907Y-73260D01*
X86878Y-73303D01*
X86849Y-73332D01*
X86821Y-73346D01*
X90063Y-54044D02*
X90048Y-54058D01*
X90005Y-54072D01*
X89977Y-54072D01*
X89934Y-54058D01*
X89905Y-54029D01*
X89891Y-54001D01*
X89877Y-53944D01*
X89877Y-53901D01*
X89891Y-53844D01*
X89905Y-53815D01*
X89934Y-53787D01*
X89977Y-53772D01*
X90005Y-53772D01*
X90048Y-53787D01*
X90063Y-53801D01*
X90177Y-53801D02*
X90191Y-53787D01*
X90220Y-53772D01*
X90291Y-53772D01*
X90320Y-53787D01*
X90334Y-53801D01*
X90348Y-53829D01*
X90348Y-53858D01*
X90334Y-53901D01*
X90163Y-54072D01*
X90348Y-54072D01*
X90491Y-54072D02*
X90548Y-54072D01*
X90577Y-54058D01*
X90591Y-54044D01*
X90620Y-54001D01*
X90634Y-53944D01*
X90634Y-53829D01*
X90620Y-53801D01*
X90605Y-53787D01*
X90577Y-53772D01*
X90520Y-53772D01*
X90491Y-53787D01*
X90477Y-53801D01*
X90463Y-53829D01*
X90463Y-53901D01*
X90477Y-53929D01*
X90491Y-53944D01*
X90520Y-53958D01*
X90577Y-53958D01*
X90605Y-53944D01*
X90620Y-53929D01*
X90634Y-53901D01*
X86421Y-54044D02*
X86407Y-54058D01*
X86364Y-54072D01*
X86335Y-54072D01*
X86292Y-54058D01*
X86264Y-54029D01*
X86249Y-54001D01*
X86235Y-53944D01*
X86235Y-53901D01*
X86249Y-53844D01*
X86264Y-53815D01*
X86292Y-53787D01*
X86335Y-53772D01*
X86364Y-53772D01*
X86407Y-53787D01*
X86421Y-53801D01*
X86521Y-53772D02*
X86707Y-53772D01*
X86607Y-53887D01*
X86649Y-53887D01*
X86678Y-53901D01*
X86692Y-53915D01*
X86707Y-53944D01*
X86707Y-54015D01*
X86692Y-54044D01*
X86678Y-54058D01*
X86649Y-54072D01*
X86564Y-54072D01*
X86535Y-54058D01*
X86521Y-54044D01*
X86892Y-53772D02*
X86921Y-53772D01*
X86949Y-53787D01*
X86964Y-53801D01*
X86978Y-53829D01*
X86992Y-53887D01*
X86992Y-53958D01*
X86978Y-54015D01*
X86964Y-54044D01*
X86949Y-54058D01*
X86921Y-54072D01*
X86892Y-54072D01*
X86864Y-54058D01*
X86849Y-54044D01*
X86835Y-54015D01*
X86821Y-53958D01*
X86821Y-53887D01*
X86835Y-53829D01*
X86849Y-53801D01*
X86864Y-53787D01*
X86892Y-53772D01*
X82451Y-62073D02*
X82423Y-62059D01*
X82394Y-62030D01*
X82351Y-61988D01*
X82323Y-61973D01*
X82294Y-61973D01*
X82308Y-62045D02*
X82280Y-62030D01*
X82251Y-62002D01*
X82237Y-61945D01*
X82237Y-61845D01*
X82251Y-61788D01*
X82280Y-61759D01*
X82308Y-61745D01*
X82366Y-61745D01*
X82394Y-61759D01*
X82423Y-61788D01*
X82437Y-61845D01*
X82437Y-61945D01*
X82423Y-62002D01*
X82394Y-62030D01*
X82366Y-62045D01*
X82308Y-62045D01*
X82537Y-61745D02*
X82723Y-61745D01*
X82623Y-61859D01*
X82666Y-61859D01*
X82694Y-61873D01*
X82708Y-61888D01*
X82723Y-61916D01*
X82723Y-61988D01*
X82708Y-62016D01*
X82694Y-62030D01*
X82666Y-62045D01*
X82580Y-62045D01*
X82551Y-62030D01*
X82537Y-62016D01*
X81664Y-65617D02*
X81635Y-65602D01*
X81607Y-65574D01*
X81564Y-65531D01*
X81535Y-65517D01*
X81507Y-65517D01*
X81521Y-65588D02*
X81492Y-65574D01*
X81464Y-65545D01*
X81450Y-65488D01*
X81450Y-65388D01*
X81464Y-65331D01*
X81492Y-65302D01*
X81521Y-65288D01*
X81578Y-65288D01*
X81607Y-65302D01*
X81635Y-65331D01*
X81650Y-65388D01*
X81650Y-65488D01*
X81635Y-65545D01*
X81607Y-65574D01*
X81578Y-65588D01*
X81521Y-65588D01*
X81907Y-65388D02*
X81907Y-65588D01*
X81835Y-65274D02*
X81764Y-65488D01*
X81950Y-65488D01*
X82353Y-72309D02*
X82324Y-72295D01*
X82296Y-72267D01*
X82253Y-72224D01*
X82224Y-72209D01*
X82196Y-72209D01*
X82210Y-72281D02*
X82181Y-72267D01*
X82153Y-72238D01*
X82139Y-72181D01*
X82139Y-72081D01*
X82153Y-72024D01*
X82181Y-71995D01*
X82210Y-71981D01*
X82267Y-71981D01*
X82296Y-71995D01*
X82324Y-72024D01*
X82339Y-72081D01*
X82339Y-72181D01*
X82324Y-72238D01*
X82296Y-72267D01*
X82267Y-72281D01*
X82210Y-72281D01*
X82624Y-72281D02*
X82453Y-72281D01*
X82539Y-72281D02*
X82539Y-71981D01*
X82510Y-72024D01*
X82481Y-72052D01*
X82453Y-72067D01*
X81664Y-75951D02*
X81635Y-75937D01*
X81607Y-75908D01*
X81564Y-75865D01*
X81535Y-75851D01*
X81507Y-75851D01*
X81521Y-75923D02*
X81492Y-75908D01*
X81464Y-75880D01*
X81450Y-75823D01*
X81450Y-75723D01*
X81464Y-75665D01*
X81492Y-75637D01*
X81521Y-75623D01*
X81578Y-75623D01*
X81607Y-75637D01*
X81635Y-75665D01*
X81650Y-75723D01*
X81650Y-75823D01*
X81635Y-75880D01*
X81607Y-75908D01*
X81578Y-75923D01*
X81521Y-75923D01*
X81764Y-75651D02*
X81778Y-75637D01*
X81807Y-75623D01*
X81878Y-75623D01*
X81907Y-75637D01*
X81921Y-75651D01*
X81935Y-75680D01*
X81935Y-75708D01*
X81921Y-75751D01*
X81750Y-75923D01*
X81935Y-75923D01*
X81664Y-55183D02*
X81635Y-55169D01*
X81607Y-55141D01*
X81564Y-55098D01*
X81535Y-55083D01*
X81507Y-55083D01*
X81521Y-55155D02*
X81492Y-55141D01*
X81464Y-55112D01*
X81450Y-55055D01*
X81450Y-54955D01*
X81464Y-54898D01*
X81492Y-54869D01*
X81521Y-54855D01*
X81578Y-54855D01*
X81607Y-54869D01*
X81635Y-54898D01*
X81650Y-54955D01*
X81650Y-55055D01*
X81635Y-55112D01*
X81607Y-55141D01*
X81578Y-55155D01*
X81521Y-55155D01*
X81907Y-54855D02*
X81850Y-54855D01*
X81821Y-54869D01*
X81807Y-54883D01*
X81778Y-54926D01*
X81764Y-54983D01*
X81764Y-55098D01*
X81778Y-55126D01*
X81792Y-55141D01*
X81821Y-55155D01*
X81878Y-55155D01*
X81907Y-55141D01*
X81921Y-55126D01*
X81935Y-55098D01*
X81935Y-55026D01*
X81921Y-54998D01*
X81907Y-54983D01*
X81878Y-54969D01*
X81821Y-54969D01*
X81792Y-54983D01*
X81778Y-54998D01*
X81764Y-55026D01*
X82451Y-51640D02*
X82423Y-51626D01*
X82394Y-51597D01*
X82351Y-51554D01*
X82323Y-51540D01*
X82294Y-51540D01*
X82308Y-51612D02*
X82280Y-51597D01*
X82251Y-51569D01*
X82237Y-51512D01*
X82237Y-51412D01*
X82251Y-51354D01*
X82280Y-51326D01*
X82308Y-51312D01*
X82366Y-51312D01*
X82394Y-51326D01*
X82423Y-51354D01*
X82437Y-51412D01*
X82437Y-51512D01*
X82423Y-51569D01*
X82394Y-51597D01*
X82366Y-51612D01*
X82308Y-51612D01*
X82708Y-51312D02*
X82566Y-51312D01*
X82551Y-51454D01*
X82566Y-51440D01*
X82594Y-51426D01*
X82666Y-51426D01*
X82694Y-51440D01*
X82708Y-51454D01*
X82723Y-51483D01*
X82723Y-51554D01*
X82708Y-51583D01*
X82694Y-51597D01*
X82666Y-51612D01*
X82594Y-51612D01*
X82566Y-51597D01*
X82551Y-51583D01*
X78547Y-58178D02*
X78533Y-58192D01*
X78490Y-58206D01*
X78461Y-58206D01*
X78418Y-58192D01*
X78390Y-58163D01*
X78375Y-58135D01*
X78361Y-58078D01*
X78361Y-58035D01*
X78375Y-57978D01*
X78390Y-57949D01*
X78418Y-57920D01*
X78461Y-57906D01*
X78490Y-57906D01*
X78533Y-57920D01*
X78547Y-57935D01*
X78833Y-58206D02*
X78661Y-58206D01*
X78747Y-58206D02*
X78747Y-57906D01*
X78718Y-57949D01*
X78690Y-57978D01*
X78661Y-57992D01*
X79004Y-58035D02*
X78975Y-58020D01*
X78961Y-58006D01*
X78947Y-57978D01*
X78947Y-57963D01*
X78961Y-57935D01*
X78975Y-57920D01*
X79004Y-57906D01*
X79061Y-57906D01*
X79090Y-57920D01*
X79104Y-57935D01*
X79118Y-57963D01*
X79118Y-57978D01*
X79104Y-58006D01*
X79090Y-58020D01*
X79061Y-58035D01*
X79004Y-58035D01*
X78975Y-58049D01*
X78961Y-58063D01*
X78947Y-58092D01*
X78947Y-58149D01*
X78961Y-58178D01*
X78975Y-58192D01*
X79004Y-58206D01*
X79061Y-58206D01*
X79090Y-58192D01*
X79104Y-58178D01*
X79118Y-58149D01*
X79118Y-58092D01*
X79104Y-58063D01*
X79090Y-58049D01*
X79061Y-58035D01*
X78547Y-47843D02*
X78533Y-47857D01*
X78490Y-47871D01*
X78461Y-47871D01*
X78418Y-47857D01*
X78390Y-47829D01*
X78375Y-47800D01*
X78361Y-47743D01*
X78361Y-47700D01*
X78375Y-47643D01*
X78390Y-47614D01*
X78418Y-47586D01*
X78461Y-47571D01*
X78490Y-47571D01*
X78533Y-47586D01*
X78547Y-47600D01*
X78661Y-47600D02*
X78675Y-47586D01*
X78704Y-47571D01*
X78775Y-47571D01*
X78804Y-47586D01*
X78818Y-47600D01*
X78833Y-47629D01*
X78833Y-47657D01*
X78818Y-47700D01*
X78647Y-47871D01*
X78833Y-47871D01*
X78933Y-47571D02*
X79133Y-47571D01*
X79004Y-47871D01*
X72390Y-52075D02*
X72376Y-52089D01*
X72333Y-52104D01*
X72305Y-52104D01*
X72262Y-52089D01*
X72233Y-52061D01*
X72219Y-52032D01*
X72205Y-51975D01*
X72205Y-51932D01*
X72219Y-51875D01*
X72233Y-51847D01*
X72262Y-51818D01*
X72305Y-51804D01*
X72333Y-51804D01*
X72376Y-51818D01*
X72390Y-51832D01*
X72505Y-51832D02*
X72519Y-51818D01*
X72548Y-51804D01*
X72619Y-51804D01*
X72648Y-51818D01*
X72662Y-51832D01*
X72676Y-51861D01*
X72676Y-51889D01*
X72662Y-51932D01*
X72490Y-52104D01*
X72676Y-52104D01*
X77902Y-71957D02*
X77888Y-71971D01*
X77845Y-71986D01*
X77817Y-71986D01*
X77774Y-71971D01*
X77745Y-71943D01*
X77731Y-71914D01*
X77717Y-71857D01*
X77717Y-71814D01*
X77731Y-71757D01*
X77745Y-71728D01*
X77774Y-71700D01*
X77817Y-71686D01*
X77845Y-71686D01*
X77888Y-71700D01*
X77902Y-71714D01*
X78074Y-71814D02*
X78045Y-71800D01*
X78031Y-71786D01*
X78017Y-71757D01*
X78017Y-71743D01*
X78031Y-71714D01*
X78045Y-71700D01*
X78074Y-71686D01*
X78131Y-71686D01*
X78159Y-71700D01*
X78174Y-71714D01*
X78188Y-71743D01*
X78188Y-71757D01*
X78174Y-71786D01*
X78159Y-71800D01*
X78131Y-71814D01*
X78074Y-71814D01*
X78045Y-71828D01*
X78031Y-71843D01*
X78017Y-71871D01*
X78017Y-71928D01*
X78031Y-71957D01*
X78045Y-71971D01*
X78074Y-71986D01*
X78131Y-71986D01*
X78159Y-71971D01*
X78174Y-71957D01*
X78188Y-71928D01*
X78188Y-71871D01*
X78174Y-71843D01*
X78159Y-71828D01*
X78131Y-71814D01*
X90063Y-73532D02*
X90048Y-73546D01*
X90005Y-73560D01*
X89977Y-73560D01*
X89934Y-73546D01*
X89905Y-73518D01*
X89891Y-73489D01*
X89877Y-73432D01*
X89877Y-73389D01*
X89891Y-73332D01*
X89905Y-73303D01*
X89934Y-73275D01*
X89977Y-73260D01*
X90005Y-73260D01*
X90048Y-73275D01*
X90063Y-73289D01*
X90348Y-73560D02*
X90177Y-73560D01*
X90263Y-73560D02*
X90263Y-73260D01*
X90234Y-73303D01*
X90205Y-73332D01*
X90177Y-73346D01*
X90463Y-73289D02*
X90477Y-73275D01*
X90505Y-73260D01*
X90577Y-73260D01*
X90605Y-73275D01*
X90620Y-73289D01*
X90634Y-73318D01*
X90634Y-73346D01*
X90620Y-73389D01*
X90448Y-73560D01*
X90634Y-73560D01*
X64830Y-54264D02*
X64830Y-54507D01*
X64844Y-54536D01*
X64859Y-54550D01*
X64887Y-54564D01*
X64944Y-54564D01*
X64973Y-54550D01*
X64987Y-54536D01*
X65001Y-54507D01*
X65001Y-54264D01*
X65287Y-54264D02*
X65144Y-54264D01*
X65130Y-54407D01*
X65144Y-54393D01*
X65173Y-54379D01*
X65244Y-54379D01*
X65273Y-54393D01*
X65287Y-54407D01*
X65301Y-54436D01*
X65301Y-54507D01*
X65287Y-54536D01*
X65273Y-54550D01*
X65244Y-54564D01*
X65173Y-54564D01*
X65144Y-54550D01*
X65130Y-54536D01*
X62340Y-55285D02*
X62040Y-55285D01*
X62040Y-55214D01*
X62054Y-55171D01*
X62083Y-55142D01*
X62111Y-55128D01*
X62169Y-55114D01*
X62211Y-55114D01*
X62269Y-55128D01*
X62297Y-55142D01*
X62326Y-55171D01*
X62340Y-55214D01*
X62340Y-55285D01*
X62340Y-54828D02*
X62340Y-54999D01*
X62340Y-54914D02*
X62040Y-54914D01*
X62083Y-54942D01*
X62111Y-54971D01*
X62126Y-54999D01*
X62040Y-54728D02*
X62040Y-54542D01*
X62154Y-54642D01*
X62154Y-54599D01*
X62169Y-54571D01*
X62183Y-54556D01*
X62211Y-54542D01*
X62283Y-54542D01*
X62311Y-54556D01*
X62326Y-54571D01*
X62340Y-54599D01*
X62340Y-54685D01*
X62326Y-54714D01*
X62311Y-54728D01*
X62503Y-57882D02*
X62489Y-57897D01*
X62446Y-57911D01*
X62418Y-57911D01*
X62375Y-57897D01*
X62346Y-57868D01*
X62332Y-57839D01*
X62318Y-57782D01*
X62318Y-57739D01*
X62332Y-57682D01*
X62346Y-57654D01*
X62375Y-57625D01*
X62418Y-57611D01*
X62446Y-57611D01*
X62489Y-57625D01*
X62503Y-57639D01*
X62603Y-57611D02*
X62789Y-57611D01*
X62689Y-57725D01*
X62732Y-57725D01*
X62761Y-57739D01*
X62775Y-57754D01*
X62789Y-57782D01*
X62789Y-57854D01*
X62775Y-57882D01*
X62761Y-57897D01*
X62732Y-57911D01*
X62646Y-57911D01*
X62618Y-57897D01*
X62603Y-57882D01*
X63046Y-57611D02*
X62989Y-57611D01*
X62961Y-57625D01*
X62946Y-57639D01*
X62918Y-57682D01*
X62903Y-57739D01*
X62903Y-57854D01*
X62918Y-57882D01*
X62932Y-57897D01*
X62961Y-57911D01*
X63018Y-57911D01*
X63046Y-57897D01*
X63061Y-57882D01*
X63075Y-57854D01*
X63075Y-57782D01*
X63061Y-57754D01*
X63046Y-57739D01*
X63018Y-57725D01*
X62961Y-57725D01*
X62932Y-57739D01*
X62918Y-57754D01*
X62903Y-57782D01*
X63291Y-57489D02*
X63277Y-57503D01*
X63234Y-57517D01*
X63205Y-57517D01*
X63162Y-57503D01*
X63134Y-57474D01*
X63119Y-57446D01*
X63105Y-57389D01*
X63105Y-57346D01*
X63119Y-57289D01*
X63134Y-57260D01*
X63162Y-57231D01*
X63205Y-57217D01*
X63234Y-57217D01*
X63277Y-57231D01*
X63291Y-57246D01*
X63391Y-57217D02*
X63577Y-57217D01*
X63477Y-57331D01*
X63519Y-57331D01*
X63548Y-57346D01*
X63562Y-57360D01*
X63577Y-57389D01*
X63577Y-57460D01*
X63562Y-57489D01*
X63548Y-57503D01*
X63519Y-57517D01*
X63434Y-57517D01*
X63405Y-57503D01*
X63391Y-57489D01*
X63677Y-57217D02*
X63877Y-57217D01*
X63748Y-57517D01*
X67129Y-55815D02*
X67115Y-55830D01*
X67072Y-55844D01*
X67044Y-55844D01*
X67001Y-55830D01*
X66972Y-55801D01*
X66958Y-55772D01*
X66944Y-55715D01*
X66944Y-55672D01*
X66958Y-55615D01*
X66972Y-55587D01*
X67001Y-55558D01*
X67044Y-55544D01*
X67072Y-55544D01*
X67115Y-55558D01*
X67129Y-55572D01*
X67229Y-55544D02*
X67415Y-55544D01*
X67315Y-55658D01*
X67358Y-55658D01*
X67387Y-55672D01*
X67401Y-55687D01*
X67415Y-55715D01*
X67415Y-55787D01*
X67401Y-55815D01*
X67387Y-55830D01*
X67358Y-55844D01*
X67272Y-55844D01*
X67244Y-55830D01*
X67229Y-55815D01*
X67672Y-55644D02*
X67672Y-55844D01*
X67601Y-55530D02*
X67529Y-55744D01*
X67715Y-55744D01*
X69590Y-53186D02*
X69490Y-53044D01*
X69419Y-53186D02*
X69419Y-52886D01*
X69533Y-52886D01*
X69562Y-52901D01*
X69576Y-52915D01*
X69590Y-52944D01*
X69590Y-52986D01*
X69576Y-53015D01*
X69562Y-53029D01*
X69533Y-53044D01*
X69419Y-53044D01*
X69690Y-52886D02*
X69876Y-52886D01*
X69776Y-53001D01*
X69819Y-53001D01*
X69847Y-53015D01*
X69862Y-53029D01*
X69876Y-53058D01*
X69876Y-53129D01*
X69862Y-53158D01*
X69847Y-53172D01*
X69819Y-53186D01*
X69733Y-53186D01*
X69704Y-53172D01*
X69690Y-53158D01*
X70147Y-52886D02*
X70004Y-52886D01*
X69990Y-53029D01*
X70004Y-53015D01*
X70033Y-53001D01*
X70104Y-53001D01*
X70133Y-53015D01*
X70147Y-53029D01*
X70162Y-53058D01*
X70162Y-53129D01*
X70147Y-53158D01*
X70133Y-53172D01*
X70104Y-53186D01*
X70033Y-53186D01*
X70004Y-53172D01*
X69990Y-53158D01*
X64275Y-57714D02*
X64175Y-57571D01*
X64104Y-57714D02*
X64104Y-57414D01*
X64218Y-57414D01*
X64247Y-57428D01*
X64261Y-57443D01*
X64275Y-57471D01*
X64275Y-57514D01*
X64261Y-57543D01*
X64247Y-57557D01*
X64218Y-57571D01*
X64104Y-57571D01*
X64389Y-57443D02*
X64404Y-57428D01*
X64432Y-57414D01*
X64504Y-57414D01*
X64532Y-57428D01*
X64547Y-57443D01*
X64561Y-57471D01*
X64561Y-57500D01*
X64547Y-57543D01*
X64375Y-57714D01*
X64561Y-57714D01*
X64732Y-57543D02*
X64704Y-57528D01*
X64689Y-57514D01*
X64675Y-57485D01*
X64675Y-57471D01*
X64689Y-57443D01*
X64704Y-57428D01*
X64732Y-57414D01*
X64789Y-57414D01*
X64818Y-57428D01*
X64832Y-57443D01*
X64847Y-57471D01*
X64847Y-57485D01*
X64832Y-57514D01*
X64818Y-57528D01*
X64789Y-57543D01*
X64732Y-57543D01*
X64704Y-57557D01*
X64689Y-57571D01*
X64675Y-57600D01*
X64675Y-57657D01*
X64689Y-57685D01*
X64704Y-57700D01*
X64732Y-57714D01*
X64789Y-57714D01*
X64818Y-57700D01*
X64832Y-57685D01*
X64847Y-57657D01*
X64847Y-57600D01*
X64832Y-57571D01*
X64818Y-57557D01*
X64789Y-57543D01*
X65653Y-57714D02*
X65553Y-57571D01*
X65482Y-57714D02*
X65482Y-57414D01*
X65596Y-57414D01*
X65625Y-57428D01*
X65639Y-57443D01*
X65653Y-57471D01*
X65653Y-57514D01*
X65639Y-57543D01*
X65625Y-57557D01*
X65596Y-57571D01*
X65482Y-57571D01*
X65767Y-57443D02*
X65782Y-57428D01*
X65810Y-57414D01*
X65882Y-57414D01*
X65910Y-57428D01*
X65925Y-57443D01*
X65939Y-57471D01*
X65939Y-57500D01*
X65925Y-57543D01*
X65753Y-57714D01*
X65939Y-57714D01*
X66082Y-57714D02*
X66139Y-57714D01*
X66167Y-57700D01*
X66182Y-57685D01*
X66210Y-57643D01*
X66225Y-57585D01*
X66225Y-57471D01*
X66210Y-57443D01*
X66196Y-57428D01*
X66167Y-57414D01*
X66110Y-57414D01*
X66082Y-57428D01*
X66067Y-57443D01*
X66053Y-57471D01*
X66053Y-57543D01*
X66067Y-57571D01*
X66082Y-57585D01*
X66110Y-57600D01*
X66167Y-57600D01*
X66196Y-57585D01*
X66210Y-57571D01*
X66225Y-57543D01*
X64570Y-55618D02*
X64556Y-55633D01*
X64513Y-55647D01*
X64485Y-55647D01*
X64442Y-55633D01*
X64413Y-55604D01*
X64399Y-55576D01*
X64385Y-55518D01*
X64385Y-55476D01*
X64399Y-55418D01*
X64413Y-55390D01*
X64442Y-55361D01*
X64485Y-55347D01*
X64513Y-55347D01*
X64556Y-55361D01*
X64570Y-55376D01*
X64670Y-55347D02*
X64856Y-55347D01*
X64756Y-55461D01*
X64799Y-55461D01*
X64828Y-55476D01*
X64842Y-55490D01*
X64856Y-55518D01*
X64856Y-55590D01*
X64842Y-55618D01*
X64828Y-55633D01*
X64799Y-55647D01*
X64713Y-55647D01*
X64685Y-55633D01*
X64670Y-55618D01*
X65128Y-55347D02*
X64985Y-55347D01*
X64970Y-55490D01*
X64985Y-55476D01*
X65013Y-55461D01*
X65085Y-55461D01*
X65113Y-55476D01*
X65128Y-55490D01*
X65142Y-55518D01*
X65142Y-55590D01*
X65128Y-55618D01*
X65113Y-55633D01*
X65085Y-55647D01*
X65013Y-55647D01*
X64985Y-55633D01*
X64970Y-55618D01*
X73364Y-65645D02*
X73221Y-65745D01*
X73364Y-65817D02*
X73064Y-65817D01*
X73064Y-65702D01*
X73078Y-65674D01*
X73092Y-65659D01*
X73121Y-65645D01*
X73164Y-65645D01*
X73192Y-65659D01*
X73206Y-65674D01*
X73221Y-65702D01*
X73221Y-65817D01*
X73064Y-65545D02*
X73064Y-65359D01*
X73178Y-65459D01*
X73178Y-65417D01*
X73192Y-65388D01*
X73206Y-65374D01*
X73235Y-65359D01*
X73306Y-65359D01*
X73335Y-65374D01*
X73349Y-65388D01*
X73364Y-65417D01*
X73364Y-65502D01*
X73349Y-65531D01*
X73335Y-65545D01*
X73092Y-65245D02*
X73078Y-65231D01*
X73064Y-65202D01*
X73064Y-65131D01*
X73078Y-65102D01*
X73092Y-65088D01*
X73121Y-65074D01*
X73149Y-65074D01*
X73192Y-65088D01*
X73364Y-65259D01*
X73364Y-65074D01*
X71592Y-64267D02*
X71449Y-64367D01*
X71592Y-64439D02*
X71292Y-64439D01*
X71292Y-64324D01*
X71306Y-64296D01*
X71320Y-64281D01*
X71349Y-64267D01*
X71392Y-64267D01*
X71420Y-64281D01*
X71435Y-64296D01*
X71449Y-64324D01*
X71449Y-64439D01*
X71292Y-64167D02*
X71292Y-63981D01*
X71406Y-64081D01*
X71406Y-64039D01*
X71420Y-64010D01*
X71435Y-63996D01*
X71463Y-63981D01*
X71535Y-63981D01*
X71563Y-63996D01*
X71578Y-64010D01*
X71592Y-64039D01*
X71592Y-64124D01*
X71578Y-64153D01*
X71563Y-64167D01*
X71292Y-63881D02*
X71292Y-63696D01*
X71406Y-63796D01*
X71406Y-63753D01*
X71420Y-63724D01*
X71435Y-63710D01*
X71463Y-63696D01*
X71535Y-63696D01*
X71563Y-63710D01*
X71578Y-63724D01*
X71592Y-63753D01*
X71592Y-63839D01*
X71578Y-63867D01*
X71563Y-63881D01*
X70706Y-65350D02*
X70563Y-65450D01*
X70706Y-65521D02*
X70406Y-65521D01*
X70406Y-65407D01*
X70420Y-65378D01*
X70435Y-65364D01*
X70463Y-65350D01*
X70506Y-65350D01*
X70535Y-65364D01*
X70549Y-65378D01*
X70563Y-65407D01*
X70563Y-65521D01*
X70406Y-65250D02*
X70406Y-65064D01*
X70520Y-65164D01*
X70520Y-65121D01*
X70535Y-65093D01*
X70549Y-65078D01*
X70578Y-65064D01*
X70649Y-65064D01*
X70678Y-65078D01*
X70692Y-65093D01*
X70706Y-65121D01*
X70706Y-65207D01*
X70692Y-65236D01*
X70678Y-65250D01*
X70506Y-64807D02*
X70706Y-64807D01*
X70392Y-64878D02*
X70606Y-64950D01*
X70606Y-64764D01*
X70087Y-67023D02*
X70101Y-67037D01*
X70116Y-67080D01*
X70116Y-67109D01*
X70101Y-67152D01*
X70073Y-67180D01*
X70044Y-67194D01*
X69987Y-67209D01*
X69944Y-67209D01*
X69887Y-67194D01*
X69858Y-67180D01*
X69830Y-67152D01*
X69816Y-67109D01*
X69816Y-67080D01*
X69830Y-67037D01*
X69844Y-67023D01*
X69916Y-66766D02*
X70116Y-66766D01*
X69801Y-66837D02*
X70016Y-66909D01*
X70016Y-66723D01*
X69816Y-66637D02*
X69816Y-66452D01*
X69930Y-66552D01*
X69930Y-66509D01*
X69944Y-66480D01*
X69958Y-66466D01*
X69987Y-66452D01*
X70058Y-66452D01*
X70087Y-66466D01*
X70101Y-66480D01*
X70116Y-66509D01*
X70116Y-66594D01*
X70101Y-66623D01*
X70087Y-66637D01*
X73433Y-67515D02*
X73448Y-67529D01*
X73462Y-67572D01*
X73462Y-67601D01*
X73448Y-67644D01*
X73419Y-67672D01*
X73391Y-67687D01*
X73333Y-67701D01*
X73291Y-67701D01*
X73233Y-67687D01*
X73205Y-67672D01*
X73176Y-67644D01*
X73162Y-67601D01*
X73162Y-67572D01*
X73176Y-67529D01*
X73191Y-67515D01*
X73262Y-67258D02*
X73462Y-67258D01*
X73148Y-67329D02*
X73362Y-67401D01*
X73362Y-67215D01*
X73462Y-66944D02*
X73462Y-67115D01*
X73462Y-67029D02*
X73162Y-67029D01*
X73205Y-67058D01*
X73233Y-67087D01*
X73248Y-67115D01*
X73462Y-68401D02*
X73319Y-68501D01*
X73462Y-68572D02*
X73162Y-68572D01*
X73162Y-68458D01*
X73176Y-68430D01*
X73191Y-68415D01*
X73219Y-68401D01*
X73262Y-68401D01*
X73291Y-68415D01*
X73305Y-68430D01*
X73319Y-68458D01*
X73319Y-68572D01*
X73162Y-68301D02*
X73162Y-68115D01*
X73276Y-68215D01*
X73276Y-68172D01*
X73291Y-68144D01*
X73305Y-68130D01*
X73333Y-68115D01*
X73405Y-68115D01*
X73433Y-68130D01*
X73448Y-68144D01*
X73462Y-68172D01*
X73462Y-68258D01*
X73448Y-68287D01*
X73433Y-68301D01*
X73462Y-67830D02*
X73462Y-68001D01*
X73462Y-67915D02*
X73162Y-67915D01*
X73205Y-67944D01*
X73233Y-67972D01*
X73248Y-68001D01*
X62607Y-66531D02*
X62621Y-66545D01*
X62635Y-66588D01*
X62635Y-66617D01*
X62621Y-66660D01*
X62592Y-66688D01*
X62564Y-66702D01*
X62507Y-66717D01*
X62464Y-66717D01*
X62407Y-66702D01*
X62378Y-66688D01*
X62350Y-66660D01*
X62335Y-66617D01*
X62335Y-66588D01*
X62350Y-66545D01*
X62364Y-66531D01*
X62335Y-66431D02*
X62335Y-66245D01*
X62450Y-66345D01*
X62450Y-66302D01*
X62464Y-66274D01*
X62478Y-66260D01*
X62507Y-66245D01*
X62578Y-66245D01*
X62607Y-66260D01*
X62621Y-66274D01*
X62635Y-66302D01*
X62635Y-66388D01*
X62621Y-66417D01*
X62607Y-66431D01*
X62464Y-66074D02*
X62450Y-66102D01*
X62435Y-66117D01*
X62407Y-66131D01*
X62392Y-66131D01*
X62364Y-66117D01*
X62350Y-66102D01*
X62335Y-66074D01*
X62335Y-66017D01*
X62350Y-65988D01*
X62364Y-65974D01*
X62392Y-65960D01*
X62407Y-65960D01*
X62435Y-65974D01*
X62450Y-65988D01*
X62464Y-66017D01*
X62464Y-66074D01*
X62478Y-66102D01*
X62492Y-66117D01*
X62521Y-66131D01*
X62578Y-66131D01*
X62607Y-66117D01*
X62621Y-66102D01*
X62635Y-66074D01*
X62635Y-66017D01*
X62621Y-65988D01*
X62607Y-65974D01*
X62578Y-65960D01*
X62521Y-65960D01*
X62492Y-65974D01*
X62478Y-65988D01*
X62464Y-66017D01*
X62734Y-64661D02*
X62591Y-64761D01*
X62734Y-64832D02*
X62434Y-64832D01*
X62434Y-64718D01*
X62448Y-64689D01*
X62462Y-64675D01*
X62491Y-64661D01*
X62534Y-64661D01*
X62562Y-64675D01*
X62576Y-64689D01*
X62591Y-64718D01*
X62591Y-64832D01*
X62462Y-64547D02*
X62448Y-64532D01*
X62434Y-64504D01*
X62434Y-64432D01*
X62448Y-64404D01*
X62462Y-64389D01*
X62491Y-64375D01*
X62519Y-64375D01*
X62562Y-64389D01*
X62734Y-64561D01*
X62734Y-64375D01*
X62534Y-64118D02*
X62734Y-64118D01*
X62419Y-64189D02*
X62634Y-64261D01*
X62634Y-64075D01*
X71939Y-78905D02*
X71982Y-78919D01*
X71997Y-78933D01*
X72011Y-78962D01*
X72011Y-79005D01*
X71997Y-79033D01*
X71982Y-79047D01*
X71954Y-79062D01*
X71839Y-79062D01*
X71839Y-78762D01*
X71939Y-78762D01*
X71968Y-78776D01*
X71982Y-78790D01*
X71997Y-78819D01*
X71997Y-78847D01*
X71982Y-78876D01*
X71968Y-78890D01*
X71939Y-78905D01*
X71839Y-78905D01*
X72097Y-78762D02*
X72268Y-78762D01*
X72182Y-79062D02*
X72182Y-78762D01*
X72525Y-79062D02*
X72354Y-79062D01*
X72439Y-79062D02*
X72439Y-78762D01*
X72411Y-78805D01*
X72382Y-78833D01*
X72354Y-78847D01*
X65865Y-52323D02*
X65865Y-52023D01*
X65937Y-52023D01*
X65980Y-52038D01*
X66008Y-52066D01*
X66023Y-52095D01*
X66037Y-52152D01*
X66037Y-52195D01*
X66023Y-52252D01*
X66008Y-52281D01*
X65980Y-52309D01*
X65937Y-52323D01*
X65865Y-52323D01*
X66323Y-52323D02*
X66151Y-52323D01*
X66237Y-52323D02*
X66237Y-52023D01*
X66208Y-52066D01*
X66180Y-52095D01*
X66151Y-52109D01*
X66580Y-52123D02*
X66580Y-52323D01*
X66508Y-52009D02*
X66437Y-52223D01*
X66623Y-52223D01*
X70382Y-69877D02*
X70397Y-69892D01*
X70411Y-69935D01*
X70411Y-69963D01*
X70397Y-70006D01*
X70368Y-70035D01*
X70339Y-70049D01*
X70282Y-70063D01*
X70239Y-70063D01*
X70182Y-70049D01*
X70154Y-70035D01*
X70125Y-70006D01*
X70111Y-69963D01*
X70111Y-69935D01*
X70125Y-69892D01*
X70139Y-69877D01*
X70211Y-69620D02*
X70411Y-69620D01*
X70097Y-69692D02*
X70311Y-69763D01*
X70311Y-69577D01*
X70139Y-69477D02*
X70125Y-69463D01*
X70111Y-69435D01*
X70111Y-69363D01*
X70125Y-69335D01*
X70139Y-69320D01*
X70168Y-69306D01*
X70197Y-69306D01*
X70239Y-69320D01*
X70411Y-69492D01*
X70411Y-69306D01*
X94328Y-66728D02*
X94185Y-66828D01*
X94328Y-66899D02*
X94028Y-66899D01*
X94028Y-66785D01*
X94042Y-66756D01*
X94057Y-66742D01*
X94085Y-66728D01*
X94128Y-66728D01*
X94157Y-66742D01*
X94171Y-66756D01*
X94185Y-66785D01*
X94185Y-66899D01*
X94128Y-66471D02*
X94328Y-66471D01*
X94014Y-66542D02*
X94228Y-66614D01*
X94228Y-66428D01*
X94057Y-66328D02*
X94042Y-66314D01*
X94028Y-66285D01*
X94028Y-66214D01*
X94042Y-66185D01*
X94057Y-66171D01*
X94085Y-66156D01*
X94114Y-66156D01*
X94157Y-66171D01*
X94328Y-66342D01*
X94328Y-66156D01*
X93803Y-56828D02*
X93703Y-56685D01*
X93631Y-56828D02*
X93631Y-56528D01*
X93746Y-56528D01*
X93774Y-56542D01*
X93788Y-56557D01*
X93803Y-56585D01*
X93803Y-56628D01*
X93788Y-56657D01*
X93774Y-56671D01*
X93746Y-56685D01*
X93631Y-56685D01*
X94060Y-56628D02*
X94060Y-56828D01*
X93988Y-56514D02*
X93917Y-56728D01*
X94103Y-56728D01*
X94374Y-56828D02*
X94203Y-56828D01*
X94288Y-56828D02*
X94288Y-56528D01*
X94260Y-56571D01*
X94231Y-56600D01*
X94203Y-56614D01*
X72548Y-69877D02*
X72562Y-69892D01*
X72576Y-69935D01*
X72576Y-69963D01*
X72562Y-70006D01*
X72533Y-70035D01*
X72505Y-70049D01*
X72448Y-70063D01*
X72405Y-70063D01*
X72348Y-70049D01*
X72319Y-70035D01*
X72290Y-70006D01*
X72276Y-69963D01*
X72276Y-69935D01*
X72290Y-69892D01*
X72305Y-69877D01*
X72376Y-69620D02*
X72576Y-69620D01*
X72262Y-69692D02*
X72476Y-69763D01*
X72476Y-69577D01*
X72276Y-69406D02*
X72276Y-69377D01*
X72290Y-69349D01*
X72305Y-69335D01*
X72333Y-69320D01*
X72390Y-69306D01*
X72462Y-69306D01*
X72519Y-69320D01*
X72548Y-69335D01*
X72562Y-69349D01*
X72576Y-69377D01*
X72576Y-69406D01*
X72562Y-69435D01*
X72548Y-69449D01*
X72519Y-69463D01*
X72462Y-69477D01*
X72390Y-69477D01*
X72333Y-69463D01*
X72305Y-69449D01*
X72290Y-69435D01*
X72276Y-69406D01*
X68512Y-64070D02*
X68526Y-64085D01*
X68541Y-64127D01*
X68541Y-64156D01*
X68526Y-64199D01*
X68498Y-64227D01*
X68469Y-64242D01*
X68412Y-64256D01*
X68369Y-64256D01*
X68312Y-64242D01*
X68284Y-64227D01*
X68255Y-64199D01*
X68241Y-64156D01*
X68241Y-64127D01*
X68255Y-64085D01*
X68269Y-64070D01*
X68241Y-63970D02*
X68241Y-63785D01*
X68355Y-63885D01*
X68355Y-63842D01*
X68369Y-63813D01*
X68384Y-63799D01*
X68412Y-63785D01*
X68484Y-63785D01*
X68512Y-63799D01*
X68526Y-63813D01*
X68541Y-63842D01*
X68541Y-63927D01*
X68526Y-63956D01*
X68512Y-63970D01*
X68241Y-63685D02*
X68241Y-63499D01*
X68355Y-63599D01*
X68355Y-63556D01*
X68369Y-63527D01*
X68384Y-63513D01*
X68412Y-63499D01*
X68484Y-63499D01*
X68512Y-63513D01*
X68526Y-63527D01*
X68541Y-63556D01*
X68541Y-63642D01*
X68526Y-63670D01*
X68512Y-63685D01*
X65653Y-58108D02*
X65553Y-57965D01*
X65482Y-58108D02*
X65482Y-57808D01*
X65596Y-57808D01*
X65625Y-57822D01*
X65639Y-57836D01*
X65653Y-57865D01*
X65653Y-57908D01*
X65639Y-57936D01*
X65625Y-57951D01*
X65596Y-57965D01*
X65482Y-57965D01*
X65910Y-57908D02*
X65910Y-58108D01*
X65839Y-57793D02*
X65767Y-58008D01*
X65953Y-58008D01*
X66125Y-57808D02*
X66153Y-57808D01*
X66182Y-57822D01*
X66196Y-57836D01*
X66210Y-57865D01*
X66225Y-57922D01*
X66225Y-57993D01*
X66210Y-58051D01*
X66196Y-58079D01*
X66182Y-58093D01*
X66153Y-58108D01*
X66125Y-58108D01*
X66096Y-58093D01*
X66082Y-58079D01*
X66067Y-58051D01*
X66053Y-57993D01*
X66053Y-57922D01*
X66067Y-57865D01*
X66082Y-57836D01*
X66096Y-57822D01*
X66125Y-57808D01*
X69984Y-48167D02*
X69884Y-48024D01*
X69812Y-48167D02*
X69812Y-47867D01*
X69927Y-47867D01*
X69955Y-47881D01*
X69970Y-47895D01*
X69984Y-47924D01*
X69984Y-47967D01*
X69970Y-47995D01*
X69955Y-48010D01*
X69927Y-48024D01*
X69812Y-48024D01*
X70084Y-47867D02*
X70270Y-47867D01*
X70170Y-47981D01*
X70212Y-47981D01*
X70241Y-47995D01*
X70255Y-48010D01*
X70270Y-48038D01*
X70270Y-48110D01*
X70255Y-48138D01*
X70241Y-48152D01*
X70212Y-48167D01*
X70127Y-48167D01*
X70098Y-48152D01*
X70084Y-48138D01*
X70412Y-48167D02*
X70470Y-48167D01*
X70498Y-48152D01*
X70512Y-48138D01*
X70541Y-48095D01*
X70555Y-48038D01*
X70555Y-47924D01*
X70541Y-47895D01*
X70527Y-47881D01*
X70498Y-47867D01*
X70441Y-47867D01*
X70412Y-47881D01*
X70398Y-47895D01*
X70384Y-47924D01*
X70384Y-47995D01*
X70398Y-48024D01*
X70412Y-48038D01*
X70441Y-48052D01*
X70498Y-48052D01*
X70527Y-48038D01*
X70541Y-48024D01*
X70555Y-47995D01*
X94230Y-76570D02*
X94087Y-76670D01*
X94230Y-76742D02*
X93930Y-76742D01*
X93930Y-76627D01*
X93944Y-76599D01*
X93958Y-76585D01*
X93987Y-76570D01*
X94030Y-76570D01*
X94058Y-76585D01*
X94073Y-76599D01*
X94087Y-76627D01*
X94087Y-76742D01*
X94030Y-76313D02*
X94230Y-76313D01*
X93915Y-76385D02*
X94130Y-76456D01*
X94130Y-76270D01*
X93930Y-76185D02*
X93930Y-75999D01*
X94044Y-76099D01*
X94044Y-76056D01*
X94058Y-76027D01*
X94073Y-76013D01*
X94101Y-75999D01*
X94173Y-75999D01*
X94201Y-76013D01*
X94215Y-76027D01*
X94230Y-76056D01*
X94230Y-76142D01*
X94215Y-76170D01*
X94201Y-76185D01*
X62607Y-73716D02*
X62621Y-73730D01*
X62635Y-73773D01*
X62635Y-73802D01*
X62621Y-73845D01*
X62592Y-73873D01*
X62564Y-73887D01*
X62507Y-73902D01*
X62464Y-73902D01*
X62407Y-73887D01*
X62378Y-73873D01*
X62350Y-73845D01*
X62335Y-73802D01*
X62335Y-73773D01*
X62350Y-73730D01*
X62364Y-73716D01*
X62335Y-73616D02*
X62335Y-73430D01*
X62450Y-73530D01*
X62450Y-73487D01*
X62464Y-73459D01*
X62478Y-73445D01*
X62507Y-73430D01*
X62578Y-73430D01*
X62607Y-73445D01*
X62621Y-73459D01*
X62635Y-73487D01*
X62635Y-73573D01*
X62621Y-73602D01*
X62607Y-73616D01*
X62635Y-73287D02*
X62635Y-73230D01*
X62621Y-73202D01*
X62607Y-73187D01*
X62564Y-73159D01*
X62507Y-73145D01*
X62392Y-73145D01*
X62364Y-73159D01*
X62350Y-73173D01*
X62335Y-73202D01*
X62335Y-73259D01*
X62350Y-73287D01*
X62364Y-73302D01*
X62392Y-73316D01*
X62464Y-73316D01*
X62492Y-73302D01*
X62507Y-73287D01*
X62521Y-73259D01*
X62521Y-73202D01*
X62507Y-73173D01*
X62492Y-73159D01*
X62464Y-73145D01*
X69812Y-51316D02*
X69812Y-51016D01*
X69884Y-51016D01*
X69927Y-51031D01*
X69955Y-51059D01*
X69970Y-51088D01*
X69984Y-51145D01*
X69984Y-51188D01*
X69970Y-51245D01*
X69955Y-51273D01*
X69927Y-51302D01*
X69884Y-51316D01*
X69812Y-51316D01*
X70270Y-51316D02*
X70098Y-51316D01*
X70184Y-51316D02*
X70184Y-51016D01*
X70155Y-51059D01*
X70127Y-51088D01*
X70098Y-51102D01*
X70541Y-51016D02*
X70398Y-51016D01*
X70384Y-51159D01*
X70398Y-51145D01*
X70427Y-51131D01*
X70498Y-51131D01*
X70527Y-51145D01*
X70541Y-51159D01*
X70555Y-51188D01*
X70555Y-51259D01*
X70541Y-51288D01*
X70527Y-51302D01*
X70498Y-51316D01*
X70427Y-51316D01*
X70398Y-51302D01*
X70384Y-51288D01*
X64104Y-58108D02*
X64104Y-57808D01*
X64175Y-57808D01*
X64218Y-57822D01*
X64247Y-57851D01*
X64261Y-57879D01*
X64275Y-57936D01*
X64275Y-57979D01*
X64261Y-58036D01*
X64247Y-58065D01*
X64218Y-58093D01*
X64175Y-58108D01*
X64104Y-58108D01*
X64561Y-58108D02*
X64389Y-58108D01*
X64475Y-58108D02*
X64475Y-57808D01*
X64447Y-57851D01*
X64418Y-57879D01*
X64389Y-57893D01*
X64818Y-57808D02*
X64761Y-57808D01*
X64732Y-57822D01*
X64718Y-57836D01*
X64689Y-57879D01*
X64675Y-57936D01*
X64675Y-58051D01*
X64689Y-58079D01*
X64704Y-58093D01*
X64732Y-58108D01*
X64789Y-58108D01*
X64818Y-58093D01*
X64832Y-58079D01*
X64847Y-58051D01*
X64847Y-57979D01*
X64832Y-57951D01*
X64818Y-57936D01*
X64789Y-57922D01*
X64732Y-57922D01*
X64704Y-57936D01*
X64689Y-57951D01*
X64675Y-57979D01*
X93533Y-53974D02*
X93533Y-53674D01*
X93604Y-53674D01*
X93647Y-53688D01*
X93676Y-53717D01*
X93690Y-53745D01*
X93704Y-53802D01*
X93704Y-53845D01*
X93690Y-53902D01*
X93676Y-53931D01*
X93647Y-53960D01*
X93604Y-53974D01*
X93533Y-53974D01*
X93990Y-53974D02*
X93819Y-53974D01*
X93904Y-53974D02*
X93904Y-53674D01*
X93876Y-53717D01*
X93847Y-53745D01*
X93819Y-53760D01*
X94090Y-53674D02*
X94290Y-53674D01*
X94161Y-53974D01*
X93631Y-63718D02*
X93631Y-63418D01*
X93703Y-63418D01*
X93746Y-63432D01*
X93774Y-63461D01*
X93788Y-63489D01*
X93803Y-63546D01*
X93803Y-63589D01*
X93788Y-63646D01*
X93774Y-63675D01*
X93746Y-63704D01*
X93703Y-63718D01*
X93631Y-63718D01*
X94088Y-63718D02*
X93917Y-63718D01*
X94003Y-63718D02*
X94003Y-63418D01*
X93974Y-63461D01*
X93946Y-63489D01*
X93917Y-63504D01*
X94260Y-63546D02*
X94231Y-63532D01*
X94217Y-63518D01*
X94203Y-63489D01*
X94203Y-63475D01*
X94217Y-63446D01*
X94231Y-63432D01*
X94260Y-63418D01*
X94317Y-63418D01*
X94346Y-63432D01*
X94360Y-63446D01*
X94374Y-63475D01*
X94374Y-63489D01*
X94360Y-63518D01*
X94346Y-63532D01*
X94317Y-63546D01*
X94260Y-63546D01*
X94231Y-63561D01*
X94217Y-63575D01*
X94203Y-63604D01*
X94203Y-63661D01*
X94217Y-63689D01*
X94231Y-63704D01*
X94260Y-63718D01*
X94317Y-63718D01*
X94346Y-63704D01*
X94360Y-63689D01*
X94374Y-63661D01*
X94374Y-63604D01*
X94360Y-63575D01*
X94346Y-63561D01*
X94317Y-63546D01*
X93533Y-73462D02*
X93533Y-73162D01*
X93604Y-73162D01*
X93647Y-73176D01*
X93676Y-73205D01*
X93690Y-73233D01*
X93704Y-73291D01*
X93704Y-73333D01*
X93690Y-73391D01*
X93676Y-73419D01*
X93647Y-73448D01*
X93604Y-73462D01*
X93533Y-73462D01*
X93990Y-73462D02*
X93819Y-73462D01*
X93904Y-73462D02*
X93904Y-73162D01*
X93876Y-73205D01*
X93847Y-73233D01*
X93819Y-73248D01*
X94133Y-73462D02*
X94190Y-73462D01*
X94219Y-73448D01*
X94233Y-73433D01*
X94261Y-73391D01*
X94276Y-73333D01*
X94276Y-73219D01*
X94261Y-73191D01*
X94247Y-73176D01*
X94219Y-73162D01*
X94161Y-73162D01*
X94133Y-73176D01*
X94119Y-73191D01*
X94104Y-73219D01*
X94104Y-73291D01*
X94119Y-73319D01*
X94133Y-73333D01*
X94161Y-73348D01*
X94219Y-73348D01*
X94247Y-73333D01*
X94261Y-73319D01*
X94276Y-73291D01*
X93212Y-67655D02*
X93112Y-67512D01*
X93041Y-67655D02*
X93041Y-67355D01*
X93155Y-67355D01*
X93184Y-67369D01*
X93198Y-67383D01*
X93212Y-67412D01*
X93212Y-67455D01*
X93198Y-67483D01*
X93184Y-67498D01*
X93155Y-67512D01*
X93041Y-67512D01*
X93312Y-67355D02*
X93498Y-67355D01*
X93398Y-67469D01*
X93441Y-67469D01*
X93469Y-67483D01*
X93484Y-67498D01*
X93498Y-67526D01*
X93498Y-67598D01*
X93484Y-67626D01*
X93469Y-67641D01*
X93441Y-67655D01*
X93355Y-67655D01*
X93326Y-67641D01*
X93312Y-67626D01*
X93755Y-67355D02*
X93698Y-67355D01*
X93669Y-67369D01*
X93655Y-67383D01*
X93626Y-67426D01*
X93612Y-67483D01*
X93612Y-67598D01*
X93626Y-67626D01*
X93641Y-67641D01*
X93669Y-67655D01*
X93726Y-67655D01*
X93755Y-67641D01*
X93769Y-67626D01*
X93784Y-67598D01*
X93784Y-67526D01*
X93769Y-67498D01*
X93755Y-67483D01*
X93726Y-67469D01*
X93669Y-67469D01*
X93641Y-67483D01*
X93626Y-67498D01*
X93612Y-67526D01*
X93212Y-57911D02*
X93112Y-57768D01*
X93041Y-57911D02*
X93041Y-57611D01*
X93155Y-57611D01*
X93184Y-57625D01*
X93198Y-57639D01*
X93212Y-57668D01*
X93212Y-57711D01*
X93198Y-57739D01*
X93184Y-57754D01*
X93155Y-57768D01*
X93041Y-57768D01*
X93312Y-57611D02*
X93498Y-57611D01*
X93398Y-57725D01*
X93441Y-57725D01*
X93469Y-57739D01*
X93484Y-57754D01*
X93498Y-57782D01*
X93498Y-57854D01*
X93484Y-57882D01*
X93469Y-57897D01*
X93441Y-57911D01*
X93355Y-57911D01*
X93326Y-57897D01*
X93312Y-57882D01*
X93598Y-57611D02*
X93798Y-57611D01*
X93669Y-57911D01*
X90259Y-47773D02*
X90159Y-47630D01*
X90088Y-47773D02*
X90088Y-47473D01*
X90202Y-47473D01*
X90231Y-47487D01*
X90245Y-47502D01*
X90259Y-47530D01*
X90259Y-47573D01*
X90245Y-47602D01*
X90231Y-47616D01*
X90202Y-47630D01*
X90088Y-47630D01*
X90359Y-47473D02*
X90545Y-47473D01*
X90445Y-47587D01*
X90488Y-47587D01*
X90517Y-47602D01*
X90531Y-47616D01*
X90545Y-47644D01*
X90545Y-47716D01*
X90531Y-47744D01*
X90517Y-47759D01*
X90488Y-47773D01*
X90402Y-47773D01*
X90374Y-47759D01*
X90359Y-47744D01*
X90717Y-47602D02*
X90688Y-47587D01*
X90674Y-47573D01*
X90659Y-47544D01*
X90659Y-47530D01*
X90674Y-47502D01*
X90688Y-47487D01*
X90717Y-47473D01*
X90774Y-47473D01*
X90802Y-47487D01*
X90817Y-47502D01*
X90831Y-47530D01*
X90831Y-47544D01*
X90817Y-47573D01*
X90802Y-47587D01*
X90774Y-47602D01*
X90717Y-47602D01*
X90688Y-47616D01*
X90674Y-47630D01*
X90659Y-47659D01*
X90659Y-47716D01*
X90674Y-47744D01*
X90688Y-47759D01*
X90717Y-47773D01*
X90774Y-47773D01*
X90802Y-47759D01*
X90817Y-47744D01*
X90831Y-47716D01*
X90831Y-47659D01*
X90817Y-47630D01*
X90802Y-47616D01*
X90774Y-47602D01*
X72296Y-68438D02*
X72496Y-68738D01*
X72496Y-68438D02*
X72296Y-68738D01*
X72767Y-68738D02*
X72596Y-68738D01*
X72682Y-68738D02*
X72682Y-68438D01*
X72653Y-68480D01*
X72625Y-68509D01*
X72596Y-68523D01*
X64694Y-63226D02*
X64694Y-62926D01*
X64766Y-62926D01*
X64809Y-62940D01*
X64837Y-62969D01*
X64851Y-62997D01*
X64866Y-63054D01*
X64866Y-63097D01*
X64851Y-63154D01*
X64837Y-63183D01*
X64809Y-63211D01*
X64766Y-63226D01*
X64694Y-63226D01*
X64980Y-62954D02*
X64994Y-62940D01*
X65023Y-62926D01*
X65094Y-62926D01*
X65123Y-62940D01*
X65137Y-62954D01*
X65151Y-62983D01*
X65151Y-63011D01*
X65137Y-63054D01*
X64966Y-63226D01*
X65151Y-63226D01*
X65337Y-62926D02*
X65366Y-62926D01*
X65394Y-62940D01*
X65409Y-62954D01*
X65423Y-62983D01*
X65437Y-63040D01*
X65437Y-63111D01*
X65423Y-63169D01*
X65409Y-63197D01*
X65394Y-63211D01*
X65366Y-63226D01*
X65337Y-63226D01*
X65309Y-63211D01*
X65294Y-63197D01*
X65280Y-63169D01*
X65266Y-63111D01*
X65266Y-63040D01*
X65280Y-62983D01*
X65294Y-62954D01*
X65309Y-62940D01*
X65337Y-62926D01*
X66933Y-56603D02*
X66918Y-56617D01*
X66875Y-56631D01*
X66847Y-56631D01*
X66804Y-56617D01*
X66775Y-56588D01*
X66761Y-56560D01*
X66747Y-56503D01*
X66747Y-56460D01*
X66761Y-56403D01*
X66775Y-56374D01*
X66804Y-56346D01*
X66847Y-56331D01*
X66875Y-56331D01*
X66918Y-56346D01*
X66933Y-56360D01*
X67190Y-56431D02*
X67190Y-56631D01*
X67118Y-56317D02*
X67047Y-56531D01*
X67233Y-56531D01*
X67475Y-56431D02*
X67475Y-56631D01*
X67404Y-56317D02*
X67333Y-56531D01*
X67518Y-56531D01*
X65653Y-58473D02*
X65639Y-58487D01*
X65596Y-58501D01*
X65567Y-58501D01*
X65525Y-58487D01*
X65496Y-58458D01*
X65482Y-58430D01*
X65467Y-58373D01*
X65467Y-58330D01*
X65482Y-58273D01*
X65496Y-58244D01*
X65525Y-58216D01*
X65567Y-58201D01*
X65596Y-58201D01*
X65639Y-58216D01*
X65653Y-58230D01*
X65910Y-58301D02*
X65910Y-58501D01*
X65839Y-58187D02*
X65767Y-58401D01*
X65953Y-58401D01*
X66210Y-58201D02*
X66067Y-58201D01*
X66053Y-58344D01*
X66067Y-58330D01*
X66096Y-58316D01*
X66167Y-58316D01*
X66196Y-58330D01*
X66210Y-58344D01*
X66225Y-58373D01*
X66225Y-58444D01*
X66210Y-58473D01*
X66196Y-58487D01*
X66167Y-58501D01*
X66096Y-58501D01*
X66067Y-58487D01*
X66053Y-58473D01*
X65653Y-59063D02*
X65639Y-59078D01*
X65596Y-59092D01*
X65567Y-59092D01*
X65525Y-59078D01*
X65496Y-59049D01*
X65482Y-59020D01*
X65467Y-58963D01*
X65467Y-58920D01*
X65482Y-58863D01*
X65496Y-58835D01*
X65525Y-58806D01*
X65567Y-58792D01*
X65596Y-58792D01*
X65639Y-58806D01*
X65653Y-58820D01*
X65910Y-58892D02*
X65910Y-59092D01*
X65839Y-58778D02*
X65767Y-58992D01*
X65953Y-58992D01*
X66196Y-58792D02*
X66139Y-58792D01*
X66110Y-58806D01*
X66096Y-58820D01*
X66067Y-58863D01*
X66053Y-58920D01*
X66053Y-59035D01*
X66067Y-59063D01*
X66082Y-59078D01*
X66110Y-59092D01*
X66167Y-59092D01*
X66196Y-59078D01*
X66210Y-59063D01*
X66225Y-59035D01*
X66225Y-58963D01*
X66210Y-58935D01*
X66196Y-58920D01*
X66167Y-58906D01*
X66110Y-58906D01*
X66082Y-58920D01*
X66067Y-58935D01*
X66053Y-58963D01*
X65653Y-60540D02*
X65639Y-60554D01*
X65596Y-60568D01*
X65567Y-60568D01*
X65525Y-60554D01*
X65496Y-60525D01*
X65482Y-60497D01*
X65467Y-60440D01*
X65467Y-60397D01*
X65482Y-60340D01*
X65496Y-60311D01*
X65525Y-60283D01*
X65567Y-60268D01*
X65596Y-60268D01*
X65639Y-60283D01*
X65653Y-60297D01*
X65910Y-60368D02*
X65910Y-60568D01*
X65839Y-60254D02*
X65767Y-60468D01*
X65953Y-60468D01*
X66039Y-60268D02*
X66239Y-60268D01*
X66110Y-60568D01*
X63772Y-66776D02*
X63915Y-66776D01*
X63615Y-66876D02*
X63772Y-66776D01*
X63615Y-66676D01*
X63915Y-66419D02*
X63915Y-66591D01*
X63915Y-66505D02*
X63615Y-66505D01*
X63658Y-66533D01*
X63686Y-66562D01*
X63700Y-66591D01*
X63827Y-51710D02*
X63685Y-51710D01*
X63685Y-51410D01*
X64085Y-51710D02*
X63913Y-51710D01*
X63999Y-51710D02*
X63999Y-51410D01*
X63970Y-51453D01*
X63942Y-51481D01*
X63913Y-51496D01*
X89050Y-52104D02*
X89050Y-51804D01*
X89164Y-51804D01*
X89193Y-51818D01*
X89207Y-51832D01*
X89221Y-51861D01*
X89221Y-51904D01*
X89207Y-51932D01*
X89193Y-51947D01*
X89164Y-51961D01*
X89050Y-51961D01*
X89335Y-51832D02*
X89350Y-51818D01*
X89378Y-51804D01*
X89450Y-51804D01*
X89478Y-51818D01*
X89493Y-51832D01*
X89507Y-51861D01*
X89507Y-51889D01*
X89493Y-51932D01*
X89321Y-52104D01*
X89507Y-52104D01*
X88951Y-71592D02*
X88951Y-71292D01*
X89066Y-71292D01*
X89094Y-71306D01*
X89108Y-71320D01*
X89123Y-71349D01*
X89123Y-71392D01*
X89108Y-71420D01*
X89094Y-71435D01*
X89066Y-71449D01*
X88951Y-71449D01*
X89380Y-71392D02*
X89380Y-71592D01*
X89308Y-71278D02*
X89237Y-71492D01*
X89423Y-71492D01*
X88951Y-61848D02*
X88951Y-61548D01*
X89066Y-61548D01*
X89094Y-61562D01*
X89108Y-61576D01*
X89123Y-61605D01*
X89123Y-61648D01*
X89108Y-61676D01*
X89094Y-61691D01*
X89066Y-61705D01*
X88951Y-61705D01*
X89223Y-61548D02*
X89408Y-61548D01*
X89308Y-61662D01*
X89351Y-61662D01*
X89380Y-61676D01*
X89394Y-61691D01*
X89408Y-61719D01*
X89408Y-61791D01*
X89394Y-61819D01*
X89380Y-61834D01*
X89351Y-61848D01*
X89266Y-61848D01*
X89237Y-61834D01*
X89223Y-61819D01*
X64663Y-60268D02*
X64663Y-60483D01*
X64649Y-60525D01*
X64620Y-60554D01*
X64578Y-60568D01*
X64549Y-60568D01*
X64963Y-60568D02*
X64792Y-60568D01*
X64878Y-60568D02*
X64878Y-60268D01*
X64849Y-60311D01*
X64820Y-60340D01*
X64792Y-60354D01*
X92622Y-73433D02*
X92607Y-73448D01*
X92564Y-73462D01*
X92536Y-73462D01*
X92493Y-73448D01*
X92464Y-73419D01*
X92450Y-73391D01*
X92436Y-73333D01*
X92436Y-73291D01*
X92450Y-73233D01*
X92464Y-73205D01*
X92493Y-73176D01*
X92536Y-73162D01*
X92564Y-73162D01*
X92607Y-73176D01*
X92622Y-73191D01*
X92907Y-73462D02*
X92736Y-73462D01*
X92822Y-73462D02*
X92822Y-73162D01*
X92793Y-73205D01*
X92764Y-73233D01*
X92736Y-73248D01*
X93007Y-73162D02*
X93193Y-73162D01*
X93093Y-73276D01*
X93136Y-73276D01*
X93164Y-73291D01*
X93179Y-73305D01*
X93193Y-73333D01*
X93193Y-73405D01*
X93179Y-73433D01*
X93164Y-73448D01*
X93136Y-73462D01*
X93050Y-73462D01*
X93022Y-73448D01*
X93007Y-73433D01*
X65559Y-72732D02*
X65574Y-72746D01*
X65588Y-72789D01*
X65588Y-72817D01*
X65574Y-72860D01*
X65545Y-72889D01*
X65517Y-72903D01*
X65459Y-72917D01*
X65417Y-72917D01*
X65359Y-72903D01*
X65331Y-72889D01*
X65302Y-72860D01*
X65288Y-72817D01*
X65288Y-72789D01*
X65302Y-72746D01*
X65317Y-72732D01*
X65288Y-72460D02*
X65288Y-72603D01*
X65431Y-72617D01*
X65417Y-72603D01*
X65402Y-72575D01*
X65402Y-72503D01*
X65417Y-72475D01*
X65431Y-72460D01*
X65459Y-72446D01*
X65531Y-72446D01*
X65559Y-72460D01*
X65574Y-72475D01*
X65588Y-72503D01*
X65588Y-72575D01*
X65574Y-72603D01*
X65559Y-72617D01*
X65288Y-72260D02*
X65288Y-72232D01*
X65302Y-72203D01*
X65317Y-72189D01*
X65345Y-72175D01*
X65402Y-72160D01*
X65474Y-72160D01*
X65531Y-72175D01*
X65559Y-72189D01*
X65574Y-72203D01*
X65588Y-72232D01*
X65588Y-72260D01*
X65574Y-72289D01*
X65559Y-72303D01*
X65531Y-72317D01*
X65474Y-72332D01*
X65402Y-72332D01*
X65345Y-72317D01*
X65317Y-72303D01*
X65302Y-72289D01*
X65288Y-72260D01*
X67331Y-63775D02*
X67345Y-63789D01*
X67360Y-63832D01*
X67360Y-63861D01*
X67345Y-63904D01*
X67317Y-63932D01*
X67288Y-63946D01*
X67231Y-63961D01*
X67188Y-63961D01*
X67131Y-63946D01*
X67102Y-63932D01*
X67074Y-63904D01*
X67060Y-63861D01*
X67060Y-63832D01*
X67074Y-63789D01*
X67088Y-63775D01*
X67060Y-63504D02*
X67060Y-63646D01*
X67202Y-63661D01*
X67188Y-63646D01*
X67174Y-63618D01*
X67174Y-63546D01*
X67188Y-63518D01*
X67202Y-63504D01*
X67231Y-63489D01*
X67302Y-63489D01*
X67331Y-63504D01*
X67345Y-63518D01*
X67360Y-63546D01*
X67360Y-63618D01*
X67345Y-63646D01*
X67331Y-63661D01*
X67360Y-63204D02*
X67360Y-63375D01*
X67360Y-63289D02*
X67060Y-63289D01*
X67102Y-63318D01*
X67131Y-63346D01*
X67145Y-63375D01*
X66544Y-63972D02*
X66558Y-63986D01*
X66572Y-64029D01*
X66572Y-64058D01*
X66558Y-64100D01*
X66529Y-64129D01*
X66501Y-64143D01*
X66444Y-64158D01*
X66401Y-64158D01*
X66344Y-64143D01*
X66315Y-64129D01*
X66287Y-64100D01*
X66272Y-64058D01*
X66272Y-64029D01*
X66287Y-63986D01*
X66301Y-63972D01*
X66372Y-63715D02*
X66572Y-63715D01*
X66258Y-63786D02*
X66472Y-63858D01*
X66472Y-63672D01*
X66572Y-63543D02*
X66572Y-63486D01*
X66558Y-63458D01*
X66544Y-63443D01*
X66501Y-63415D01*
X66444Y-63400D01*
X66329Y-63400D01*
X66301Y-63415D01*
X66287Y-63429D01*
X66272Y-63458D01*
X66272Y-63515D01*
X66287Y-63543D01*
X66301Y-63558D01*
X66329Y-63572D01*
X66401Y-63572D01*
X66429Y-63558D01*
X66444Y-63543D01*
X66458Y-63515D01*
X66458Y-63458D01*
X66444Y-63429D01*
X66429Y-63415D01*
X66401Y-63400D01*
X64870Y-72929D02*
X64885Y-72943D01*
X64899Y-72986D01*
X64899Y-73014D01*
X64885Y-73057D01*
X64856Y-73086D01*
X64828Y-73100D01*
X64770Y-73114D01*
X64728Y-73114D01*
X64670Y-73100D01*
X64642Y-73086D01*
X64613Y-73057D01*
X64599Y-73014D01*
X64599Y-72986D01*
X64613Y-72943D01*
X64628Y-72929D01*
X64699Y-72671D02*
X64899Y-72671D01*
X64585Y-72743D02*
X64799Y-72814D01*
X64799Y-72629D01*
X64728Y-72471D02*
X64713Y-72500D01*
X64699Y-72514D01*
X64670Y-72529D01*
X64656Y-72529D01*
X64628Y-72514D01*
X64613Y-72500D01*
X64599Y-72471D01*
X64599Y-72414D01*
X64613Y-72386D01*
X64628Y-72371D01*
X64656Y-72357D01*
X64670Y-72357D01*
X64699Y-72371D01*
X64713Y-72386D01*
X64728Y-72414D01*
X64728Y-72471D01*
X64742Y-72500D01*
X64756Y-72514D01*
X64785Y-72529D01*
X64842Y-72529D01*
X64870Y-72514D01*
X64885Y-72500D01*
X64899Y-72471D01*
X64899Y-72414D01*
X64885Y-72386D01*
X64870Y-72371D01*
X64842Y-72357D01*
X64785Y-72357D01*
X64756Y-72371D01*
X64742Y-72386D01*
X64728Y-72414D01*
M02*
