G04 (created by PCBNEW (2013-04-21 BZR 4107)-testing) date Thursday, 13 June 2013 16:51:54*
%MOIN*%
G04 Gerber Fmt 3.4, Leading zero omitted, Abs format*
%FSLAX34Y34*%
G01*
G70*
G90*
G04 APERTURE LIST*
%ADD10C,2.3622e-06*%
%ADD11R,0.05X0.02*%
%ADD12R,0.0597X0.0707*%
%ADD13R,0.114X0.2125*%
%ADD14R,0.1141X0.2125*%
%ADD15R,0.045X0.02*%
%ADD16R,0.055X0.035*%
%ADD17R,0.035X0.055*%
%ADD18R,0.025X0.045*%
%ADD19R,0.045X0.025*%
%ADD20R,0.1377X0.0787*%
%ADD21R,0.1X0.1*%
%ADD22C,0.1*%
%ADD23R,0.0314X0.0354*%
%ADD24R,0.1337X0.0472*%
%ADD25R,0.0472X0.1337*%
%ADD26R,0.0276X0.0394*%
%ADD27R,0.0984X0.2007*%
%ADD28C,0.7007*%
%ADD29R,0.0314X0.0314*%
%ADD30R,0.08X0.16*%
%ADD31R,0.0433X0.0748*%
%ADD32R,0.0394X0.0394*%
%ADD33R,0.0394X0.0236*%
%ADD34R,0.026X0.08*%
%ADD35R,0.08X0.22*%
%ADD36R,0.0787402X0.208661*%
%ADD37R,0.0157X0.0472*%
%ADD38C,0.1181*%
%ADD39R,0.102362X0.0866142*%
%ADD40R,0.11811X0.0866142*%
%ADD41R,0.0885827X0.019685*%
%ADD42R,0.0984252X0.0787402*%
%ADD43C,0.0393701*%
%ADD44C,0.0787402*%
%ADD45C,0.0393701*%
%ADD46C,0.0295276*%
%ADD47C,0.019685*%
%ADD48C,0.015748*%
%ADD49C,0.01*%
%ADD50C,0.023622*%
%ADD51C,0.0590551*%
G04 APERTURE END LIST*
G54D10*
G54D11*
X67983Y-56395D03*
X67983Y-56895D03*
X67983Y-57395D03*
X67983Y-57895D03*
X67983Y-58395D03*
X67983Y-58895D03*
X67983Y-59395D03*
X67983Y-59895D03*
X67983Y-60395D03*
X67983Y-60895D03*
X67983Y-61395D03*
X67983Y-61895D03*
X67983Y-62395D03*
X67983Y-62895D03*
X71583Y-62895D03*
X71583Y-62395D03*
X71583Y-61895D03*
X71583Y-61395D03*
X71583Y-60895D03*
X71583Y-60395D03*
X71583Y-59895D03*
X71583Y-59395D03*
X71583Y-58895D03*
X71583Y-58395D03*
X71583Y-57895D03*
X71583Y-57395D03*
X71583Y-56895D03*
X71583Y-56395D03*
G54D12*
X76921Y-72539D03*
X75441Y-72539D03*
X76921Y-51870D03*
X75441Y-51870D03*
X76921Y-62204D03*
X75441Y-62204D03*
G54D13*
X87894Y-51279D03*
G54D14*
X83957Y-51280D03*
G54D13*
X87894Y-61023D03*
G54D14*
X83957Y-61024D03*
G54D13*
X87894Y-70767D03*
G54D14*
X83957Y-70768D03*
G54D15*
X75820Y-54588D03*
X77920Y-54588D03*
X75820Y-54088D03*
X75820Y-53588D03*
X75820Y-53088D03*
X77920Y-54088D03*
X77920Y-53588D03*
X77920Y-53088D03*
X75820Y-75257D03*
X77920Y-75257D03*
X75820Y-74757D03*
X75820Y-74257D03*
X75820Y-73757D03*
X77920Y-74757D03*
X77920Y-74257D03*
X77920Y-73757D03*
X75820Y-64923D03*
X77920Y-64923D03*
X75820Y-64423D03*
X75820Y-63923D03*
X75820Y-63423D03*
X77920Y-64423D03*
X77920Y-63923D03*
X77920Y-63423D03*
G54D16*
X78248Y-66713D03*
X78248Y-65963D03*
G54D17*
X72459Y-60728D03*
X73209Y-60728D03*
G54D16*
X70078Y-63699D03*
X70078Y-64449D03*
X93405Y-64941D03*
X93405Y-64191D03*
X78248Y-77048D03*
X78248Y-76298D03*
X78248Y-56378D03*
X78248Y-55628D03*
X93405Y-55197D03*
X93405Y-54447D03*
G54D18*
X80310Y-65157D03*
X80910Y-65157D03*
G54D19*
X77362Y-56303D03*
X77362Y-55703D03*
G54D18*
X77652Y-62204D03*
X78252Y-62204D03*
G54D19*
X70964Y-55614D03*
X70964Y-55014D03*
X94783Y-76077D03*
X94783Y-76677D03*
X69488Y-50496D03*
X69488Y-49896D03*
X69488Y-49315D03*
X69488Y-48715D03*
X94783Y-56589D03*
X94783Y-57189D03*
G54D18*
X73331Y-57677D03*
X72731Y-57677D03*
X73331Y-57086D03*
X72731Y-57086D03*
G54D19*
X94783Y-54424D03*
X94783Y-55024D03*
X94783Y-55507D03*
X94783Y-56107D03*
G54D18*
X75684Y-56791D03*
X76284Y-56791D03*
X80310Y-54822D03*
X80910Y-54822D03*
X77652Y-51870D03*
X78252Y-51870D03*
G54D19*
X77362Y-66638D03*
X77362Y-66038D03*
X77362Y-76973D03*
X77362Y-76373D03*
G54D18*
X80310Y-75492D03*
X80910Y-75492D03*
X75684Y-77460D03*
X76284Y-77460D03*
X75684Y-67125D03*
X76284Y-67125D03*
G54D19*
X94783Y-74995D03*
X94783Y-75595D03*
X68602Y-55014D03*
X68602Y-55614D03*
X94783Y-73912D03*
X94783Y-74512D03*
X69783Y-55614D03*
X69783Y-55014D03*
X69192Y-55014D03*
X69192Y-55614D03*
X70374Y-55614D03*
X70374Y-55014D03*
G54D18*
X73331Y-59448D03*
X72731Y-59448D03*
X73331Y-60039D03*
X72731Y-60039D03*
G54D19*
X94783Y-66333D03*
X94783Y-66933D03*
G54D18*
X73331Y-58858D03*
X72731Y-58858D03*
X73331Y-58267D03*
X72731Y-58267D03*
G54D19*
X94783Y-64168D03*
X94783Y-64768D03*
X94783Y-65251D03*
X94783Y-65851D03*
G54D20*
X84350Y-73976D03*
X84350Y-76810D03*
X84350Y-54488D03*
X84350Y-57322D03*
X84350Y-64232D03*
X84350Y-67066D03*
G54D21*
X63385Y-48212D03*
G54D22*
X63385Y-50212D03*
G54D23*
X75393Y-55807D03*
X76653Y-55768D03*
X80019Y-74606D03*
X81279Y-74567D03*
X80019Y-53937D03*
X81279Y-53898D03*
X75393Y-66141D03*
X76653Y-66102D03*
X80019Y-64271D03*
X81279Y-64232D03*
X75393Y-76476D03*
X76653Y-76437D03*
G54D24*
X75139Y-69881D03*
X77756Y-69881D03*
X82144Y-69881D03*
X79527Y-69881D03*
X75139Y-49212D03*
X77756Y-49212D03*
G54D25*
X87598Y-66986D03*
X87598Y-64369D03*
X91240Y-66986D03*
X91240Y-64369D03*
G54D24*
X75139Y-59547D03*
X77756Y-59547D03*
G54D25*
X87598Y-76730D03*
X87598Y-74113D03*
X91240Y-57242D03*
X91240Y-54625D03*
X87598Y-57242D03*
X87598Y-54625D03*
G54D15*
X79560Y-63348D03*
X81660Y-63348D03*
X79560Y-62848D03*
X79560Y-62348D03*
X79560Y-61848D03*
X81660Y-62848D03*
X81660Y-62348D03*
X81660Y-61848D03*
X81660Y-65982D03*
X79560Y-65982D03*
X81660Y-66482D03*
X81660Y-66982D03*
X81660Y-67482D03*
X79560Y-66482D03*
X79560Y-66982D03*
X79560Y-67482D03*
X79560Y-73683D03*
X81660Y-73683D03*
X79560Y-73183D03*
X79560Y-72683D03*
X79560Y-72183D03*
X81660Y-73183D03*
X81660Y-72683D03*
X81660Y-72183D03*
X81660Y-76316D03*
X79560Y-76316D03*
X81660Y-76816D03*
X81660Y-77316D03*
X81660Y-77816D03*
X79560Y-76816D03*
X79560Y-77316D03*
X79560Y-77816D03*
X81660Y-55647D03*
X79560Y-55647D03*
X81660Y-56147D03*
X81660Y-56647D03*
X81660Y-57147D03*
X79560Y-56147D03*
X79560Y-56647D03*
X79560Y-57147D03*
X79560Y-53013D03*
X81660Y-53013D03*
X79560Y-52513D03*
X79560Y-52013D03*
X79560Y-51513D03*
X81660Y-52513D03*
X81660Y-52013D03*
X81660Y-51513D03*
G54D24*
X82144Y-59547D03*
X79527Y-59547D03*
X82144Y-49212D03*
X79527Y-49212D03*
G54D25*
X72440Y-48269D03*
X72440Y-50886D03*
G54D18*
X77652Y-72539D03*
X78252Y-72539D03*
G54D25*
X91240Y-76730D03*
X91240Y-74113D03*
G54D26*
X65668Y-54125D03*
X66043Y-54125D03*
X66418Y-54125D03*
X66418Y-55125D03*
X66043Y-55125D03*
X65668Y-55125D03*
G54D23*
X63976Y-54921D03*
X62716Y-54960D03*
G54D16*
X62696Y-56022D03*
X62696Y-56772D03*
X63484Y-56022D03*
X63484Y-56772D03*
X67322Y-54349D03*
X67322Y-55099D03*
G54D18*
X68508Y-53051D03*
X67908Y-53051D03*
X64768Y-56003D03*
X64168Y-56003D03*
X66146Y-56200D03*
X65546Y-56200D03*
X64463Y-54921D03*
X65063Y-54921D03*
G54D19*
X72637Y-65359D03*
X72637Y-64759D03*
X71850Y-65359D03*
X71850Y-64759D03*
X71062Y-65359D03*
X71062Y-64759D03*
X70570Y-67130D03*
X70570Y-66530D03*
X72736Y-66530D03*
X72736Y-67130D03*
X72736Y-68114D03*
X72736Y-67514D03*
X63090Y-66038D03*
X63090Y-66638D03*
X63188Y-64168D03*
X63188Y-64768D03*
G54D27*
X73897Y-75590D03*
G54D28*
X68898Y-75591D03*
G54D27*
X63897Y-75590D03*
G54D12*
X65500Y-53051D03*
X66980Y-53051D03*
G54D19*
X70866Y-69985D03*
X70866Y-69385D03*
X94192Y-65851D03*
X94192Y-65251D03*
X94094Y-56107D03*
X94094Y-55507D03*
X71850Y-69985D03*
X71850Y-69385D03*
X69389Y-64177D03*
X69389Y-63577D03*
G54D18*
X66146Y-56988D03*
X65546Y-56988D03*
G54D19*
X70177Y-48715D03*
X70177Y-49315D03*
X94094Y-75595D03*
X94094Y-74995D03*
X63090Y-73823D03*
X63090Y-73223D03*
G54D29*
X70177Y-50491D03*
X70177Y-49901D03*
X64173Y-56791D03*
X64763Y-56791D03*
X94094Y-54429D03*
X94094Y-55019D03*
X94192Y-64173D03*
X94192Y-64763D03*
X94094Y-73917D03*
X94094Y-74507D03*
G54D30*
X92305Y-68602D03*
X94505Y-68602D03*
X92305Y-58858D03*
X94505Y-58858D03*
X89352Y-48917D03*
X91552Y-48917D03*
G54D31*
X71870Y-68601D03*
X70846Y-68601D03*
G54D32*
X65475Y-64272D03*
G54D33*
X64643Y-63601D03*
X65475Y-63601D03*
X64643Y-64351D03*
G54D34*
X64777Y-69991D03*
X65277Y-69991D03*
X65777Y-69991D03*
X66277Y-69991D03*
X66777Y-69991D03*
X67277Y-69991D03*
X67777Y-69991D03*
X68277Y-69991D03*
X68777Y-69991D03*
X69277Y-69991D03*
X69277Y-66031D03*
X68777Y-66031D03*
X68277Y-66031D03*
X67777Y-66031D03*
X67277Y-66031D03*
X66777Y-66031D03*
X66277Y-66031D03*
X65777Y-66031D03*
X65277Y-66031D03*
X64777Y-66031D03*
G54D18*
X66530Y-56988D03*
X67130Y-56988D03*
X66530Y-57972D03*
X67130Y-57972D03*
X66530Y-58956D03*
X67130Y-58956D03*
X66530Y-60433D03*
X67130Y-60433D03*
G54D35*
X63090Y-68080D03*
X63090Y-71780D03*
G54D36*
X64566Y-53051D03*
X63188Y-53051D03*
G54D37*
X71270Y-67637D03*
X71526Y-67637D03*
X71780Y-67637D03*
X72036Y-67637D03*
X72036Y-66023D03*
X71780Y-66023D03*
X71526Y-66023D03*
X71270Y-66023D03*
G54D38*
X93622Y-48819D03*
X63779Y-77854D03*
X93660Y-77854D03*
G54D39*
X94960Y-52755D03*
X94960Y-51181D03*
G54D40*
X90551Y-52755D03*
X90551Y-51181D03*
G54D39*
X94862Y-72244D03*
X94862Y-70669D03*
G54D40*
X90452Y-72244D03*
X90452Y-70669D03*
G54D39*
X94960Y-62500D03*
X94960Y-60925D03*
G54D40*
X90551Y-62500D03*
X90551Y-60925D03*
G54D41*
X64763Y-60433D03*
X64763Y-60118D03*
X64763Y-61062D03*
X64763Y-60748D03*
X64763Y-59803D03*
G54D42*
X62568Y-62185D03*
X62568Y-58681D03*
X64714Y-62185D03*
X64714Y-58681D03*
G54D16*
X93405Y-74686D03*
X93405Y-73936D03*
X65452Y-70983D03*
X65452Y-71733D03*
X67224Y-65040D03*
X67224Y-64290D03*
G54D19*
X66535Y-64463D03*
X66535Y-65063D03*
X64763Y-71559D03*
X64763Y-70959D03*
G54D43*
X80314Y-72183D03*
X80314Y-61848D03*
X80314Y-51513D03*
X76771Y-70472D03*
X77559Y-70472D03*
X77952Y-60236D03*
X78740Y-60236D03*
X79527Y-60236D03*
X80314Y-60236D03*
X77165Y-71259D03*
X77952Y-71259D03*
X78346Y-70472D03*
X79133Y-70472D03*
X79921Y-70472D03*
X79527Y-71259D03*
X78740Y-71259D03*
X76377Y-71259D03*
X75590Y-71259D03*
X77952Y-69291D03*
X78740Y-69291D03*
X79527Y-69291D03*
X76771Y-61023D03*
X77559Y-61023D03*
X78346Y-61023D03*
X79921Y-50000D03*
X79133Y-50000D03*
X78346Y-50000D03*
X77559Y-50000D03*
X65944Y-50000D03*
X65354Y-50590D03*
X67125Y-50000D03*
X66535Y-50590D03*
X68011Y-54330D03*
X67322Y-53838D03*
X79921Y-61023D03*
X79133Y-61023D03*
X77165Y-60236D03*
X70767Y-50886D03*
X71259Y-51574D03*
X70472Y-51574D03*
X74803Y-50787D03*
X75590Y-50787D03*
X76377Y-50787D03*
X77165Y-50787D03*
X77952Y-50787D03*
X78740Y-50787D03*
X79527Y-50787D03*
X77362Y-55118D03*
X76771Y-55118D03*
X67716Y-50590D03*
X64763Y-50000D03*
X78248Y-55118D03*
X78248Y-75787D03*
X77460Y-75787D03*
X78248Y-65452D03*
X77362Y-65452D03*
X80314Y-50688D03*
X80314Y-71358D03*
X74114Y-51574D03*
X76082Y-61023D03*
X74704Y-72539D03*
X78641Y-69881D03*
X78641Y-59547D03*
X78641Y-49212D03*
X63188Y-54429D03*
X63877Y-54429D03*
X62401Y-54133D03*
X62401Y-51968D03*
X68602Y-62401D03*
X70078Y-64960D03*
X68011Y-64960D03*
X71850Y-64173D03*
X73228Y-64763D03*
X69783Y-56102D03*
X70374Y-54527D03*
X70570Y-66043D03*
X66043Y-70964D03*
X62696Y-55511D03*
X64173Y-57283D03*
X62401Y-53051D03*
X63484Y-55511D03*
X69586Y-56791D03*
X67125Y-68700D03*
X70866Y-61417D03*
X73720Y-63090D03*
X67125Y-61023D03*
X68897Y-49606D03*
X93897Y-51181D03*
X68799Y-57677D03*
X92421Y-51181D03*
X93208Y-51181D03*
X91732Y-51181D03*
X91732Y-52755D03*
X92421Y-52755D03*
X93208Y-52755D03*
X93897Y-52755D03*
X72244Y-57677D03*
X75098Y-53149D03*
X82381Y-52559D03*
X77854Y-52559D03*
X78543Y-52559D03*
X82381Y-56397D03*
X83070Y-52559D03*
X84350Y-53346D03*
X66830Y-57480D03*
X94192Y-57283D03*
X93897Y-60925D03*
X68799Y-58464D03*
X93208Y-60925D03*
X92421Y-60925D03*
X91732Y-60925D03*
X91732Y-62500D03*
X93208Y-62500D03*
X92421Y-62500D03*
X93897Y-62500D03*
X72244Y-58858D03*
X75098Y-63385D03*
X72244Y-58267D03*
X74507Y-62204D03*
X82381Y-64173D03*
X82381Y-62893D03*
X82381Y-66732D03*
X83070Y-62893D03*
X84350Y-63090D03*
X77854Y-62893D03*
X78543Y-62893D03*
X66830Y-58464D03*
X94192Y-67125D03*
X68799Y-59350D03*
X93897Y-70669D03*
X92421Y-70669D03*
X93208Y-70669D03*
X91732Y-70669D03*
X93897Y-72244D03*
X93208Y-72244D03*
X92421Y-72244D03*
X91732Y-72244D03*
X75098Y-73720D03*
X72244Y-60039D03*
X75098Y-74212D03*
X72244Y-59448D03*
X82381Y-73228D03*
X83070Y-73228D03*
X82381Y-77066D03*
X84350Y-72834D03*
X77854Y-73228D03*
X78543Y-73228D03*
X66830Y-59448D03*
X93110Y-76377D03*
X80314Y-55610D03*
X80314Y-56594D03*
X80314Y-56102D03*
X80314Y-65944D03*
X80314Y-66437D03*
X80314Y-66929D03*
X80314Y-77263D03*
X80314Y-76771D03*
X80314Y-76279D03*
X74901Y-60137D03*
X79527Y-55118D03*
X79527Y-65452D03*
X79527Y-75787D03*
X88976Y-47637D03*
X89763Y-47637D03*
X88188Y-48425D03*
X82283Y-48031D03*
X83070Y-48425D03*
X81496Y-48425D03*
X75984Y-48425D03*
X93110Y-75196D03*
X70964Y-56889D03*
X76377Y-68503D03*
X75984Y-67716D03*
X75196Y-67716D03*
X75590Y-68503D03*
X75984Y-69291D03*
X75196Y-69291D03*
X82677Y-68503D03*
X81889Y-68503D03*
X81496Y-69291D03*
X90157Y-77559D03*
X89370Y-77559D03*
X88582Y-77559D03*
X87007Y-77559D03*
X86220Y-77559D03*
X85433Y-77559D03*
X84645Y-77559D03*
X83858Y-77559D03*
X83858Y-75984D03*
X84645Y-75984D03*
X85433Y-75984D03*
X86220Y-75984D03*
X87007Y-75984D03*
X88582Y-75984D03*
X89370Y-75984D03*
X90157Y-75984D03*
X89763Y-68897D03*
X90551Y-68897D03*
X91338Y-68897D03*
X90944Y-68110D03*
X90157Y-68110D03*
X89370Y-68110D03*
X88582Y-68110D03*
X87795Y-68110D03*
X87007Y-68110D03*
X86220Y-68110D03*
X85433Y-68110D03*
X84645Y-68110D03*
X83858Y-68110D03*
X88582Y-66141D03*
X89370Y-66141D03*
X90157Y-66141D03*
X87007Y-66141D03*
X86220Y-66141D03*
X85433Y-66141D03*
X84645Y-66141D03*
X83858Y-66141D03*
X92125Y-66929D03*
X92913Y-66929D03*
X93307Y-66141D03*
X92519Y-66141D03*
X91732Y-66141D03*
X73622Y-48269D03*
X74015Y-49212D03*
X73228Y-49212D03*
X72440Y-49212D03*
X71161Y-47736D03*
X70866Y-49212D03*
X71653Y-49212D03*
X71259Y-48425D03*
X83858Y-58267D03*
X84645Y-58267D03*
X85433Y-58267D03*
X86220Y-58267D03*
X87007Y-58267D03*
X87795Y-58267D03*
X88582Y-58267D03*
X89370Y-58267D03*
X90157Y-58267D03*
X90944Y-58267D03*
X89763Y-59055D03*
X90551Y-59055D03*
X91338Y-59055D03*
X92125Y-57086D03*
X92913Y-57086D03*
X93307Y-56299D03*
X92519Y-56299D03*
X91732Y-56299D03*
X90944Y-56299D03*
X90157Y-56299D03*
X89370Y-56299D03*
X88582Y-56299D03*
X87795Y-56299D03*
X87007Y-56299D03*
X86220Y-56299D03*
X85433Y-56299D03*
X84645Y-56299D03*
X83858Y-56299D03*
X83070Y-58661D03*
X82283Y-58661D03*
X81496Y-58661D03*
X81496Y-60236D03*
X75590Y-58661D03*
X74803Y-58661D03*
X64960Y-47637D03*
X65551Y-48228D03*
X66141Y-47637D03*
X66732Y-48228D03*
X67322Y-47637D03*
X67913Y-48228D03*
X68503Y-47637D03*
X68799Y-52460D03*
X68799Y-53641D03*
X68996Y-53051D03*
X75196Y-64468D03*
X93405Y-65452D03*
X82086Y-69192D03*
X74704Y-54822D03*
X76870Y-77263D03*
X76870Y-56594D03*
X76870Y-66830D03*
X62696Y-57283D03*
X63484Y-57283D03*
X66830Y-61515D03*
X66141Y-57578D03*
X65354Y-72244D03*
X70570Y-67618D03*
X63090Y-65551D03*
X67027Y-56200D03*
X70669Y-60629D03*
X68799Y-59940D03*
X70866Y-64074D03*
X72145Y-67125D03*
X71850Y-70472D03*
X70866Y-70472D03*
X73523Y-66732D03*
X66830Y-63681D03*
X70866Y-62106D03*
X67027Y-52263D03*
X69192Y-56102D03*
X64763Y-65255D03*
X73031Y-61417D03*
X65944Y-55610D03*
X67519Y-53051D03*
X67913Y-53641D03*
X67913Y-52460D03*
X64763Y-72047D03*
X63090Y-74311D03*
X65157Y-56102D03*
X66633Y-55610D03*
X64716Y-62704D03*
X64714Y-61635D03*
X63972Y-58681D03*
X62574Y-58196D03*
X62566Y-59161D03*
X62568Y-62718D03*
X62566Y-61590D03*
G54D44*
X77952Y-69291D02*
X77755Y-69291D01*
X77755Y-69291D02*
X76771Y-70275D01*
X76771Y-70275D02*
X76771Y-70472D01*
G54D45*
X80314Y-71358D02*
X80314Y-71428D01*
X80314Y-71428D02*
X79560Y-72183D01*
X79560Y-72183D02*
X79171Y-72183D01*
X79171Y-72183D02*
X79133Y-72145D01*
X79133Y-72145D02*
X79133Y-71259D01*
X79560Y-72183D02*
X79560Y-71292D01*
X79560Y-71292D02*
X79527Y-71259D01*
X75590Y-71259D02*
X75590Y-71653D01*
X75590Y-71653D02*
X74704Y-72539D01*
X74704Y-72539D02*
X74704Y-72145D01*
X74704Y-72145D02*
X75590Y-71259D01*
X79560Y-51513D02*
X79560Y-50820D01*
X79560Y-50820D02*
X79527Y-50787D01*
X79560Y-52513D02*
X80314Y-52513D01*
X80314Y-52513D02*
X80269Y-52559D01*
X80269Y-52559D02*
X80216Y-52559D01*
X80216Y-52559D02*
X80314Y-52559D01*
X79560Y-52013D02*
X80314Y-52013D01*
X80314Y-52013D02*
X80269Y-51968D01*
X80269Y-51968D02*
X80216Y-51968D01*
X80216Y-51968D02*
X80314Y-51968D01*
X79560Y-51513D02*
X80314Y-51513D01*
X80314Y-51513D02*
X80314Y-51476D01*
X79560Y-61848D02*
X79133Y-61848D01*
X79133Y-61848D02*
X79133Y-61811D01*
X79560Y-62348D02*
X79133Y-62348D01*
X79133Y-62348D02*
X79133Y-62303D01*
X79560Y-62848D02*
X80314Y-62848D01*
X80314Y-62848D02*
X80314Y-62992D01*
X79560Y-62348D02*
X80314Y-62348D01*
X80314Y-62348D02*
X80314Y-62303D01*
X79560Y-61848D02*
X80314Y-61848D01*
X80314Y-61848D02*
X80314Y-61909D01*
X79527Y-69291D02*
X79921Y-69291D01*
X79921Y-69291D02*
X80314Y-69685D01*
X80314Y-69685D02*
X80314Y-71358D01*
X79560Y-73183D02*
X80314Y-73183D01*
X80314Y-73183D02*
X80314Y-73129D01*
X79560Y-72183D02*
X80314Y-72183D01*
X80314Y-72183D02*
X80314Y-72145D01*
X79560Y-72683D02*
X80314Y-72683D01*
X80314Y-72683D02*
X80314Y-72637D01*
X77460Y-75787D02*
X77460Y-75688D01*
X77460Y-75688D02*
X77657Y-75492D01*
X77657Y-75492D02*
X77952Y-75492D01*
X77952Y-75492D02*
X78248Y-75787D01*
X77362Y-55118D02*
X77362Y-55019D01*
X77362Y-55019D02*
X77657Y-54724D01*
X77657Y-54724D02*
X77854Y-54724D01*
X77854Y-54724D02*
X78248Y-55118D01*
X71259Y-51574D02*
X74114Y-51574D01*
X77362Y-65452D02*
X77657Y-65157D01*
X77657Y-65157D02*
X78051Y-65157D01*
X78051Y-65157D02*
X78248Y-65354D01*
X78248Y-65354D02*
X78248Y-65452D01*
X80314Y-71358D02*
X80314Y-69980D01*
X80314Y-69980D02*
X79625Y-69291D01*
X79625Y-69291D02*
X79527Y-69291D01*
G54D44*
X77165Y-49901D02*
X77165Y-49015D01*
X77165Y-49015D02*
X77362Y-48818D01*
X77362Y-48818D02*
X80118Y-48818D01*
X80118Y-48818D02*
X80314Y-49015D01*
X80314Y-49015D02*
X80314Y-49606D01*
X80314Y-49606D02*
X79921Y-50000D01*
X77165Y-60236D02*
X77165Y-59744D01*
X77165Y-59744D02*
X77755Y-59153D01*
X77755Y-59153D02*
X80118Y-59153D01*
X80118Y-59153D02*
X80314Y-59350D01*
X80314Y-59350D02*
X80314Y-60236D01*
X77952Y-69291D02*
X76771Y-70472D01*
X79527Y-69291D02*
X79724Y-69291D01*
X79724Y-69291D02*
X79921Y-69488D01*
X79921Y-69488D02*
X79921Y-70472D01*
X78641Y-69881D02*
X78543Y-69881D01*
X78543Y-69881D02*
X77952Y-69291D01*
X77559Y-70472D02*
X78051Y-70472D01*
X78051Y-70472D02*
X78641Y-69881D01*
X78641Y-69881D02*
X78641Y-69980D01*
X78641Y-69980D02*
X79133Y-70472D01*
X78641Y-69881D02*
X78641Y-70177D01*
X78641Y-70177D02*
X78346Y-70472D01*
X77756Y-69881D02*
X77756Y-69487D01*
X77756Y-69487D02*
X77952Y-69291D01*
X75441Y-72539D02*
X75441Y-72196D01*
X75441Y-72196D02*
X76377Y-71259D01*
X74114Y-51574D02*
X73129Y-51574D01*
X73129Y-51574D02*
X72440Y-50886D01*
X71259Y-51574D02*
X71752Y-51574D01*
X71752Y-51574D02*
X72440Y-50886D01*
X79921Y-50000D02*
X79921Y-49606D01*
X79921Y-49606D02*
X79527Y-49212D01*
X79133Y-50000D02*
X79133Y-49605D01*
X79133Y-49605D02*
X79527Y-49212D01*
X78346Y-50000D02*
X78346Y-49802D01*
X78346Y-49802D02*
X77756Y-49212D01*
X77559Y-50000D02*
X77559Y-49409D01*
X77559Y-49409D02*
X77756Y-49212D01*
X75441Y-51870D02*
X75441Y-51724D01*
X75441Y-51724D02*
X76377Y-50787D01*
X74803Y-50787D02*
X74803Y-51232D01*
X74803Y-51232D02*
X75441Y-51870D01*
X75441Y-51870D02*
X75441Y-50936D01*
X75441Y-50936D02*
X75590Y-50787D01*
X77756Y-59547D02*
X78051Y-59547D01*
X78051Y-59547D02*
X78740Y-60236D01*
X79527Y-59547D02*
X79429Y-59547D01*
X79429Y-59547D02*
X78740Y-60236D01*
X79527Y-59547D02*
X79527Y-60235D01*
X79527Y-60235D02*
X79527Y-60236D01*
X77756Y-59547D02*
X77756Y-60039D01*
X77756Y-60039D02*
X77952Y-60236D01*
X79921Y-70472D02*
X79921Y-70276D01*
X79921Y-70276D02*
X79527Y-69881D01*
X77756Y-69881D02*
X77362Y-69881D01*
X77362Y-69881D02*
X76771Y-70472D01*
X77756Y-59645D02*
X77165Y-60236D01*
X77756Y-59547D02*
X77756Y-59645D01*
G54D45*
X77756Y-69881D02*
X77756Y-70275D01*
X77756Y-70275D02*
X77559Y-70472D01*
G54D44*
X79527Y-59547D02*
X79625Y-59547D01*
G54D45*
X77952Y-60236D02*
X78740Y-60236D01*
X79527Y-60236D02*
X80314Y-60236D01*
G54D44*
X79625Y-59547D02*
X80314Y-60236D01*
G54D45*
X76377Y-71259D02*
X77165Y-71259D01*
X77952Y-71259D02*
X78346Y-70866D01*
X78346Y-70866D02*
X78346Y-70472D01*
X79133Y-70472D02*
X79921Y-70472D01*
X79527Y-71259D02*
X79133Y-71259D01*
X79133Y-71259D02*
X78740Y-71259D01*
X76771Y-70472D02*
X76377Y-70866D01*
X76377Y-70866D02*
X76377Y-71259D01*
X77756Y-69881D02*
X77756Y-69487D01*
X77756Y-69487D02*
X77952Y-69291D01*
X78740Y-69291D02*
X79527Y-69291D01*
X76771Y-61023D02*
X77559Y-61023D01*
X78346Y-61023D02*
X79133Y-61023D01*
X79133Y-50000D02*
X78346Y-50000D01*
G54D44*
X65354Y-50590D02*
X65944Y-50000D01*
X66535Y-50590D02*
X67125Y-50000D01*
G54D46*
X67322Y-54349D02*
X67993Y-54349D01*
X67993Y-54349D02*
X68011Y-54330D01*
X67322Y-54349D02*
X67322Y-53838D01*
G54D47*
X79560Y-63348D02*
X79194Y-63348D01*
X79194Y-63348D02*
X79133Y-63287D01*
X79133Y-63287D02*
X79133Y-62893D01*
X79133Y-62893D02*
X79133Y-62303D01*
X79133Y-62303D02*
X79133Y-61811D01*
X79133Y-61811D02*
X79133Y-61023D01*
X79560Y-63348D02*
X79958Y-63348D01*
X79958Y-63348D02*
X80314Y-62992D01*
X80314Y-62992D02*
X80314Y-62303D01*
X80314Y-62303D02*
X80314Y-61909D01*
X80314Y-61909D02*
X80314Y-61417D01*
X80314Y-61417D02*
X79921Y-61023D01*
G54D45*
X77756Y-59645D02*
X77165Y-60236D01*
X70472Y-51574D02*
X71259Y-51574D01*
X79921Y-50000D02*
X79921Y-50393D01*
X75590Y-50787D02*
X74803Y-50787D01*
X77165Y-50787D02*
X76377Y-50787D01*
X78740Y-50787D02*
X77952Y-50787D01*
X79921Y-50393D02*
X79527Y-50787D01*
X79527Y-49212D02*
X79527Y-49605D01*
X79527Y-49605D02*
X79921Y-50000D01*
X77362Y-55118D02*
X76771Y-55118D01*
G54D44*
X67716Y-50590D02*
X68207Y-50590D01*
X68207Y-50590D02*
X68503Y-50886D01*
X63385Y-50212D02*
X64551Y-50212D01*
X68503Y-50886D02*
X69488Y-50886D01*
X64551Y-50212D02*
X64763Y-50000D01*
G54D47*
X77920Y-54588D02*
X78112Y-54588D01*
X77920Y-54588D02*
X77498Y-54588D01*
G54D46*
X77498Y-54588D02*
X77362Y-54724D01*
X77362Y-54724D02*
X77362Y-55118D01*
X77362Y-55118D02*
X77362Y-55703D01*
G54D47*
X79560Y-53013D02*
X80057Y-53013D01*
X80314Y-52755D02*
X80314Y-52559D01*
X80314Y-52559D02*
X80314Y-51968D01*
X80314Y-51968D02*
X80314Y-51476D01*
X80314Y-51476D02*
X80314Y-50688D01*
X80057Y-53013D02*
X80314Y-52755D01*
X79560Y-73683D02*
X80057Y-73683D01*
X80314Y-73425D02*
X80314Y-73129D01*
X80314Y-73129D02*
X80314Y-72637D01*
X80314Y-72637D02*
X80314Y-72145D01*
X80314Y-72145D02*
X80314Y-71358D01*
X80057Y-73683D02*
X80314Y-73425D01*
X77920Y-75257D02*
X77498Y-75257D01*
G54D46*
X77498Y-75257D02*
X77460Y-75295D01*
X77460Y-75295D02*
X77460Y-75787D01*
X77460Y-75787D02*
X77460Y-76373D01*
X77460Y-76373D02*
X77362Y-76373D01*
G54D47*
X77920Y-75257D02*
X78210Y-75257D01*
G54D46*
X78210Y-75257D02*
X78248Y-75295D01*
X78248Y-75295D02*
X78248Y-75787D01*
X78248Y-75787D02*
X78248Y-76298D01*
G54D47*
X77920Y-64923D02*
X78210Y-64923D01*
G54D46*
X78210Y-64923D02*
X78248Y-64960D01*
X78248Y-64960D02*
X78248Y-65452D01*
X78248Y-65452D02*
X78248Y-65963D01*
G54D47*
X77920Y-64923D02*
X77498Y-64923D01*
G54D46*
X77498Y-64923D02*
X77362Y-65059D01*
X77362Y-65059D02*
X77362Y-65452D01*
X77362Y-65452D02*
X77362Y-66038D01*
X67322Y-54349D02*
X66641Y-54349D01*
X66641Y-54349D02*
X66418Y-54125D01*
X66043Y-54125D02*
X66418Y-54125D01*
G54D47*
X70177Y-50491D02*
X70177Y-50886D01*
X70177Y-50886D02*
X70177Y-50885D01*
X70177Y-50885D02*
X70177Y-50886D01*
X69488Y-50496D02*
X69488Y-50886D01*
X69488Y-50886D02*
X69488Y-50885D01*
X69488Y-50885D02*
X69488Y-50886D01*
G54D44*
X75441Y-51870D02*
X74409Y-51870D01*
X73425Y-50886D02*
X74114Y-51574D01*
X73425Y-50886D02*
X72440Y-50886D01*
X74409Y-51870D02*
X74114Y-51574D01*
X75441Y-62204D02*
X75441Y-61665D01*
X75441Y-61665D02*
X76082Y-61023D01*
X75441Y-72539D02*
X74704Y-72539D01*
X79527Y-69881D02*
X78641Y-69881D01*
X78641Y-69881D02*
X77756Y-69881D01*
X79527Y-59547D02*
X78641Y-59547D01*
X78641Y-59547D02*
X77756Y-59547D01*
X77756Y-49212D02*
X78641Y-49212D01*
X78641Y-49212D02*
X79527Y-49212D01*
G54D46*
X78248Y-54724D02*
X78248Y-55118D01*
X78248Y-55118D02*
X78248Y-55628D01*
X78112Y-54588D02*
X78248Y-54724D01*
X77362Y-66038D02*
X78173Y-66038D01*
X78173Y-66038D02*
X78248Y-65963D01*
X77362Y-76373D02*
X78173Y-76373D01*
X78173Y-76373D02*
X78248Y-76298D01*
G54D44*
X72440Y-50886D02*
X70767Y-50886D01*
X70767Y-50886D02*
X70177Y-50886D01*
X70177Y-50886D02*
X69488Y-50886D01*
G54D46*
X77362Y-55703D02*
X78173Y-55703D01*
X78173Y-55703D02*
X78248Y-55628D01*
X62716Y-54960D02*
X62716Y-54449D01*
X62716Y-54449D02*
X62401Y-54133D01*
X62696Y-55511D02*
X62696Y-54980D01*
X62696Y-54980D02*
X62716Y-54960D01*
X63188Y-54429D02*
X63188Y-53051D01*
X62401Y-53051D02*
X63188Y-53051D01*
X63188Y-53051D02*
X63188Y-53740D01*
X63188Y-53740D02*
X63877Y-54429D01*
G54D47*
X63188Y-54429D02*
X63188Y-53051D01*
G54D46*
X62401Y-54133D02*
X62401Y-53838D01*
G54D47*
X63188Y-53051D02*
X63188Y-53346D01*
X63188Y-53346D02*
X62401Y-54133D01*
G54D46*
X62401Y-53838D02*
X63188Y-53051D01*
X62401Y-51968D02*
X62401Y-52263D01*
G54D47*
X63188Y-53051D02*
X63188Y-52755D01*
X63188Y-52755D02*
X62401Y-51968D01*
G54D46*
X62401Y-52263D02*
X63188Y-53051D01*
G54D47*
X67983Y-62395D02*
X68596Y-62395D01*
X68596Y-62395D02*
X68602Y-62401D01*
X71062Y-64759D02*
X70674Y-64759D01*
X70472Y-64960D02*
X70078Y-64960D01*
X70674Y-64759D02*
X70472Y-64960D01*
X67224Y-65040D02*
X67932Y-65040D01*
X67932Y-65040D02*
X68011Y-64960D01*
X71850Y-64759D02*
X71850Y-64173D01*
X73223Y-64759D02*
X72637Y-64759D01*
X73228Y-64763D02*
X73223Y-64759D01*
G54D48*
X71270Y-66023D02*
X71270Y-66426D01*
X71166Y-66530D02*
X70570Y-66530D01*
X71270Y-66426D02*
X71166Y-66530D01*
G54D47*
X69783Y-55614D02*
X69783Y-56102D01*
X70374Y-54527D02*
X70374Y-55014D01*
X70570Y-66043D02*
X70570Y-66530D01*
X66024Y-70983D02*
X66043Y-70964D01*
X65452Y-70983D02*
X66024Y-70983D01*
X66535Y-65063D02*
X67200Y-65063D01*
X67200Y-65063D02*
X67224Y-65040D01*
X66277Y-66031D02*
X66277Y-65513D01*
X66535Y-65255D02*
X66535Y-65063D01*
X66277Y-65513D02*
X66535Y-65255D01*
X64173Y-56791D02*
X64173Y-57283D01*
X64173Y-57283D02*
X64173Y-57283D01*
X63188Y-53051D02*
X62401Y-53051D01*
X62696Y-56022D02*
X62696Y-55511D01*
X62696Y-55511D02*
X62696Y-54980D01*
X62696Y-54980D02*
X62716Y-54960D01*
X63484Y-56022D02*
X63484Y-55511D01*
X63484Y-56022D02*
X64149Y-56022D01*
X64149Y-56022D02*
X64168Y-56003D01*
X62696Y-56022D02*
X63484Y-56022D01*
X64168Y-56003D02*
X64168Y-56786D01*
X64168Y-56786D02*
X64173Y-56791D01*
G54D49*
X68602Y-55614D02*
X68602Y-56393D01*
X68602Y-56393D02*
X68600Y-56395D01*
X69586Y-56791D02*
X68996Y-56791D01*
X68600Y-56395D02*
X67983Y-56395D01*
X68996Y-56791D02*
X68600Y-56395D01*
X66277Y-69549D02*
X67125Y-68700D01*
X66277Y-69549D02*
X66277Y-69991D01*
X67983Y-62895D02*
X67983Y-63554D01*
X69788Y-65359D02*
X71062Y-65359D01*
X67983Y-63554D02*
X69788Y-65359D01*
X71526Y-66023D02*
X71526Y-65719D01*
X71062Y-65551D02*
X71062Y-65359D01*
X71161Y-65649D02*
X71062Y-65551D01*
X71456Y-65649D02*
X71161Y-65649D01*
X71526Y-65719D02*
X71456Y-65649D01*
X70887Y-61395D02*
X71583Y-61395D01*
X70866Y-61417D02*
X70887Y-61395D01*
X71935Y-61895D02*
X71583Y-61895D01*
X72342Y-62303D02*
X71935Y-61895D01*
X72933Y-62303D02*
X72342Y-62303D01*
X73720Y-63090D02*
X72933Y-62303D01*
X71780Y-66023D02*
X71780Y-65719D01*
X71850Y-65649D02*
X71850Y-65359D01*
X71780Y-65719D02*
X71850Y-65649D01*
X71583Y-62895D02*
X71583Y-63582D01*
X71559Y-65359D02*
X71850Y-65359D01*
X71456Y-65255D02*
X71559Y-65359D01*
X71456Y-63709D02*
X71456Y-65255D01*
X71583Y-63582D02*
X71456Y-63709D01*
X72637Y-65359D02*
X72637Y-65649D01*
X72263Y-66023D02*
X72036Y-66023D01*
X72637Y-65649D02*
X72263Y-66023D01*
X71583Y-62395D02*
X71942Y-62395D01*
X72347Y-65359D02*
X72637Y-65359D01*
X72244Y-65255D02*
X72347Y-65359D01*
X72244Y-63779D02*
X72244Y-65255D01*
X72047Y-63582D02*
X72244Y-63779D01*
X72047Y-62500D02*
X72047Y-63582D01*
X71942Y-62395D02*
X72047Y-62500D01*
X69685Y-65551D02*
X69685Y-69881D01*
X69575Y-69991D02*
X69277Y-69991D01*
X69685Y-69881D02*
X69575Y-69991D01*
X67435Y-61895D02*
X67983Y-61895D01*
X67322Y-62007D02*
X67435Y-61895D01*
X67322Y-63188D02*
X67322Y-62007D01*
X69685Y-65551D02*
X67322Y-63188D01*
X68777Y-66031D02*
X68777Y-64938D01*
X67541Y-61395D02*
X67983Y-61395D01*
X67125Y-61811D02*
X67541Y-61395D01*
X67125Y-63287D02*
X67125Y-61811D01*
X68777Y-64938D02*
X67125Y-63287D01*
G54D48*
X72637Y-66830D02*
X72440Y-66830D01*
X71780Y-66802D02*
X71780Y-67637D01*
X71948Y-66633D02*
X71780Y-66802D01*
X72244Y-66633D02*
X71948Y-66633D01*
X72440Y-66830D02*
X72244Y-66633D01*
X72736Y-67130D02*
X72736Y-66929D01*
X72736Y-66929D02*
X72637Y-66830D01*
G54D47*
X72736Y-67514D02*
X72736Y-67130D01*
G54D49*
X69488Y-49606D02*
X68897Y-49606D01*
X67125Y-61023D02*
X67130Y-61018D01*
X67130Y-61018D02*
X67130Y-60433D01*
X69488Y-49896D02*
X69488Y-49606D01*
X69488Y-49606D02*
X69488Y-49315D01*
X67983Y-60395D02*
X67168Y-60395D01*
X67168Y-60395D02*
X67130Y-60433D01*
G54D44*
X91552Y-48917D02*
X90944Y-48917D01*
X90944Y-48917D02*
X91043Y-49015D01*
X91043Y-49015D02*
X91043Y-49606D01*
X94960Y-51181D02*
X94960Y-50866D01*
X94960Y-50866D02*
X94685Y-50590D01*
X94685Y-50590D02*
X92618Y-50590D01*
X91552Y-48917D02*
X92027Y-48917D01*
X92027Y-48917D02*
X92125Y-49015D01*
X92125Y-49015D02*
X92125Y-50098D01*
X91552Y-48917D02*
X91552Y-49096D01*
X91552Y-49096D02*
X91043Y-49606D01*
X91043Y-49606D02*
X91043Y-50688D01*
X91043Y-50688D02*
X90551Y-51181D01*
X91552Y-48917D02*
X91552Y-49525D01*
X91552Y-49525D02*
X92125Y-50098D01*
X92125Y-50098D02*
X92618Y-50590D01*
X92618Y-50590D02*
X93208Y-51181D01*
X91552Y-48917D02*
X91552Y-50179D01*
X91552Y-50179D02*
X90551Y-51181D01*
G54D49*
X68517Y-57395D02*
X67983Y-57395D01*
X68799Y-57677D02*
X68517Y-57395D01*
G54D44*
X94960Y-51181D02*
X93897Y-51181D01*
X93897Y-51181D02*
X93208Y-51181D01*
X93208Y-51181D02*
X92421Y-51181D01*
X92421Y-51181D02*
X91732Y-51181D01*
X91732Y-51181D02*
X90551Y-51181D01*
G54D45*
X91552Y-48917D02*
X91552Y-50179D01*
X91552Y-50179D02*
X90551Y-51181D01*
G54D44*
X88582Y-51279D02*
X88582Y-50295D01*
X88582Y-50295D02*
X88484Y-50196D01*
X88484Y-50196D02*
X87303Y-50196D01*
X87303Y-50196D02*
X87204Y-50295D01*
X87204Y-50295D02*
X87204Y-51377D01*
X87598Y-54625D02*
X86909Y-54625D01*
X86909Y-54625D02*
X86712Y-54822D01*
X86712Y-54822D02*
X87007Y-55118D01*
X87007Y-55118D02*
X91830Y-55118D01*
X91830Y-55118D02*
X92126Y-54822D01*
X92126Y-54822D02*
X92126Y-54625D01*
G54D45*
X87894Y-51279D02*
X88582Y-51279D01*
X88582Y-51279D02*
X88582Y-52559D01*
X88582Y-52559D02*
X88582Y-52263D01*
X88582Y-52263D02*
X88582Y-52559D01*
G54D44*
X87598Y-54625D02*
X87105Y-54625D01*
X87105Y-54625D02*
X86909Y-54429D01*
X86909Y-54429D02*
X86909Y-51673D01*
X86909Y-51673D02*
X87204Y-51377D01*
X87204Y-51377D02*
X87303Y-51279D01*
X87303Y-51279D02*
X87894Y-51279D01*
X87598Y-54625D02*
X88681Y-54625D01*
X88681Y-54625D02*
X90551Y-52755D01*
X91240Y-54625D02*
X92126Y-54625D01*
X92126Y-54625D02*
X92421Y-54330D01*
X92421Y-54330D02*
X92421Y-52755D01*
X92421Y-52755D02*
X92421Y-53444D01*
X92421Y-53444D02*
X91240Y-54625D01*
X91240Y-54625D02*
X91240Y-53248D01*
X91240Y-53248D02*
X91732Y-52755D01*
X90551Y-52755D02*
X88779Y-52755D01*
X88779Y-52755D02*
X88582Y-52559D01*
X88582Y-52559D02*
X87894Y-51870D01*
X87894Y-51870D02*
X87894Y-51279D01*
X87894Y-51279D02*
X87894Y-54329D01*
X87894Y-54329D02*
X87598Y-54625D01*
X87598Y-54625D02*
X87598Y-51575D01*
X87598Y-51575D02*
X87894Y-51279D01*
X91240Y-54625D02*
X87598Y-54625D01*
X90551Y-52755D02*
X91732Y-52755D01*
X91732Y-52755D02*
X92421Y-52755D01*
X92421Y-52755D02*
X93208Y-52755D01*
X93208Y-52755D02*
X93897Y-52755D01*
X93897Y-52755D02*
X94960Y-52755D01*
X90551Y-52755D02*
X90551Y-53936D01*
X90551Y-53936D02*
X91240Y-54625D01*
G54D49*
X75159Y-53088D02*
X75820Y-53088D01*
X75098Y-53149D02*
X75159Y-53088D01*
X72731Y-57677D02*
X72244Y-57677D01*
X72025Y-57895D02*
X72244Y-57677D01*
X72025Y-57895D02*
X71583Y-57895D01*
X72731Y-57086D02*
X72731Y-56008D01*
X75151Y-53588D02*
X75820Y-53588D01*
X72731Y-56008D02*
X75151Y-53588D01*
X71583Y-57395D02*
X72033Y-57395D01*
X72342Y-57086D02*
X72731Y-57086D01*
X72033Y-57395D02*
X72342Y-57086D01*
G54D45*
X78543Y-52559D02*
X78346Y-52559D01*
X78346Y-52559D02*
X77952Y-52952D01*
X77952Y-52952D02*
X77854Y-52952D01*
X77854Y-52952D02*
X77854Y-52559D01*
G54D46*
X78248Y-52559D02*
X77854Y-52559D01*
X78252Y-52559D02*
X78248Y-52559D01*
X78248Y-52559D02*
X78543Y-52559D01*
X78252Y-52559D02*
X78252Y-52948D01*
G54D45*
X81927Y-53013D02*
X82381Y-52559D01*
X82336Y-52513D02*
X82381Y-52559D01*
X82381Y-56791D02*
X82381Y-56397D01*
X82131Y-56147D02*
X82381Y-56397D01*
X82131Y-56647D02*
X82381Y-56397D01*
G54D44*
X83858Y-52559D02*
X83070Y-52559D01*
X83070Y-51281D02*
X83070Y-52559D01*
X82381Y-55708D02*
X82381Y-56397D01*
X83070Y-52559D02*
X83070Y-52166D01*
X84645Y-51280D02*
X84645Y-50196D01*
X84645Y-50196D02*
X84448Y-50000D01*
X84448Y-50000D02*
X83661Y-50000D01*
X83661Y-50000D02*
X83267Y-50393D01*
X83267Y-50393D02*
X83267Y-51280D01*
X85137Y-54035D02*
X85137Y-54822D01*
X85137Y-54822D02*
X84940Y-55019D01*
X84940Y-55019D02*
X84055Y-55019D01*
G54D45*
X81660Y-53013D02*
X81927Y-53013D01*
X81660Y-52513D02*
X82336Y-52513D01*
X81660Y-55647D02*
X82381Y-55647D01*
X82381Y-55647D02*
X82381Y-55708D01*
X81660Y-57147D02*
X82025Y-57147D01*
X82025Y-57147D02*
X82381Y-56791D01*
X81660Y-56147D02*
X82131Y-56147D01*
X81660Y-56647D02*
X82131Y-56647D01*
G54D44*
X84350Y-54488D02*
X84684Y-54488D01*
X84684Y-54488D02*
X85137Y-54035D01*
X85137Y-54035D02*
X85137Y-51377D01*
X85137Y-51377D02*
X85040Y-51280D01*
X85040Y-51280D02*
X84645Y-51280D01*
X84645Y-51280D02*
X83957Y-51280D01*
X84350Y-54488D02*
X84350Y-54724D01*
X84350Y-54724D02*
X84055Y-55019D01*
X84055Y-55019D02*
X83641Y-55019D01*
X83641Y-55019D02*
X83109Y-54488D01*
X83957Y-51280D02*
X83957Y-52460D01*
X83957Y-52460D02*
X83858Y-52559D01*
X83957Y-51280D02*
X83267Y-51280D01*
X83267Y-51280D02*
X83069Y-51280D01*
X83069Y-51280D02*
X83070Y-51281D01*
X84350Y-54488D02*
X84311Y-54488D01*
X84311Y-54488D02*
X82381Y-52559D01*
X84350Y-54488D02*
X83109Y-54488D01*
X83109Y-54488D02*
X82381Y-55216D01*
X82381Y-55216D02*
X82381Y-55708D01*
X83070Y-52166D02*
X83957Y-51280D01*
G54D47*
X77920Y-53088D02*
X78112Y-53088D01*
G54D44*
X84350Y-54488D02*
X84350Y-53346D01*
X84350Y-53346D02*
X84350Y-51673D01*
X84350Y-51673D02*
X83957Y-51280D01*
G54D46*
X78252Y-51870D02*
X78252Y-52559D01*
X78252Y-52948D02*
X78112Y-53088D01*
G54D49*
X66830Y-57480D02*
X67027Y-57480D01*
X67027Y-57480D02*
X67130Y-57377D01*
X67130Y-57377D02*
X67130Y-56988D01*
X94286Y-57189D02*
X94192Y-57283D01*
X94783Y-57189D02*
X94286Y-57189D01*
X94783Y-57189D02*
X95172Y-57189D01*
X95172Y-55507D02*
X94783Y-55507D01*
X95275Y-55610D02*
X95172Y-55507D01*
X95275Y-57086D02*
X95275Y-55610D01*
X95172Y-57189D02*
X95275Y-57086D01*
X94783Y-55507D02*
X94783Y-55024D01*
X67983Y-56895D02*
X67223Y-56895D01*
X67223Y-56895D02*
X67130Y-56988D01*
G54D44*
X94960Y-60925D02*
X94960Y-59313D01*
X94960Y-59313D02*
X94505Y-58858D01*
X94505Y-58858D02*
X94505Y-60470D01*
X94505Y-60470D02*
X94960Y-60925D01*
G54D49*
X68730Y-58395D02*
X67983Y-58395D01*
X68799Y-58464D02*
X68730Y-58395D01*
G54D44*
X94960Y-60925D02*
X93897Y-60925D01*
X93897Y-60925D02*
X93208Y-60925D01*
X93208Y-60925D02*
X92421Y-60925D01*
X92421Y-60925D02*
X91732Y-60925D01*
X91732Y-60925D02*
X90551Y-60925D01*
G54D45*
X94960Y-60925D02*
X94960Y-60314D01*
X94505Y-59859D02*
X94505Y-58858D01*
X94960Y-60314D02*
X94505Y-59859D01*
G54D44*
X88582Y-61122D02*
X88582Y-60039D01*
X88582Y-60039D02*
X88287Y-59744D01*
X88287Y-59744D02*
X87303Y-59744D01*
X87303Y-59744D02*
X86958Y-60088D01*
X86958Y-60088D02*
X86958Y-61269D01*
X87598Y-64369D02*
X87402Y-64369D01*
X87402Y-64369D02*
X87007Y-64763D01*
X87007Y-64763D02*
X87007Y-64960D01*
X87007Y-64960D02*
X91633Y-64960D01*
X91633Y-64960D02*
X92028Y-64566D01*
X92028Y-64566D02*
X92028Y-64369D01*
X91240Y-64369D02*
X91240Y-64566D01*
X91240Y-64566D02*
X90944Y-64862D01*
X90944Y-64862D02*
X88091Y-64862D01*
X88091Y-64862D02*
X87598Y-64369D01*
G54D45*
X87894Y-61023D02*
X88484Y-61023D01*
X88484Y-61023D02*
X88582Y-61122D01*
X88582Y-61122D02*
X88582Y-62007D01*
G54D44*
X87598Y-64369D02*
X87007Y-64369D01*
X87007Y-64369D02*
X86958Y-64320D01*
X86958Y-64320D02*
X86958Y-61269D01*
X86958Y-61269D02*
X87204Y-61023D01*
X87204Y-61023D02*
X87894Y-61023D01*
X90551Y-62500D02*
X90551Y-63680D01*
X90551Y-63680D02*
X91240Y-64369D01*
X91240Y-64369D02*
X92028Y-64369D01*
X92028Y-64369D02*
X92421Y-63976D01*
X92421Y-63976D02*
X92421Y-62500D01*
X90551Y-62500D02*
X89074Y-62500D01*
X89074Y-62500D02*
X88582Y-62007D01*
X88582Y-62007D02*
X87894Y-61319D01*
X87894Y-61319D02*
X87894Y-61023D01*
X87598Y-64369D02*
X88681Y-64369D01*
X88681Y-64369D02*
X90551Y-62500D01*
X87894Y-61023D02*
X87894Y-64073D01*
X87894Y-64073D02*
X87598Y-64369D01*
X91732Y-62500D02*
X91732Y-63877D01*
X91732Y-63877D02*
X91240Y-64369D01*
X87598Y-64369D02*
X87598Y-61319D01*
X87598Y-61319D02*
X87894Y-61023D01*
X90551Y-62500D02*
X91732Y-62500D01*
X91732Y-62500D02*
X92421Y-62500D01*
X92421Y-62500D02*
X93208Y-62500D01*
X93208Y-62500D02*
X93897Y-62500D01*
X93897Y-62500D02*
X94960Y-62500D01*
X91240Y-64369D02*
X91240Y-63188D01*
X91240Y-63188D02*
X90551Y-62500D01*
X87598Y-64369D02*
X91240Y-64369D01*
G54D49*
X75135Y-63423D02*
X75820Y-63423D01*
X75098Y-63385D02*
X75135Y-63423D01*
X72731Y-58858D02*
X72244Y-58858D01*
X72206Y-58895D02*
X72244Y-58858D01*
X72206Y-58895D02*
X71583Y-58895D01*
X74507Y-62204D02*
X74507Y-63287D01*
X75143Y-63923D02*
X75820Y-63923D01*
X74507Y-63287D02*
X75143Y-63923D01*
X72731Y-58267D02*
X72244Y-58267D01*
X72116Y-58395D02*
X72244Y-58267D01*
X72116Y-58395D02*
X71583Y-58395D01*
G54D44*
X83169Y-61024D02*
X83169Y-60334D01*
X83169Y-60334D02*
X83562Y-59940D01*
X83562Y-59940D02*
X84547Y-59940D01*
X84547Y-59940D02*
X84843Y-60237D01*
X84843Y-60237D02*
X84843Y-61024D01*
X85137Y-63779D02*
X85137Y-64665D01*
X85137Y-64665D02*
X84350Y-64665D01*
G54D45*
X81660Y-63348D02*
X82222Y-63348D01*
X82222Y-63348D02*
X82381Y-63188D01*
X82381Y-63188D02*
X82381Y-62893D01*
X81660Y-63348D02*
X81660Y-63648D01*
X81660Y-63648D02*
X82185Y-64173D01*
X82185Y-64173D02*
X82381Y-64173D01*
X81660Y-62848D02*
X82336Y-62848D01*
X82336Y-62848D02*
X82381Y-62893D01*
X81660Y-65982D02*
X82222Y-65982D01*
X82222Y-65982D02*
X82381Y-66141D01*
X82381Y-66141D02*
X82381Y-66732D01*
X81660Y-67482D02*
X82124Y-67482D01*
X82124Y-67482D02*
X82381Y-67224D01*
X82381Y-67224D02*
X82381Y-66732D01*
X81660Y-66982D02*
X82131Y-66982D01*
X82131Y-66982D02*
X82381Y-66732D01*
X81660Y-66482D02*
X82131Y-66482D01*
X82131Y-66482D02*
X82381Y-66732D01*
X78543Y-62893D02*
X78346Y-62893D01*
X78346Y-62893D02*
X77952Y-63287D01*
X77952Y-63287D02*
X77854Y-63287D01*
X77854Y-63287D02*
X77854Y-62893D01*
G54D44*
X84350Y-64232D02*
X84684Y-64232D01*
X84684Y-64232D02*
X85137Y-63779D01*
X85137Y-63779D02*
X85137Y-61318D01*
X85137Y-61318D02*
X84843Y-61024D01*
X84843Y-61024D02*
X83957Y-61024D01*
X84350Y-64232D02*
X84350Y-64665D01*
X84350Y-64665D02*
X84153Y-64862D01*
X84153Y-64862D02*
X83070Y-64862D01*
X83070Y-64862D02*
X82381Y-64173D01*
X84350Y-64232D02*
X84350Y-64173D01*
X84350Y-64173D02*
X83070Y-62893D01*
X83957Y-61024D02*
X83169Y-61024D01*
X83169Y-61024D02*
X83168Y-61024D01*
X83168Y-61024D02*
X83070Y-61122D01*
X83070Y-61122D02*
X83070Y-62893D01*
X83957Y-61024D02*
X83957Y-62007D01*
X83957Y-62007D02*
X83070Y-62893D01*
X83070Y-62893D02*
X83070Y-61910D01*
X83070Y-61910D02*
X83957Y-61024D01*
X84350Y-64232D02*
X82441Y-64232D01*
X82441Y-64232D02*
X82381Y-64173D01*
G54D47*
X77920Y-63423D02*
X78112Y-63423D01*
G54D46*
X78248Y-62893D02*
X77854Y-62893D01*
X78252Y-62893D02*
X78248Y-62893D01*
X78248Y-62893D02*
X78543Y-62893D01*
G54D44*
X84350Y-64232D02*
X84350Y-63090D01*
X84350Y-63090D02*
X84350Y-61417D01*
X84350Y-61417D02*
X83957Y-61024D01*
G54D46*
X78252Y-62204D02*
X78252Y-62893D01*
X78252Y-62893D02*
X78252Y-63282D01*
X78252Y-63282D02*
X78112Y-63423D01*
G54D49*
X66830Y-58464D02*
X67027Y-58464D01*
X67027Y-58464D02*
X67130Y-58361D01*
X67130Y-58361D02*
X67130Y-57972D01*
X94385Y-66933D02*
X94192Y-67125D01*
X94783Y-66933D02*
X94385Y-66933D01*
X94783Y-66933D02*
X95172Y-66933D01*
X95172Y-65251D02*
X94783Y-65251D01*
X95275Y-65354D02*
X95172Y-65251D01*
X95275Y-66830D02*
X95275Y-65354D01*
X95172Y-66933D02*
X95275Y-66830D01*
X94783Y-65251D02*
X94783Y-64768D01*
X67983Y-57895D02*
X67207Y-57895D01*
X67207Y-57895D02*
X67130Y-57972D01*
G54D44*
X94862Y-70669D02*
X94862Y-68959D01*
X94862Y-68959D02*
X94505Y-68602D01*
X94505Y-68602D02*
X94505Y-70312D01*
X94505Y-70312D02*
X94862Y-70669D01*
G54D49*
X68753Y-59395D02*
X67983Y-59395D01*
X68799Y-59350D02*
X68753Y-59395D01*
G54D44*
X91732Y-70669D02*
X92421Y-70669D01*
X92421Y-70669D02*
X93208Y-70669D01*
X93208Y-70669D02*
X93897Y-70669D01*
X93897Y-70669D02*
X94862Y-70669D01*
X90452Y-70669D02*
X91732Y-70669D01*
G54D45*
X94862Y-70669D02*
X94862Y-69960D01*
X94505Y-69603D02*
X94505Y-68602D01*
X94862Y-69960D02*
X94505Y-69603D01*
G54D44*
X88582Y-70767D02*
X88582Y-69685D01*
X88582Y-69685D02*
X88484Y-69586D01*
X88484Y-69586D02*
X87401Y-69586D01*
X87401Y-69586D02*
X87204Y-69783D01*
X87204Y-69783D02*
X87204Y-70866D01*
X92126Y-74113D02*
X92126Y-74408D01*
X92126Y-74408D02*
X91830Y-74704D01*
X91830Y-74704D02*
X87007Y-74704D01*
X87007Y-74704D02*
X87204Y-74508D01*
X87204Y-74508D02*
X87204Y-74113D01*
G54D45*
X87894Y-70767D02*
X88582Y-70767D01*
X88582Y-70767D02*
X88582Y-72145D01*
X88582Y-72145D02*
X88582Y-71751D01*
X88582Y-71751D02*
X88582Y-72145D01*
G54D44*
X87598Y-74113D02*
X87204Y-74113D01*
X87204Y-74113D02*
X86909Y-73818D01*
X86909Y-73818D02*
X86909Y-71161D01*
X86909Y-71161D02*
X87204Y-70866D01*
X87204Y-70866D02*
X87303Y-70767D01*
X87303Y-70767D02*
X87894Y-70767D01*
X87894Y-70767D02*
X87894Y-73817D01*
X87894Y-73817D02*
X87598Y-74113D01*
X91240Y-74113D02*
X91240Y-74507D01*
X91240Y-74507D02*
X90944Y-74803D01*
X90944Y-74803D02*
X87893Y-74803D01*
X87893Y-74803D02*
X87598Y-74507D01*
X87598Y-74507D02*
X87598Y-74113D01*
X91240Y-74113D02*
X92126Y-74113D01*
X92126Y-74113D02*
X92421Y-73818D01*
X92421Y-73818D02*
X92421Y-72244D01*
X87598Y-74113D02*
X88583Y-74113D01*
G54D49*
X88583Y-74113D02*
X90452Y-72244D01*
G54D44*
X90452Y-72244D02*
X88681Y-72244D01*
X87894Y-71457D02*
X87894Y-70767D01*
X88681Y-72244D02*
X88582Y-72145D01*
X88582Y-72145D02*
X87894Y-71457D01*
X91240Y-74113D02*
X91240Y-73031D01*
X91240Y-73031D02*
X90452Y-72244D01*
X91732Y-72244D02*
X91732Y-73621D01*
X91732Y-73621D02*
X91240Y-74113D01*
X90452Y-72244D02*
X90452Y-73326D01*
X90452Y-73326D02*
X91240Y-74113D01*
X87598Y-74113D02*
X87598Y-71063D01*
X87598Y-71063D02*
X87894Y-70767D01*
X90452Y-72244D02*
X91732Y-72244D01*
X91732Y-72244D02*
X92421Y-72244D01*
X92421Y-72244D02*
X93208Y-72244D01*
X93208Y-72244D02*
X93897Y-72244D01*
X93897Y-72244D02*
X94862Y-72244D01*
X91240Y-74113D02*
X87598Y-74113D01*
G54D49*
X75820Y-73757D02*
X75135Y-73757D01*
X75135Y-73757D02*
X75098Y-73720D01*
X72731Y-60039D02*
X72244Y-60039D01*
X72100Y-59895D02*
X72244Y-60039D01*
X72100Y-59895D02*
X71583Y-59895D01*
X75098Y-74212D02*
X75143Y-74257D01*
X75820Y-74257D02*
X75143Y-74257D01*
X72731Y-59448D02*
X72244Y-59448D01*
X72190Y-59395D02*
X72244Y-59448D01*
X72190Y-59395D02*
X71583Y-59395D01*
G54D45*
X83759Y-69586D02*
X83464Y-69586D01*
G54D44*
X83759Y-69586D02*
X84547Y-69586D01*
X84547Y-69586D02*
X84547Y-70768D01*
X84843Y-70768D02*
X84547Y-70768D01*
G54D45*
X83366Y-69685D02*
X83366Y-70768D01*
X83464Y-69586D02*
X83366Y-69685D01*
G54D44*
X85236Y-73425D02*
X85236Y-74409D01*
X85236Y-74409D02*
X85039Y-74606D01*
X85039Y-74606D02*
X84350Y-74606D01*
X83957Y-70768D02*
X84843Y-70768D01*
X84843Y-70768D02*
X85236Y-71161D01*
X85236Y-71161D02*
X85236Y-73031D01*
G54D45*
X81660Y-73683D02*
X81852Y-73683D01*
X81852Y-73683D02*
X82145Y-73976D01*
X82145Y-73976D02*
X83070Y-73976D01*
X81660Y-73683D02*
X81660Y-73884D01*
X81660Y-73884D02*
X82381Y-74606D01*
X82381Y-74606D02*
X83267Y-74606D01*
X81660Y-73683D02*
X81927Y-73683D01*
X81927Y-73683D02*
X82381Y-73228D01*
X81660Y-73183D02*
X82336Y-73183D01*
X82336Y-73183D02*
X82381Y-73228D01*
X81660Y-76316D02*
X82124Y-76316D01*
X82124Y-76316D02*
X82381Y-76574D01*
X82381Y-76574D02*
X82381Y-77066D01*
X81660Y-77816D02*
X82222Y-77816D01*
X82222Y-77816D02*
X82381Y-77657D01*
X82381Y-77657D02*
X82381Y-77066D01*
X81660Y-77316D02*
X82131Y-77316D01*
X82131Y-77316D02*
X82381Y-77066D01*
X81660Y-76816D02*
X82131Y-76816D01*
X82131Y-76816D02*
X82381Y-77066D01*
X78543Y-73228D02*
X78346Y-73228D01*
X78346Y-73228D02*
X78051Y-73523D01*
X78051Y-73523D02*
X77854Y-73523D01*
X77854Y-73523D02*
X77854Y-73228D01*
G54D44*
X84350Y-73976D02*
X84350Y-74606D01*
X84350Y-74606D02*
X83267Y-74606D01*
X83267Y-74606D02*
X83070Y-74409D01*
X83070Y-74409D02*
X83070Y-73976D01*
X83070Y-73976D02*
X83070Y-73228D01*
X84350Y-73976D02*
X84684Y-73976D01*
X84684Y-73976D02*
X85236Y-73425D01*
X85236Y-73425D02*
X85236Y-73031D01*
X85236Y-73031D02*
X85039Y-72834D01*
X85039Y-72834D02*
X84350Y-72834D01*
X84350Y-73976D02*
X84350Y-72834D01*
X83957Y-70768D02*
X83366Y-70768D01*
X83366Y-70768D02*
X83266Y-70768D01*
X83266Y-70768D02*
X83070Y-70964D01*
X83070Y-70964D02*
X83070Y-73228D01*
X83957Y-70768D02*
X83957Y-71653D01*
X83957Y-71653D02*
X82381Y-73228D01*
X83957Y-70768D02*
X83957Y-72342D01*
X83957Y-72342D02*
X83070Y-73228D01*
X83070Y-73228D02*
X83602Y-73228D01*
X83602Y-73228D02*
X84350Y-73976D01*
X83130Y-73976D02*
X82381Y-73228D01*
X84350Y-73976D02*
X83130Y-73976D01*
X83070Y-73228D02*
X83070Y-71655D01*
X83070Y-71655D02*
X83957Y-70768D01*
G54D47*
X77920Y-73757D02*
X78112Y-73757D01*
G54D46*
X78252Y-73228D02*
X77854Y-73228D01*
X78252Y-73228D02*
X78543Y-73228D01*
G54D44*
X84350Y-72834D02*
X84350Y-71161D01*
X84350Y-71161D02*
X83957Y-70768D01*
G54D46*
X78252Y-72539D02*
X78252Y-73228D01*
X78252Y-73228D02*
X78252Y-73617D01*
X78252Y-73617D02*
X78112Y-73757D01*
G54D49*
X66830Y-59448D02*
X67027Y-59448D01*
X67027Y-59448D02*
X67130Y-59345D01*
X67130Y-59345D02*
X67130Y-58956D01*
X94783Y-76677D02*
X93410Y-76677D01*
X93410Y-76677D02*
X93110Y-76377D01*
X94783Y-76677D02*
X95172Y-76677D01*
X95172Y-74995D02*
X94783Y-74995D01*
X95275Y-75098D02*
X95172Y-74995D01*
X95275Y-76574D02*
X95275Y-75098D01*
X95172Y-76677D02*
X95275Y-76574D01*
X94783Y-74995D02*
X94783Y-74512D01*
X67983Y-58895D02*
X67191Y-58895D01*
X67191Y-58895D02*
X67130Y-58956D01*
G54D46*
X79560Y-55647D02*
X80277Y-55647D01*
X80277Y-55647D02*
X80314Y-55610D01*
X79560Y-56647D02*
X80261Y-56647D01*
X80261Y-56647D02*
X80314Y-56594D01*
X79560Y-56647D02*
X79088Y-56647D01*
X79088Y-56647D02*
X79035Y-56594D01*
X79560Y-56147D02*
X80269Y-56147D01*
X80269Y-56147D02*
X80314Y-56102D01*
X79560Y-65982D02*
X80277Y-65982D01*
X80277Y-65982D02*
X80314Y-65944D01*
X79560Y-66482D02*
X80269Y-66482D01*
X80269Y-66482D02*
X80314Y-66437D01*
X79560Y-66982D02*
X80261Y-66982D01*
X80261Y-66982D02*
X80314Y-66929D01*
X79560Y-66982D02*
X79088Y-66982D01*
X79560Y-77316D02*
X79421Y-77316D01*
X79421Y-77316D02*
X79152Y-77048D01*
X79560Y-77316D02*
X80261Y-77316D01*
X80261Y-77316D02*
X80314Y-77263D01*
X79560Y-76816D02*
X80269Y-76816D01*
X80269Y-76816D02*
X80314Y-76771D01*
X79560Y-76316D02*
X80277Y-76316D01*
X80277Y-76316D02*
X80314Y-76279D01*
G54D44*
X75590Y-68503D02*
X75000Y-68503D01*
X75000Y-68503D02*
X74803Y-68700D01*
X74803Y-68700D02*
X74803Y-70275D01*
X74803Y-70275D02*
X75139Y-69939D01*
X75139Y-69939D02*
X75139Y-69881D01*
X83858Y-56299D02*
X83858Y-57283D01*
X83858Y-57283D02*
X83070Y-58070D01*
X83070Y-58070D02*
X83070Y-58661D01*
X83070Y-48425D02*
X83070Y-48622D01*
X83070Y-48622D02*
X81988Y-49704D01*
X81988Y-49704D02*
X81496Y-49704D01*
X81496Y-49704D02*
X81496Y-48425D01*
G54D46*
X81496Y-60236D02*
X81692Y-60236D01*
X81692Y-60236D02*
X83070Y-58858D01*
X83070Y-58858D02*
X83070Y-58661D01*
X74901Y-60137D02*
X75098Y-60137D01*
X75098Y-60137D02*
X75984Y-59251D01*
X75984Y-59251D02*
X75984Y-59055D01*
X75984Y-59055D02*
X75590Y-58661D01*
G54D44*
X92305Y-58858D02*
X92814Y-58858D01*
X92814Y-58858D02*
X92913Y-58759D01*
X92913Y-58759D02*
X92913Y-57086D01*
X89763Y-47637D02*
X89763Y-48506D01*
X89763Y-48506D02*
X89352Y-48917D01*
G54D45*
X82144Y-69881D02*
X81791Y-69881D01*
X81791Y-69881D02*
X81496Y-70177D01*
X81496Y-70177D02*
X81397Y-70177D01*
X81397Y-70177D02*
X81299Y-70078D01*
X81299Y-70078D02*
X81299Y-69488D01*
X81299Y-69488D02*
X81496Y-69291D01*
X79560Y-55647D02*
X79560Y-55150D01*
X79560Y-55150D02*
X79527Y-55118D01*
X76870Y-56594D02*
X79035Y-56594D01*
X79035Y-56594D02*
X79482Y-56147D01*
X79482Y-56147D02*
X79560Y-56147D01*
X81496Y-60236D02*
X81496Y-60137D01*
X81496Y-60137D02*
X81299Y-59940D01*
X81299Y-59940D02*
X81299Y-59645D01*
X81299Y-59645D02*
X82283Y-58661D01*
X79560Y-65982D02*
X79560Y-65485D01*
X79560Y-65485D02*
X79527Y-65452D01*
X78248Y-66713D02*
X79152Y-66713D01*
X79152Y-66713D02*
X79383Y-66482D01*
X79383Y-66482D02*
X79560Y-66482D01*
X76870Y-66830D02*
X78130Y-66830D01*
X78130Y-66830D02*
X78248Y-66713D01*
X79560Y-76316D02*
X79560Y-75820D01*
X79560Y-75820D02*
X79527Y-75787D01*
X78248Y-77048D02*
X79152Y-77048D01*
X79152Y-77048D02*
X79383Y-76816D01*
X79383Y-76816D02*
X79560Y-76816D01*
X76870Y-77263D02*
X77263Y-77263D01*
X77263Y-77263D02*
X77362Y-77165D01*
X77362Y-77165D02*
X78130Y-77165D01*
X78130Y-77165D02*
X78248Y-77048D01*
X71161Y-47736D02*
X72145Y-47736D01*
X72145Y-47736D02*
X72342Y-47539D01*
X72342Y-47539D02*
X73523Y-47539D01*
X73523Y-47539D02*
X73622Y-47637D01*
X73622Y-47637D02*
X73622Y-48269D01*
X82144Y-59547D02*
X82185Y-59547D01*
X82185Y-59547D02*
X83070Y-58661D01*
X81496Y-60236D02*
X81496Y-58661D01*
X74901Y-60137D02*
X74803Y-58661D01*
X74901Y-60137D02*
X74803Y-60137D01*
X74803Y-60137D02*
X74212Y-59744D01*
X74212Y-59744D02*
X74212Y-59547D01*
X82144Y-69881D02*
X81594Y-69881D01*
X81594Y-69881D02*
X81496Y-69783D01*
X81496Y-69783D02*
X81496Y-69291D01*
X82086Y-69192D02*
X82086Y-69824D01*
X82086Y-69824D02*
X82144Y-69881D01*
X82144Y-69881D02*
X82144Y-69250D01*
X82144Y-69250D02*
X82086Y-69192D01*
X75139Y-69881D02*
X75393Y-69881D01*
X75393Y-69881D02*
X75984Y-69291D01*
G54D44*
X82144Y-49212D02*
X81496Y-49212D01*
X81496Y-49212D02*
X81496Y-48425D01*
X75139Y-49212D02*
X75885Y-49212D01*
X75885Y-49212D02*
X75984Y-49114D01*
X75984Y-49114D02*
X75984Y-48425D01*
X82144Y-59547D02*
X81889Y-59547D01*
X81889Y-59547D02*
X81496Y-59153D01*
X81496Y-59153D02*
X81496Y-58661D01*
X75139Y-59547D02*
X74212Y-59547D01*
X74212Y-59547D02*
X74114Y-59448D01*
X74114Y-59448D02*
X74114Y-58956D01*
X74114Y-58956D02*
X74409Y-58661D01*
X74409Y-58661D02*
X74803Y-58661D01*
X75139Y-69881D02*
X75139Y-69348D01*
X75139Y-69348D02*
X75196Y-69291D01*
X92913Y-66929D02*
X92913Y-67994D01*
X92913Y-67994D02*
X92305Y-68602D01*
X83858Y-77559D02*
X83858Y-75984D01*
X90157Y-75984D02*
X91732Y-75984D01*
X91732Y-75984D02*
X91633Y-76082D01*
X91633Y-76082D02*
X91633Y-77263D01*
X91633Y-77263D02*
X91338Y-77559D01*
X91338Y-77559D02*
X90157Y-77559D01*
X83858Y-68110D02*
X83858Y-66141D01*
X90157Y-66141D02*
X91732Y-66141D01*
X88582Y-66141D02*
X87007Y-66141D01*
X89352Y-48917D02*
X89352Y-48014D01*
X89352Y-48014D02*
X88976Y-47637D01*
X89352Y-48917D02*
X89352Y-48048D01*
X89352Y-48048D02*
X89763Y-47637D01*
X89352Y-48917D02*
X89352Y-48407D01*
X89352Y-48407D02*
X89335Y-48425D01*
X89335Y-48425D02*
X88188Y-48425D01*
X82144Y-49212D02*
X82144Y-48170D01*
X82144Y-48170D02*
X82283Y-48031D01*
X82144Y-49212D02*
X82283Y-49212D01*
X82283Y-49212D02*
X83070Y-48425D01*
X82144Y-49212D02*
X82144Y-49073D01*
X82144Y-49073D02*
X81496Y-48425D01*
X75139Y-49212D02*
X75196Y-49212D01*
X75196Y-49212D02*
X75984Y-48425D01*
X75139Y-49212D02*
X74015Y-49212D01*
X72440Y-48269D02*
X72440Y-48129D01*
X72440Y-48129D02*
X72834Y-47736D01*
X72834Y-47736D02*
X73088Y-47736D01*
X73088Y-47736D02*
X73622Y-48269D01*
X71161Y-47736D02*
X71907Y-47736D01*
X71907Y-47736D02*
X72440Y-48269D01*
X72440Y-48269D02*
X72440Y-48425D01*
X72440Y-48425D02*
X73228Y-49212D01*
X72440Y-49212D02*
X72440Y-48269D01*
X71653Y-49212D02*
X71653Y-49056D01*
X71653Y-49056D02*
X72440Y-48269D01*
X82283Y-58661D02*
X82283Y-59407D01*
X82283Y-59407D02*
X82144Y-59547D01*
X82144Y-59547D02*
X82144Y-59309D01*
X82144Y-59309D02*
X81496Y-58661D01*
X75590Y-58661D02*
X75590Y-59096D01*
X75590Y-59096D02*
X75139Y-59547D01*
X74803Y-58661D02*
X74803Y-59211D01*
X74803Y-59211D02*
X75139Y-59547D01*
X75139Y-59547D02*
X75139Y-59112D01*
X75139Y-59112D02*
X75590Y-58661D01*
X87598Y-76730D02*
X87598Y-76082D01*
X87598Y-76082D02*
X87696Y-75984D01*
X87696Y-75984D02*
X88582Y-75984D01*
X87598Y-76730D02*
X87598Y-77460D01*
X87598Y-77460D02*
X87696Y-77559D01*
X87696Y-77559D02*
X88582Y-77559D01*
X90944Y-58267D02*
X91714Y-58267D01*
X91714Y-58267D02*
X92305Y-58858D01*
X91338Y-59055D02*
X92108Y-59055D01*
X92108Y-59055D02*
X92305Y-58858D01*
X92913Y-57086D02*
X92913Y-58250D01*
X92913Y-58250D02*
X92305Y-58858D01*
X92305Y-58858D02*
X92305Y-57694D01*
X92305Y-57694D02*
X92913Y-57086D01*
X90206Y-77509D02*
X90461Y-77509D01*
X90461Y-77509D02*
X91240Y-76730D01*
X91240Y-76730D02*
X90985Y-76730D01*
X90985Y-76730D02*
X90206Y-77509D01*
X90206Y-77509D02*
X90157Y-77559D01*
X90157Y-75984D02*
X90493Y-75984D01*
X90493Y-75984D02*
X91240Y-76730D01*
X91240Y-76730D02*
X90903Y-76730D01*
X90903Y-76730D02*
X90157Y-75984D01*
X84350Y-76810D02*
X84606Y-76810D01*
X84606Y-76810D02*
X85433Y-75984D01*
X84350Y-76810D02*
X84350Y-76279D01*
X84350Y-76279D02*
X84645Y-75984D01*
X84350Y-76810D02*
X84350Y-76476D01*
X84350Y-76476D02*
X83858Y-75984D01*
X84350Y-76810D02*
X84684Y-76810D01*
X84684Y-76810D02*
X85433Y-77559D01*
X84350Y-76810D02*
X84350Y-77263D01*
X84350Y-77263D02*
X84645Y-77559D01*
X84350Y-76810D02*
X84350Y-77066D01*
X84350Y-77066D02*
X83858Y-77559D01*
X87007Y-77559D02*
X87007Y-77321D01*
X87007Y-77321D02*
X87598Y-76730D01*
X88582Y-77559D02*
X88426Y-77559D01*
X88426Y-77559D02*
X87598Y-76730D01*
X87598Y-76730D02*
X87754Y-76730D01*
X87754Y-76730D02*
X88582Y-77559D01*
X87598Y-76730D02*
X87598Y-76968D01*
X87598Y-76968D02*
X87007Y-77559D01*
X88582Y-75984D02*
X88344Y-75984D01*
X88344Y-75984D02*
X87598Y-76730D01*
X87598Y-76730D02*
X87836Y-76730D01*
X87836Y-76730D02*
X88582Y-75984D01*
X87598Y-76730D02*
X87598Y-76574D01*
X87598Y-76574D02*
X87007Y-75984D01*
X84350Y-67066D02*
X84389Y-67066D01*
X84389Y-67066D02*
X85433Y-68110D01*
X84350Y-67066D02*
X84350Y-67618D01*
X84350Y-67618D02*
X83858Y-68110D01*
X84350Y-67066D02*
X84508Y-67066D01*
X84508Y-67066D02*
X85433Y-66141D01*
X84350Y-67066D02*
X84350Y-66437D01*
X84350Y-66437D02*
X84645Y-66141D01*
X84350Y-67066D02*
X84350Y-66633D01*
X84350Y-66633D02*
X83858Y-66141D01*
X90944Y-68110D02*
X91813Y-68110D01*
X91813Y-68110D02*
X92305Y-68602D01*
X92305Y-68602D02*
X92305Y-67537D01*
X92305Y-67537D02*
X92913Y-66929D01*
X92305Y-68602D02*
X91633Y-68602D01*
X91633Y-68602D02*
X91338Y-68897D01*
X91240Y-66986D02*
X91240Y-67027D01*
X91240Y-67027D02*
X90157Y-68110D01*
X91240Y-66986D02*
X91240Y-67814D01*
X91240Y-67814D02*
X90944Y-68110D01*
X87598Y-66986D02*
X87598Y-67125D01*
X87598Y-67125D02*
X88582Y-68110D01*
X87598Y-66986D02*
X87598Y-67913D01*
X87598Y-67913D02*
X87795Y-68110D01*
X87598Y-66986D02*
X87598Y-67519D01*
X87598Y-67519D02*
X87007Y-68110D01*
X87598Y-66986D02*
X87598Y-66732D01*
X87598Y-66732D02*
X87007Y-66141D01*
X88582Y-66141D02*
X88443Y-66141D01*
X88443Y-66141D02*
X87598Y-66986D01*
X87598Y-66986D02*
X87737Y-66986D01*
X87737Y-66986D02*
X88582Y-66141D01*
X90157Y-66141D02*
X90395Y-66141D01*
X90395Y-66141D02*
X91240Y-66986D01*
X91732Y-66141D02*
X91732Y-66494D01*
X91732Y-66494D02*
X91240Y-66986D01*
X83858Y-56299D02*
X83858Y-56830D01*
X83858Y-56830D02*
X84350Y-57322D01*
X84350Y-57322D02*
X83917Y-57322D01*
X83917Y-57322D02*
X82578Y-58661D01*
X82578Y-58661D02*
X82283Y-58661D01*
X91240Y-57242D02*
X91100Y-57242D01*
X91100Y-57242D02*
X90157Y-56299D01*
X87598Y-57242D02*
X87639Y-57242D01*
X87639Y-57242D02*
X88582Y-56299D01*
X87598Y-57242D02*
X87598Y-57283D01*
X87598Y-57283D02*
X88582Y-58267D01*
X91240Y-57242D02*
X91182Y-57242D01*
X91182Y-57242D02*
X90157Y-58267D01*
X91240Y-57242D02*
X91240Y-56791D01*
X91240Y-56791D02*
X91732Y-56299D01*
X92125Y-57086D02*
X91396Y-57086D01*
X91396Y-57086D02*
X91240Y-57242D01*
X91240Y-57242D02*
X91240Y-57972D01*
X91240Y-57972D02*
X90944Y-58267D01*
X91240Y-57242D02*
X91240Y-56594D01*
X91240Y-56594D02*
X90944Y-56299D01*
X87598Y-57242D02*
X87598Y-58070D01*
X87598Y-58070D02*
X87795Y-58267D01*
X87598Y-57242D02*
X87598Y-57677D01*
X87598Y-57677D02*
X87007Y-58267D01*
X87598Y-57242D02*
X87598Y-56889D01*
X87598Y-56889D02*
X87007Y-56299D01*
X87598Y-57242D02*
X87598Y-56496D01*
X87598Y-56496D02*
X87795Y-56299D01*
X84350Y-57322D02*
X84487Y-57322D01*
X84487Y-57322D02*
X85433Y-58267D01*
X84350Y-57322D02*
X84409Y-57322D01*
X84409Y-57322D02*
X85433Y-56299D01*
X84350Y-57322D02*
X84350Y-56791D01*
X84350Y-56791D02*
X83858Y-56299D01*
X84350Y-57322D02*
X84350Y-57775D01*
X84350Y-57775D02*
X83858Y-58267D01*
X84350Y-57322D02*
X84350Y-57972D01*
X84350Y-57972D02*
X84645Y-58267D01*
X84350Y-57322D02*
X84350Y-56594D01*
X84350Y-56594D02*
X84645Y-56299D01*
G54D47*
X93405Y-74686D02*
X93405Y-74901D01*
X93405Y-74901D02*
X93110Y-75196D01*
G54D46*
X71583Y-56895D02*
X70970Y-56895D01*
X70970Y-56895D02*
X70964Y-56889D01*
G54D45*
X75139Y-69881D02*
X75139Y-69348D01*
X75196Y-67716D02*
X75984Y-67716D01*
X75590Y-68897D02*
X75590Y-68503D01*
X75984Y-69291D02*
X75590Y-68897D01*
X75139Y-69348D02*
X75196Y-69291D01*
X82144Y-69881D02*
X82086Y-69881D01*
X81889Y-68503D02*
X82677Y-68503D01*
X82086Y-69881D02*
X81496Y-69291D01*
X84350Y-76810D02*
X84350Y-77066D01*
X88582Y-77559D02*
X89370Y-77559D01*
X86220Y-77559D02*
X87007Y-77559D01*
X84645Y-77559D02*
X85433Y-77559D01*
X84350Y-77066D02*
X83858Y-77559D01*
X84350Y-76476D02*
X83858Y-75984D01*
X84645Y-75984D02*
X85433Y-75984D01*
X86220Y-75984D02*
X87007Y-75984D01*
X88582Y-75984D02*
X89370Y-75984D01*
X84350Y-76476D02*
X84350Y-76810D01*
X84350Y-67066D02*
X84350Y-67618D01*
X90551Y-68897D02*
X89763Y-68897D01*
X91338Y-68503D02*
X91338Y-68897D01*
X90944Y-68110D02*
X91338Y-68503D01*
X89370Y-68110D02*
X90157Y-68110D01*
X87795Y-68110D02*
X88582Y-68110D01*
X86220Y-68110D02*
X87007Y-68110D01*
X84645Y-68110D02*
X85433Y-68110D01*
X84350Y-67618D02*
X83858Y-68110D01*
X88582Y-66141D02*
X89370Y-66141D01*
X84350Y-67066D02*
X84350Y-66633D01*
X86220Y-66141D02*
X87007Y-66141D01*
X84645Y-66141D02*
X85433Y-66141D01*
X84350Y-66633D02*
X83858Y-66141D01*
X92913Y-66535D02*
X92913Y-66929D01*
X93307Y-66141D02*
X92913Y-66535D01*
X91732Y-66141D02*
X92519Y-66141D01*
X73622Y-48818D02*
X73622Y-48269D01*
X74015Y-49212D02*
X73622Y-48818D01*
X72440Y-49212D02*
X73228Y-49212D01*
X71653Y-48818D02*
X71653Y-49212D01*
X71259Y-48425D02*
X71653Y-48818D01*
X84350Y-57775D02*
X83858Y-58267D01*
X84645Y-58267D02*
X85433Y-58267D01*
X86220Y-58267D02*
X87007Y-58267D01*
X87795Y-58267D02*
X88582Y-58267D01*
X89370Y-58267D02*
X90157Y-58267D01*
X84350Y-57322D02*
X84350Y-57775D01*
X91338Y-59055D02*
X90551Y-59055D01*
X92913Y-57086D02*
X92125Y-57086D01*
X84350Y-57322D02*
X84350Y-56791D01*
X92519Y-56299D02*
X93307Y-56299D01*
X90944Y-56299D02*
X91732Y-56299D01*
X89370Y-56299D02*
X90157Y-56299D01*
X87795Y-56299D02*
X88582Y-56299D01*
X86220Y-56299D02*
X87007Y-56299D01*
X84645Y-56299D02*
X85433Y-56299D01*
X84350Y-56791D02*
X83858Y-56299D01*
X82144Y-59547D02*
X82144Y-59309D01*
X82283Y-58661D02*
X83070Y-58661D01*
X82144Y-59309D02*
X81496Y-58661D01*
X82144Y-59547D02*
X82144Y-59588D01*
X82144Y-59588D02*
X81496Y-60236D01*
X75139Y-59547D02*
X75139Y-59899D01*
X75139Y-59899D02*
X74901Y-60137D01*
X75139Y-59547D02*
X75139Y-58997D01*
X75139Y-58997D02*
X74803Y-58661D01*
G54D44*
X69685Y-47637D02*
X68503Y-47637D01*
X64385Y-48212D02*
X64960Y-47637D01*
X65551Y-48228D02*
X66141Y-47637D01*
X66732Y-48228D02*
X67322Y-47637D01*
X67913Y-48228D02*
X68503Y-47637D01*
X64385Y-48212D02*
X63385Y-48212D01*
G54D47*
X68508Y-53051D02*
X68508Y-52751D01*
X68508Y-52751D02*
X68799Y-52460D01*
X68508Y-53051D02*
X68508Y-53351D01*
X68508Y-53351D02*
X68799Y-53641D01*
X68508Y-53051D02*
X68996Y-53051D01*
X69488Y-48715D02*
X69488Y-47736D01*
X69685Y-47637D02*
X69685Y-47736D01*
X69586Y-47637D02*
X69685Y-47637D01*
X69488Y-47736D02*
X69586Y-47637D01*
G54D44*
X69685Y-47736D02*
X70177Y-47736D01*
G54D47*
X75242Y-64423D02*
X75196Y-64468D01*
X75820Y-64423D02*
X75242Y-64423D01*
X93405Y-64941D02*
X93405Y-65452D01*
X82144Y-69881D02*
X82144Y-69250D01*
X82144Y-69250D02*
X82086Y-69192D01*
X75820Y-54088D02*
X75242Y-54088D01*
X74704Y-54625D02*
X74704Y-54822D01*
X75242Y-54088D02*
X74704Y-54625D01*
X77362Y-76973D02*
X77160Y-76973D01*
X77160Y-76973D02*
X76870Y-77263D01*
X77362Y-56303D02*
X77160Y-56303D01*
X77160Y-56303D02*
X76870Y-56594D01*
X77362Y-66638D02*
X77062Y-66638D01*
X77062Y-66638D02*
X76870Y-66830D01*
X79560Y-56647D02*
X78516Y-56647D01*
G54D46*
X78516Y-56647D02*
X78248Y-56378D01*
G54D47*
X79560Y-77316D02*
X78516Y-77316D01*
G54D46*
X78516Y-77316D02*
X78248Y-77048D01*
G54D47*
X79560Y-66982D02*
X79088Y-66982D01*
X79088Y-66982D02*
X78516Y-66982D01*
G54D46*
X78516Y-66982D02*
X78248Y-66713D01*
G54D47*
X70177Y-48715D02*
X70177Y-47736D01*
G54D44*
X70177Y-47736D02*
X71161Y-47736D01*
X71694Y-48269D02*
X72440Y-48269D01*
X71161Y-47736D02*
X71694Y-48269D01*
X92305Y-58858D02*
X92305Y-58307D01*
X92305Y-58307D02*
X91240Y-57242D01*
X87598Y-57242D02*
X91240Y-57242D01*
X84350Y-57322D02*
X87518Y-57322D01*
X87518Y-57322D02*
X87598Y-57242D01*
X92305Y-68602D02*
X92305Y-68051D01*
X92305Y-68051D02*
X91240Y-66986D01*
X91240Y-66986D02*
X87598Y-66986D01*
X84350Y-67066D02*
X87518Y-67066D01*
X87518Y-67066D02*
X87598Y-66986D01*
X91240Y-76730D02*
X87598Y-76730D01*
X84350Y-76810D02*
X87518Y-76810D01*
X87518Y-76810D02*
X87598Y-76730D01*
X72440Y-48269D02*
X74196Y-48269D01*
X74196Y-48269D02*
X75139Y-49212D01*
G54D46*
X77362Y-76973D02*
X78173Y-76973D01*
X78173Y-76973D02*
X78248Y-77048D01*
X77362Y-66638D02*
X78173Y-66638D01*
X78173Y-66638D02*
X78248Y-66713D01*
X77362Y-56303D02*
X78173Y-56303D01*
X78173Y-56303D02*
X78248Y-56378D01*
X89352Y-48917D02*
X89352Y-47620D01*
X82144Y-48466D02*
X82144Y-49212D01*
X83169Y-47440D02*
X82144Y-48466D01*
X89173Y-47440D02*
X83169Y-47440D01*
X89352Y-47620D02*
X89173Y-47440D01*
G54D50*
X94783Y-76077D02*
X94783Y-75595D01*
X94094Y-75595D02*
X94783Y-75595D01*
X94783Y-56107D02*
X94094Y-56107D01*
X94783Y-56589D02*
X94783Y-56107D01*
X94783Y-66333D02*
X94783Y-65851D01*
X94783Y-65851D02*
X94192Y-65851D01*
G54D47*
X62696Y-56772D02*
X62696Y-57283D01*
X63484Y-56772D02*
X63484Y-57283D01*
X66530Y-60433D02*
X66530Y-61215D01*
X66530Y-61215D02*
X66830Y-61515D01*
X66146Y-56988D02*
X66146Y-57574D01*
X66146Y-57574D02*
X66141Y-57578D01*
X65452Y-71733D02*
X65452Y-72145D01*
X65452Y-72145D02*
X65354Y-72244D01*
X70570Y-67130D02*
X70570Y-67618D01*
X63090Y-66038D02*
X63090Y-65551D01*
G54D46*
X67322Y-55099D02*
X67322Y-55905D01*
X67322Y-55905D02*
X67027Y-56200D01*
G54D47*
X71583Y-60895D02*
X70935Y-60895D01*
X70935Y-60895D02*
X70669Y-60629D01*
X67983Y-59895D02*
X68753Y-59895D01*
X68753Y-59895D02*
X68799Y-59940D01*
G54D48*
X70078Y-64449D02*
X70491Y-64449D01*
X70491Y-64449D02*
X70866Y-64074D01*
X72036Y-67637D02*
X72036Y-67235D01*
X72036Y-67235D02*
X72145Y-67125D01*
G54D47*
X71850Y-69985D02*
X71850Y-70472D01*
X70866Y-69985D02*
X70866Y-70472D01*
X72736Y-66530D02*
X73322Y-66530D01*
X73322Y-66530D02*
X73523Y-66732D01*
X67224Y-64290D02*
X67224Y-63976D01*
X66929Y-63681D02*
X66830Y-63681D01*
X67224Y-63976D02*
X66929Y-63681D01*
G54D51*
X66980Y-53051D02*
X66980Y-52311D01*
X66980Y-52311D02*
X67027Y-52263D01*
G54D47*
X69192Y-55614D02*
X69192Y-56102D01*
X70078Y-64449D02*
X69661Y-64449D01*
X69661Y-64449D02*
X69389Y-64177D01*
X67224Y-64290D02*
X66708Y-64290D01*
X66708Y-64290D02*
X66535Y-64463D01*
X65452Y-71733D02*
X64937Y-71733D01*
X64937Y-71733D02*
X64763Y-71559D01*
X64777Y-66031D02*
X64777Y-65269D01*
X64777Y-65269D02*
X64763Y-65255D01*
X73209Y-60728D02*
X73209Y-61239D01*
X73209Y-61239D02*
X73031Y-61417D01*
X66043Y-55125D02*
X66043Y-55511D01*
X66043Y-55511D02*
X65944Y-55610D01*
X66146Y-56988D02*
X66146Y-56200D01*
X67908Y-53051D02*
X67519Y-53051D01*
X67519Y-53051D02*
X66980Y-53051D01*
X67908Y-53051D02*
X67908Y-53637D01*
X67908Y-53637D02*
X67913Y-53641D01*
X67908Y-53051D02*
X67908Y-52465D01*
X67908Y-52465D02*
X67913Y-52460D01*
X64763Y-71559D02*
X64763Y-72047D01*
X63090Y-73823D02*
X63090Y-74311D01*
X71583Y-60395D02*
X71911Y-60395D01*
X72244Y-60728D02*
X72459Y-60728D01*
X71911Y-60395D02*
X72244Y-60728D01*
G54D49*
X63090Y-73223D02*
X63090Y-71780D01*
X65277Y-69991D02*
X65277Y-69214D01*
X63090Y-70570D02*
X63090Y-71780D01*
X64566Y-69094D02*
X63090Y-70570D01*
X65157Y-69094D02*
X64566Y-69094D01*
X65277Y-69214D02*
X65157Y-69094D01*
X71526Y-67637D02*
X71526Y-68573D01*
X71554Y-68601D02*
X71870Y-68601D01*
X71526Y-68573D02*
X71554Y-68601D01*
X71850Y-69385D02*
X71850Y-68621D01*
X71850Y-68621D02*
X71870Y-68601D01*
X65546Y-56200D02*
X65255Y-56200D01*
X65255Y-56200D02*
X65157Y-56102D01*
X66418Y-55125D02*
X66418Y-55394D01*
X65059Y-56003D02*
X64768Y-56003D01*
X65157Y-56102D02*
X65059Y-56003D01*
X66418Y-55394D02*
X66633Y-55610D01*
G54D47*
X65668Y-54125D02*
X65668Y-54316D01*
X65668Y-54316D02*
X65063Y-54921D01*
X65668Y-54125D02*
X65668Y-53219D01*
X65668Y-53219D02*
X65500Y-53051D01*
G54D51*
X65500Y-53051D02*
X64566Y-53051D01*
G54D49*
X70964Y-55614D02*
X71362Y-55614D01*
X71583Y-55835D02*
X71583Y-56395D01*
X71362Y-55614D02*
X71583Y-55835D01*
X70374Y-55614D02*
X70964Y-55614D01*
X63090Y-68080D02*
X63090Y-66638D01*
X63090Y-68080D02*
X65127Y-68080D01*
X65777Y-68730D02*
X65777Y-69991D01*
X65127Y-68080D02*
X65777Y-68730D01*
X64714Y-62185D02*
X64714Y-62702D01*
X64714Y-62702D02*
X64716Y-62704D01*
X64714Y-62185D02*
X64714Y-61635D01*
X64714Y-58681D02*
X63972Y-58681D01*
X64714Y-62185D02*
X64714Y-61112D01*
X64714Y-61112D02*
X64763Y-61062D01*
X62568Y-58681D02*
X64714Y-58681D01*
X62568Y-58681D02*
X62568Y-58202D01*
X62568Y-58202D02*
X62574Y-58196D01*
X62568Y-58681D02*
X62568Y-59159D01*
X62568Y-59159D02*
X62566Y-59161D01*
X62568Y-62185D02*
X62568Y-62718D01*
X62568Y-62185D02*
X62568Y-61592D01*
X62568Y-61592D02*
X62566Y-61590D01*
X63188Y-64168D02*
X63188Y-63681D01*
X62568Y-63061D02*
X62568Y-62185D01*
X63188Y-63681D02*
X62568Y-63061D01*
X65354Y-64763D02*
X64173Y-64763D01*
X65475Y-64643D02*
X65354Y-64763D01*
X65475Y-64272D02*
X65475Y-64643D01*
X63577Y-64168D02*
X63188Y-64168D01*
X64173Y-64763D02*
X63577Y-64168D01*
X64763Y-61062D02*
X64133Y-61062D01*
X65158Y-64272D02*
X65475Y-64272D01*
X64862Y-63976D02*
X65158Y-64272D01*
X64370Y-63976D02*
X64862Y-63976D01*
X63976Y-63582D02*
X64370Y-63976D01*
X63976Y-61220D02*
X63976Y-63582D01*
X64133Y-61062D02*
X63976Y-61220D01*
X62568Y-58681D02*
X62568Y-62185D01*
X71270Y-67637D02*
X71270Y-68591D01*
X71260Y-68601D02*
X70846Y-68601D01*
X71270Y-68591D02*
X71260Y-68601D01*
X70866Y-69385D02*
X70866Y-68621D01*
X70866Y-68621D02*
X70846Y-68601D01*
G54D47*
X73897Y-75590D02*
X73897Y-73996D01*
X72736Y-72834D02*
X72736Y-71358D01*
X73897Y-73996D02*
X72736Y-72834D01*
X72736Y-71358D02*
X66929Y-71358D01*
X63897Y-74389D02*
X63897Y-75590D01*
X66929Y-71358D02*
X63897Y-74389D01*
X72736Y-68114D02*
X72736Y-71358D01*
G54D49*
X65475Y-63601D02*
X65865Y-63601D01*
X66043Y-65059D02*
X65777Y-65324D01*
X66043Y-63779D02*
X66043Y-65059D01*
X65865Y-63601D02*
X66043Y-63779D01*
X65475Y-63601D02*
X65475Y-63166D01*
X65475Y-63166D02*
X65649Y-62992D01*
X64763Y-60118D02*
X65433Y-60118D01*
X65433Y-60118D02*
X65649Y-60334D01*
X65649Y-60334D02*
X65649Y-62992D01*
X65777Y-66031D02*
X65777Y-65324D01*
X64643Y-63601D02*
X64643Y-63408D01*
X64643Y-63408D02*
X65452Y-62598D01*
X64643Y-63601D02*
X64880Y-63601D01*
X64880Y-63601D02*
X65157Y-63877D01*
X65864Y-64745D02*
X65277Y-65332D01*
X65864Y-63994D02*
X65864Y-64745D01*
X65748Y-63877D02*
X65864Y-63994D01*
X65157Y-63877D02*
X65748Y-63877D01*
X64763Y-60433D02*
X65354Y-60433D01*
X65354Y-60433D02*
X65452Y-60531D01*
X65452Y-60531D02*
X65452Y-62598D01*
X65277Y-66031D02*
X65277Y-65332D01*
X64643Y-64351D02*
X64351Y-64351D01*
X64212Y-59803D02*
X64763Y-59803D01*
X63779Y-60236D02*
X64212Y-59803D01*
X63779Y-63779D02*
X63779Y-60236D01*
X64351Y-64351D02*
X63779Y-63779D01*
X65668Y-55125D02*
X65444Y-55125D01*
X64463Y-55310D02*
X64463Y-54921D01*
X64566Y-55413D02*
X64463Y-55310D01*
X65157Y-55413D02*
X64566Y-55413D01*
X65444Y-55125D02*
X65157Y-55413D01*
X64463Y-54921D02*
X63976Y-54921D01*
X70177Y-49901D02*
X70177Y-49315D01*
X94094Y-55507D02*
X94094Y-55019D01*
X64763Y-56791D02*
X65059Y-56791D01*
X65255Y-56988D02*
X65546Y-56988D01*
X65059Y-56791D02*
X65255Y-56988D01*
X94094Y-74995D02*
X94094Y-74507D01*
X94192Y-65251D02*
X94192Y-64763D01*
X68602Y-55014D02*
X69192Y-55014D01*
X69783Y-55014D02*
X69192Y-55014D01*
G54D47*
X75820Y-54588D02*
X75431Y-54588D01*
G54D46*
X75431Y-54588D02*
X75393Y-54626D01*
X75393Y-54626D02*
X75393Y-55807D01*
X75684Y-56791D02*
X75684Y-56098D01*
X75684Y-56098D02*
X75393Y-55807D01*
X79560Y-57147D02*
X76640Y-57147D01*
X76640Y-57147D02*
X76284Y-56791D01*
X76284Y-56791D02*
X76284Y-56137D01*
X76284Y-56137D02*
X76653Y-55768D01*
G54D47*
X77920Y-53588D02*
X78391Y-53588D01*
G54D46*
X78391Y-53588D02*
X78740Y-53937D01*
X78740Y-53937D02*
X80019Y-53937D01*
X80310Y-54822D02*
X80310Y-54228D01*
X80310Y-54228D02*
X80019Y-53937D01*
G54D47*
X81660Y-51513D02*
X80966Y-51513D01*
G54D46*
X80966Y-51513D02*
X80905Y-51574D01*
X80905Y-51574D02*
X80905Y-53524D01*
X80905Y-53524D02*
X81279Y-53898D01*
X80910Y-54822D02*
X80910Y-54267D01*
X80910Y-54267D02*
X81279Y-53898D01*
G54D47*
X77920Y-54088D02*
X77316Y-54088D01*
G54D46*
X76921Y-53692D02*
X77316Y-54088D01*
G54D44*
X76921Y-53692D02*
X76921Y-51870D01*
G54D50*
X76921Y-51870D02*
X77652Y-51870D01*
G54D46*
X79560Y-67482D02*
X76640Y-67482D01*
X76640Y-67482D02*
X76284Y-67125D01*
X76284Y-67125D02*
X76284Y-66471D01*
X76284Y-66471D02*
X76653Y-66102D01*
G54D47*
X75820Y-64923D02*
X75529Y-64923D01*
G54D46*
X75529Y-64923D02*
X75393Y-65059D01*
X75393Y-65059D02*
X75393Y-66141D01*
X75684Y-67125D02*
X75684Y-66432D01*
X75684Y-66432D02*
X75393Y-66141D01*
G54D47*
X81660Y-61848D02*
X81064Y-61848D01*
G54D46*
X81064Y-61848D02*
X80905Y-62007D01*
X80905Y-62007D02*
X80905Y-63858D01*
X80905Y-63858D02*
X81279Y-64232D01*
X80910Y-65157D02*
X80910Y-64601D01*
X80910Y-64601D02*
X81279Y-64232D01*
G54D47*
X77920Y-64423D02*
X77316Y-64423D01*
G54D46*
X76921Y-64027D02*
X77316Y-64423D01*
G54D44*
X76921Y-64027D02*
X76921Y-62204D01*
G54D50*
X76921Y-62204D02*
X77652Y-62204D01*
G54D47*
X77920Y-63923D02*
X78391Y-63923D01*
G54D46*
X78391Y-63923D02*
X78740Y-64271D01*
X78740Y-64271D02*
X80019Y-64271D01*
X80310Y-65157D02*
X80310Y-64562D01*
X80310Y-64562D02*
X80019Y-64271D01*
G54D47*
X75820Y-75257D02*
X75431Y-75257D01*
G54D46*
X75431Y-75257D02*
X75393Y-75295D01*
X75393Y-75295D02*
X75393Y-76476D01*
X75684Y-77460D02*
X75684Y-76767D01*
X75684Y-76767D02*
X75393Y-76476D01*
X79560Y-77816D02*
X76640Y-77816D01*
X76640Y-77816D02*
X76284Y-77460D01*
X76284Y-77460D02*
X76284Y-76806D01*
X76284Y-76806D02*
X76653Y-76437D01*
G54D47*
X77920Y-74257D02*
X78588Y-74257D01*
G54D46*
X78588Y-74257D02*
X78937Y-74606D01*
X78937Y-74606D02*
X80019Y-74606D01*
X80310Y-75492D02*
X80310Y-74897D01*
X80310Y-74897D02*
X80019Y-74606D01*
G54D47*
X81660Y-72183D02*
X80966Y-72183D01*
G54D46*
X80966Y-72183D02*
X80905Y-72244D01*
X80905Y-72244D02*
X80905Y-74193D01*
X80905Y-74193D02*
X81279Y-74567D01*
X80910Y-75492D02*
X80910Y-74936D01*
X80910Y-74936D02*
X81279Y-74567D01*
G54D47*
X77920Y-74757D02*
X77316Y-74757D01*
G54D46*
X76921Y-74362D02*
X77316Y-74757D01*
G54D44*
X76921Y-74362D02*
X76921Y-72539D01*
G54D50*
X76921Y-72539D02*
X77652Y-72539D01*
G54D10*
G36*
X78690Y-66091D02*
X77060Y-66091D01*
X77060Y-65876D01*
X77022Y-65784D01*
X76952Y-65713D01*
X76860Y-65675D01*
X76760Y-65675D01*
X76446Y-65675D01*
X76427Y-65683D01*
X76427Y-64425D01*
X76465Y-64482D01*
X76674Y-64622D01*
X76921Y-64671D01*
X76988Y-64657D01*
X77035Y-64704D01*
X77115Y-64757D01*
X77115Y-65010D01*
X78690Y-65010D01*
X78690Y-66091D01*
X78690Y-66091D01*
G37*
G54D49*
X78690Y-66091D02*
X77060Y-66091D01*
X77060Y-65876D01*
X77022Y-65784D01*
X76952Y-65713D01*
X76860Y-65675D01*
X76760Y-65675D01*
X76446Y-65675D01*
X76427Y-65683D01*
X76427Y-64425D01*
X76465Y-64482D01*
X76674Y-64622D01*
X76921Y-64671D01*
X76988Y-64657D01*
X77035Y-64704D01*
X77115Y-64757D01*
X77115Y-65010D01*
X78690Y-65010D01*
X78690Y-66091D01*
G54D10*
G36*
X80658Y-61692D02*
X80624Y-61726D01*
X80538Y-61855D01*
X80507Y-62007D01*
X80507Y-63335D01*
X78790Y-63335D01*
X78790Y-63275D01*
X78796Y-63272D01*
X78859Y-63209D01*
X78921Y-63147D01*
X78956Y-63064D01*
X78990Y-62982D01*
X78990Y-62893D01*
X78990Y-62805D01*
X78956Y-62722D01*
X78922Y-62640D01*
X78859Y-62577D01*
X78796Y-62515D01*
X78790Y-62512D01*
X78790Y-61367D01*
X77115Y-61367D01*
X77115Y-61599D01*
X76921Y-61561D01*
X76719Y-61601D01*
X76573Y-61601D01*
X76481Y-61639D01*
X76410Y-61709D01*
X76372Y-61801D01*
X76372Y-61889D01*
X76326Y-61958D01*
X76277Y-62204D01*
X76277Y-63230D01*
X76257Y-63181D01*
X76186Y-63111D01*
X76095Y-63073D01*
X75995Y-63073D01*
X75545Y-63073D01*
X75455Y-63110D01*
X75351Y-63007D01*
X75233Y-62958D01*
X74809Y-62534D01*
X74886Y-62458D01*
X74954Y-62293D01*
X74954Y-62116D01*
X74886Y-61951D01*
X74761Y-61826D01*
X74597Y-61757D01*
X74533Y-61757D01*
X77579Y-58711D01*
X80294Y-58711D01*
X80658Y-59075D01*
X80658Y-61692D01*
X80658Y-61692D01*
G37*
G54D49*
X80658Y-61692D02*
X80624Y-61726D01*
X80538Y-61855D01*
X80507Y-62007D01*
X80507Y-63335D01*
X78790Y-63335D01*
X78790Y-63275D01*
X78796Y-63272D01*
X78859Y-63209D01*
X78921Y-63147D01*
X78956Y-63064D01*
X78990Y-62982D01*
X78990Y-62893D01*
X78990Y-62805D01*
X78956Y-62722D01*
X78922Y-62640D01*
X78859Y-62577D01*
X78796Y-62515D01*
X78790Y-62512D01*
X78790Y-61367D01*
X77115Y-61367D01*
X77115Y-61599D01*
X76921Y-61561D01*
X76719Y-61601D01*
X76573Y-61601D01*
X76481Y-61639D01*
X76410Y-61709D01*
X76372Y-61801D01*
X76372Y-61889D01*
X76326Y-61958D01*
X76277Y-62204D01*
X76277Y-63230D01*
X76257Y-63181D01*
X76186Y-63111D01*
X76095Y-63073D01*
X75995Y-63073D01*
X75545Y-63073D01*
X75455Y-63110D01*
X75351Y-63007D01*
X75233Y-62958D01*
X74809Y-62534D01*
X74886Y-62458D01*
X74954Y-62293D01*
X74954Y-62116D01*
X74886Y-61951D01*
X74761Y-61826D01*
X74597Y-61757D01*
X74533Y-61757D01*
X77579Y-58711D01*
X80294Y-58711D01*
X80658Y-59075D01*
X80658Y-61692D01*
G54D10*
G36*
X95175Y-61367D02*
X89420Y-61367D01*
X89420Y-60286D01*
X93750Y-60286D01*
X93750Y-57530D01*
X93811Y-57530D01*
X93813Y-57536D01*
X93939Y-57662D01*
X94103Y-57730D01*
X94281Y-57730D01*
X94445Y-57662D01*
X94543Y-57564D01*
X94607Y-57564D01*
X95057Y-57564D01*
X95141Y-57530D01*
X95175Y-57530D01*
X95175Y-61367D01*
X95175Y-61367D01*
G37*
G54D49*
X95175Y-61367D02*
X89420Y-61367D01*
X89420Y-60286D01*
X93750Y-60286D01*
X93750Y-57530D01*
X93811Y-57530D01*
X93813Y-57536D01*
X93939Y-57662D01*
X94103Y-57730D01*
X94281Y-57730D01*
X94445Y-57662D01*
X94543Y-57564D01*
X94607Y-57564D01*
X95057Y-57564D01*
X95141Y-57530D01*
X95175Y-57530D01*
X95175Y-61367D01*
G54D10*
G36*
X95175Y-74200D02*
X95150Y-74175D01*
X95058Y-74137D01*
X94958Y-74137D01*
X94508Y-74137D01*
X94426Y-74171D01*
X94393Y-74138D01*
X94301Y-74100D01*
X94201Y-74100D01*
X93887Y-74100D01*
X93796Y-74138D01*
X93725Y-74208D01*
X93703Y-74261D01*
X93631Y-74260D01*
X93081Y-74260D01*
X92989Y-74298D01*
X92928Y-74359D01*
X92892Y-74359D01*
X92105Y-75146D01*
X86270Y-75146D01*
X86270Y-68947D01*
X88926Y-68947D01*
X88926Y-71703D01*
X95175Y-71703D01*
X95175Y-74200D01*
X95175Y-74200D01*
G37*
G54D49*
X95175Y-74200D02*
X95150Y-74175D01*
X95058Y-74137D01*
X94958Y-74137D01*
X94508Y-74137D01*
X94426Y-74171D01*
X94393Y-74138D01*
X94301Y-74100D01*
X94201Y-74100D01*
X93887Y-74100D01*
X93796Y-74138D01*
X93725Y-74208D01*
X93703Y-74261D01*
X93631Y-74260D01*
X93081Y-74260D01*
X92989Y-74298D01*
X92928Y-74359D01*
X92892Y-74359D01*
X92105Y-75146D01*
X86270Y-75146D01*
X86270Y-68947D01*
X88926Y-68947D01*
X88926Y-71703D01*
X95175Y-71703D01*
X95175Y-74200D01*
G54D10*
G36*
X95175Y-71209D02*
X89420Y-71209D01*
X89420Y-70128D01*
X93750Y-70128D01*
X93750Y-67372D01*
X93811Y-67372D01*
X93813Y-67378D01*
X93939Y-67504D01*
X94103Y-67572D01*
X94281Y-67572D01*
X94445Y-67505D01*
X94571Y-67379D01*
X94574Y-67372D01*
X95175Y-67372D01*
X95175Y-71209D01*
X95175Y-71209D01*
G37*
G54D49*
X95175Y-71209D02*
X89420Y-71209D01*
X89420Y-70128D01*
X93750Y-70128D01*
X93750Y-67372D01*
X93811Y-67372D01*
X93813Y-67378D01*
X93939Y-67504D01*
X94103Y-67572D01*
X94281Y-67572D01*
X94445Y-67505D01*
X94571Y-67379D01*
X94574Y-67372D01*
X95175Y-67372D01*
X95175Y-71209D01*
G54D10*
G36*
X95175Y-64456D02*
X95150Y-64431D01*
X95058Y-64393D01*
X94958Y-64393D01*
X94508Y-64393D01*
X94495Y-64398D01*
X94491Y-64394D01*
X94399Y-64356D01*
X94300Y-64356D01*
X93986Y-64356D01*
X93894Y-64394D01*
X93824Y-64464D01*
X93802Y-64516D01*
X93680Y-64516D01*
X93631Y-64516D01*
X93081Y-64516D01*
X93080Y-64516D01*
X92892Y-64516D01*
X92105Y-65304D01*
X86270Y-65304D01*
X86270Y-59105D01*
X88926Y-59105D01*
X88926Y-61861D01*
X95175Y-61861D01*
X95175Y-64456D01*
X95175Y-64456D01*
G37*
G54D49*
X95175Y-64456D02*
X95150Y-64431D01*
X95058Y-64393D01*
X94958Y-64393D01*
X94508Y-64393D01*
X94495Y-64398D01*
X94491Y-64394D01*
X94399Y-64356D01*
X94300Y-64356D01*
X93986Y-64356D01*
X93894Y-64394D01*
X93824Y-64464D01*
X93802Y-64516D01*
X93680Y-64516D01*
X93631Y-64516D01*
X93081Y-64516D01*
X93080Y-64516D01*
X92892Y-64516D01*
X92105Y-65304D01*
X86270Y-65304D01*
X86270Y-59105D01*
X88926Y-59105D01*
X88926Y-61861D01*
X95175Y-61861D01*
X95175Y-64456D01*
G54D10*
G36*
X78296Y-73909D02*
X78198Y-73909D01*
X78195Y-73907D01*
X78095Y-73907D01*
X77645Y-73907D01*
X77609Y-73922D01*
X77609Y-73014D01*
X77827Y-73014D01*
X77919Y-72976D01*
X77989Y-72906D01*
X78027Y-72814D01*
X78027Y-72714D01*
X78027Y-72264D01*
X77989Y-72172D01*
X77919Y-72102D01*
X77906Y-72097D01*
X78296Y-72097D01*
X78296Y-73909D01*
X78296Y-73909D01*
G37*
G54D49*
X78296Y-73909D02*
X78198Y-73909D01*
X78195Y-73907D01*
X78095Y-73907D01*
X77645Y-73907D01*
X77609Y-73922D01*
X77609Y-73014D01*
X77827Y-73014D01*
X77919Y-72976D01*
X77989Y-72906D01*
X78027Y-72814D01*
X78027Y-72714D01*
X78027Y-72264D01*
X77989Y-72172D01*
X77919Y-72102D01*
X77906Y-72097D01*
X78296Y-72097D01*
X78296Y-73909D01*
G54D10*
G36*
X85776Y-75146D02*
X83020Y-75146D01*
X83020Y-78296D01*
X81152Y-78296D01*
X81152Y-75939D01*
X81176Y-75929D01*
X81247Y-75858D01*
X81285Y-75767D01*
X81285Y-75667D01*
X81285Y-75605D01*
X81307Y-75492D01*
X81307Y-75101D01*
X81414Y-74994D01*
X81485Y-74994D01*
X81577Y-74956D01*
X81648Y-74886D01*
X81686Y-74794D01*
X81686Y-74694D01*
X81686Y-74340D01*
X81648Y-74248D01*
X81578Y-74178D01*
X81486Y-74140D01*
X81414Y-74140D01*
X81303Y-74028D01*
X81303Y-72531D01*
X81381Y-72531D01*
X81385Y-72533D01*
X81484Y-72533D01*
X81934Y-72533D01*
X82026Y-72495D01*
X82097Y-72424D01*
X82135Y-72333D01*
X82135Y-72233D01*
X82135Y-72033D01*
X82097Y-71941D01*
X82027Y-71871D01*
X81935Y-71833D01*
X81835Y-71833D01*
X81385Y-71833D01*
X81381Y-71834D01*
X81152Y-71834D01*
X81152Y-71674D01*
X82458Y-70367D01*
X82862Y-70367D01*
X82954Y-70329D01*
X83024Y-70259D01*
X83062Y-70167D01*
X83062Y-70068D01*
X83062Y-69763D01*
X83878Y-68947D01*
X85776Y-68947D01*
X85776Y-75146D01*
X85776Y-75146D01*
G37*
G54D49*
X85776Y-75146D02*
X83020Y-75146D01*
X83020Y-78296D01*
X81152Y-78296D01*
X81152Y-75939D01*
X81176Y-75929D01*
X81247Y-75858D01*
X81285Y-75767D01*
X81285Y-75667D01*
X81285Y-75605D01*
X81307Y-75492D01*
X81307Y-75101D01*
X81414Y-74994D01*
X81485Y-74994D01*
X81577Y-74956D01*
X81648Y-74886D01*
X81686Y-74794D01*
X81686Y-74694D01*
X81686Y-74340D01*
X81648Y-74248D01*
X81578Y-74178D01*
X81486Y-74140D01*
X81414Y-74140D01*
X81303Y-74028D01*
X81303Y-72531D01*
X81381Y-72531D01*
X81385Y-72533D01*
X81484Y-72533D01*
X81934Y-72533D01*
X82026Y-72495D01*
X82097Y-72424D01*
X82135Y-72333D01*
X82135Y-72233D01*
X82135Y-72033D01*
X82097Y-71941D01*
X82027Y-71871D01*
X81935Y-71833D01*
X81835Y-71833D01*
X81385Y-71833D01*
X81381Y-71834D01*
X81152Y-71834D01*
X81152Y-71674D01*
X82458Y-70367D01*
X82862Y-70367D01*
X82954Y-70329D01*
X83024Y-70259D01*
X83062Y-70167D01*
X83062Y-70068D01*
X83062Y-69763D01*
X83878Y-68947D01*
X85776Y-68947D01*
X85776Y-75146D01*
G54D10*
G36*
X78690Y-55855D02*
X77060Y-55855D01*
X77060Y-55541D01*
X77022Y-55449D01*
X76952Y-55379D01*
X76860Y-55341D01*
X76760Y-55341D01*
X76446Y-55341D01*
X76427Y-55348D01*
X76427Y-54091D01*
X76465Y-54147D01*
X76674Y-54287D01*
X76921Y-54336D01*
X76988Y-54322D01*
X77035Y-54369D01*
X77115Y-54422D01*
X77115Y-54774D01*
X78690Y-54774D01*
X78690Y-55855D01*
X78690Y-55855D01*
G37*
G54D49*
X78690Y-55855D02*
X77060Y-55855D01*
X77060Y-55541D01*
X77022Y-55449D01*
X76952Y-55379D01*
X76860Y-55341D01*
X76760Y-55341D01*
X76446Y-55341D01*
X76427Y-55348D01*
X76427Y-54091D01*
X76465Y-54147D01*
X76674Y-54287D01*
X76921Y-54336D01*
X76988Y-54322D01*
X77035Y-54369D01*
X77115Y-54422D01*
X77115Y-54774D01*
X78690Y-54774D01*
X78690Y-55855D01*
G54D10*
G36*
X80658Y-51259D02*
X80624Y-51293D01*
X80538Y-51422D01*
X80507Y-51574D01*
X80507Y-53099D01*
X78790Y-53099D01*
X78790Y-52940D01*
X78796Y-52938D01*
X78859Y-52875D01*
X78921Y-52812D01*
X78956Y-52730D01*
X78990Y-52648D01*
X78990Y-52559D01*
X78990Y-52470D01*
X78956Y-52388D01*
X78922Y-52306D01*
X78859Y-52243D01*
X78796Y-52180D01*
X78790Y-52177D01*
X78790Y-51131D01*
X77115Y-51131D01*
X77115Y-51265D01*
X76921Y-51226D01*
X76719Y-51266D01*
X76573Y-51266D01*
X76481Y-51304D01*
X76410Y-51374D01*
X76372Y-51466D01*
X76372Y-51554D01*
X76326Y-51623D01*
X76277Y-51870D01*
X76277Y-52312D01*
X70886Y-52312D01*
X70099Y-51524D01*
X68524Y-51524D01*
X68130Y-51131D01*
X62225Y-51131D01*
X62225Y-49656D01*
X68089Y-49656D01*
X68483Y-50050D01*
X68800Y-50050D01*
X68808Y-50053D01*
X68986Y-50053D01*
X68993Y-50050D01*
X69013Y-50050D01*
X69013Y-50071D01*
X69051Y-50163D01*
X69121Y-50233D01*
X69213Y-50271D01*
X69312Y-50271D01*
X69762Y-50271D01*
X69845Y-50237D01*
X69878Y-50270D01*
X69970Y-50308D01*
X70069Y-50308D01*
X70383Y-50308D01*
X70475Y-50270D01*
X70545Y-50200D01*
X70584Y-50108D01*
X70584Y-50050D01*
X76821Y-50050D01*
X76821Y-48475D01*
X80658Y-48475D01*
X80658Y-51259D01*
X80658Y-51259D01*
G37*
G54D49*
X80658Y-51259D02*
X80624Y-51293D01*
X80538Y-51422D01*
X80507Y-51574D01*
X80507Y-53099D01*
X78790Y-53099D01*
X78790Y-52940D01*
X78796Y-52938D01*
X78859Y-52875D01*
X78921Y-52812D01*
X78956Y-52730D01*
X78990Y-52648D01*
X78990Y-52559D01*
X78990Y-52470D01*
X78956Y-52388D01*
X78922Y-52306D01*
X78859Y-52243D01*
X78796Y-52180D01*
X78790Y-52177D01*
X78790Y-51131D01*
X77115Y-51131D01*
X77115Y-51265D01*
X76921Y-51226D01*
X76719Y-51266D01*
X76573Y-51266D01*
X76481Y-51304D01*
X76410Y-51374D01*
X76372Y-51466D01*
X76372Y-51554D01*
X76326Y-51623D01*
X76277Y-51870D01*
X76277Y-52312D01*
X70886Y-52312D01*
X70099Y-51524D01*
X68524Y-51524D01*
X68130Y-51131D01*
X62225Y-51131D01*
X62225Y-49656D01*
X68089Y-49656D01*
X68483Y-50050D01*
X68800Y-50050D01*
X68808Y-50053D01*
X68986Y-50053D01*
X68993Y-50050D01*
X69013Y-50050D01*
X69013Y-50071D01*
X69051Y-50163D01*
X69121Y-50233D01*
X69213Y-50271D01*
X69312Y-50271D01*
X69762Y-50271D01*
X69845Y-50237D01*
X69878Y-50270D01*
X69970Y-50308D01*
X70069Y-50308D01*
X70383Y-50308D01*
X70475Y-50270D01*
X70545Y-50200D01*
X70584Y-50108D01*
X70584Y-50050D01*
X76821Y-50050D01*
X76821Y-48475D01*
X80658Y-48475D01*
X80658Y-51259D01*
G54D10*
G36*
X78296Y-53209D02*
X78239Y-53221D01*
X78211Y-53240D01*
X78198Y-53240D01*
X78195Y-53238D01*
X78095Y-53238D01*
X77645Y-53238D01*
X77609Y-53253D01*
X77609Y-52345D01*
X77827Y-52345D01*
X77919Y-52307D01*
X77989Y-52236D01*
X78027Y-52145D01*
X78027Y-52045D01*
X78027Y-51624D01*
X78296Y-51624D01*
X78296Y-53209D01*
X78296Y-53209D01*
G37*
G54D49*
X78296Y-53209D02*
X78239Y-53221D01*
X78211Y-53240D01*
X78198Y-53240D01*
X78195Y-53238D01*
X78095Y-53238D01*
X77645Y-53238D01*
X77609Y-53253D01*
X77609Y-52345D01*
X77827Y-52345D01*
X77919Y-52307D01*
X77989Y-52236D01*
X78027Y-52145D01*
X78027Y-52045D01*
X78027Y-51624D01*
X78296Y-51624D01*
X78296Y-53209D01*
G54D10*
G36*
X85776Y-55461D02*
X83020Y-55461D01*
X83020Y-56672D01*
X82262Y-57430D01*
X81152Y-57430D01*
X81152Y-55269D01*
X81176Y-55259D01*
X81247Y-55189D01*
X81285Y-55097D01*
X81285Y-54998D01*
X81285Y-54936D01*
X81307Y-54822D01*
X81307Y-54431D01*
X81414Y-54325D01*
X81485Y-54325D01*
X81577Y-54287D01*
X81648Y-54216D01*
X81686Y-54124D01*
X81686Y-54025D01*
X81686Y-53671D01*
X81648Y-53579D01*
X81578Y-53509D01*
X81486Y-53471D01*
X81414Y-53470D01*
X81303Y-53359D01*
X81303Y-51862D01*
X81381Y-51862D01*
X81385Y-51863D01*
X81484Y-51863D01*
X81934Y-51863D01*
X82026Y-51825D01*
X82097Y-51755D01*
X82135Y-51663D01*
X82135Y-51564D01*
X82135Y-51364D01*
X82097Y-51272D01*
X82027Y-51201D01*
X81965Y-51176D01*
X83878Y-49262D01*
X85776Y-49262D01*
X85776Y-55461D01*
X85776Y-55461D01*
G37*
G54D49*
X85776Y-55461D02*
X83020Y-55461D01*
X83020Y-56672D01*
X82262Y-57430D01*
X81152Y-57430D01*
X81152Y-55269D01*
X81176Y-55259D01*
X81247Y-55189D01*
X81285Y-55097D01*
X81285Y-54998D01*
X81285Y-54936D01*
X81307Y-54822D01*
X81307Y-54431D01*
X81414Y-54325D01*
X81485Y-54325D01*
X81577Y-54287D01*
X81648Y-54216D01*
X81686Y-54124D01*
X81686Y-54025D01*
X81686Y-53671D01*
X81648Y-53579D01*
X81578Y-53509D01*
X81486Y-53471D01*
X81414Y-53470D01*
X81303Y-53359D01*
X81303Y-51862D01*
X81381Y-51862D01*
X81385Y-51863D01*
X81484Y-51863D01*
X81934Y-51863D01*
X82026Y-51825D01*
X82097Y-51755D01*
X82135Y-51663D01*
X82135Y-51564D01*
X82135Y-51364D01*
X82097Y-51272D01*
X82027Y-51201D01*
X81965Y-51176D01*
X83878Y-49262D01*
X85776Y-49262D01*
X85776Y-55461D01*
G54D10*
G36*
X78690Y-76327D02*
X77060Y-76327D01*
X77060Y-76210D01*
X77022Y-76118D01*
X76952Y-76048D01*
X76860Y-76010D01*
X76760Y-76010D01*
X76446Y-76010D01*
X76427Y-76018D01*
X76427Y-74760D01*
X76465Y-74817D01*
X76674Y-74956D01*
X76921Y-75005D01*
X76988Y-74992D01*
X77035Y-75039D01*
X77115Y-75092D01*
X77115Y-75246D01*
X78690Y-75246D01*
X78690Y-76327D01*
X78690Y-76327D01*
G37*
G54D49*
X78690Y-76327D02*
X77060Y-76327D01*
X77060Y-76210D01*
X77022Y-76118D01*
X76952Y-76048D01*
X76860Y-76010D01*
X76760Y-76010D01*
X76446Y-76010D01*
X76427Y-76018D01*
X76427Y-74760D01*
X76465Y-74817D01*
X76674Y-74956D01*
X76921Y-75005D01*
X76988Y-74992D01*
X77035Y-75039D01*
X77115Y-75092D01*
X77115Y-75246D01*
X78690Y-75246D01*
X78690Y-76327D01*
G54D10*
G36*
X80658Y-71928D02*
X80624Y-71962D01*
X80538Y-72091D01*
X80507Y-72244D01*
X80507Y-73572D01*
X78831Y-73572D01*
X78859Y-73544D01*
X78921Y-73481D01*
X78956Y-73399D01*
X78990Y-73317D01*
X78990Y-73228D01*
X78990Y-73139D01*
X78956Y-73057D01*
X78922Y-72975D01*
X78859Y-72912D01*
X78796Y-72849D01*
X78790Y-72847D01*
X78790Y-71603D01*
X77115Y-71603D01*
X77115Y-71934D01*
X76921Y-71895D01*
X76719Y-71935D01*
X76573Y-71935D01*
X76481Y-71973D01*
X76410Y-72044D01*
X76372Y-72135D01*
X76372Y-72223D01*
X76326Y-72293D01*
X76277Y-72539D01*
X76277Y-73565D01*
X76257Y-73516D01*
X76186Y-73446D01*
X76095Y-73407D01*
X75995Y-73407D01*
X75545Y-73407D01*
X75475Y-73436D01*
X74459Y-72420D01*
X74459Y-72067D01*
X77579Y-68947D01*
X79900Y-68947D01*
X80658Y-69705D01*
X80658Y-71928D01*
X80658Y-71928D01*
G37*
G54D49*
X80658Y-71928D02*
X80624Y-71962D01*
X80538Y-72091D01*
X80507Y-72244D01*
X80507Y-73572D01*
X78831Y-73572D01*
X78859Y-73544D01*
X78921Y-73481D01*
X78956Y-73399D01*
X78990Y-73317D01*
X78990Y-73228D01*
X78990Y-73139D01*
X78956Y-73057D01*
X78922Y-72975D01*
X78859Y-72912D01*
X78796Y-72849D01*
X78790Y-72847D01*
X78790Y-71603D01*
X77115Y-71603D01*
X77115Y-71934D01*
X76921Y-71895D01*
X76719Y-71935D01*
X76573Y-71935D01*
X76481Y-71973D01*
X76410Y-72044D01*
X76372Y-72135D01*
X76372Y-72223D01*
X76326Y-72293D01*
X76277Y-72539D01*
X76277Y-73565D01*
X76257Y-73516D01*
X76186Y-73446D01*
X76095Y-73407D01*
X75995Y-73407D01*
X75545Y-73407D01*
X75475Y-73436D01*
X74459Y-72420D01*
X74459Y-72067D01*
X77579Y-68947D01*
X79900Y-68947D01*
X80658Y-69705D01*
X80658Y-71928D01*
G54D10*
G36*
X95175Y-54674D02*
X95118Y-54674D01*
X95058Y-54649D01*
X94958Y-54649D01*
X94508Y-54649D01*
X94448Y-54674D01*
X94417Y-54674D01*
X94393Y-54650D01*
X94301Y-54612D01*
X94201Y-54612D01*
X93887Y-54612D01*
X93796Y-54650D01*
X93771Y-54674D01*
X92892Y-54674D01*
X92105Y-55461D01*
X86270Y-55461D01*
X86270Y-49262D01*
X88702Y-49262D01*
X88702Y-49766D01*
X88740Y-49858D01*
X88810Y-49929D01*
X88902Y-49967D01*
X88926Y-49967D01*
X88926Y-52018D01*
X95175Y-52018D01*
X95175Y-54674D01*
X95175Y-54674D01*
G37*
G54D49*
X95175Y-54674D02*
X95118Y-54674D01*
X95058Y-54649D01*
X94958Y-54649D01*
X94508Y-54649D01*
X94448Y-54674D01*
X94417Y-54674D01*
X94393Y-54650D01*
X94301Y-54612D01*
X94201Y-54612D01*
X93887Y-54612D01*
X93796Y-54650D01*
X93771Y-54674D01*
X92892Y-54674D01*
X92105Y-55461D01*
X86270Y-55461D01*
X86270Y-49262D01*
X88702Y-49262D01*
X88702Y-49766D01*
X88740Y-49858D01*
X88810Y-49929D01*
X88902Y-49967D01*
X88926Y-49967D01*
X88926Y-52018D01*
X95175Y-52018D01*
X95175Y-54674D01*
G54D10*
G36*
X95175Y-51524D02*
X89420Y-51524D01*
X89420Y-50443D01*
X90601Y-50443D01*
X90601Y-47325D01*
X92469Y-47325D01*
X92469Y-50050D01*
X94931Y-50050D01*
X94931Y-47325D01*
X95175Y-47325D01*
X95175Y-51524D01*
X95175Y-51524D01*
G37*
G54D49*
X95175Y-51524D02*
X89420Y-51524D01*
X89420Y-50443D01*
X90601Y-50443D01*
X90601Y-47325D01*
X92469Y-47325D01*
X92469Y-50050D01*
X94931Y-50050D01*
X94931Y-47325D01*
X95175Y-47325D01*
X95175Y-51524D01*
G54D10*
G36*
X90107Y-49950D02*
X89420Y-49950D01*
X89420Y-48768D01*
X83443Y-48768D01*
X81152Y-51060D01*
X81152Y-47981D01*
X76327Y-47981D01*
X76327Y-49556D01*
X70624Y-49556D01*
X70652Y-49490D01*
X70652Y-49391D01*
X70652Y-49141D01*
X70614Y-49049D01*
X70543Y-48978D01*
X70452Y-48940D01*
X70352Y-48940D01*
X69902Y-48940D01*
X69832Y-48969D01*
X69763Y-48940D01*
X69663Y-48940D01*
X69213Y-48940D01*
X69121Y-48978D01*
X69051Y-49048D01*
X69013Y-49140D01*
X69013Y-49170D01*
X68986Y-49159D01*
X68809Y-49159D01*
X68644Y-49227D01*
X68617Y-49255D01*
X68524Y-49162D01*
X62225Y-49162D01*
X62225Y-47325D01*
X90107Y-47325D01*
X90107Y-49950D01*
X90107Y-49950D01*
G37*
G54D49*
X90107Y-49950D02*
X89420Y-49950D01*
X89420Y-48768D01*
X83443Y-48768D01*
X81152Y-51060D01*
X81152Y-47981D01*
X76327Y-47981D01*
X76327Y-49556D01*
X70624Y-49556D01*
X70652Y-49490D01*
X70652Y-49391D01*
X70652Y-49141D01*
X70614Y-49049D01*
X70543Y-48978D01*
X70452Y-48940D01*
X70352Y-48940D01*
X69902Y-48940D01*
X69832Y-48969D01*
X69763Y-48940D01*
X69663Y-48940D01*
X69213Y-48940D01*
X69121Y-48978D01*
X69051Y-49048D01*
X69013Y-49140D01*
X69013Y-49170D01*
X68986Y-49159D01*
X68809Y-49159D01*
X68644Y-49227D01*
X68617Y-49255D01*
X68524Y-49162D01*
X62225Y-49162D01*
X62225Y-47325D01*
X90107Y-47325D01*
X90107Y-49950D01*
G54D10*
G36*
X74816Y-53499D02*
X72519Y-55796D01*
X72454Y-55893D01*
X72431Y-56008D01*
X72431Y-56683D01*
X72394Y-56719D01*
X72366Y-56786D01*
X72342Y-56786D01*
X72227Y-56809D01*
X72130Y-56874D01*
X71936Y-57067D01*
X71883Y-57045D01*
X71783Y-57045D01*
X71283Y-57045D01*
X71192Y-57083D01*
X71121Y-57153D01*
X71083Y-57245D01*
X71083Y-57345D01*
X71083Y-57545D01*
X71121Y-57637D01*
X71129Y-57645D01*
X71121Y-57653D01*
X71083Y-57745D01*
X71083Y-57845D01*
X71083Y-58045D01*
X71121Y-58137D01*
X71129Y-58145D01*
X71121Y-58153D01*
X71083Y-58245D01*
X71083Y-58345D01*
X71083Y-58545D01*
X71121Y-58637D01*
X71129Y-58645D01*
X71121Y-58653D01*
X71083Y-58745D01*
X71083Y-58845D01*
X71083Y-59045D01*
X71121Y-59137D01*
X71129Y-59145D01*
X71121Y-59153D01*
X71096Y-59214D01*
X70916Y-59034D01*
X70916Y-55990D01*
X71239Y-55990D01*
X71283Y-55971D01*
X71283Y-56045D01*
X71192Y-56083D01*
X71121Y-56153D01*
X71083Y-56245D01*
X71083Y-56345D01*
X71083Y-56545D01*
X71121Y-56637D01*
X71191Y-56707D01*
X71283Y-56745D01*
X71382Y-56745D01*
X71882Y-56745D01*
X71974Y-56707D01*
X72045Y-56637D01*
X72083Y-56545D01*
X72083Y-56446D01*
X72083Y-56246D01*
X72045Y-56154D01*
X71975Y-56083D01*
X71883Y-56045D01*
X71883Y-55835D01*
X71860Y-55720D01*
X71795Y-55623D01*
X71795Y-55623D01*
X71575Y-55402D01*
X71477Y-55337D01*
X71369Y-55316D01*
X71331Y-55278D01*
X71239Y-55240D01*
X71140Y-55239D01*
X70916Y-55239D01*
X70916Y-53887D01*
X68553Y-53887D01*
X68553Y-52018D01*
X69664Y-52018D01*
X70451Y-52805D01*
X74810Y-52805D01*
X74719Y-52896D01*
X74651Y-53060D01*
X74651Y-53238D01*
X74719Y-53402D01*
X74816Y-53499D01*
X74816Y-53499D01*
G37*
G54D49*
X74816Y-53499D02*
X72519Y-55796D01*
X72454Y-55893D01*
X72431Y-56008D01*
X72431Y-56683D01*
X72394Y-56719D01*
X72366Y-56786D01*
X72342Y-56786D01*
X72227Y-56809D01*
X72130Y-56874D01*
X71936Y-57067D01*
X71883Y-57045D01*
X71783Y-57045D01*
X71283Y-57045D01*
X71192Y-57083D01*
X71121Y-57153D01*
X71083Y-57245D01*
X71083Y-57345D01*
X71083Y-57545D01*
X71121Y-57637D01*
X71129Y-57645D01*
X71121Y-57653D01*
X71083Y-57745D01*
X71083Y-57845D01*
X71083Y-58045D01*
X71121Y-58137D01*
X71129Y-58145D01*
X71121Y-58153D01*
X71083Y-58245D01*
X71083Y-58345D01*
X71083Y-58545D01*
X71121Y-58637D01*
X71129Y-58645D01*
X71121Y-58653D01*
X71083Y-58745D01*
X71083Y-58845D01*
X71083Y-59045D01*
X71121Y-59137D01*
X71129Y-59145D01*
X71121Y-59153D01*
X71096Y-59214D01*
X70916Y-59034D01*
X70916Y-55990D01*
X71239Y-55990D01*
X71283Y-55971D01*
X71283Y-56045D01*
X71192Y-56083D01*
X71121Y-56153D01*
X71083Y-56245D01*
X71083Y-56345D01*
X71083Y-56545D01*
X71121Y-56637D01*
X71191Y-56707D01*
X71283Y-56745D01*
X71382Y-56745D01*
X71882Y-56745D01*
X71974Y-56707D01*
X72045Y-56637D01*
X72083Y-56545D01*
X72083Y-56446D01*
X72083Y-56246D01*
X72045Y-56154D01*
X71975Y-56083D01*
X71883Y-56045D01*
X71883Y-55835D01*
X71860Y-55720D01*
X71795Y-55623D01*
X71795Y-55623D01*
X71575Y-55402D01*
X71477Y-55337D01*
X71369Y-55316D01*
X71331Y-55278D01*
X71239Y-55240D01*
X71140Y-55239D01*
X70916Y-55239D01*
X70916Y-53887D01*
X68553Y-53887D01*
X68553Y-52018D01*
X69664Y-52018D01*
X70451Y-52805D01*
X74810Y-52805D01*
X74719Y-52896D01*
X74651Y-53060D01*
X74651Y-53238D01*
X74719Y-53402D01*
X74816Y-53499D01*
G54D10*
G36*
X94975Y-56814D02*
X94958Y-56814D01*
X94508Y-56814D01*
X94417Y-56852D01*
X94388Y-56880D01*
X94282Y-56836D01*
X94104Y-56836D01*
X93940Y-56904D01*
X93814Y-57030D01*
X93811Y-57036D01*
X93257Y-57036D01*
X93257Y-59792D01*
X89420Y-59792D01*
X89420Y-58611D01*
X83443Y-58611D01*
X81152Y-60902D01*
X81152Y-58640D01*
X80729Y-58217D01*
X77144Y-58217D01*
X73965Y-61396D01*
X73965Y-62084D01*
X73676Y-61794D01*
X73612Y-61641D01*
X73487Y-61515D01*
X73476Y-61511D01*
X73478Y-61506D01*
X73478Y-61452D01*
X73478Y-61452D01*
X73531Y-61372D01*
X73558Y-61239D01*
X73558Y-61183D01*
X73596Y-61145D01*
X73634Y-61053D01*
X73634Y-60953D01*
X73634Y-60403D01*
X73596Y-60311D01*
X73526Y-60241D01*
X73434Y-60203D01*
X73335Y-60203D01*
X73106Y-60203D01*
X73106Y-59764D01*
X73097Y-59744D01*
X73106Y-59723D01*
X73106Y-59624D01*
X73106Y-59174D01*
X73097Y-59153D01*
X73106Y-59133D01*
X73106Y-59033D01*
X73106Y-58583D01*
X73097Y-58563D01*
X73106Y-58542D01*
X73106Y-58443D01*
X73106Y-57993D01*
X73097Y-57972D01*
X73106Y-57952D01*
X73106Y-57852D01*
X73106Y-57402D01*
X73097Y-57381D01*
X73106Y-57361D01*
X73106Y-57262D01*
X73106Y-56812D01*
X73068Y-56720D01*
X73031Y-56683D01*
X73031Y-56132D01*
X75275Y-53888D01*
X75441Y-53888D01*
X75453Y-53900D01*
X75545Y-53938D01*
X75644Y-53938D01*
X75934Y-53938D01*
X75934Y-54238D01*
X75609Y-54238D01*
X75583Y-54221D01*
X75431Y-54190D01*
X75278Y-54221D01*
X75149Y-54307D01*
X75112Y-54345D01*
X75025Y-54474D01*
X74995Y-54626D01*
X74995Y-55557D01*
X74986Y-55580D01*
X74986Y-55679D01*
X74986Y-56033D01*
X75024Y-56125D01*
X75094Y-56195D01*
X75186Y-56234D01*
X75257Y-56234D01*
X75286Y-56262D01*
X75286Y-56791D01*
X75309Y-56904D01*
X75309Y-57065D01*
X75347Y-57157D01*
X75417Y-57228D01*
X75509Y-57266D01*
X75608Y-57266D01*
X75858Y-57266D01*
X75950Y-57228D01*
X75984Y-57194D01*
X76017Y-57228D01*
X76109Y-57266D01*
X76196Y-57266D01*
X76359Y-57428D01*
X76488Y-57515D01*
X76640Y-57545D01*
X79560Y-57545D01*
X79712Y-57515D01*
X79738Y-57497D01*
X79834Y-57497D01*
X79926Y-57459D01*
X79997Y-57389D01*
X80035Y-57297D01*
X80035Y-57198D01*
X80035Y-56998D01*
X79997Y-56906D01*
X79927Y-56835D01*
X79835Y-56797D01*
X79738Y-56797D01*
X79712Y-56780D01*
X79560Y-56750D01*
X76805Y-56750D01*
X76681Y-56626D01*
X76681Y-56349D01*
X79183Y-56349D01*
X79183Y-54774D01*
X79912Y-54774D01*
X79912Y-54822D01*
X79935Y-54936D01*
X79935Y-55097D01*
X79973Y-55189D01*
X80043Y-55259D01*
X80135Y-55297D01*
X80234Y-55297D01*
X80484Y-55297D01*
X80576Y-55259D01*
X80610Y-55226D01*
X80643Y-55259D01*
X80658Y-55265D01*
X80658Y-57924D01*
X82697Y-57924D01*
X83514Y-57107D01*
X83514Y-55955D01*
X92540Y-55955D01*
X93327Y-55168D01*
X93687Y-55168D01*
X93687Y-55210D01*
X93657Y-55240D01*
X93619Y-55332D01*
X93619Y-55431D01*
X93619Y-55681D01*
X93657Y-55773D01*
X93727Y-55843D01*
X93819Y-55882D01*
X93918Y-55882D01*
X94368Y-55882D01*
X94439Y-55853D01*
X94508Y-55882D01*
X94607Y-55882D01*
X94975Y-55882D01*
X94975Y-56814D01*
X94975Y-56814D01*
G37*
G54D49*
X94975Y-56814D02*
X94958Y-56814D01*
X94508Y-56814D01*
X94417Y-56852D01*
X94388Y-56880D01*
X94282Y-56836D01*
X94104Y-56836D01*
X93940Y-56904D01*
X93814Y-57030D01*
X93811Y-57036D01*
X93257Y-57036D01*
X93257Y-59792D01*
X89420Y-59792D01*
X89420Y-58611D01*
X83443Y-58611D01*
X81152Y-60902D01*
X81152Y-58640D01*
X80729Y-58217D01*
X77144Y-58217D01*
X73965Y-61396D01*
X73965Y-62084D01*
X73676Y-61794D01*
X73612Y-61641D01*
X73487Y-61515D01*
X73476Y-61511D01*
X73478Y-61506D01*
X73478Y-61452D01*
X73478Y-61452D01*
X73531Y-61372D01*
X73558Y-61239D01*
X73558Y-61183D01*
X73596Y-61145D01*
X73634Y-61053D01*
X73634Y-60953D01*
X73634Y-60403D01*
X73596Y-60311D01*
X73526Y-60241D01*
X73434Y-60203D01*
X73335Y-60203D01*
X73106Y-60203D01*
X73106Y-59764D01*
X73097Y-59744D01*
X73106Y-59723D01*
X73106Y-59624D01*
X73106Y-59174D01*
X73097Y-59153D01*
X73106Y-59133D01*
X73106Y-59033D01*
X73106Y-58583D01*
X73097Y-58563D01*
X73106Y-58542D01*
X73106Y-58443D01*
X73106Y-57993D01*
X73097Y-57972D01*
X73106Y-57952D01*
X73106Y-57852D01*
X73106Y-57402D01*
X73097Y-57381D01*
X73106Y-57361D01*
X73106Y-57262D01*
X73106Y-56812D01*
X73068Y-56720D01*
X73031Y-56683D01*
X73031Y-56132D01*
X75275Y-53888D01*
X75441Y-53888D01*
X75453Y-53900D01*
X75545Y-53938D01*
X75644Y-53938D01*
X75934Y-53938D01*
X75934Y-54238D01*
X75609Y-54238D01*
X75583Y-54221D01*
X75431Y-54190D01*
X75278Y-54221D01*
X75149Y-54307D01*
X75112Y-54345D01*
X75025Y-54474D01*
X74995Y-54626D01*
X74995Y-55557D01*
X74986Y-55580D01*
X74986Y-55679D01*
X74986Y-56033D01*
X75024Y-56125D01*
X75094Y-56195D01*
X75186Y-56234D01*
X75257Y-56234D01*
X75286Y-56262D01*
X75286Y-56791D01*
X75309Y-56904D01*
X75309Y-57065D01*
X75347Y-57157D01*
X75417Y-57228D01*
X75509Y-57266D01*
X75608Y-57266D01*
X75858Y-57266D01*
X75950Y-57228D01*
X75984Y-57194D01*
X76017Y-57228D01*
X76109Y-57266D01*
X76196Y-57266D01*
X76359Y-57428D01*
X76488Y-57515D01*
X76640Y-57545D01*
X79560Y-57545D01*
X79712Y-57515D01*
X79738Y-57497D01*
X79834Y-57497D01*
X79926Y-57459D01*
X79997Y-57389D01*
X80035Y-57297D01*
X80035Y-57198D01*
X80035Y-56998D01*
X79997Y-56906D01*
X79927Y-56835D01*
X79835Y-56797D01*
X79738Y-56797D01*
X79712Y-56780D01*
X79560Y-56750D01*
X76805Y-56750D01*
X76681Y-56626D01*
X76681Y-56349D01*
X79183Y-56349D01*
X79183Y-54774D01*
X79912Y-54774D01*
X79912Y-54822D01*
X79935Y-54936D01*
X79935Y-55097D01*
X79973Y-55189D01*
X80043Y-55259D01*
X80135Y-55297D01*
X80234Y-55297D01*
X80484Y-55297D01*
X80576Y-55259D01*
X80610Y-55226D01*
X80643Y-55259D01*
X80658Y-55265D01*
X80658Y-57924D01*
X82697Y-57924D01*
X83514Y-57107D01*
X83514Y-55955D01*
X92540Y-55955D01*
X93327Y-55168D01*
X93687Y-55168D01*
X93687Y-55210D01*
X93657Y-55240D01*
X93619Y-55332D01*
X93619Y-55431D01*
X93619Y-55681D01*
X93657Y-55773D01*
X93727Y-55843D01*
X93819Y-55882D01*
X93918Y-55882D01*
X94368Y-55882D01*
X94439Y-55853D01*
X94508Y-55882D01*
X94607Y-55882D01*
X94975Y-55882D01*
X94975Y-56814D01*
G54D10*
G36*
X94975Y-66558D02*
X94958Y-66558D01*
X94508Y-66558D01*
X94417Y-66596D01*
X94378Y-66635D01*
X94378Y-66635D01*
X94270Y-66656D01*
X94236Y-66679D01*
X94236Y-66679D01*
X94104Y-66679D01*
X93940Y-66746D01*
X93814Y-66872D01*
X93811Y-66879D01*
X93257Y-66879D01*
X93257Y-69635D01*
X89420Y-69635D01*
X89420Y-68453D01*
X83443Y-68453D01*
X81152Y-70745D01*
X81152Y-69270D01*
X80335Y-68453D01*
X77144Y-68453D01*
X74459Y-71139D01*
X74459Y-63663D01*
X74931Y-64135D01*
X74931Y-64135D01*
X75028Y-64200D01*
X75143Y-64223D01*
X75143Y-64223D01*
X75441Y-64223D01*
X75453Y-64235D01*
X75545Y-64273D01*
X75619Y-64273D01*
X75919Y-64573D01*
X75707Y-64573D01*
X75681Y-64555D01*
X75529Y-64525D01*
X75377Y-64555D01*
X75248Y-64642D01*
X75112Y-64778D01*
X75025Y-64907D01*
X74995Y-65059D01*
X74995Y-65892D01*
X74986Y-65914D01*
X74986Y-66014D01*
X74986Y-66368D01*
X75024Y-66460D01*
X75094Y-66530D01*
X75186Y-66568D01*
X75257Y-66568D01*
X75286Y-66597D01*
X75286Y-67125D01*
X75309Y-67239D01*
X75309Y-67400D01*
X75347Y-67492D01*
X75417Y-67562D01*
X75509Y-67600D01*
X75608Y-67601D01*
X75858Y-67601D01*
X75950Y-67563D01*
X75984Y-67529D01*
X76017Y-67562D01*
X76109Y-67600D01*
X76196Y-67601D01*
X76359Y-67763D01*
X76488Y-67849D01*
X76640Y-67879D01*
X79560Y-67879D01*
X79712Y-67849D01*
X79738Y-67832D01*
X79834Y-67832D01*
X79926Y-67794D01*
X79997Y-67724D01*
X80035Y-67632D01*
X80035Y-67532D01*
X80035Y-67332D01*
X79997Y-67240D01*
X79927Y-67170D01*
X79835Y-67132D01*
X79738Y-67132D01*
X79712Y-67114D01*
X79560Y-67084D01*
X76805Y-67084D01*
X76681Y-66961D01*
X76681Y-66636D01*
X76732Y-66585D01*
X79183Y-66585D01*
X79183Y-65010D01*
X79912Y-65010D01*
X79912Y-65157D01*
X79935Y-65271D01*
X79935Y-65431D01*
X79973Y-65523D01*
X80043Y-65594D01*
X80135Y-65632D01*
X80234Y-65632D01*
X80484Y-65632D01*
X80576Y-65594D01*
X80610Y-65561D01*
X80643Y-65594D01*
X80658Y-65600D01*
X80658Y-68160D01*
X82697Y-68160D01*
X83514Y-67343D01*
X83514Y-65798D01*
X92540Y-65798D01*
X93327Y-65010D01*
X93745Y-65010D01*
X93717Y-65076D01*
X93717Y-65175D01*
X93717Y-65425D01*
X93755Y-65517D01*
X93826Y-65587D01*
X93917Y-65626D01*
X94017Y-65626D01*
X94467Y-65626D01*
X94488Y-65617D01*
X94508Y-65626D01*
X94607Y-65626D01*
X94975Y-65626D01*
X94975Y-66558D01*
X94975Y-66558D01*
G37*
G54D49*
X94975Y-66558D02*
X94958Y-66558D01*
X94508Y-66558D01*
X94417Y-66596D01*
X94378Y-66635D01*
X94378Y-66635D01*
X94270Y-66656D01*
X94236Y-66679D01*
X94236Y-66679D01*
X94104Y-66679D01*
X93940Y-66746D01*
X93814Y-66872D01*
X93811Y-66879D01*
X93257Y-66879D01*
X93257Y-69635D01*
X89420Y-69635D01*
X89420Y-68453D01*
X83443Y-68453D01*
X81152Y-70745D01*
X81152Y-69270D01*
X80335Y-68453D01*
X77144Y-68453D01*
X74459Y-71139D01*
X74459Y-63663D01*
X74931Y-64135D01*
X74931Y-64135D01*
X75028Y-64200D01*
X75143Y-64223D01*
X75143Y-64223D01*
X75441Y-64223D01*
X75453Y-64235D01*
X75545Y-64273D01*
X75619Y-64273D01*
X75919Y-64573D01*
X75707Y-64573D01*
X75681Y-64555D01*
X75529Y-64525D01*
X75377Y-64555D01*
X75248Y-64642D01*
X75112Y-64778D01*
X75025Y-64907D01*
X74995Y-65059D01*
X74995Y-65892D01*
X74986Y-65914D01*
X74986Y-66014D01*
X74986Y-66368D01*
X75024Y-66460D01*
X75094Y-66530D01*
X75186Y-66568D01*
X75257Y-66568D01*
X75286Y-66597D01*
X75286Y-67125D01*
X75309Y-67239D01*
X75309Y-67400D01*
X75347Y-67492D01*
X75417Y-67562D01*
X75509Y-67600D01*
X75608Y-67601D01*
X75858Y-67601D01*
X75950Y-67563D01*
X75984Y-67529D01*
X76017Y-67562D01*
X76109Y-67600D01*
X76196Y-67601D01*
X76359Y-67763D01*
X76488Y-67849D01*
X76640Y-67879D01*
X79560Y-67879D01*
X79712Y-67849D01*
X79738Y-67832D01*
X79834Y-67832D01*
X79926Y-67794D01*
X79997Y-67724D01*
X80035Y-67632D01*
X80035Y-67532D01*
X80035Y-67332D01*
X79997Y-67240D01*
X79927Y-67170D01*
X79835Y-67132D01*
X79738Y-67132D01*
X79712Y-67114D01*
X79560Y-67084D01*
X76805Y-67084D01*
X76681Y-66961D01*
X76681Y-66636D01*
X76732Y-66585D01*
X79183Y-66585D01*
X79183Y-65010D01*
X79912Y-65010D01*
X79912Y-65157D01*
X79935Y-65271D01*
X79935Y-65431D01*
X79973Y-65523D01*
X80043Y-65594D01*
X80135Y-65632D01*
X80234Y-65632D01*
X80484Y-65632D01*
X80576Y-65594D01*
X80610Y-65561D01*
X80643Y-65594D01*
X80658Y-65600D01*
X80658Y-68160D01*
X82697Y-68160D01*
X83514Y-67343D01*
X83514Y-65798D01*
X92540Y-65798D01*
X93327Y-65010D01*
X93745Y-65010D01*
X93717Y-65076D01*
X93717Y-65175D01*
X93717Y-65425D01*
X93755Y-65517D01*
X93826Y-65587D01*
X93917Y-65626D01*
X94017Y-65626D01*
X94467Y-65626D01*
X94488Y-65617D01*
X94508Y-65626D01*
X94607Y-65626D01*
X94975Y-65626D01*
X94975Y-66558D01*
G54D10*
G36*
X95175Y-79175D02*
X94500Y-79175D01*
X94500Y-77687D01*
X94372Y-77378D01*
X94136Y-77141D01*
X93827Y-77013D01*
X93493Y-77013D01*
X93184Y-77141D01*
X92947Y-77377D01*
X92819Y-77686D01*
X92819Y-78020D01*
X92947Y-78329D01*
X93183Y-78566D01*
X93492Y-78694D01*
X93826Y-78694D01*
X94135Y-78566D01*
X94372Y-78330D01*
X94500Y-78021D01*
X94500Y-77687D01*
X94500Y-79175D01*
X74459Y-79175D01*
X74459Y-76835D01*
X74531Y-76806D01*
X74601Y-76735D01*
X74639Y-76643D01*
X74639Y-76544D01*
X74639Y-74537D01*
X74601Y-74445D01*
X74531Y-74375D01*
X74459Y-74345D01*
X74459Y-73349D01*
X74678Y-73567D01*
X74651Y-73631D01*
X74651Y-73808D01*
X74716Y-73966D01*
X74651Y-74123D01*
X74651Y-74301D01*
X74719Y-74465D01*
X74844Y-74591D01*
X75009Y-74659D01*
X75186Y-74659D01*
X75351Y-74591D01*
X75385Y-74557D01*
X75441Y-74557D01*
X75453Y-74569D01*
X75545Y-74607D01*
X75644Y-74607D01*
X75718Y-74607D01*
X75934Y-74823D01*
X75934Y-74907D01*
X75609Y-74907D01*
X75583Y-74890D01*
X75431Y-74860D01*
X75278Y-74890D01*
X75149Y-74976D01*
X75112Y-75014D01*
X75025Y-75143D01*
X74995Y-75295D01*
X74995Y-76226D01*
X74986Y-76249D01*
X74986Y-76348D01*
X74986Y-76702D01*
X75024Y-76794D01*
X75094Y-76865D01*
X75186Y-76903D01*
X75257Y-76903D01*
X75286Y-76932D01*
X75286Y-77460D01*
X75309Y-77574D01*
X75309Y-77735D01*
X75347Y-77827D01*
X75417Y-77897D01*
X75509Y-77935D01*
X75608Y-77935D01*
X75858Y-77935D01*
X75950Y-77897D01*
X75984Y-77864D01*
X76017Y-77897D01*
X76109Y-77935D01*
X76196Y-77935D01*
X76359Y-78098D01*
X76488Y-78184D01*
X76640Y-78214D01*
X79560Y-78214D01*
X79712Y-78184D01*
X79738Y-78166D01*
X79834Y-78166D01*
X79926Y-78128D01*
X79997Y-78058D01*
X80035Y-77966D01*
X80035Y-77867D01*
X80035Y-77667D01*
X79997Y-77575D01*
X79927Y-77505D01*
X79835Y-77466D01*
X79738Y-77466D01*
X79712Y-77449D01*
X79560Y-77419D01*
X76805Y-77419D01*
X76681Y-77295D01*
X76681Y-76971D01*
X76788Y-76864D01*
X76859Y-76864D01*
X76951Y-76826D01*
X76956Y-76821D01*
X79183Y-76821D01*
X79183Y-75246D01*
X79912Y-75246D01*
X79912Y-75492D01*
X79935Y-75605D01*
X79935Y-75766D01*
X79973Y-75858D01*
X80043Y-75928D01*
X80135Y-75967D01*
X80234Y-75967D01*
X80484Y-75967D01*
X80576Y-75929D01*
X80610Y-75895D01*
X80643Y-75928D01*
X80658Y-75935D01*
X80658Y-78790D01*
X83514Y-78790D01*
X83514Y-75640D01*
X92540Y-75640D01*
X93327Y-74853D01*
X93619Y-74853D01*
X93619Y-74919D01*
X93619Y-75169D01*
X93657Y-75261D01*
X93727Y-75332D01*
X93819Y-75370D01*
X93918Y-75370D01*
X94368Y-75370D01*
X94439Y-75341D01*
X94508Y-75370D01*
X94607Y-75370D01*
X94975Y-75370D01*
X94975Y-76302D01*
X94958Y-76302D01*
X94508Y-76302D01*
X94417Y-76340D01*
X94379Y-76377D01*
X93557Y-76377D01*
X93557Y-76289D01*
X93489Y-76125D01*
X93363Y-75999D01*
X93199Y-75931D01*
X93021Y-75931D01*
X92857Y-75998D01*
X92731Y-76124D01*
X92663Y-76288D01*
X92663Y-76466D01*
X92731Y-76630D01*
X92856Y-76756D01*
X93020Y-76824D01*
X93132Y-76824D01*
X93198Y-76890D01*
X93198Y-76890D01*
X93295Y-76955D01*
X93410Y-76977D01*
X93410Y-76977D01*
X94379Y-76977D01*
X94416Y-77014D01*
X94508Y-77052D01*
X94607Y-77052D01*
X95057Y-77052D01*
X95149Y-77015D01*
X95175Y-76989D01*
X95175Y-79175D01*
X95175Y-79175D01*
G37*
G54D49*
X95175Y-79175D02*
X94500Y-79175D01*
X94500Y-77687D01*
X94372Y-77378D01*
X94136Y-77141D01*
X93827Y-77013D01*
X93493Y-77013D01*
X93184Y-77141D01*
X92947Y-77377D01*
X92819Y-77686D01*
X92819Y-78020D01*
X92947Y-78329D01*
X93183Y-78566D01*
X93492Y-78694D01*
X93826Y-78694D01*
X94135Y-78566D01*
X94372Y-78330D01*
X94500Y-78021D01*
X94500Y-77687D01*
X94500Y-79175D01*
X74459Y-79175D01*
X74459Y-76835D01*
X74531Y-76806D01*
X74601Y-76735D01*
X74639Y-76643D01*
X74639Y-76544D01*
X74639Y-74537D01*
X74601Y-74445D01*
X74531Y-74375D01*
X74459Y-74345D01*
X74459Y-73349D01*
X74678Y-73567D01*
X74651Y-73631D01*
X74651Y-73808D01*
X74716Y-73966D01*
X74651Y-74123D01*
X74651Y-74301D01*
X74719Y-74465D01*
X74844Y-74591D01*
X75009Y-74659D01*
X75186Y-74659D01*
X75351Y-74591D01*
X75385Y-74557D01*
X75441Y-74557D01*
X75453Y-74569D01*
X75545Y-74607D01*
X75644Y-74607D01*
X75718Y-74607D01*
X75934Y-74823D01*
X75934Y-74907D01*
X75609Y-74907D01*
X75583Y-74890D01*
X75431Y-74860D01*
X75278Y-74890D01*
X75149Y-74976D01*
X75112Y-75014D01*
X75025Y-75143D01*
X74995Y-75295D01*
X74995Y-76226D01*
X74986Y-76249D01*
X74986Y-76348D01*
X74986Y-76702D01*
X75024Y-76794D01*
X75094Y-76865D01*
X75186Y-76903D01*
X75257Y-76903D01*
X75286Y-76932D01*
X75286Y-77460D01*
X75309Y-77574D01*
X75309Y-77735D01*
X75347Y-77827D01*
X75417Y-77897D01*
X75509Y-77935D01*
X75608Y-77935D01*
X75858Y-77935D01*
X75950Y-77897D01*
X75984Y-77864D01*
X76017Y-77897D01*
X76109Y-77935D01*
X76196Y-77935D01*
X76359Y-78098D01*
X76488Y-78184D01*
X76640Y-78214D01*
X79560Y-78214D01*
X79712Y-78184D01*
X79738Y-78166D01*
X79834Y-78166D01*
X79926Y-78128D01*
X79997Y-78058D01*
X80035Y-77966D01*
X80035Y-77867D01*
X80035Y-77667D01*
X79997Y-77575D01*
X79927Y-77505D01*
X79835Y-77466D01*
X79738Y-77466D01*
X79712Y-77449D01*
X79560Y-77419D01*
X76805Y-77419D01*
X76681Y-77295D01*
X76681Y-76971D01*
X76788Y-76864D01*
X76859Y-76864D01*
X76951Y-76826D01*
X76956Y-76821D01*
X79183Y-76821D01*
X79183Y-75246D01*
X79912Y-75246D01*
X79912Y-75492D01*
X79935Y-75605D01*
X79935Y-75766D01*
X79973Y-75858D01*
X80043Y-75928D01*
X80135Y-75967D01*
X80234Y-75967D01*
X80484Y-75967D01*
X80576Y-75929D01*
X80610Y-75895D01*
X80643Y-75928D01*
X80658Y-75935D01*
X80658Y-78790D01*
X83514Y-78790D01*
X83514Y-75640D01*
X92540Y-75640D01*
X93327Y-74853D01*
X93619Y-74853D01*
X93619Y-74919D01*
X93619Y-75169D01*
X93657Y-75261D01*
X93727Y-75332D01*
X93819Y-75370D01*
X93918Y-75370D01*
X94368Y-75370D01*
X94439Y-75341D01*
X94508Y-75370D01*
X94607Y-75370D01*
X94975Y-75370D01*
X94975Y-76302D01*
X94958Y-76302D01*
X94508Y-76302D01*
X94417Y-76340D01*
X94379Y-76377D01*
X93557Y-76377D01*
X93557Y-76289D01*
X93489Y-76125D01*
X93363Y-75999D01*
X93199Y-75931D01*
X93021Y-75931D01*
X92857Y-75998D01*
X92731Y-76124D01*
X92663Y-76288D01*
X92663Y-76466D01*
X92731Y-76630D01*
X92856Y-76756D01*
X93020Y-76824D01*
X93132Y-76824D01*
X93198Y-76890D01*
X93198Y-76890D01*
X93295Y-76955D01*
X93410Y-76977D01*
X93410Y-76977D01*
X94379Y-76977D01*
X94416Y-77014D01*
X94508Y-77052D01*
X94607Y-77052D01*
X95057Y-77052D01*
X95149Y-77015D01*
X95175Y-76989D01*
X95175Y-79175D01*
G54D10*
G36*
X78296Y-63544D02*
X78239Y-63555D01*
X78211Y-63574D01*
X78198Y-63574D01*
X78195Y-63573D01*
X78095Y-63573D01*
X77645Y-63573D01*
X77609Y-63588D01*
X77609Y-62679D01*
X77827Y-62679D01*
X77919Y-62641D01*
X77989Y-62571D01*
X78027Y-62479D01*
X78027Y-62380D01*
X78027Y-61930D01*
X77999Y-61861D01*
X78296Y-61861D01*
X78296Y-63544D01*
X78296Y-63544D01*
G37*
G54D49*
X78296Y-63544D02*
X78239Y-63555D01*
X78211Y-63574D01*
X78198Y-63574D01*
X78195Y-63573D01*
X78095Y-63573D01*
X77645Y-63573D01*
X77609Y-63588D01*
X77609Y-62679D01*
X77827Y-62679D01*
X77919Y-62641D01*
X77989Y-62571D01*
X78027Y-62479D01*
X78027Y-62380D01*
X78027Y-61930D01*
X77999Y-61861D01*
X78296Y-61861D01*
X78296Y-63544D01*
G54D10*
G36*
X85776Y-65304D02*
X83020Y-65304D01*
X83020Y-66908D01*
X82262Y-67666D01*
X81152Y-67666D01*
X81152Y-65604D01*
X81176Y-65594D01*
X81247Y-65524D01*
X81285Y-65432D01*
X81285Y-65332D01*
X81285Y-65271D01*
X81307Y-65157D01*
X81307Y-64766D01*
X81414Y-64659D01*
X81485Y-64659D01*
X81577Y-64621D01*
X81648Y-64551D01*
X81686Y-64459D01*
X81686Y-64360D01*
X81686Y-64006D01*
X81648Y-63914D01*
X81578Y-63843D01*
X81486Y-63805D01*
X81414Y-63805D01*
X81303Y-63694D01*
X81303Y-62196D01*
X81381Y-62196D01*
X81385Y-62198D01*
X81484Y-62198D01*
X81934Y-62198D01*
X82026Y-62160D01*
X82097Y-62090D01*
X82135Y-61998D01*
X82135Y-61898D01*
X82135Y-61698D01*
X82097Y-61606D01*
X82027Y-61536D01*
X81935Y-61498D01*
X81835Y-61498D01*
X81485Y-61498D01*
X83878Y-59105D01*
X85776Y-59105D01*
X85776Y-65304D01*
X85776Y-65304D01*
G37*
G54D49*
X85776Y-65304D02*
X83020Y-65304D01*
X83020Y-66908D01*
X82262Y-67666D01*
X81152Y-67666D01*
X81152Y-65604D01*
X81176Y-65594D01*
X81247Y-65524D01*
X81285Y-65432D01*
X81285Y-65332D01*
X81285Y-65271D01*
X81307Y-65157D01*
X81307Y-64766D01*
X81414Y-64659D01*
X81485Y-64659D01*
X81577Y-64621D01*
X81648Y-64551D01*
X81686Y-64459D01*
X81686Y-64360D01*
X81686Y-64006D01*
X81648Y-63914D01*
X81578Y-63843D01*
X81486Y-63805D01*
X81414Y-63805D01*
X81303Y-63694D01*
X81303Y-62196D01*
X81381Y-62196D01*
X81385Y-62198D01*
X81484Y-62198D01*
X81934Y-62198D01*
X82026Y-62160D01*
X82097Y-62090D01*
X82135Y-61998D01*
X82135Y-61898D01*
X82135Y-61698D01*
X82097Y-61606D01*
X82027Y-61536D01*
X81935Y-61498D01*
X81835Y-61498D01*
X81485Y-61498D01*
X83878Y-59105D01*
X85776Y-59105D01*
X85776Y-65304D01*
G54D10*
G36*
X66091Y-53522D02*
X66016Y-53597D01*
X66016Y-53531D01*
X66048Y-53454D01*
X66048Y-53355D01*
X66048Y-52648D01*
X66010Y-52556D01*
X65940Y-52485D01*
X65848Y-52447D01*
X65749Y-52447D01*
X65210Y-52447D01*
X65210Y-51958D01*
X65172Y-51866D01*
X65102Y-51796D01*
X65010Y-51757D01*
X64911Y-51757D01*
X64123Y-51757D01*
X64031Y-51795D01*
X63961Y-51866D01*
X63923Y-51957D01*
X63923Y-52057D01*
X63923Y-54143D01*
X63961Y-54235D01*
X64031Y-54306D01*
X64123Y-54344D01*
X64222Y-54344D01*
X65010Y-54344D01*
X65102Y-54306D01*
X65172Y-54236D01*
X65210Y-54144D01*
X65210Y-54044D01*
X65210Y-53654D01*
X65251Y-53654D01*
X65319Y-53654D01*
X65319Y-53785D01*
X65318Y-53787D01*
X65280Y-53879D01*
X65280Y-53978D01*
X65280Y-54212D01*
X65046Y-54446D01*
X64889Y-54446D01*
X64797Y-54484D01*
X64763Y-54517D01*
X64730Y-54484D01*
X64638Y-54446D01*
X64539Y-54446D01*
X64289Y-54446D01*
X64197Y-54484D01*
X64186Y-54495D01*
X64183Y-54494D01*
X64084Y-54494D01*
X63770Y-54494D01*
X63678Y-54532D01*
X63608Y-54602D01*
X63569Y-54694D01*
X63569Y-54793D01*
X63569Y-55147D01*
X63607Y-55239D01*
X63678Y-55310D01*
X63769Y-55348D01*
X63869Y-55348D01*
X64171Y-55348D01*
X64171Y-55348D01*
X64186Y-55425D01*
X64251Y-55522D01*
X64354Y-55625D01*
X64354Y-55625D01*
X64418Y-55668D01*
X64393Y-55728D01*
X64393Y-55828D01*
X64393Y-56278D01*
X64431Y-56370D01*
X64477Y-56416D01*
X64465Y-56422D01*
X64394Y-56492D01*
X64356Y-56584D01*
X64356Y-56683D01*
X64356Y-56997D01*
X64394Y-57089D01*
X64464Y-57160D01*
X64516Y-57181D01*
X64516Y-57430D01*
X64223Y-57430D01*
X64223Y-56249D01*
X62225Y-56249D01*
X62225Y-51624D01*
X66091Y-51624D01*
X66091Y-53522D01*
X66091Y-53522D01*
G37*
G54D49*
X66091Y-53522D02*
X66016Y-53597D01*
X66016Y-53531D01*
X66048Y-53454D01*
X66048Y-53355D01*
X66048Y-52648D01*
X66010Y-52556D01*
X65940Y-52485D01*
X65848Y-52447D01*
X65749Y-52447D01*
X65210Y-52447D01*
X65210Y-51958D01*
X65172Y-51866D01*
X65102Y-51796D01*
X65010Y-51757D01*
X64911Y-51757D01*
X64123Y-51757D01*
X64031Y-51795D01*
X63961Y-51866D01*
X63923Y-51957D01*
X63923Y-52057D01*
X63923Y-54143D01*
X63961Y-54235D01*
X64031Y-54306D01*
X64123Y-54344D01*
X64222Y-54344D01*
X65010Y-54344D01*
X65102Y-54306D01*
X65172Y-54236D01*
X65210Y-54144D01*
X65210Y-54044D01*
X65210Y-53654D01*
X65251Y-53654D01*
X65319Y-53654D01*
X65319Y-53785D01*
X65318Y-53787D01*
X65280Y-53879D01*
X65280Y-53978D01*
X65280Y-54212D01*
X65046Y-54446D01*
X64889Y-54446D01*
X64797Y-54484D01*
X64763Y-54517D01*
X64730Y-54484D01*
X64638Y-54446D01*
X64539Y-54446D01*
X64289Y-54446D01*
X64197Y-54484D01*
X64186Y-54495D01*
X64183Y-54494D01*
X64084Y-54494D01*
X63770Y-54494D01*
X63678Y-54532D01*
X63608Y-54602D01*
X63569Y-54694D01*
X63569Y-54793D01*
X63569Y-55147D01*
X63607Y-55239D01*
X63678Y-55310D01*
X63769Y-55348D01*
X63869Y-55348D01*
X64171Y-55348D01*
X64171Y-55348D01*
X64186Y-55425D01*
X64251Y-55522D01*
X64354Y-55625D01*
X64354Y-55625D01*
X64418Y-55668D01*
X64393Y-55728D01*
X64393Y-55828D01*
X64393Y-56278D01*
X64431Y-56370D01*
X64477Y-56416D01*
X64465Y-56422D01*
X64394Y-56492D01*
X64356Y-56584D01*
X64356Y-56683D01*
X64356Y-56997D01*
X64394Y-57089D01*
X64464Y-57160D01*
X64516Y-57181D01*
X64516Y-57430D01*
X64223Y-57430D01*
X64223Y-56249D01*
X62225Y-56249D01*
X62225Y-51624D01*
X66091Y-51624D01*
X66091Y-53522D01*
G54D10*
G36*
X66485Y-71209D02*
X65098Y-71209D01*
X65038Y-71184D01*
X64939Y-71184D01*
X64489Y-71184D01*
X64428Y-71209D01*
X64223Y-71209D01*
X64223Y-69862D01*
X64691Y-69394D01*
X64977Y-69394D01*
X64977Y-69408D01*
X64935Y-69450D01*
X64897Y-69541D01*
X64897Y-69641D01*
X64897Y-70441D01*
X64935Y-70533D01*
X65005Y-70603D01*
X65097Y-70641D01*
X65197Y-70641D01*
X65457Y-70641D01*
X65527Y-70612D01*
X65597Y-70641D01*
X65697Y-70641D01*
X65957Y-70641D01*
X66027Y-70612D01*
X66097Y-70641D01*
X66197Y-70641D01*
X66457Y-70641D01*
X66485Y-70630D01*
X66485Y-71209D01*
X66485Y-71209D01*
G37*
G54D49*
X66485Y-71209D02*
X65098Y-71209D01*
X65038Y-71184D01*
X64939Y-71184D01*
X64489Y-71184D01*
X64428Y-71209D01*
X64223Y-71209D01*
X64223Y-69862D01*
X64691Y-69394D01*
X64977Y-69394D01*
X64977Y-69408D01*
X64935Y-69450D01*
X64897Y-69541D01*
X64897Y-69641D01*
X64897Y-70441D01*
X64935Y-70533D01*
X65005Y-70603D01*
X65097Y-70641D01*
X65197Y-70641D01*
X65457Y-70641D01*
X65527Y-70612D01*
X65597Y-70641D01*
X65697Y-70641D01*
X65957Y-70641D01*
X66027Y-70612D01*
X66097Y-70641D01*
X66197Y-70641D01*
X66457Y-70641D01*
X66485Y-70630D01*
X66485Y-71209D01*
G54D10*
G36*
X68680Y-66681D02*
X67108Y-68253D01*
X67037Y-68253D01*
X66873Y-68321D01*
X66747Y-68447D01*
X66679Y-68611D01*
X66679Y-68683D01*
X66485Y-68876D01*
X66485Y-68917D01*
X66077Y-69324D01*
X66077Y-68730D01*
X66054Y-68615D01*
X65989Y-68518D01*
X65989Y-68518D01*
X65339Y-67868D01*
X65242Y-67803D01*
X65127Y-67780D01*
X64223Y-67780D01*
X64223Y-66949D01*
X64522Y-66650D01*
X64597Y-66681D01*
X64697Y-66681D01*
X64957Y-66681D01*
X65027Y-66652D01*
X65097Y-66681D01*
X65197Y-66681D01*
X65457Y-66681D01*
X65527Y-66652D01*
X65597Y-66681D01*
X65697Y-66681D01*
X65957Y-66681D01*
X66048Y-66643D01*
X66119Y-66573D01*
X66157Y-66481D01*
X66157Y-66382D01*
X66157Y-65582D01*
X66119Y-65490D01*
X66077Y-65448D01*
X66255Y-65271D01*
X66320Y-65173D01*
X66343Y-65059D01*
X66343Y-65059D01*
X66343Y-64838D01*
X66359Y-64838D01*
X66809Y-64838D01*
X66901Y-64800D01*
X66972Y-64730D01*
X66978Y-64715D01*
X66998Y-64715D01*
X67548Y-64715D01*
X67640Y-64677D01*
X67711Y-64607D01*
X67749Y-64515D01*
X67749Y-64415D01*
X67749Y-64335D01*
X68477Y-65063D01*
X68477Y-65390D01*
X68457Y-65381D01*
X68358Y-65381D01*
X68098Y-65381D01*
X68027Y-65410D01*
X67957Y-65381D01*
X67858Y-65381D01*
X67598Y-65381D01*
X67527Y-65410D01*
X67457Y-65381D01*
X67358Y-65381D01*
X67098Y-65381D01*
X67027Y-65410D01*
X66957Y-65381D01*
X66858Y-65381D01*
X66598Y-65381D01*
X66506Y-65419D01*
X66435Y-65490D01*
X66397Y-65581D01*
X66397Y-65681D01*
X66397Y-66481D01*
X66435Y-66573D01*
X66505Y-66643D01*
X66597Y-66681D01*
X66697Y-66681D01*
X66957Y-66681D01*
X67027Y-66652D01*
X67097Y-66681D01*
X67197Y-66681D01*
X67457Y-66681D01*
X67527Y-66652D01*
X67597Y-66681D01*
X67697Y-66681D01*
X67957Y-66681D01*
X68027Y-66652D01*
X68097Y-66681D01*
X68197Y-66681D01*
X68457Y-66681D01*
X68527Y-66652D01*
X68597Y-66681D01*
X68680Y-66681D01*
X68680Y-66681D01*
G37*
G54D49*
X68680Y-66681D02*
X67108Y-68253D01*
X67037Y-68253D01*
X66873Y-68321D01*
X66747Y-68447D01*
X66679Y-68611D01*
X66679Y-68683D01*
X66485Y-68876D01*
X66485Y-68917D01*
X66077Y-69324D01*
X66077Y-68730D01*
X66054Y-68615D01*
X65989Y-68518D01*
X65989Y-68518D01*
X65339Y-67868D01*
X65242Y-67803D01*
X65127Y-67780D01*
X64223Y-67780D01*
X64223Y-66949D01*
X64522Y-66650D01*
X64597Y-66681D01*
X64697Y-66681D01*
X64957Y-66681D01*
X65027Y-66652D01*
X65097Y-66681D01*
X65197Y-66681D01*
X65457Y-66681D01*
X65527Y-66652D01*
X65597Y-66681D01*
X65697Y-66681D01*
X65957Y-66681D01*
X66048Y-66643D01*
X66119Y-66573D01*
X66157Y-66481D01*
X66157Y-66382D01*
X66157Y-65582D01*
X66119Y-65490D01*
X66077Y-65448D01*
X66255Y-65271D01*
X66320Y-65173D01*
X66343Y-65059D01*
X66343Y-65059D01*
X66343Y-64838D01*
X66359Y-64838D01*
X66809Y-64838D01*
X66901Y-64800D01*
X66972Y-64730D01*
X66978Y-64715D01*
X66998Y-64715D01*
X67548Y-64715D01*
X67640Y-64677D01*
X67711Y-64607D01*
X67749Y-64515D01*
X67749Y-64415D01*
X67749Y-64335D01*
X68477Y-65063D01*
X68477Y-65390D01*
X68457Y-65381D01*
X68358Y-65381D01*
X68098Y-65381D01*
X68027Y-65410D01*
X67957Y-65381D01*
X67858Y-65381D01*
X67598Y-65381D01*
X67527Y-65410D01*
X67457Y-65381D01*
X67358Y-65381D01*
X67098Y-65381D01*
X67027Y-65410D01*
X66957Y-65381D01*
X66858Y-65381D01*
X66598Y-65381D01*
X66506Y-65419D01*
X66435Y-65490D01*
X66397Y-65581D01*
X66397Y-65681D01*
X66397Y-66481D01*
X66435Y-66573D01*
X66505Y-66643D01*
X66597Y-66681D01*
X66697Y-66681D01*
X66957Y-66681D01*
X67027Y-66652D01*
X67097Y-66681D01*
X67197Y-66681D01*
X67457Y-66681D01*
X67527Y-66652D01*
X67597Y-66681D01*
X67697Y-66681D01*
X67957Y-66681D01*
X68027Y-66652D01*
X68097Y-66681D01*
X68197Y-66681D01*
X68457Y-66681D01*
X68527Y-66652D01*
X68597Y-66681D01*
X68680Y-66681D01*
G54D10*
G36*
X70422Y-55239D02*
X70237Y-55239D01*
X70258Y-55189D01*
X70258Y-55090D01*
X70258Y-54840D01*
X70220Y-54748D01*
X70150Y-54678D01*
X70058Y-54640D01*
X69958Y-54639D01*
X69508Y-54639D01*
X69488Y-54648D01*
X69467Y-54640D01*
X69368Y-54639D01*
X68918Y-54639D01*
X68897Y-54648D01*
X68877Y-54640D01*
X68777Y-54639D01*
X68553Y-54639D01*
X68553Y-54380D01*
X70422Y-54380D01*
X70422Y-55239D01*
X70422Y-55239D01*
G37*
G54D49*
X70422Y-55239D02*
X70237Y-55239D01*
X70258Y-55189D01*
X70258Y-55090D01*
X70258Y-54840D01*
X70220Y-54748D01*
X70150Y-54678D01*
X70058Y-54640D01*
X69958Y-54639D01*
X69508Y-54639D01*
X69488Y-54648D01*
X69467Y-54640D01*
X69368Y-54639D01*
X68918Y-54639D01*
X68897Y-54648D01*
X68877Y-54640D01*
X68777Y-54639D01*
X68553Y-54639D01*
X68553Y-54380D01*
X70422Y-54380D01*
X70422Y-55239D01*
G54D10*
G36*
X71156Y-64984D02*
X70788Y-64984D01*
X70696Y-65021D01*
X70659Y-65059D01*
X69912Y-65059D01*
X69709Y-64856D01*
X69753Y-64874D01*
X69853Y-64874D01*
X70403Y-64874D01*
X70495Y-64836D01*
X70565Y-64766D01*
X70566Y-64763D01*
X70616Y-64753D01*
X70616Y-64753D01*
X70723Y-64682D01*
X70884Y-64521D01*
X70954Y-64521D01*
X71118Y-64453D01*
X71156Y-64416D01*
X71156Y-64984D01*
X71156Y-64984D01*
G37*
G54D49*
X71156Y-64984D02*
X70788Y-64984D01*
X70696Y-65021D01*
X70659Y-65059D01*
X69912Y-65059D01*
X69709Y-64856D01*
X69753Y-64874D01*
X69853Y-64874D01*
X70403Y-64874D01*
X70495Y-64836D01*
X70565Y-64766D01*
X70566Y-64763D01*
X70616Y-64753D01*
X70616Y-64753D01*
X70723Y-64682D01*
X70884Y-64521D01*
X70954Y-64521D01*
X71118Y-64453D01*
X71156Y-64416D01*
X71156Y-64984D01*
G54D10*
G36*
X71283Y-63458D02*
X71244Y-63497D01*
X71179Y-63594D01*
X71156Y-63709D01*
X71156Y-63733D01*
X71119Y-63696D01*
X70955Y-63628D01*
X70777Y-63627D01*
X70613Y-63695D01*
X70487Y-63821D01*
X70419Y-63985D01*
X70419Y-64031D01*
X70403Y-64024D01*
X70304Y-64024D01*
X69864Y-64024D01*
X69864Y-64003D01*
X69826Y-63911D01*
X69756Y-63841D01*
X69664Y-63802D01*
X69565Y-63802D01*
X69115Y-63802D01*
X69023Y-63840D01*
X68952Y-63911D01*
X68914Y-64003D01*
X68914Y-64061D01*
X68283Y-63430D01*
X68283Y-63245D01*
X68374Y-63207D01*
X68445Y-63137D01*
X68483Y-63045D01*
X68483Y-62946D01*
X68483Y-62746D01*
X68445Y-62654D01*
X68375Y-62583D01*
X68283Y-62545D01*
X68183Y-62545D01*
X67766Y-62545D01*
X67766Y-62245D01*
X67782Y-62245D01*
X68282Y-62245D01*
X68374Y-62207D01*
X68445Y-62137D01*
X68483Y-62045D01*
X68483Y-61946D01*
X68483Y-61746D01*
X68445Y-61654D01*
X68437Y-61645D01*
X68445Y-61637D01*
X68483Y-61545D01*
X68483Y-61446D01*
X68483Y-61246D01*
X68445Y-61154D01*
X68437Y-61145D01*
X68445Y-61137D01*
X68483Y-61045D01*
X68483Y-60946D01*
X68483Y-60746D01*
X68445Y-60654D01*
X68437Y-60645D01*
X68445Y-60637D01*
X68483Y-60545D01*
X68483Y-60446D01*
X68483Y-60257D01*
X68545Y-60319D01*
X68709Y-60387D01*
X68887Y-60387D01*
X69052Y-60319D01*
X69177Y-60194D01*
X69245Y-60030D01*
X69246Y-59852D01*
X69178Y-59688D01*
X69135Y-59645D01*
X69177Y-59603D01*
X69245Y-59439D01*
X69246Y-59261D01*
X69178Y-59097D01*
X69052Y-58971D01*
X68897Y-58907D01*
X69052Y-58843D01*
X69177Y-58718D01*
X69245Y-58553D01*
X69246Y-58376D01*
X69178Y-58211D01*
X69052Y-58085D01*
X69016Y-58070D01*
X69052Y-58056D01*
X69177Y-57930D01*
X69245Y-57766D01*
X69246Y-57588D01*
X69178Y-57424D01*
X69052Y-57298D01*
X68888Y-57230D01*
X68776Y-57230D01*
X68729Y-57183D01*
X68632Y-57118D01*
X68517Y-57095D01*
X68462Y-57095D01*
X68483Y-57045D01*
X68483Y-56946D01*
X68483Y-56746D01*
X68462Y-56695D01*
X68476Y-56695D01*
X68783Y-57003D01*
X68783Y-57003D01*
X68881Y-57068D01*
X68996Y-57091D01*
X69254Y-57091D01*
X69333Y-57169D01*
X69497Y-57238D01*
X69675Y-57238D01*
X69839Y-57170D01*
X69965Y-57044D01*
X70033Y-56880D01*
X70033Y-56702D01*
X69965Y-56538D01*
X69840Y-56412D01*
X69675Y-56344D01*
X69576Y-56344D01*
X69639Y-56191D01*
X69639Y-56013D01*
X69598Y-55913D01*
X69629Y-55881D01*
X69667Y-55789D01*
X69667Y-55690D01*
X69667Y-55440D01*
X69647Y-55390D01*
X69919Y-55390D01*
X69899Y-55440D01*
X69898Y-55539D01*
X69898Y-55789D01*
X69936Y-55881D01*
X70007Y-55951D01*
X70099Y-55989D01*
X70198Y-55990D01*
X70422Y-55990D01*
X70422Y-59469D01*
X71117Y-60164D01*
X71083Y-60245D01*
X71083Y-60345D01*
X71083Y-60462D01*
X71048Y-60377D01*
X70922Y-60251D01*
X70758Y-60183D01*
X70580Y-60182D01*
X70416Y-60250D01*
X70290Y-60376D01*
X70222Y-60540D01*
X70222Y-60718D01*
X70290Y-60882D01*
X70415Y-61008D01*
X70576Y-61075D01*
X70487Y-61163D01*
X70419Y-61328D01*
X70419Y-61505D01*
X70487Y-61670D01*
X70578Y-61761D01*
X70487Y-61852D01*
X70419Y-62017D01*
X70419Y-62194D01*
X70487Y-62359D01*
X70612Y-62484D01*
X70776Y-62553D01*
X70954Y-62553D01*
X71083Y-62500D01*
X71083Y-62545D01*
X71121Y-62637D01*
X71129Y-62645D01*
X71121Y-62653D01*
X71083Y-62745D01*
X71083Y-62845D01*
X71083Y-63045D01*
X71121Y-63137D01*
X71191Y-63207D01*
X71283Y-63245D01*
X71283Y-63458D01*
X71283Y-63458D01*
G37*
G54D49*
X71283Y-63458D02*
X71244Y-63497D01*
X71179Y-63594D01*
X71156Y-63709D01*
X71156Y-63733D01*
X71119Y-63696D01*
X70955Y-63628D01*
X70777Y-63627D01*
X70613Y-63695D01*
X70487Y-63821D01*
X70419Y-63985D01*
X70419Y-64031D01*
X70403Y-64024D01*
X70304Y-64024D01*
X69864Y-64024D01*
X69864Y-64003D01*
X69826Y-63911D01*
X69756Y-63841D01*
X69664Y-63802D01*
X69565Y-63802D01*
X69115Y-63802D01*
X69023Y-63840D01*
X68952Y-63911D01*
X68914Y-64003D01*
X68914Y-64061D01*
X68283Y-63430D01*
X68283Y-63245D01*
X68374Y-63207D01*
X68445Y-63137D01*
X68483Y-63045D01*
X68483Y-62946D01*
X68483Y-62746D01*
X68445Y-62654D01*
X68375Y-62583D01*
X68283Y-62545D01*
X68183Y-62545D01*
X67766Y-62545D01*
X67766Y-62245D01*
X67782Y-62245D01*
X68282Y-62245D01*
X68374Y-62207D01*
X68445Y-62137D01*
X68483Y-62045D01*
X68483Y-61946D01*
X68483Y-61746D01*
X68445Y-61654D01*
X68437Y-61645D01*
X68445Y-61637D01*
X68483Y-61545D01*
X68483Y-61446D01*
X68483Y-61246D01*
X68445Y-61154D01*
X68437Y-61145D01*
X68445Y-61137D01*
X68483Y-61045D01*
X68483Y-60946D01*
X68483Y-60746D01*
X68445Y-60654D01*
X68437Y-60645D01*
X68445Y-60637D01*
X68483Y-60545D01*
X68483Y-60446D01*
X68483Y-60257D01*
X68545Y-60319D01*
X68709Y-60387D01*
X68887Y-60387D01*
X69052Y-60319D01*
X69177Y-60194D01*
X69245Y-60030D01*
X69246Y-59852D01*
X69178Y-59688D01*
X69135Y-59645D01*
X69177Y-59603D01*
X69245Y-59439D01*
X69246Y-59261D01*
X69178Y-59097D01*
X69052Y-58971D01*
X68897Y-58907D01*
X69052Y-58843D01*
X69177Y-58718D01*
X69245Y-58553D01*
X69246Y-58376D01*
X69178Y-58211D01*
X69052Y-58085D01*
X69016Y-58070D01*
X69052Y-58056D01*
X69177Y-57930D01*
X69245Y-57766D01*
X69246Y-57588D01*
X69178Y-57424D01*
X69052Y-57298D01*
X68888Y-57230D01*
X68776Y-57230D01*
X68729Y-57183D01*
X68632Y-57118D01*
X68517Y-57095D01*
X68462Y-57095D01*
X68483Y-57045D01*
X68483Y-56946D01*
X68483Y-56746D01*
X68462Y-56695D01*
X68476Y-56695D01*
X68783Y-57003D01*
X68783Y-57003D01*
X68881Y-57068D01*
X68996Y-57091D01*
X69254Y-57091D01*
X69333Y-57169D01*
X69497Y-57238D01*
X69675Y-57238D01*
X69839Y-57170D01*
X69965Y-57044D01*
X70033Y-56880D01*
X70033Y-56702D01*
X69965Y-56538D01*
X69840Y-56412D01*
X69675Y-56344D01*
X69576Y-56344D01*
X69639Y-56191D01*
X69639Y-56013D01*
X69598Y-55913D01*
X69629Y-55881D01*
X69667Y-55789D01*
X69667Y-55690D01*
X69667Y-55440D01*
X69647Y-55390D01*
X69919Y-55390D01*
X69899Y-55440D01*
X69898Y-55539D01*
X69898Y-55789D01*
X69936Y-55881D01*
X70007Y-55951D01*
X70099Y-55989D01*
X70198Y-55990D01*
X70422Y-55990D01*
X70422Y-59469D01*
X71117Y-60164D01*
X71083Y-60245D01*
X71083Y-60345D01*
X71083Y-60462D01*
X71048Y-60377D01*
X70922Y-60251D01*
X70758Y-60183D01*
X70580Y-60182D01*
X70416Y-60250D01*
X70290Y-60376D01*
X70222Y-60540D01*
X70222Y-60718D01*
X70290Y-60882D01*
X70415Y-61008D01*
X70576Y-61075D01*
X70487Y-61163D01*
X70419Y-61328D01*
X70419Y-61505D01*
X70487Y-61670D01*
X70578Y-61761D01*
X70487Y-61852D01*
X70419Y-62017D01*
X70419Y-62194D01*
X70487Y-62359D01*
X70612Y-62484D01*
X70776Y-62553D01*
X70954Y-62553D01*
X71083Y-62500D01*
X71083Y-62545D01*
X71121Y-62637D01*
X71129Y-62645D01*
X71121Y-62653D01*
X71083Y-62745D01*
X71083Y-62845D01*
X71083Y-63045D01*
X71121Y-63137D01*
X71191Y-63207D01*
X71283Y-63245D01*
X71283Y-63458D01*
G54D10*
G36*
X71339Y-66485D02*
X69985Y-66485D01*
X69985Y-65659D01*
X70659Y-65659D01*
X70696Y-65695D01*
X70788Y-65734D01*
X70831Y-65734D01*
X70850Y-65763D01*
X70949Y-65861D01*
X70949Y-65861D01*
X71046Y-65926D01*
X71161Y-65949D01*
X71198Y-65949D01*
X71198Y-66309D01*
X71235Y-66401D01*
X71306Y-66471D01*
X71339Y-66485D01*
X71339Y-66485D01*
G37*
G54D49*
X71339Y-66485D02*
X69985Y-66485D01*
X69985Y-65659D01*
X70659Y-65659D01*
X70696Y-65695D01*
X70788Y-65734D01*
X70831Y-65734D01*
X70850Y-65763D01*
X70949Y-65861D01*
X70949Y-65861D01*
X71046Y-65926D01*
X71161Y-65949D01*
X71198Y-65949D01*
X71198Y-66309D01*
X71235Y-66401D01*
X71306Y-66471D01*
X71339Y-66485D01*
G54D10*
G36*
X71944Y-64984D02*
X71756Y-64984D01*
X71756Y-63833D01*
X71795Y-63794D01*
X71795Y-63794D01*
X71815Y-63765D01*
X71815Y-63765D01*
X71835Y-63794D01*
X71944Y-63903D01*
X71944Y-64984D01*
X71944Y-64984D01*
G37*
G54D49*
X71944Y-64984D02*
X71756Y-64984D01*
X71756Y-63833D01*
X71795Y-63794D01*
X71795Y-63794D01*
X71815Y-63765D01*
X71815Y-63765D01*
X71835Y-63794D01*
X71944Y-63903D01*
X71944Y-64984D01*
G54D10*
G36*
X73965Y-66485D02*
X73905Y-66485D01*
X73902Y-66479D01*
X73777Y-66353D01*
X73612Y-66285D01*
X73569Y-66285D01*
X73568Y-66284D01*
X73455Y-66208D01*
X73433Y-66204D01*
X73322Y-66182D01*
X73322Y-66182D01*
X73075Y-66182D01*
X73011Y-66155D01*
X72911Y-66155D01*
X72556Y-66155D01*
X72849Y-65861D01*
X72914Y-65764D01*
X72914Y-65764D01*
X72921Y-65730D01*
X73004Y-65696D01*
X73074Y-65625D01*
X73112Y-65534D01*
X73112Y-65434D01*
X73112Y-65184D01*
X73074Y-65092D01*
X73004Y-65022D01*
X72912Y-64984D01*
X72813Y-64984D01*
X72544Y-64984D01*
X72544Y-64233D01*
X72581Y-64271D01*
X72745Y-64339D01*
X72922Y-64339D01*
X73086Y-64272D01*
X73212Y-64146D01*
X73280Y-63982D01*
X73280Y-63805D01*
X73212Y-63641D01*
X73087Y-63515D01*
X72923Y-63447D01*
X72746Y-63447D01*
X72582Y-63515D01*
X72485Y-63611D01*
X72456Y-63567D01*
X72456Y-63567D01*
X72347Y-63458D01*
X72347Y-62603D01*
X72808Y-62603D01*
X73273Y-63067D01*
X73273Y-63179D01*
X73341Y-63343D01*
X73467Y-63469D01*
X73631Y-63537D01*
X73808Y-63537D01*
X73965Y-63472D01*
X73965Y-66485D01*
X73965Y-66485D01*
G37*
G54D49*
X73965Y-66485D02*
X73905Y-66485D01*
X73902Y-66479D01*
X73777Y-66353D01*
X73612Y-66285D01*
X73569Y-66285D01*
X73568Y-66284D01*
X73455Y-66208D01*
X73433Y-66204D01*
X73322Y-66182D01*
X73322Y-66182D01*
X73075Y-66182D01*
X73011Y-66155D01*
X72911Y-66155D01*
X72556Y-66155D01*
X72849Y-65861D01*
X72914Y-65764D01*
X72914Y-65764D01*
X72921Y-65730D01*
X73004Y-65696D01*
X73074Y-65625D01*
X73112Y-65534D01*
X73112Y-65434D01*
X73112Y-65184D01*
X73074Y-65092D01*
X73004Y-65022D01*
X72912Y-64984D01*
X72813Y-64984D01*
X72544Y-64984D01*
X72544Y-64233D01*
X72581Y-64271D01*
X72745Y-64339D01*
X72922Y-64339D01*
X73086Y-64272D01*
X73212Y-64146D01*
X73280Y-63982D01*
X73280Y-63805D01*
X73212Y-63641D01*
X73087Y-63515D01*
X72923Y-63447D01*
X72746Y-63447D01*
X72582Y-63515D01*
X72485Y-63611D01*
X72456Y-63567D01*
X72456Y-63567D01*
X72347Y-63458D01*
X72347Y-62603D01*
X72808Y-62603D01*
X73273Y-63067D01*
X73273Y-63179D01*
X73341Y-63343D01*
X73467Y-63469D01*
X73631Y-63537D01*
X73808Y-63537D01*
X73965Y-63472D01*
X73965Y-66485D01*
G54D10*
G36*
X67986Y-54777D02*
X67272Y-55491D01*
X67272Y-56513D01*
X67206Y-56513D01*
X66956Y-56513D01*
X66864Y-56551D01*
X66793Y-56621D01*
X66755Y-56713D01*
X66755Y-56812D01*
X66755Y-57033D01*
X66742Y-57033D01*
X66577Y-57101D01*
X66452Y-57226D01*
X66383Y-57391D01*
X66383Y-57568D01*
X66451Y-57733D01*
X66577Y-57858D01*
X66741Y-57927D01*
X66755Y-57927D01*
X66755Y-58017D01*
X66742Y-58017D01*
X66577Y-58085D01*
X66452Y-58211D01*
X66383Y-58375D01*
X66383Y-58553D01*
X66451Y-58717D01*
X66577Y-58843D01*
X66741Y-58911D01*
X66755Y-58911D01*
X66755Y-59001D01*
X66742Y-59001D01*
X66577Y-59069D01*
X66452Y-59195D01*
X66383Y-59359D01*
X66383Y-59537D01*
X66451Y-59701D01*
X66577Y-59827D01*
X66741Y-59895D01*
X66919Y-59895D01*
X67083Y-59827D01*
X67209Y-59702D01*
X67221Y-59673D01*
X67239Y-59660D01*
X67272Y-59627D01*
X67272Y-59958D01*
X67206Y-59958D01*
X66956Y-59958D01*
X66864Y-59996D01*
X66793Y-60066D01*
X66755Y-60158D01*
X66755Y-60257D01*
X66755Y-60707D01*
X66771Y-60746D01*
X66747Y-60770D01*
X66679Y-60934D01*
X66679Y-61112D01*
X66746Y-61276D01*
X66872Y-61402D01*
X67036Y-61470D01*
X67042Y-61470D01*
X66913Y-61598D01*
X66848Y-61696D01*
X66825Y-61811D01*
X66825Y-63287D01*
X66847Y-63396D01*
X66343Y-63900D01*
X66343Y-63779D01*
X66320Y-63664D01*
X66255Y-63567D01*
X66255Y-63567D01*
X66077Y-63389D01*
X65979Y-63324D01*
X65865Y-63301D01*
X65843Y-63301D01*
X65813Y-63271D01*
X65800Y-63265D01*
X65861Y-63204D01*
X65861Y-63204D01*
X65926Y-63106D01*
X65949Y-62992D01*
X65949Y-62992D01*
X65949Y-60334D01*
X65926Y-60219D01*
X65861Y-60122D01*
X65861Y-60122D01*
X65645Y-59905D01*
X65547Y-59840D01*
X65456Y-59822D01*
X65456Y-59655D01*
X65418Y-59563D01*
X65348Y-59492D01*
X65256Y-59454D01*
X65157Y-59454D01*
X64271Y-59454D01*
X64179Y-59492D01*
X64158Y-59513D01*
X64158Y-59513D01*
X64097Y-59525D01*
X64000Y-59591D01*
X63567Y-60024D01*
X63502Y-60121D01*
X63479Y-60236D01*
X63479Y-63633D01*
X63466Y-63566D01*
X63401Y-63468D01*
X63401Y-63468D01*
X62925Y-62993D01*
X62947Y-62971D01*
X63006Y-62828D01*
X63110Y-62828D01*
X63202Y-62790D01*
X63272Y-62720D01*
X63310Y-62628D01*
X63311Y-62529D01*
X63311Y-61741D01*
X63273Y-61649D01*
X63202Y-61579D01*
X63110Y-61541D01*
X63013Y-61541D01*
X63013Y-61502D01*
X62945Y-61337D01*
X62868Y-61260D01*
X62868Y-59491D01*
X62945Y-59414D01*
X62982Y-59324D01*
X63110Y-59324D01*
X63202Y-59286D01*
X63272Y-59216D01*
X63310Y-59124D01*
X63311Y-59025D01*
X63311Y-58981D01*
X63640Y-58981D01*
X63718Y-59059D01*
X63883Y-59127D01*
X63973Y-59127D01*
X64010Y-59216D01*
X64080Y-59286D01*
X64172Y-59324D01*
X64271Y-59324D01*
X65256Y-59324D01*
X65348Y-59286D01*
X65418Y-59216D01*
X65456Y-59124D01*
X65456Y-59025D01*
X65456Y-58237D01*
X65418Y-58145D01*
X65348Y-58075D01*
X65256Y-58037D01*
X65157Y-58037D01*
X64172Y-58037D01*
X64081Y-58075D01*
X64010Y-58145D01*
X63973Y-58234D01*
X63883Y-58234D01*
X63719Y-58302D01*
X63640Y-58381D01*
X63311Y-58381D01*
X63311Y-58237D01*
X63273Y-58145D01*
X63202Y-58075D01*
X63110Y-58037D01*
X63011Y-58037D01*
X62992Y-58037D01*
X62953Y-57944D01*
X62828Y-57818D01*
X62664Y-57750D01*
X62486Y-57749D01*
X62322Y-57817D01*
X62225Y-57914D01*
X62225Y-56742D01*
X63729Y-56742D01*
X63729Y-57186D01*
X63726Y-57194D01*
X63726Y-57371D01*
X63729Y-57379D01*
X63729Y-57924D01*
X65010Y-57924D01*
X65010Y-57181D01*
X65020Y-57177D01*
X65043Y-57200D01*
X65043Y-57200D01*
X65141Y-57265D01*
X65175Y-57272D01*
X65209Y-57354D01*
X65279Y-57425D01*
X65371Y-57463D01*
X65470Y-57463D01*
X65720Y-57463D01*
X65812Y-57425D01*
X65883Y-57354D01*
X65921Y-57263D01*
X65921Y-57163D01*
X65921Y-56713D01*
X65883Y-56621D01*
X65856Y-56594D01*
X65883Y-56567D01*
X65921Y-56475D01*
X65921Y-56376D01*
X65921Y-55926D01*
X65883Y-55834D01*
X65813Y-55763D01*
X65721Y-55725D01*
X65621Y-55725D01*
X65412Y-55725D01*
X65410Y-55723D01*
X65294Y-55675D01*
X65369Y-55625D01*
X65439Y-55555D01*
X65480Y-55572D01*
X65579Y-55573D01*
X65855Y-55573D01*
X65947Y-55535D01*
X66018Y-55464D01*
X66043Y-55404D01*
X66068Y-55464D01*
X66138Y-55534D01*
X66165Y-55546D01*
X66165Y-55546D01*
X66187Y-55578D01*
X66187Y-55578D01*
X66186Y-55698D01*
X66254Y-55863D01*
X66380Y-55988D01*
X66544Y-56057D01*
X66722Y-56057D01*
X66886Y-55989D01*
X67012Y-55863D01*
X67080Y-55699D01*
X67080Y-55521D01*
X67012Y-55357D01*
X66887Y-55231D01*
X66806Y-55198D01*
X66806Y-54879D01*
X66768Y-54787D01*
X66727Y-54747D01*
X66932Y-54747D01*
X66997Y-54774D01*
X67097Y-54774D01*
X67647Y-54774D01*
X67713Y-54747D01*
X67849Y-54747D01*
X67922Y-54777D01*
X67986Y-54777D01*
X67986Y-54777D01*
G37*
G54D49*
X67986Y-54777D02*
X67272Y-55491D01*
X67272Y-56513D01*
X67206Y-56513D01*
X66956Y-56513D01*
X66864Y-56551D01*
X66793Y-56621D01*
X66755Y-56713D01*
X66755Y-56812D01*
X66755Y-57033D01*
X66742Y-57033D01*
X66577Y-57101D01*
X66452Y-57226D01*
X66383Y-57391D01*
X66383Y-57568D01*
X66451Y-57733D01*
X66577Y-57858D01*
X66741Y-57927D01*
X66755Y-57927D01*
X66755Y-58017D01*
X66742Y-58017D01*
X66577Y-58085D01*
X66452Y-58211D01*
X66383Y-58375D01*
X66383Y-58553D01*
X66451Y-58717D01*
X66577Y-58843D01*
X66741Y-58911D01*
X66755Y-58911D01*
X66755Y-59001D01*
X66742Y-59001D01*
X66577Y-59069D01*
X66452Y-59195D01*
X66383Y-59359D01*
X66383Y-59537D01*
X66451Y-59701D01*
X66577Y-59827D01*
X66741Y-59895D01*
X66919Y-59895D01*
X67083Y-59827D01*
X67209Y-59702D01*
X67221Y-59673D01*
X67239Y-59660D01*
X67272Y-59627D01*
X67272Y-59958D01*
X67206Y-59958D01*
X66956Y-59958D01*
X66864Y-59996D01*
X66793Y-60066D01*
X66755Y-60158D01*
X66755Y-60257D01*
X66755Y-60707D01*
X66771Y-60746D01*
X66747Y-60770D01*
X66679Y-60934D01*
X66679Y-61112D01*
X66746Y-61276D01*
X66872Y-61402D01*
X67036Y-61470D01*
X67042Y-61470D01*
X66913Y-61598D01*
X66848Y-61696D01*
X66825Y-61811D01*
X66825Y-63287D01*
X66847Y-63396D01*
X66343Y-63900D01*
X66343Y-63779D01*
X66320Y-63664D01*
X66255Y-63567D01*
X66255Y-63567D01*
X66077Y-63389D01*
X65979Y-63324D01*
X65865Y-63301D01*
X65843Y-63301D01*
X65813Y-63271D01*
X65800Y-63265D01*
X65861Y-63204D01*
X65861Y-63204D01*
X65926Y-63106D01*
X65949Y-62992D01*
X65949Y-62992D01*
X65949Y-60334D01*
X65926Y-60219D01*
X65861Y-60122D01*
X65861Y-60122D01*
X65645Y-59905D01*
X65547Y-59840D01*
X65456Y-59822D01*
X65456Y-59655D01*
X65418Y-59563D01*
X65348Y-59492D01*
X65256Y-59454D01*
X65157Y-59454D01*
X64271Y-59454D01*
X64179Y-59492D01*
X64158Y-59513D01*
X64158Y-59513D01*
X64097Y-59525D01*
X64000Y-59591D01*
X63567Y-60024D01*
X63502Y-60121D01*
X63479Y-60236D01*
X63479Y-63633D01*
X63466Y-63566D01*
X63401Y-63468D01*
X63401Y-63468D01*
X62925Y-62993D01*
X62947Y-62971D01*
X63006Y-62828D01*
X63110Y-62828D01*
X63202Y-62790D01*
X63272Y-62720D01*
X63310Y-62628D01*
X63311Y-62529D01*
X63311Y-61741D01*
X63273Y-61649D01*
X63202Y-61579D01*
X63110Y-61541D01*
X63013Y-61541D01*
X63013Y-61502D01*
X62945Y-61337D01*
X62868Y-61260D01*
X62868Y-59491D01*
X62945Y-59414D01*
X62982Y-59324D01*
X63110Y-59324D01*
X63202Y-59286D01*
X63272Y-59216D01*
X63310Y-59124D01*
X63311Y-59025D01*
X63311Y-58981D01*
X63640Y-58981D01*
X63718Y-59059D01*
X63883Y-59127D01*
X63973Y-59127D01*
X64010Y-59216D01*
X64080Y-59286D01*
X64172Y-59324D01*
X64271Y-59324D01*
X65256Y-59324D01*
X65348Y-59286D01*
X65418Y-59216D01*
X65456Y-59124D01*
X65456Y-59025D01*
X65456Y-58237D01*
X65418Y-58145D01*
X65348Y-58075D01*
X65256Y-58037D01*
X65157Y-58037D01*
X64172Y-58037D01*
X64081Y-58075D01*
X64010Y-58145D01*
X63973Y-58234D01*
X63883Y-58234D01*
X63719Y-58302D01*
X63640Y-58381D01*
X63311Y-58381D01*
X63311Y-58237D01*
X63273Y-58145D01*
X63202Y-58075D01*
X63110Y-58037D01*
X63011Y-58037D01*
X62992Y-58037D01*
X62953Y-57944D01*
X62828Y-57818D01*
X62664Y-57750D01*
X62486Y-57749D01*
X62322Y-57817D01*
X62225Y-57914D01*
X62225Y-56742D01*
X63729Y-56742D01*
X63729Y-57186D01*
X63726Y-57194D01*
X63726Y-57371D01*
X63729Y-57379D01*
X63729Y-57924D01*
X65010Y-57924D01*
X65010Y-57181D01*
X65020Y-57177D01*
X65043Y-57200D01*
X65043Y-57200D01*
X65141Y-57265D01*
X65175Y-57272D01*
X65209Y-57354D01*
X65279Y-57425D01*
X65371Y-57463D01*
X65470Y-57463D01*
X65720Y-57463D01*
X65812Y-57425D01*
X65883Y-57354D01*
X65921Y-57263D01*
X65921Y-57163D01*
X65921Y-56713D01*
X65883Y-56621D01*
X65856Y-56594D01*
X65883Y-56567D01*
X65921Y-56475D01*
X65921Y-56376D01*
X65921Y-55926D01*
X65883Y-55834D01*
X65813Y-55763D01*
X65721Y-55725D01*
X65621Y-55725D01*
X65412Y-55725D01*
X65410Y-55723D01*
X65294Y-55675D01*
X65369Y-55625D01*
X65439Y-55555D01*
X65480Y-55572D01*
X65579Y-55573D01*
X65855Y-55573D01*
X65947Y-55535D01*
X66018Y-55464D01*
X66043Y-55404D01*
X66068Y-55464D01*
X66138Y-55534D01*
X66165Y-55546D01*
X66165Y-55546D01*
X66187Y-55578D01*
X66187Y-55578D01*
X66186Y-55698D01*
X66254Y-55863D01*
X66380Y-55988D01*
X66544Y-56057D01*
X66722Y-56057D01*
X66886Y-55989D01*
X67012Y-55863D01*
X67080Y-55699D01*
X67080Y-55521D01*
X67012Y-55357D01*
X66887Y-55231D01*
X66806Y-55198D01*
X66806Y-54879D01*
X66768Y-54787D01*
X66727Y-54747D01*
X66932Y-54747D01*
X66997Y-54774D01*
X67097Y-54774D01*
X67647Y-54774D01*
X67713Y-54747D01*
X67849Y-54747D01*
X67922Y-54777D01*
X67986Y-54777D01*
G54D10*
G36*
X68060Y-53883D02*
X67923Y-53883D01*
X67759Y-53951D01*
X67769Y-53927D01*
X67769Y-53750D01*
X67701Y-53585D01*
X67576Y-53459D01*
X67412Y-53391D01*
X67234Y-53391D01*
X67070Y-53459D01*
X66944Y-53585D01*
X66876Y-53749D01*
X66875Y-53927D01*
X66886Y-53951D01*
X66806Y-53951D01*
X66806Y-53951D01*
X66806Y-53879D01*
X66768Y-53787D01*
X66698Y-53717D01*
X66606Y-53679D01*
X66585Y-53679D01*
X66585Y-51624D01*
X68060Y-51624D01*
X68060Y-53883D01*
X68060Y-53883D01*
G37*
G54D49*
X68060Y-53883D02*
X67923Y-53883D01*
X67759Y-53951D01*
X67769Y-53927D01*
X67769Y-53750D01*
X67701Y-53585D01*
X67576Y-53459D01*
X67412Y-53391D01*
X67234Y-53391D01*
X67070Y-53459D01*
X66944Y-53585D01*
X66876Y-53749D01*
X66875Y-53927D01*
X66886Y-53951D01*
X66806Y-53951D01*
X66806Y-53951D01*
X66806Y-53879D01*
X66768Y-53787D01*
X66698Y-53717D01*
X66606Y-53679D01*
X66585Y-53679D01*
X66585Y-51624D01*
X68060Y-51624D01*
X68060Y-53883D01*
G54D10*
G36*
X72332Y-67814D02*
X72299Y-67848D01*
X72261Y-67940D01*
X72261Y-68039D01*
X72261Y-68048D01*
X72228Y-68015D01*
X72136Y-67977D01*
X72086Y-67977D01*
X72108Y-67923D01*
X72109Y-67824D01*
X72109Y-67638D01*
X72109Y-67637D01*
X72109Y-66979D01*
X72124Y-66979D01*
X72208Y-67063D01*
X72208Y-67063D01*
X72261Y-67098D01*
X72261Y-67305D01*
X72268Y-67322D01*
X72261Y-67340D01*
X72261Y-67439D01*
X72261Y-67689D01*
X72299Y-67781D01*
X72332Y-67814D01*
X72332Y-67814D01*
G37*
G54D49*
X72332Y-67814D02*
X72299Y-67848D01*
X72261Y-67940D01*
X72261Y-68039D01*
X72261Y-68048D01*
X72228Y-68015D01*
X72136Y-67977D01*
X72086Y-67977D01*
X72108Y-67923D01*
X72109Y-67824D01*
X72109Y-67638D01*
X72109Y-67637D01*
X72109Y-66979D01*
X72124Y-66979D01*
X72208Y-67063D01*
X72208Y-67063D01*
X72261Y-67098D01*
X72261Y-67305D01*
X72268Y-67322D01*
X72261Y-67340D01*
X72261Y-67439D01*
X72261Y-67689D01*
X72299Y-67781D01*
X72332Y-67814D01*
G54D10*
G36*
X72387Y-71009D02*
X66979Y-71009D01*
X66979Y-70632D01*
X67027Y-70612D01*
X67097Y-70641D01*
X67197Y-70641D01*
X67457Y-70641D01*
X67527Y-70612D01*
X67597Y-70641D01*
X67697Y-70641D01*
X67957Y-70641D01*
X68027Y-70612D01*
X68097Y-70641D01*
X68197Y-70641D01*
X68457Y-70641D01*
X68527Y-70612D01*
X68597Y-70641D01*
X68697Y-70641D01*
X68957Y-70641D01*
X69027Y-70612D01*
X69097Y-70641D01*
X69197Y-70641D01*
X69457Y-70641D01*
X69548Y-70603D01*
X69619Y-70533D01*
X69657Y-70441D01*
X69657Y-70342D01*
X69657Y-70275D01*
X69689Y-70268D01*
X69689Y-70268D01*
X69787Y-70203D01*
X69897Y-70094D01*
X69897Y-70094D01*
X69962Y-69996D01*
X69985Y-69881D01*
X69985Y-69881D01*
X69985Y-66979D01*
X71451Y-66979D01*
X71451Y-67151D01*
X71398Y-67151D01*
X71398Y-67151D01*
X71299Y-67151D01*
X71142Y-67151D01*
X71050Y-67189D01*
X70980Y-67259D01*
X70942Y-67351D01*
X70942Y-67451D01*
X70942Y-67923D01*
X70964Y-67977D01*
X70580Y-67977D01*
X70488Y-68015D01*
X70417Y-68085D01*
X70379Y-68177D01*
X70379Y-68276D01*
X70379Y-69024D01*
X70417Y-69116D01*
X70426Y-69125D01*
X70391Y-69210D01*
X70391Y-69309D01*
X70391Y-69559D01*
X70429Y-69651D01*
X70499Y-69721D01*
X70591Y-69759D01*
X70690Y-69760D01*
X71140Y-69760D01*
X71232Y-69722D01*
X71302Y-69651D01*
X71341Y-69559D01*
X71341Y-69460D01*
X71341Y-69210D01*
X71303Y-69118D01*
X71282Y-69097D01*
X71312Y-69025D01*
X71312Y-68925D01*
X71312Y-68891D01*
X71375Y-68878D01*
X71375Y-68878D01*
X71403Y-68859D01*
X71403Y-69024D01*
X71433Y-69097D01*
X71413Y-69118D01*
X71375Y-69210D01*
X71375Y-69309D01*
X71375Y-69559D01*
X71413Y-69651D01*
X71483Y-69721D01*
X71575Y-69759D01*
X71674Y-69760D01*
X72124Y-69760D01*
X72216Y-69722D01*
X72287Y-69651D01*
X72325Y-69559D01*
X72325Y-69460D01*
X72325Y-69210D01*
X72290Y-69125D01*
X72298Y-69117D01*
X72336Y-69025D01*
X72336Y-68925D01*
X72336Y-68419D01*
X72369Y-68451D01*
X72387Y-68459D01*
X72387Y-71009D01*
X72387Y-71009D01*
G37*
G54D49*
X72387Y-71009D02*
X66979Y-71009D01*
X66979Y-70632D01*
X67027Y-70612D01*
X67097Y-70641D01*
X67197Y-70641D01*
X67457Y-70641D01*
X67527Y-70612D01*
X67597Y-70641D01*
X67697Y-70641D01*
X67957Y-70641D01*
X68027Y-70612D01*
X68097Y-70641D01*
X68197Y-70641D01*
X68457Y-70641D01*
X68527Y-70612D01*
X68597Y-70641D01*
X68697Y-70641D01*
X68957Y-70641D01*
X69027Y-70612D01*
X69097Y-70641D01*
X69197Y-70641D01*
X69457Y-70641D01*
X69548Y-70603D01*
X69619Y-70533D01*
X69657Y-70441D01*
X69657Y-70342D01*
X69657Y-70275D01*
X69689Y-70268D01*
X69689Y-70268D01*
X69787Y-70203D01*
X69897Y-70094D01*
X69897Y-70094D01*
X69962Y-69996D01*
X69985Y-69881D01*
X69985Y-69881D01*
X69985Y-66979D01*
X71451Y-66979D01*
X71451Y-67151D01*
X71398Y-67151D01*
X71398Y-67151D01*
X71299Y-67151D01*
X71142Y-67151D01*
X71050Y-67189D01*
X70980Y-67259D01*
X70942Y-67351D01*
X70942Y-67451D01*
X70942Y-67923D01*
X70964Y-67977D01*
X70580Y-67977D01*
X70488Y-68015D01*
X70417Y-68085D01*
X70379Y-68177D01*
X70379Y-68276D01*
X70379Y-69024D01*
X70417Y-69116D01*
X70426Y-69125D01*
X70391Y-69210D01*
X70391Y-69309D01*
X70391Y-69559D01*
X70429Y-69651D01*
X70499Y-69721D01*
X70591Y-69759D01*
X70690Y-69760D01*
X71140Y-69760D01*
X71232Y-69722D01*
X71302Y-69651D01*
X71341Y-69559D01*
X71341Y-69460D01*
X71341Y-69210D01*
X71303Y-69118D01*
X71282Y-69097D01*
X71312Y-69025D01*
X71312Y-68925D01*
X71312Y-68891D01*
X71375Y-68878D01*
X71375Y-68878D01*
X71403Y-68859D01*
X71403Y-69024D01*
X71433Y-69097D01*
X71413Y-69118D01*
X71375Y-69210D01*
X71375Y-69309D01*
X71375Y-69559D01*
X71413Y-69651D01*
X71483Y-69721D01*
X71575Y-69759D01*
X71674Y-69760D01*
X72124Y-69760D01*
X72216Y-69722D01*
X72287Y-69651D01*
X72325Y-69559D01*
X72325Y-69460D01*
X72325Y-69210D01*
X72290Y-69125D01*
X72298Y-69117D01*
X72336Y-69025D01*
X72336Y-68925D01*
X72336Y-68419D01*
X72369Y-68451D01*
X72387Y-68459D01*
X72387Y-71009D01*
G54D10*
G36*
X73965Y-79175D02*
X64619Y-79175D01*
X64619Y-77687D01*
X64491Y-77378D01*
X64255Y-77141D01*
X63946Y-77013D01*
X63612Y-77013D01*
X63303Y-77141D01*
X63066Y-77377D01*
X62938Y-77686D01*
X62938Y-78020D01*
X63066Y-78329D01*
X63302Y-78566D01*
X63611Y-78694D01*
X63945Y-78694D01*
X64254Y-78566D01*
X64491Y-78330D01*
X64619Y-78021D01*
X64619Y-77687D01*
X64619Y-79175D01*
X62225Y-79175D01*
X62225Y-63006D01*
X62268Y-63050D01*
X62268Y-63061D01*
X62291Y-63175D01*
X62356Y-63273D01*
X62888Y-63804D01*
X62822Y-63831D01*
X62752Y-63901D01*
X62714Y-63993D01*
X62713Y-64093D01*
X62713Y-64343D01*
X62751Y-64434D01*
X62822Y-64505D01*
X62914Y-64543D01*
X63013Y-64543D01*
X63463Y-64543D01*
X63509Y-64524D01*
X63961Y-64975D01*
X63961Y-64975D01*
X64058Y-65040D01*
X64173Y-65063D01*
X64173Y-65063D01*
X65122Y-65063D01*
X65065Y-65120D01*
X65000Y-65217D01*
X64993Y-65250D01*
X64993Y-65250D01*
X63729Y-66514D01*
X63729Y-66904D01*
X63702Y-66838D01*
X63632Y-66768D01*
X63565Y-66740D01*
X63565Y-66714D01*
X63565Y-66464D01*
X63527Y-66372D01*
X63457Y-66301D01*
X63365Y-66263D01*
X63266Y-66263D01*
X62816Y-66263D01*
X62724Y-66301D01*
X62653Y-66371D01*
X62615Y-66463D01*
X62615Y-66563D01*
X62615Y-66740D01*
X62549Y-66768D01*
X62478Y-66838D01*
X62440Y-66930D01*
X62440Y-67029D01*
X62440Y-69229D01*
X62478Y-69321D01*
X62548Y-69392D01*
X62640Y-69430D01*
X62740Y-69430D01*
X63540Y-69430D01*
X63631Y-69392D01*
X63702Y-69322D01*
X63729Y-69256D01*
X63729Y-69507D01*
X62878Y-70358D01*
X62830Y-70430D01*
X62641Y-70430D01*
X62549Y-70468D01*
X62478Y-70538D01*
X62440Y-70630D01*
X62440Y-70729D01*
X62440Y-72929D01*
X62478Y-73021D01*
X62548Y-73092D01*
X62615Y-73119D01*
X62615Y-73148D01*
X62615Y-73398D01*
X62653Y-73490D01*
X62723Y-73560D01*
X62815Y-73598D01*
X62915Y-73598D01*
X63365Y-73598D01*
X63456Y-73560D01*
X63527Y-73490D01*
X63565Y-73398D01*
X63565Y-73299D01*
X63565Y-73119D01*
X63631Y-73092D01*
X63702Y-73022D01*
X63740Y-72930D01*
X63740Y-72830D01*
X63740Y-71703D01*
X66091Y-71703D01*
X63651Y-74143D01*
X63575Y-74256D01*
X63571Y-74278D01*
X63559Y-74337D01*
X63356Y-74337D01*
X63264Y-74374D01*
X63193Y-74445D01*
X63155Y-74537D01*
X63155Y-74636D01*
X63155Y-76643D01*
X63193Y-76735D01*
X63263Y-76805D01*
X63355Y-76844D01*
X63455Y-76844D01*
X64439Y-76844D01*
X64531Y-76806D01*
X64601Y-76735D01*
X64639Y-76643D01*
X64639Y-76544D01*
X64639Y-74537D01*
X64601Y-74445D01*
X64531Y-74375D01*
X64442Y-74338D01*
X67073Y-71706D01*
X72387Y-71706D01*
X72387Y-72834D01*
X72387Y-72834D01*
X72409Y-72945D01*
X72414Y-72967D01*
X72489Y-73081D01*
X73549Y-74140D01*
X73549Y-74337D01*
X73356Y-74337D01*
X73264Y-74374D01*
X73193Y-74445D01*
X73155Y-74537D01*
X73155Y-74636D01*
X73155Y-76643D01*
X73193Y-76735D01*
X73263Y-76805D01*
X73355Y-76844D01*
X73455Y-76844D01*
X73965Y-76844D01*
X73965Y-79175D01*
X73965Y-79175D01*
G37*
G54D49*
X73965Y-79175D02*
X64619Y-79175D01*
X64619Y-77687D01*
X64491Y-77378D01*
X64255Y-77141D01*
X63946Y-77013D01*
X63612Y-77013D01*
X63303Y-77141D01*
X63066Y-77377D01*
X62938Y-77686D01*
X62938Y-78020D01*
X63066Y-78329D01*
X63302Y-78566D01*
X63611Y-78694D01*
X63945Y-78694D01*
X64254Y-78566D01*
X64491Y-78330D01*
X64619Y-78021D01*
X64619Y-77687D01*
X64619Y-79175D01*
X62225Y-79175D01*
X62225Y-63006D01*
X62268Y-63050D01*
X62268Y-63061D01*
X62291Y-63175D01*
X62356Y-63273D01*
X62888Y-63804D01*
X62822Y-63831D01*
X62752Y-63901D01*
X62714Y-63993D01*
X62713Y-64093D01*
X62713Y-64343D01*
X62751Y-64434D01*
X62822Y-64505D01*
X62914Y-64543D01*
X63013Y-64543D01*
X63463Y-64543D01*
X63509Y-64524D01*
X63961Y-64975D01*
X63961Y-64975D01*
X64058Y-65040D01*
X64173Y-65063D01*
X64173Y-65063D01*
X65122Y-65063D01*
X65065Y-65120D01*
X65000Y-65217D01*
X64993Y-65250D01*
X64993Y-65250D01*
X63729Y-66514D01*
X63729Y-66904D01*
X63702Y-66838D01*
X63632Y-66768D01*
X63565Y-66740D01*
X63565Y-66714D01*
X63565Y-66464D01*
X63527Y-66372D01*
X63457Y-66301D01*
X63365Y-66263D01*
X63266Y-66263D01*
X62816Y-66263D01*
X62724Y-66301D01*
X62653Y-66371D01*
X62615Y-66463D01*
X62615Y-66563D01*
X62615Y-66740D01*
X62549Y-66768D01*
X62478Y-66838D01*
X62440Y-66930D01*
X62440Y-67029D01*
X62440Y-69229D01*
X62478Y-69321D01*
X62548Y-69392D01*
X62640Y-69430D01*
X62740Y-69430D01*
X63540Y-69430D01*
X63631Y-69392D01*
X63702Y-69322D01*
X63729Y-69256D01*
X63729Y-69507D01*
X62878Y-70358D01*
X62830Y-70430D01*
X62641Y-70430D01*
X62549Y-70468D01*
X62478Y-70538D01*
X62440Y-70630D01*
X62440Y-70729D01*
X62440Y-72929D01*
X62478Y-73021D01*
X62548Y-73092D01*
X62615Y-73119D01*
X62615Y-73148D01*
X62615Y-73398D01*
X62653Y-73490D01*
X62723Y-73560D01*
X62815Y-73598D01*
X62915Y-73598D01*
X63365Y-73598D01*
X63456Y-73560D01*
X63527Y-73490D01*
X63565Y-73398D01*
X63565Y-73299D01*
X63565Y-73119D01*
X63631Y-73092D01*
X63702Y-73022D01*
X63740Y-72930D01*
X63740Y-72830D01*
X63740Y-71703D01*
X66091Y-71703D01*
X63651Y-74143D01*
X63575Y-74256D01*
X63571Y-74278D01*
X63559Y-74337D01*
X63356Y-74337D01*
X63264Y-74374D01*
X63193Y-74445D01*
X63155Y-74537D01*
X63155Y-74636D01*
X63155Y-76643D01*
X63193Y-76735D01*
X63263Y-76805D01*
X63355Y-76844D01*
X63455Y-76844D01*
X64439Y-76844D01*
X64531Y-76806D01*
X64601Y-76735D01*
X64639Y-76643D01*
X64639Y-76544D01*
X64639Y-74537D01*
X64601Y-74445D01*
X64531Y-74375D01*
X64442Y-74338D01*
X67073Y-71706D01*
X72387Y-71706D01*
X72387Y-72834D01*
X72387Y-72834D01*
X72409Y-72945D01*
X72414Y-72967D01*
X72489Y-73081D01*
X73549Y-74140D01*
X73549Y-74337D01*
X73356Y-74337D01*
X73264Y-74374D01*
X73193Y-74445D01*
X73155Y-74537D01*
X73155Y-74636D01*
X73155Y-76643D01*
X73193Y-76735D01*
X73263Y-76805D01*
X73355Y-76844D01*
X73455Y-76844D01*
X73965Y-76844D01*
X73965Y-79175D01*
M02*
