G04 (created by PCBNEW (2013-04-21 BZR 4107)-testing) date Thursday, 13 June 2013 16:51:54*
%MOIN*%
G04 Gerber Fmt 3.4, Leading zero omitted, Abs format*
%FSLAX34Y34*%
G01*
G70*
G90*
G04 APERTURE LIST*
%ADD10C,2.3622e-06*%
%ADD11R,0.1X0.1*%
%ADD12C,0.1*%
%ADD13C,0.1181*%
%ADD14C,0.0393701*%
%ADD15C,0.0295276*%
%ADD16C,0.01*%
G04 APERTURE END LIST*
G54D10*
G54D11*
X63385Y-48212D03*
G54D12*
X63385Y-50212D03*
G54D13*
X93622Y-48819D03*
X63779Y-77854D03*
X93660Y-77854D03*
G54D14*
X80314Y-72183D03*
X80314Y-61848D03*
X80314Y-51513D03*
X76771Y-70472D03*
X77559Y-70472D03*
X77952Y-60236D03*
X78740Y-60236D03*
X79527Y-60236D03*
X80314Y-60236D03*
X77165Y-71259D03*
X77952Y-71259D03*
X78346Y-70472D03*
X79133Y-70472D03*
X79921Y-70472D03*
X79527Y-71259D03*
X78740Y-71259D03*
X76377Y-71259D03*
X75590Y-71259D03*
X77952Y-69291D03*
X78740Y-69291D03*
X79527Y-69291D03*
X76771Y-61023D03*
X77559Y-61023D03*
X78346Y-61023D03*
X79921Y-50000D03*
X79133Y-50000D03*
X78346Y-50000D03*
X77559Y-50000D03*
X65944Y-50000D03*
X65354Y-50590D03*
X67125Y-50000D03*
X66535Y-50590D03*
X68011Y-54330D03*
X67322Y-53838D03*
X79921Y-61023D03*
X79133Y-61023D03*
X77165Y-60236D03*
X70767Y-50886D03*
X71259Y-51574D03*
X70472Y-51574D03*
X74803Y-50787D03*
X75590Y-50787D03*
X76377Y-50787D03*
X77165Y-50787D03*
X77952Y-50787D03*
X78740Y-50787D03*
X79527Y-50787D03*
X77362Y-55118D03*
X76771Y-55118D03*
X67716Y-50590D03*
X64763Y-50000D03*
X78248Y-55118D03*
X78248Y-75787D03*
X77460Y-75787D03*
X78248Y-65452D03*
X77362Y-65452D03*
X80314Y-50688D03*
X80314Y-71358D03*
X74114Y-51574D03*
X76082Y-61023D03*
X74704Y-72539D03*
X78641Y-69881D03*
X78641Y-59547D03*
X78641Y-49212D03*
X63188Y-54429D03*
X63877Y-54429D03*
X62401Y-54133D03*
X62401Y-51968D03*
X68602Y-62401D03*
X70078Y-64960D03*
X68011Y-64960D03*
X71850Y-64173D03*
X73228Y-64763D03*
X69783Y-56102D03*
X70374Y-54527D03*
X70570Y-66043D03*
X66043Y-70964D03*
X62696Y-55511D03*
X64173Y-57283D03*
X62401Y-53051D03*
X63484Y-55511D03*
X69586Y-56791D03*
X67125Y-68700D03*
X70866Y-61417D03*
X73720Y-63090D03*
X67125Y-61023D03*
X68897Y-49606D03*
X93897Y-51181D03*
X68799Y-57677D03*
X92421Y-51181D03*
X93208Y-51181D03*
X91732Y-51181D03*
X91732Y-52755D03*
X92421Y-52755D03*
X93208Y-52755D03*
X93897Y-52755D03*
X72244Y-57677D03*
X75098Y-53149D03*
X82381Y-52559D03*
X77854Y-52559D03*
X78543Y-52559D03*
X82381Y-56397D03*
X83070Y-52559D03*
X84350Y-53346D03*
X66830Y-57480D03*
X94192Y-57283D03*
X93897Y-60925D03*
X68799Y-58464D03*
X93208Y-60925D03*
X92421Y-60925D03*
X91732Y-60925D03*
X91732Y-62500D03*
X93208Y-62500D03*
X92421Y-62500D03*
X93897Y-62500D03*
X72244Y-58858D03*
X75098Y-63385D03*
X72244Y-58267D03*
X74507Y-62204D03*
X82381Y-64173D03*
X82381Y-62893D03*
X82381Y-66732D03*
X83070Y-62893D03*
X84350Y-63090D03*
X77854Y-62893D03*
X78543Y-62893D03*
X66830Y-58464D03*
X94192Y-67125D03*
X68799Y-59350D03*
X93897Y-70669D03*
X92421Y-70669D03*
X93208Y-70669D03*
X91732Y-70669D03*
X93897Y-72244D03*
X93208Y-72244D03*
X92421Y-72244D03*
X91732Y-72244D03*
X75098Y-73720D03*
X72244Y-60039D03*
X75098Y-74212D03*
X72244Y-59448D03*
X82381Y-73228D03*
X83070Y-73228D03*
X82381Y-77066D03*
X84350Y-72834D03*
X77854Y-73228D03*
X78543Y-73228D03*
X66830Y-59448D03*
X93110Y-76377D03*
X80314Y-55610D03*
X80314Y-56594D03*
X80314Y-56102D03*
X80314Y-65944D03*
X80314Y-66437D03*
X80314Y-66929D03*
X80314Y-77263D03*
X80314Y-76771D03*
X80314Y-76279D03*
X74901Y-60137D03*
X79527Y-55118D03*
X79527Y-65452D03*
X79527Y-75787D03*
X88976Y-47637D03*
X89763Y-47637D03*
X88188Y-48425D03*
X82283Y-48031D03*
X83070Y-48425D03*
X81496Y-48425D03*
X75984Y-48425D03*
X93110Y-75196D03*
X70964Y-56889D03*
X76377Y-68503D03*
X75984Y-67716D03*
X75196Y-67716D03*
X75590Y-68503D03*
X75984Y-69291D03*
X75196Y-69291D03*
X82677Y-68503D03*
X81889Y-68503D03*
X81496Y-69291D03*
X90157Y-77559D03*
X89370Y-77559D03*
X88582Y-77559D03*
X87007Y-77559D03*
X86220Y-77559D03*
X85433Y-77559D03*
X84645Y-77559D03*
X83858Y-77559D03*
X83858Y-75984D03*
X84645Y-75984D03*
X85433Y-75984D03*
X86220Y-75984D03*
X87007Y-75984D03*
X88582Y-75984D03*
X89370Y-75984D03*
X90157Y-75984D03*
X89763Y-68897D03*
X90551Y-68897D03*
X91338Y-68897D03*
X90944Y-68110D03*
X90157Y-68110D03*
X89370Y-68110D03*
X88582Y-68110D03*
X87795Y-68110D03*
X87007Y-68110D03*
X86220Y-68110D03*
X85433Y-68110D03*
X84645Y-68110D03*
X83858Y-68110D03*
X88582Y-66141D03*
X89370Y-66141D03*
X90157Y-66141D03*
X87007Y-66141D03*
X86220Y-66141D03*
X85433Y-66141D03*
X84645Y-66141D03*
X83858Y-66141D03*
X92125Y-66929D03*
X92913Y-66929D03*
X93307Y-66141D03*
X92519Y-66141D03*
X91732Y-66141D03*
X73622Y-48269D03*
X74015Y-49212D03*
X73228Y-49212D03*
X72440Y-49212D03*
X71161Y-47736D03*
X70866Y-49212D03*
X71653Y-49212D03*
X71259Y-48425D03*
X83858Y-58267D03*
X84645Y-58267D03*
X85433Y-58267D03*
X86220Y-58267D03*
X87007Y-58267D03*
X87795Y-58267D03*
X88582Y-58267D03*
X89370Y-58267D03*
X90157Y-58267D03*
X90944Y-58267D03*
X89763Y-59055D03*
X90551Y-59055D03*
X91338Y-59055D03*
X92125Y-57086D03*
X92913Y-57086D03*
X93307Y-56299D03*
X92519Y-56299D03*
X91732Y-56299D03*
X90944Y-56299D03*
X90157Y-56299D03*
X89370Y-56299D03*
X88582Y-56299D03*
X87795Y-56299D03*
X87007Y-56299D03*
X86220Y-56299D03*
X85433Y-56299D03*
X84645Y-56299D03*
X83858Y-56299D03*
X83070Y-58661D03*
X82283Y-58661D03*
X81496Y-58661D03*
X81496Y-60236D03*
X75590Y-58661D03*
X74803Y-58661D03*
X64960Y-47637D03*
X65551Y-48228D03*
X66141Y-47637D03*
X66732Y-48228D03*
X67322Y-47637D03*
X67913Y-48228D03*
X68503Y-47637D03*
X68799Y-52460D03*
X68799Y-53641D03*
X68996Y-53051D03*
X75196Y-64468D03*
X93405Y-65452D03*
X82086Y-69192D03*
X74704Y-54822D03*
X76870Y-77263D03*
X76870Y-56594D03*
X76870Y-66830D03*
X62696Y-57283D03*
X63484Y-57283D03*
X66830Y-61515D03*
X66141Y-57578D03*
X65354Y-72244D03*
X70570Y-67618D03*
X63090Y-65551D03*
X67027Y-56200D03*
X70669Y-60629D03*
X68799Y-59940D03*
X70866Y-64074D03*
X72145Y-67125D03*
X71850Y-70472D03*
X70866Y-70472D03*
X73523Y-66732D03*
X66830Y-63681D03*
X70866Y-62106D03*
X67027Y-52263D03*
X69192Y-56102D03*
X64763Y-65255D03*
X73031Y-61417D03*
X65944Y-55610D03*
X67519Y-53051D03*
X67913Y-53641D03*
X67913Y-52460D03*
X64763Y-72047D03*
X63090Y-74311D03*
X65157Y-56102D03*
X66633Y-55610D03*
X64716Y-62704D03*
X64714Y-61635D03*
X63972Y-58681D03*
X62574Y-58196D03*
X62566Y-59161D03*
X62568Y-62718D03*
X62566Y-61590D03*
G54D15*
X70669Y-60629D02*
X71850Y-60629D01*
X71850Y-60629D02*
X72637Y-61417D01*
X72637Y-61417D02*
X73031Y-61417D01*
G54D10*
G36*
X73965Y-79175D02*
X73675Y-79175D01*
X73675Y-64675D01*
X73607Y-64510D01*
X73481Y-64385D01*
X73317Y-64317D01*
X73280Y-64316D01*
X73280Y-63805D01*
X73212Y-63641D01*
X73087Y-63515D01*
X72923Y-63447D01*
X72746Y-63447D01*
X72582Y-63515D01*
X72456Y-63640D01*
X72388Y-63804D01*
X72388Y-63982D01*
X72456Y-64146D01*
X72581Y-64271D01*
X72745Y-64339D01*
X72922Y-64339D01*
X73086Y-64272D01*
X73212Y-64146D01*
X73280Y-63982D01*
X73280Y-63805D01*
X73280Y-64316D01*
X73139Y-64316D01*
X72975Y-64384D01*
X72849Y-64510D01*
X72781Y-64674D01*
X72781Y-64852D01*
X72849Y-65016D01*
X72974Y-65142D01*
X73139Y-65210D01*
X73316Y-65210D01*
X73481Y-65142D01*
X73606Y-65017D01*
X73675Y-64853D01*
X73675Y-64675D01*
X73675Y-79175D01*
X72297Y-79175D01*
X72297Y-64084D01*
X72229Y-63920D01*
X72103Y-63794D01*
X71939Y-63726D01*
X71761Y-63726D01*
X71597Y-63794D01*
X71471Y-63919D01*
X71403Y-64083D01*
X71403Y-64261D01*
X71471Y-64426D01*
X71596Y-64551D01*
X71761Y-64620D01*
X71938Y-64620D01*
X72103Y-64552D01*
X72228Y-64426D01*
X72297Y-64262D01*
X72297Y-64084D01*
X72297Y-79175D01*
X71313Y-79175D01*
X71313Y-61328D01*
X71245Y-61164D01*
X71119Y-61038D01*
X70955Y-60970D01*
X70777Y-60970D01*
X70613Y-61038D01*
X70487Y-61163D01*
X70419Y-61328D01*
X70419Y-61505D01*
X70487Y-61670D01*
X70612Y-61795D01*
X70776Y-61864D01*
X70954Y-61864D01*
X71118Y-61796D01*
X71244Y-61670D01*
X71312Y-61506D01*
X71313Y-61328D01*
X71313Y-79175D01*
X71017Y-79175D01*
X71017Y-65954D01*
X70949Y-65790D01*
X70824Y-65664D01*
X70660Y-65596D01*
X70525Y-65596D01*
X70525Y-64872D01*
X70457Y-64707D01*
X70332Y-64582D01*
X70168Y-64513D01*
X69990Y-64513D01*
X69825Y-64581D01*
X69700Y-64707D01*
X69631Y-64871D01*
X69631Y-65049D01*
X69699Y-65213D01*
X69825Y-65339D01*
X69989Y-65407D01*
X70167Y-65407D01*
X70331Y-65339D01*
X70457Y-65214D01*
X70525Y-65049D01*
X70525Y-64872D01*
X70525Y-65596D01*
X70482Y-65596D01*
X70318Y-65664D01*
X70192Y-65789D01*
X70124Y-65954D01*
X70123Y-66131D01*
X70191Y-66296D01*
X70317Y-66421D01*
X70481Y-66490D01*
X70659Y-66490D01*
X70823Y-66422D01*
X70949Y-66296D01*
X71017Y-66132D01*
X71017Y-65954D01*
X71017Y-79175D01*
X69246Y-79175D01*
X69246Y-59261D01*
X69178Y-59097D01*
X69052Y-58971D01*
X68897Y-58907D01*
X69052Y-58843D01*
X69177Y-58718D01*
X69245Y-58553D01*
X69246Y-58376D01*
X69178Y-58211D01*
X69052Y-58085D01*
X69016Y-58070D01*
X69052Y-58056D01*
X69177Y-57930D01*
X69245Y-57766D01*
X69246Y-57588D01*
X69178Y-57424D01*
X69052Y-57298D01*
X68888Y-57230D01*
X68710Y-57230D01*
X68546Y-57298D01*
X68420Y-57423D01*
X68352Y-57587D01*
X68352Y-57765D01*
X68420Y-57929D01*
X68545Y-58055D01*
X68582Y-58070D01*
X68546Y-58085D01*
X68420Y-58211D01*
X68352Y-58375D01*
X68352Y-58553D01*
X68420Y-58717D01*
X68545Y-58843D01*
X68700Y-58907D01*
X68546Y-58971D01*
X68420Y-59096D01*
X68352Y-59261D01*
X68352Y-59438D01*
X68420Y-59603D01*
X68545Y-59728D01*
X68709Y-59797D01*
X68887Y-59797D01*
X69052Y-59729D01*
X69177Y-59603D01*
X69245Y-59439D01*
X69246Y-59261D01*
X69246Y-79175D01*
X69049Y-79175D01*
X69049Y-62313D01*
X68981Y-62148D01*
X68855Y-62022D01*
X68691Y-61954D01*
X68513Y-61954D01*
X68349Y-62022D01*
X68223Y-62148D01*
X68155Y-62312D01*
X68155Y-62490D01*
X68223Y-62654D01*
X68348Y-62780D01*
X68513Y-62848D01*
X68690Y-62848D01*
X68855Y-62780D01*
X68980Y-62655D01*
X69049Y-62490D01*
X69049Y-62313D01*
X69049Y-79175D01*
X68458Y-79175D01*
X68458Y-64872D01*
X68390Y-64707D01*
X68265Y-64582D01*
X68101Y-64513D01*
X67923Y-64513D01*
X67759Y-64581D01*
X67633Y-64707D01*
X67572Y-64852D01*
X67572Y-60935D01*
X67505Y-60770D01*
X67379Y-60645D01*
X67277Y-60602D01*
X67277Y-59360D01*
X67277Y-58376D01*
X67277Y-57391D01*
X67209Y-57227D01*
X67084Y-57101D01*
X67080Y-57100D01*
X67080Y-55521D01*
X67012Y-55357D01*
X66887Y-55231D01*
X66723Y-55163D01*
X66545Y-55163D01*
X66381Y-55231D01*
X66255Y-55356D01*
X66187Y-55520D01*
X66186Y-55698D01*
X66254Y-55863D01*
X66380Y-55988D01*
X66544Y-56057D01*
X66722Y-56057D01*
X66886Y-55989D01*
X67012Y-55863D01*
X67080Y-55699D01*
X67080Y-55521D01*
X67080Y-57100D01*
X66919Y-57033D01*
X66742Y-57033D01*
X66577Y-57101D01*
X66452Y-57226D01*
X66383Y-57391D01*
X66383Y-57568D01*
X66451Y-57733D01*
X66577Y-57858D01*
X66741Y-57927D01*
X66919Y-57927D01*
X67083Y-57859D01*
X67209Y-57733D01*
X67277Y-57569D01*
X67277Y-57391D01*
X67277Y-58376D01*
X67209Y-58211D01*
X67084Y-58085D01*
X66919Y-58017D01*
X66742Y-58017D01*
X66577Y-58085D01*
X66452Y-58211D01*
X66383Y-58375D01*
X66383Y-58553D01*
X66451Y-58717D01*
X66577Y-58843D01*
X66741Y-58911D01*
X66919Y-58911D01*
X67083Y-58843D01*
X67209Y-58718D01*
X67277Y-58553D01*
X67277Y-58376D01*
X67277Y-59360D01*
X67209Y-59196D01*
X67084Y-59070D01*
X66919Y-59002D01*
X66742Y-59001D01*
X66577Y-59069D01*
X66452Y-59195D01*
X66383Y-59359D01*
X66383Y-59537D01*
X66451Y-59701D01*
X66577Y-59827D01*
X66741Y-59895D01*
X66919Y-59895D01*
X67083Y-59827D01*
X67209Y-59702D01*
X67277Y-59538D01*
X67277Y-59360D01*
X67277Y-60602D01*
X67215Y-60576D01*
X67037Y-60576D01*
X66873Y-60644D01*
X66747Y-60770D01*
X66679Y-60934D01*
X66679Y-61112D01*
X66746Y-61276D01*
X66872Y-61402D01*
X67036Y-61470D01*
X67214Y-61470D01*
X67378Y-61402D01*
X67504Y-61277D01*
X67572Y-61112D01*
X67572Y-60935D01*
X67572Y-64852D01*
X67565Y-64871D01*
X67564Y-65049D01*
X67632Y-65213D01*
X67758Y-65339D01*
X67922Y-65407D01*
X68100Y-65407D01*
X68264Y-65339D01*
X68390Y-65214D01*
X68458Y-65049D01*
X68458Y-64872D01*
X68458Y-79175D01*
X67572Y-79175D01*
X67572Y-68612D01*
X67505Y-68447D01*
X67379Y-68322D01*
X67215Y-68254D01*
X67037Y-68253D01*
X66873Y-68321D01*
X66747Y-68447D01*
X66679Y-68611D01*
X66679Y-68789D01*
X66746Y-68953D01*
X66872Y-69079D01*
X67036Y-69147D01*
X67214Y-69147D01*
X67378Y-69079D01*
X67504Y-68954D01*
X67572Y-68790D01*
X67572Y-68612D01*
X67572Y-79175D01*
X66490Y-79175D01*
X66490Y-70876D01*
X66422Y-70711D01*
X66296Y-70585D01*
X66132Y-70517D01*
X65954Y-70517D01*
X65790Y-70585D01*
X65664Y-70711D01*
X65604Y-70856D01*
X65604Y-56013D01*
X65536Y-55849D01*
X65410Y-55723D01*
X65246Y-55655D01*
X65068Y-55655D01*
X64904Y-55723D01*
X64778Y-55848D01*
X64710Y-56013D01*
X64710Y-56190D01*
X64778Y-56355D01*
X64904Y-56480D01*
X65068Y-56549D01*
X65245Y-56549D01*
X65410Y-56481D01*
X65536Y-56355D01*
X65604Y-56191D01*
X65604Y-56013D01*
X65604Y-70856D01*
X65596Y-70875D01*
X65596Y-71053D01*
X65664Y-71217D01*
X65789Y-71343D01*
X65954Y-71411D01*
X66131Y-71411D01*
X66296Y-71343D01*
X66421Y-71218D01*
X66490Y-71053D01*
X66490Y-70876D01*
X66490Y-79175D01*
X65163Y-79175D01*
X65163Y-62616D01*
X65161Y-62611D01*
X65161Y-61547D01*
X65093Y-61383D01*
X64968Y-61257D01*
X64803Y-61189D01*
X64626Y-61188D01*
X64620Y-61191D01*
X64620Y-57194D01*
X64552Y-57030D01*
X64426Y-56904D01*
X64262Y-56836D01*
X64084Y-56836D01*
X63931Y-56899D01*
X63931Y-55423D01*
X63863Y-55259D01*
X63737Y-55133D01*
X63573Y-55065D01*
X63395Y-55064D01*
X63231Y-55132D01*
X63105Y-55258D01*
X63090Y-55294D01*
X63075Y-55259D01*
X62950Y-55133D01*
X62786Y-55065D01*
X62608Y-55064D01*
X62444Y-55132D01*
X62318Y-55258D01*
X62250Y-55422D01*
X62249Y-55600D01*
X62317Y-55764D01*
X62443Y-55890D01*
X62607Y-55958D01*
X62785Y-55958D01*
X62949Y-55890D01*
X63075Y-55765D01*
X63090Y-55729D01*
X63105Y-55764D01*
X63230Y-55890D01*
X63394Y-55958D01*
X63572Y-55958D01*
X63737Y-55890D01*
X63862Y-55765D01*
X63931Y-55601D01*
X63931Y-55423D01*
X63931Y-56899D01*
X63920Y-56904D01*
X63794Y-57030D01*
X63726Y-57194D01*
X63726Y-57371D01*
X63794Y-57536D01*
X63919Y-57662D01*
X64083Y-57730D01*
X64261Y-57730D01*
X64426Y-57662D01*
X64551Y-57536D01*
X64620Y-57372D01*
X64620Y-57194D01*
X64620Y-61191D01*
X64461Y-61256D01*
X64419Y-61299D01*
X64419Y-58592D01*
X64351Y-58428D01*
X64225Y-58302D01*
X64061Y-58234D01*
X63883Y-58234D01*
X63719Y-58302D01*
X63593Y-58427D01*
X63525Y-58591D01*
X63525Y-58769D01*
X63593Y-58933D01*
X63718Y-59059D01*
X63883Y-59127D01*
X64060Y-59128D01*
X64225Y-59060D01*
X64351Y-58934D01*
X64419Y-58770D01*
X64419Y-58592D01*
X64419Y-61299D01*
X64335Y-61382D01*
X64267Y-61546D01*
X64267Y-61724D01*
X64335Y-61888D01*
X64461Y-62014D01*
X64625Y-62082D01*
X64803Y-62082D01*
X64967Y-62014D01*
X65093Y-61889D01*
X65161Y-61725D01*
X65161Y-61547D01*
X65161Y-62611D01*
X65095Y-62451D01*
X64969Y-62326D01*
X64805Y-62257D01*
X64628Y-62257D01*
X64463Y-62325D01*
X64337Y-62451D01*
X64269Y-62615D01*
X64269Y-62793D01*
X64337Y-62957D01*
X64463Y-63083D01*
X64627Y-63151D01*
X64805Y-63151D01*
X64969Y-63083D01*
X65095Y-62958D01*
X65163Y-62793D01*
X65163Y-62616D01*
X65163Y-79175D01*
X64619Y-79175D01*
X64619Y-77687D01*
X64491Y-77378D01*
X64255Y-77141D01*
X63946Y-77013D01*
X63612Y-77013D01*
X63303Y-77141D01*
X63066Y-77377D01*
X62938Y-77686D01*
X62938Y-78020D01*
X63066Y-78329D01*
X63302Y-78566D01*
X63611Y-78694D01*
X63945Y-78694D01*
X64254Y-78566D01*
X64491Y-78330D01*
X64619Y-78021D01*
X64619Y-77687D01*
X64619Y-79175D01*
X62225Y-79175D01*
X62225Y-63006D01*
X62315Y-63097D01*
X62479Y-63165D01*
X62657Y-63165D01*
X62821Y-63097D01*
X62947Y-62971D01*
X63015Y-62807D01*
X63015Y-62630D01*
X62947Y-62465D01*
X62822Y-62339D01*
X62658Y-62271D01*
X62480Y-62271D01*
X62316Y-62339D01*
X62225Y-62430D01*
X62225Y-61880D01*
X62313Y-61969D01*
X62477Y-62037D01*
X62655Y-62037D01*
X62819Y-61969D01*
X62945Y-61844D01*
X63013Y-61679D01*
X63013Y-61502D01*
X62945Y-61337D01*
X62820Y-61211D01*
X62656Y-61143D01*
X62478Y-61143D01*
X62314Y-61211D01*
X62225Y-61300D01*
X62225Y-59451D01*
X62313Y-59540D01*
X62477Y-59608D01*
X62655Y-59608D01*
X62819Y-59540D01*
X62945Y-59414D01*
X63013Y-59250D01*
X63013Y-59072D01*
X62945Y-58908D01*
X62820Y-58782D01*
X62656Y-58714D01*
X62478Y-58714D01*
X62314Y-58782D01*
X62225Y-58871D01*
X62225Y-58478D01*
X62321Y-58575D01*
X62485Y-58643D01*
X62663Y-58643D01*
X62827Y-58575D01*
X62953Y-58450D01*
X63021Y-58286D01*
X63021Y-58108D01*
X62953Y-57944D01*
X62828Y-57818D01*
X62664Y-57750D01*
X62486Y-57749D01*
X62322Y-57817D01*
X62225Y-57914D01*
X62225Y-54544D01*
X62312Y-54580D01*
X62490Y-54580D01*
X62654Y-54512D01*
X62742Y-54425D01*
X62742Y-54517D01*
X62809Y-54681D01*
X62935Y-54807D01*
X63099Y-54875D01*
X63277Y-54876D01*
X63441Y-54808D01*
X63533Y-54716D01*
X63624Y-54807D01*
X63788Y-54875D01*
X63966Y-54876D01*
X64130Y-54808D01*
X64256Y-54682D01*
X64324Y-54518D01*
X64324Y-54340D01*
X64256Y-54176D01*
X64131Y-54050D01*
X63967Y-53982D01*
X63789Y-53982D01*
X63625Y-54050D01*
X63533Y-54141D01*
X63442Y-54050D01*
X63278Y-53982D01*
X63100Y-53982D01*
X62936Y-54050D01*
X62848Y-54137D01*
X62848Y-54045D01*
X62780Y-53881D01*
X62655Y-53755D01*
X62490Y-53687D01*
X62313Y-53686D01*
X62225Y-53723D01*
X62225Y-53461D01*
X62312Y-53497D01*
X62490Y-53498D01*
X62654Y-53430D01*
X62780Y-53304D01*
X62848Y-53140D01*
X62848Y-52962D01*
X62780Y-52798D01*
X62655Y-52672D01*
X62490Y-52604D01*
X62313Y-52604D01*
X62225Y-52640D01*
X62225Y-52379D01*
X62312Y-52415D01*
X62490Y-52415D01*
X62654Y-52347D01*
X62780Y-52221D01*
X62848Y-52057D01*
X62848Y-51880D01*
X62780Y-51715D01*
X62689Y-51624D01*
X68060Y-51624D01*
X68060Y-53883D01*
X67923Y-53883D01*
X67759Y-53951D01*
X67769Y-53927D01*
X67769Y-53750D01*
X67701Y-53585D01*
X67576Y-53459D01*
X67412Y-53391D01*
X67234Y-53391D01*
X67070Y-53459D01*
X66944Y-53585D01*
X66876Y-53749D01*
X66875Y-53927D01*
X66943Y-54091D01*
X67069Y-54217D01*
X67233Y-54285D01*
X67411Y-54285D01*
X67574Y-54217D01*
X67565Y-54241D01*
X67564Y-54419D01*
X67632Y-54583D01*
X67758Y-54709D01*
X67922Y-54777D01*
X68100Y-54777D01*
X68264Y-54709D01*
X68341Y-54632D01*
X69481Y-55772D01*
X69404Y-55848D01*
X69336Y-56013D01*
X69336Y-56190D01*
X69404Y-56355D01*
X69424Y-56374D01*
X69333Y-56412D01*
X69208Y-56537D01*
X69139Y-56702D01*
X69139Y-56879D01*
X69207Y-57044D01*
X69333Y-57169D01*
X69497Y-57238D01*
X69675Y-57238D01*
X69839Y-57170D01*
X69965Y-57044D01*
X70033Y-56880D01*
X70033Y-56702D01*
X69965Y-56538D01*
X69945Y-56518D01*
X70036Y-56481D01*
X70113Y-56404D01*
X70422Y-56713D01*
X70422Y-60679D01*
X73965Y-60679D01*
X73965Y-62708D01*
X73809Y-62643D01*
X73680Y-62643D01*
X73680Y-61805D01*
X73612Y-61641D01*
X73487Y-61515D01*
X73323Y-61447D01*
X73146Y-61447D01*
X72982Y-61515D01*
X72856Y-61640D01*
X72834Y-61693D01*
X72812Y-61641D01*
X72687Y-61515D01*
X72523Y-61447D01*
X72346Y-61447D01*
X72182Y-61515D01*
X72056Y-61640D01*
X71988Y-61804D01*
X71988Y-61982D01*
X72056Y-62146D01*
X72181Y-62271D01*
X72345Y-62339D01*
X72522Y-62339D01*
X72686Y-62272D01*
X72812Y-62146D01*
X72834Y-62093D01*
X72856Y-62146D01*
X72981Y-62271D01*
X73145Y-62339D01*
X73322Y-62339D01*
X73486Y-62272D01*
X73612Y-62146D01*
X73680Y-61982D01*
X73680Y-61805D01*
X73680Y-62643D01*
X73631Y-62643D01*
X73467Y-62711D01*
X73341Y-62837D01*
X73273Y-63001D01*
X73273Y-63179D01*
X73341Y-63343D01*
X73467Y-63469D01*
X73631Y-63537D01*
X73808Y-63537D01*
X73965Y-63472D01*
X73965Y-79175D01*
X73965Y-79175D01*
G37*
G54D16*
X73965Y-79175D02*
X73675Y-79175D01*
X73675Y-64675D01*
X73607Y-64510D01*
X73481Y-64385D01*
X73317Y-64317D01*
X73280Y-64316D01*
X73280Y-63805D01*
X73212Y-63641D01*
X73087Y-63515D01*
X72923Y-63447D01*
X72746Y-63447D01*
X72582Y-63515D01*
X72456Y-63640D01*
X72388Y-63804D01*
X72388Y-63982D01*
X72456Y-64146D01*
X72581Y-64271D01*
X72745Y-64339D01*
X72922Y-64339D01*
X73086Y-64272D01*
X73212Y-64146D01*
X73280Y-63982D01*
X73280Y-63805D01*
X73280Y-64316D01*
X73139Y-64316D01*
X72975Y-64384D01*
X72849Y-64510D01*
X72781Y-64674D01*
X72781Y-64852D01*
X72849Y-65016D01*
X72974Y-65142D01*
X73139Y-65210D01*
X73316Y-65210D01*
X73481Y-65142D01*
X73606Y-65017D01*
X73675Y-64853D01*
X73675Y-64675D01*
X73675Y-79175D01*
X72297Y-79175D01*
X72297Y-64084D01*
X72229Y-63920D01*
X72103Y-63794D01*
X71939Y-63726D01*
X71761Y-63726D01*
X71597Y-63794D01*
X71471Y-63919D01*
X71403Y-64083D01*
X71403Y-64261D01*
X71471Y-64426D01*
X71596Y-64551D01*
X71761Y-64620D01*
X71938Y-64620D01*
X72103Y-64552D01*
X72228Y-64426D01*
X72297Y-64262D01*
X72297Y-64084D01*
X72297Y-79175D01*
X71313Y-79175D01*
X71313Y-61328D01*
X71245Y-61164D01*
X71119Y-61038D01*
X70955Y-60970D01*
X70777Y-60970D01*
X70613Y-61038D01*
X70487Y-61163D01*
X70419Y-61328D01*
X70419Y-61505D01*
X70487Y-61670D01*
X70612Y-61795D01*
X70776Y-61864D01*
X70954Y-61864D01*
X71118Y-61796D01*
X71244Y-61670D01*
X71312Y-61506D01*
X71313Y-61328D01*
X71313Y-79175D01*
X71017Y-79175D01*
X71017Y-65954D01*
X70949Y-65790D01*
X70824Y-65664D01*
X70660Y-65596D01*
X70525Y-65596D01*
X70525Y-64872D01*
X70457Y-64707D01*
X70332Y-64582D01*
X70168Y-64513D01*
X69990Y-64513D01*
X69825Y-64581D01*
X69700Y-64707D01*
X69631Y-64871D01*
X69631Y-65049D01*
X69699Y-65213D01*
X69825Y-65339D01*
X69989Y-65407D01*
X70167Y-65407D01*
X70331Y-65339D01*
X70457Y-65214D01*
X70525Y-65049D01*
X70525Y-64872D01*
X70525Y-65596D01*
X70482Y-65596D01*
X70318Y-65664D01*
X70192Y-65789D01*
X70124Y-65954D01*
X70123Y-66131D01*
X70191Y-66296D01*
X70317Y-66421D01*
X70481Y-66490D01*
X70659Y-66490D01*
X70823Y-66422D01*
X70949Y-66296D01*
X71017Y-66132D01*
X71017Y-65954D01*
X71017Y-79175D01*
X69246Y-79175D01*
X69246Y-59261D01*
X69178Y-59097D01*
X69052Y-58971D01*
X68897Y-58907D01*
X69052Y-58843D01*
X69177Y-58718D01*
X69245Y-58553D01*
X69246Y-58376D01*
X69178Y-58211D01*
X69052Y-58085D01*
X69016Y-58070D01*
X69052Y-58056D01*
X69177Y-57930D01*
X69245Y-57766D01*
X69246Y-57588D01*
X69178Y-57424D01*
X69052Y-57298D01*
X68888Y-57230D01*
X68710Y-57230D01*
X68546Y-57298D01*
X68420Y-57423D01*
X68352Y-57587D01*
X68352Y-57765D01*
X68420Y-57929D01*
X68545Y-58055D01*
X68582Y-58070D01*
X68546Y-58085D01*
X68420Y-58211D01*
X68352Y-58375D01*
X68352Y-58553D01*
X68420Y-58717D01*
X68545Y-58843D01*
X68700Y-58907D01*
X68546Y-58971D01*
X68420Y-59096D01*
X68352Y-59261D01*
X68352Y-59438D01*
X68420Y-59603D01*
X68545Y-59728D01*
X68709Y-59797D01*
X68887Y-59797D01*
X69052Y-59729D01*
X69177Y-59603D01*
X69245Y-59439D01*
X69246Y-59261D01*
X69246Y-79175D01*
X69049Y-79175D01*
X69049Y-62313D01*
X68981Y-62148D01*
X68855Y-62022D01*
X68691Y-61954D01*
X68513Y-61954D01*
X68349Y-62022D01*
X68223Y-62148D01*
X68155Y-62312D01*
X68155Y-62490D01*
X68223Y-62654D01*
X68348Y-62780D01*
X68513Y-62848D01*
X68690Y-62848D01*
X68855Y-62780D01*
X68980Y-62655D01*
X69049Y-62490D01*
X69049Y-62313D01*
X69049Y-79175D01*
X68458Y-79175D01*
X68458Y-64872D01*
X68390Y-64707D01*
X68265Y-64582D01*
X68101Y-64513D01*
X67923Y-64513D01*
X67759Y-64581D01*
X67633Y-64707D01*
X67572Y-64852D01*
X67572Y-60935D01*
X67505Y-60770D01*
X67379Y-60645D01*
X67277Y-60602D01*
X67277Y-59360D01*
X67277Y-58376D01*
X67277Y-57391D01*
X67209Y-57227D01*
X67084Y-57101D01*
X67080Y-57100D01*
X67080Y-55521D01*
X67012Y-55357D01*
X66887Y-55231D01*
X66723Y-55163D01*
X66545Y-55163D01*
X66381Y-55231D01*
X66255Y-55356D01*
X66187Y-55520D01*
X66186Y-55698D01*
X66254Y-55863D01*
X66380Y-55988D01*
X66544Y-56057D01*
X66722Y-56057D01*
X66886Y-55989D01*
X67012Y-55863D01*
X67080Y-55699D01*
X67080Y-55521D01*
X67080Y-57100D01*
X66919Y-57033D01*
X66742Y-57033D01*
X66577Y-57101D01*
X66452Y-57226D01*
X66383Y-57391D01*
X66383Y-57568D01*
X66451Y-57733D01*
X66577Y-57858D01*
X66741Y-57927D01*
X66919Y-57927D01*
X67083Y-57859D01*
X67209Y-57733D01*
X67277Y-57569D01*
X67277Y-57391D01*
X67277Y-58376D01*
X67209Y-58211D01*
X67084Y-58085D01*
X66919Y-58017D01*
X66742Y-58017D01*
X66577Y-58085D01*
X66452Y-58211D01*
X66383Y-58375D01*
X66383Y-58553D01*
X66451Y-58717D01*
X66577Y-58843D01*
X66741Y-58911D01*
X66919Y-58911D01*
X67083Y-58843D01*
X67209Y-58718D01*
X67277Y-58553D01*
X67277Y-58376D01*
X67277Y-59360D01*
X67209Y-59196D01*
X67084Y-59070D01*
X66919Y-59002D01*
X66742Y-59001D01*
X66577Y-59069D01*
X66452Y-59195D01*
X66383Y-59359D01*
X66383Y-59537D01*
X66451Y-59701D01*
X66577Y-59827D01*
X66741Y-59895D01*
X66919Y-59895D01*
X67083Y-59827D01*
X67209Y-59702D01*
X67277Y-59538D01*
X67277Y-59360D01*
X67277Y-60602D01*
X67215Y-60576D01*
X67037Y-60576D01*
X66873Y-60644D01*
X66747Y-60770D01*
X66679Y-60934D01*
X66679Y-61112D01*
X66746Y-61276D01*
X66872Y-61402D01*
X67036Y-61470D01*
X67214Y-61470D01*
X67378Y-61402D01*
X67504Y-61277D01*
X67572Y-61112D01*
X67572Y-60935D01*
X67572Y-64852D01*
X67565Y-64871D01*
X67564Y-65049D01*
X67632Y-65213D01*
X67758Y-65339D01*
X67922Y-65407D01*
X68100Y-65407D01*
X68264Y-65339D01*
X68390Y-65214D01*
X68458Y-65049D01*
X68458Y-64872D01*
X68458Y-79175D01*
X67572Y-79175D01*
X67572Y-68612D01*
X67505Y-68447D01*
X67379Y-68322D01*
X67215Y-68254D01*
X67037Y-68253D01*
X66873Y-68321D01*
X66747Y-68447D01*
X66679Y-68611D01*
X66679Y-68789D01*
X66746Y-68953D01*
X66872Y-69079D01*
X67036Y-69147D01*
X67214Y-69147D01*
X67378Y-69079D01*
X67504Y-68954D01*
X67572Y-68790D01*
X67572Y-68612D01*
X67572Y-79175D01*
X66490Y-79175D01*
X66490Y-70876D01*
X66422Y-70711D01*
X66296Y-70585D01*
X66132Y-70517D01*
X65954Y-70517D01*
X65790Y-70585D01*
X65664Y-70711D01*
X65604Y-70856D01*
X65604Y-56013D01*
X65536Y-55849D01*
X65410Y-55723D01*
X65246Y-55655D01*
X65068Y-55655D01*
X64904Y-55723D01*
X64778Y-55848D01*
X64710Y-56013D01*
X64710Y-56190D01*
X64778Y-56355D01*
X64904Y-56480D01*
X65068Y-56549D01*
X65245Y-56549D01*
X65410Y-56481D01*
X65536Y-56355D01*
X65604Y-56191D01*
X65604Y-56013D01*
X65604Y-70856D01*
X65596Y-70875D01*
X65596Y-71053D01*
X65664Y-71217D01*
X65789Y-71343D01*
X65954Y-71411D01*
X66131Y-71411D01*
X66296Y-71343D01*
X66421Y-71218D01*
X66490Y-71053D01*
X66490Y-70876D01*
X66490Y-79175D01*
X65163Y-79175D01*
X65163Y-62616D01*
X65161Y-62611D01*
X65161Y-61547D01*
X65093Y-61383D01*
X64968Y-61257D01*
X64803Y-61189D01*
X64626Y-61188D01*
X64620Y-61191D01*
X64620Y-57194D01*
X64552Y-57030D01*
X64426Y-56904D01*
X64262Y-56836D01*
X64084Y-56836D01*
X63931Y-56899D01*
X63931Y-55423D01*
X63863Y-55259D01*
X63737Y-55133D01*
X63573Y-55065D01*
X63395Y-55064D01*
X63231Y-55132D01*
X63105Y-55258D01*
X63090Y-55294D01*
X63075Y-55259D01*
X62950Y-55133D01*
X62786Y-55065D01*
X62608Y-55064D01*
X62444Y-55132D01*
X62318Y-55258D01*
X62250Y-55422D01*
X62249Y-55600D01*
X62317Y-55764D01*
X62443Y-55890D01*
X62607Y-55958D01*
X62785Y-55958D01*
X62949Y-55890D01*
X63075Y-55765D01*
X63090Y-55729D01*
X63105Y-55764D01*
X63230Y-55890D01*
X63394Y-55958D01*
X63572Y-55958D01*
X63737Y-55890D01*
X63862Y-55765D01*
X63931Y-55601D01*
X63931Y-55423D01*
X63931Y-56899D01*
X63920Y-56904D01*
X63794Y-57030D01*
X63726Y-57194D01*
X63726Y-57371D01*
X63794Y-57536D01*
X63919Y-57662D01*
X64083Y-57730D01*
X64261Y-57730D01*
X64426Y-57662D01*
X64551Y-57536D01*
X64620Y-57372D01*
X64620Y-57194D01*
X64620Y-61191D01*
X64461Y-61256D01*
X64419Y-61299D01*
X64419Y-58592D01*
X64351Y-58428D01*
X64225Y-58302D01*
X64061Y-58234D01*
X63883Y-58234D01*
X63719Y-58302D01*
X63593Y-58427D01*
X63525Y-58591D01*
X63525Y-58769D01*
X63593Y-58933D01*
X63718Y-59059D01*
X63883Y-59127D01*
X64060Y-59128D01*
X64225Y-59060D01*
X64351Y-58934D01*
X64419Y-58770D01*
X64419Y-58592D01*
X64419Y-61299D01*
X64335Y-61382D01*
X64267Y-61546D01*
X64267Y-61724D01*
X64335Y-61888D01*
X64461Y-62014D01*
X64625Y-62082D01*
X64803Y-62082D01*
X64967Y-62014D01*
X65093Y-61889D01*
X65161Y-61725D01*
X65161Y-61547D01*
X65161Y-62611D01*
X65095Y-62451D01*
X64969Y-62326D01*
X64805Y-62257D01*
X64628Y-62257D01*
X64463Y-62325D01*
X64337Y-62451D01*
X64269Y-62615D01*
X64269Y-62793D01*
X64337Y-62957D01*
X64463Y-63083D01*
X64627Y-63151D01*
X64805Y-63151D01*
X64969Y-63083D01*
X65095Y-62958D01*
X65163Y-62793D01*
X65163Y-62616D01*
X65163Y-79175D01*
X64619Y-79175D01*
X64619Y-77687D01*
X64491Y-77378D01*
X64255Y-77141D01*
X63946Y-77013D01*
X63612Y-77013D01*
X63303Y-77141D01*
X63066Y-77377D01*
X62938Y-77686D01*
X62938Y-78020D01*
X63066Y-78329D01*
X63302Y-78566D01*
X63611Y-78694D01*
X63945Y-78694D01*
X64254Y-78566D01*
X64491Y-78330D01*
X64619Y-78021D01*
X64619Y-77687D01*
X64619Y-79175D01*
X62225Y-79175D01*
X62225Y-63006D01*
X62315Y-63097D01*
X62479Y-63165D01*
X62657Y-63165D01*
X62821Y-63097D01*
X62947Y-62971D01*
X63015Y-62807D01*
X63015Y-62630D01*
X62947Y-62465D01*
X62822Y-62339D01*
X62658Y-62271D01*
X62480Y-62271D01*
X62316Y-62339D01*
X62225Y-62430D01*
X62225Y-61880D01*
X62313Y-61969D01*
X62477Y-62037D01*
X62655Y-62037D01*
X62819Y-61969D01*
X62945Y-61844D01*
X63013Y-61679D01*
X63013Y-61502D01*
X62945Y-61337D01*
X62820Y-61211D01*
X62656Y-61143D01*
X62478Y-61143D01*
X62314Y-61211D01*
X62225Y-61300D01*
X62225Y-59451D01*
X62313Y-59540D01*
X62477Y-59608D01*
X62655Y-59608D01*
X62819Y-59540D01*
X62945Y-59414D01*
X63013Y-59250D01*
X63013Y-59072D01*
X62945Y-58908D01*
X62820Y-58782D01*
X62656Y-58714D01*
X62478Y-58714D01*
X62314Y-58782D01*
X62225Y-58871D01*
X62225Y-58478D01*
X62321Y-58575D01*
X62485Y-58643D01*
X62663Y-58643D01*
X62827Y-58575D01*
X62953Y-58450D01*
X63021Y-58286D01*
X63021Y-58108D01*
X62953Y-57944D01*
X62828Y-57818D01*
X62664Y-57750D01*
X62486Y-57749D01*
X62322Y-57817D01*
X62225Y-57914D01*
X62225Y-54544D01*
X62312Y-54580D01*
X62490Y-54580D01*
X62654Y-54512D01*
X62742Y-54425D01*
X62742Y-54517D01*
X62809Y-54681D01*
X62935Y-54807D01*
X63099Y-54875D01*
X63277Y-54876D01*
X63441Y-54808D01*
X63533Y-54716D01*
X63624Y-54807D01*
X63788Y-54875D01*
X63966Y-54876D01*
X64130Y-54808D01*
X64256Y-54682D01*
X64324Y-54518D01*
X64324Y-54340D01*
X64256Y-54176D01*
X64131Y-54050D01*
X63967Y-53982D01*
X63789Y-53982D01*
X63625Y-54050D01*
X63533Y-54141D01*
X63442Y-54050D01*
X63278Y-53982D01*
X63100Y-53982D01*
X62936Y-54050D01*
X62848Y-54137D01*
X62848Y-54045D01*
X62780Y-53881D01*
X62655Y-53755D01*
X62490Y-53687D01*
X62313Y-53686D01*
X62225Y-53723D01*
X62225Y-53461D01*
X62312Y-53497D01*
X62490Y-53498D01*
X62654Y-53430D01*
X62780Y-53304D01*
X62848Y-53140D01*
X62848Y-52962D01*
X62780Y-52798D01*
X62655Y-52672D01*
X62490Y-52604D01*
X62313Y-52604D01*
X62225Y-52640D01*
X62225Y-52379D01*
X62312Y-52415D01*
X62490Y-52415D01*
X62654Y-52347D01*
X62780Y-52221D01*
X62848Y-52057D01*
X62848Y-51880D01*
X62780Y-51715D01*
X62689Y-51624D01*
X68060Y-51624D01*
X68060Y-53883D01*
X67923Y-53883D01*
X67759Y-53951D01*
X67769Y-53927D01*
X67769Y-53750D01*
X67701Y-53585D01*
X67576Y-53459D01*
X67412Y-53391D01*
X67234Y-53391D01*
X67070Y-53459D01*
X66944Y-53585D01*
X66876Y-53749D01*
X66875Y-53927D01*
X66943Y-54091D01*
X67069Y-54217D01*
X67233Y-54285D01*
X67411Y-54285D01*
X67574Y-54217D01*
X67565Y-54241D01*
X67564Y-54419D01*
X67632Y-54583D01*
X67758Y-54709D01*
X67922Y-54777D01*
X68100Y-54777D01*
X68264Y-54709D01*
X68341Y-54632D01*
X69481Y-55772D01*
X69404Y-55848D01*
X69336Y-56013D01*
X69336Y-56190D01*
X69404Y-56355D01*
X69424Y-56374D01*
X69333Y-56412D01*
X69208Y-56537D01*
X69139Y-56702D01*
X69139Y-56879D01*
X69207Y-57044D01*
X69333Y-57169D01*
X69497Y-57238D01*
X69675Y-57238D01*
X69839Y-57170D01*
X69965Y-57044D01*
X70033Y-56880D01*
X70033Y-56702D01*
X69965Y-56538D01*
X69945Y-56518D01*
X70036Y-56481D01*
X70113Y-56404D01*
X70422Y-56713D01*
X70422Y-60679D01*
X73965Y-60679D01*
X73965Y-62708D01*
X73809Y-62643D01*
X73680Y-62643D01*
X73680Y-61805D01*
X73612Y-61641D01*
X73487Y-61515D01*
X73323Y-61447D01*
X73146Y-61447D01*
X72982Y-61515D01*
X72856Y-61640D01*
X72834Y-61693D01*
X72812Y-61641D01*
X72687Y-61515D01*
X72523Y-61447D01*
X72346Y-61447D01*
X72182Y-61515D01*
X72056Y-61640D01*
X71988Y-61804D01*
X71988Y-61982D01*
X72056Y-62146D01*
X72181Y-62271D01*
X72345Y-62339D01*
X72522Y-62339D01*
X72686Y-62272D01*
X72812Y-62146D01*
X72834Y-62093D01*
X72856Y-62146D01*
X72981Y-62271D01*
X73145Y-62339D01*
X73322Y-62339D01*
X73486Y-62272D01*
X73612Y-62146D01*
X73680Y-61982D01*
X73680Y-61805D01*
X73680Y-62643D01*
X73631Y-62643D01*
X73467Y-62711D01*
X73341Y-62837D01*
X73273Y-63001D01*
X73273Y-63179D01*
X73341Y-63343D01*
X73467Y-63469D01*
X73631Y-63537D01*
X73808Y-63537D01*
X73965Y-63472D01*
X73965Y-79175D01*
G54D10*
G36*
X95175Y-79175D02*
X94639Y-79175D01*
X94639Y-67037D01*
X94639Y-57194D01*
X94571Y-57030D01*
X94462Y-56921D01*
X94462Y-48652D01*
X94334Y-48343D01*
X94098Y-48106D01*
X93789Y-47978D01*
X93455Y-47978D01*
X93146Y-48106D01*
X92909Y-48342D01*
X92781Y-48651D01*
X92781Y-48985D01*
X92909Y-49294D01*
X93145Y-49531D01*
X93454Y-49659D01*
X93788Y-49659D01*
X94097Y-49531D01*
X94334Y-49295D01*
X94462Y-48986D01*
X94462Y-48652D01*
X94462Y-56921D01*
X94446Y-56904D01*
X94344Y-56862D01*
X94344Y-52667D01*
X94344Y-51092D01*
X94276Y-50928D01*
X94151Y-50802D01*
X93986Y-50734D01*
X93809Y-50734D01*
X93644Y-50802D01*
X93553Y-50893D01*
X93462Y-50802D01*
X93297Y-50734D01*
X93120Y-50734D01*
X92955Y-50802D01*
X92830Y-50927D01*
X92815Y-50963D01*
X92800Y-50928D01*
X92674Y-50802D01*
X92510Y-50734D01*
X92332Y-50734D01*
X92168Y-50802D01*
X92076Y-50893D01*
X91985Y-50802D01*
X91821Y-50734D01*
X91643Y-50734D01*
X91479Y-50802D01*
X91353Y-50927D01*
X91285Y-51091D01*
X91285Y-51269D01*
X91353Y-51433D01*
X91478Y-51559D01*
X91643Y-51627D01*
X91820Y-51628D01*
X91985Y-51560D01*
X92076Y-51468D01*
X92167Y-51559D01*
X92331Y-51627D01*
X92509Y-51628D01*
X92674Y-51560D01*
X92799Y-51434D01*
X92814Y-51398D01*
X92829Y-51433D01*
X92955Y-51559D01*
X93119Y-51627D01*
X93297Y-51628D01*
X93461Y-51560D01*
X93553Y-51468D01*
X93644Y-51559D01*
X93808Y-51627D01*
X93986Y-51628D01*
X94150Y-51560D01*
X94276Y-51434D01*
X94344Y-51270D01*
X94344Y-51092D01*
X94344Y-52667D01*
X94276Y-52503D01*
X94151Y-52377D01*
X93986Y-52309D01*
X93809Y-52308D01*
X93644Y-52376D01*
X93553Y-52468D01*
X93462Y-52377D01*
X93297Y-52309D01*
X93120Y-52308D01*
X92955Y-52376D01*
X92830Y-52502D01*
X92815Y-52538D01*
X92800Y-52503D01*
X92674Y-52377D01*
X92510Y-52309D01*
X92332Y-52308D01*
X92168Y-52376D01*
X92076Y-52468D01*
X91985Y-52377D01*
X91821Y-52309D01*
X91643Y-52308D01*
X91479Y-52376D01*
X91353Y-52502D01*
X91285Y-52666D01*
X91285Y-52844D01*
X91353Y-53008D01*
X91478Y-53134D01*
X91643Y-53202D01*
X91820Y-53202D01*
X91985Y-53134D01*
X92076Y-53043D01*
X92167Y-53134D01*
X92331Y-53202D01*
X92509Y-53202D01*
X92674Y-53134D01*
X92799Y-53009D01*
X92814Y-52973D01*
X92829Y-53008D01*
X92955Y-53134D01*
X93119Y-53202D01*
X93297Y-53202D01*
X93461Y-53134D01*
X93553Y-53043D01*
X93644Y-53134D01*
X93808Y-53202D01*
X93986Y-53202D01*
X94150Y-53134D01*
X94276Y-53009D01*
X94344Y-52845D01*
X94344Y-52667D01*
X94344Y-56862D01*
X94282Y-56836D01*
X94104Y-56836D01*
X93940Y-56904D01*
X93814Y-57030D01*
X93746Y-57194D01*
X93745Y-57371D01*
X93813Y-57536D01*
X93939Y-57662D01*
X94103Y-57730D01*
X94281Y-57730D01*
X94445Y-57662D01*
X94571Y-57536D01*
X94639Y-57372D01*
X94639Y-57194D01*
X94639Y-67037D01*
X94571Y-66873D01*
X94446Y-66747D01*
X94344Y-66705D01*
X94344Y-62411D01*
X94344Y-60836D01*
X94276Y-60672D01*
X94151Y-60546D01*
X93986Y-60478D01*
X93809Y-60478D01*
X93644Y-60546D01*
X93553Y-60637D01*
X93462Y-60546D01*
X93297Y-60478D01*
X93120Y-60478D01*
X92955Y-60546D01*
X92830Y-60671D01*
X92815Y-60707D01*
X92800Y-60672D01*
X92674Y-60546D01*
X92510Y-60478D01*
X92332Y-60478D01*
X92168Y-60546D01*
X92076Y-60637D01*
X91985Y-60546D01*
X91821Y-60478D01*
X91643Y-60478D01*
X91479Y-60546D01*
X91353Y-60671D01*
X91285Y-60835D01*
X91285Y-61013D01*
X91353Y-61177D01*
X91478Y-61303D01*
X91643Y-61371D01*
X91820Y-61372D01*
X91985Y-61304D01*
X92076Y-61212D01*
X92167Y-61303D01*
X92331Y-61371D01*
X92509Y-61372D01*
X92674Y-61304D01*
X92799Y-61178D01*
X92814Y-61142D01*
X92829Y-61177D01*
X92955Y-61303D01*
X93119Y-61371D01*
X93297Y-61372D01*
X93461Y-61304D01*
X93553Y-61212D01*
X93644Y-61303D01*
X93808Y-61371D01*
X93986Y-61372D01*
X94150Y-61304D01*
X94276Y-61178D01*
X94344Y-61014D01*
X94344Y-60836D01*
X94344Y-62411D01*
X94276Y-62247D01*
X94151Y-62121D01*
X93986Y-62053D01*
X93809Y-62053D01*
X93644Y-62120D01*
X93553Y-62212D01*
X93462Y-62121D01*
X93297Y-62053D01*
X93120Y-62053D01*
X92955Y-62120D01*
X92830Y-62246D01*
X92815Y-62282D01*
X92800Y-62247D01*
X92674Y-62121D01*
X92510Y-62053D01*
X92332Y-62053D01*
X92168Y-62120D01*
X92076Y-62212D01*
X91985Y-62121D01*
X91821Y-62053D01*
X91643Y-62053D01*
X91479Y-62120D01*
X91353Y-62246D01*
X91285Y-62410D01*
X91285Y-62588D01*
X91353Y-62752D01*
X91478Y-62878D01*
X91643Y-62946D01*
X91820Y-62946D01*
X91985Y-62879D01*
X92076Y-62787D01*
X92167Y-62878D01*
X92331Y-62946D01*
X92509Y-62946D01*
X92674Y-62879D01*
X92799Y-62753D01*
X92814Y-62717D01*
X92829Y-62752D01*
X92955Y-62878D01*
X93119Y-62946D01*
X93297Y-62946D01*
X93461Y-62879D01*
X93553Y-62787D01*
X93644Y-62878D01*
X93808Y-62946D01*
X93986Y-62946D01*
X94150Y-62879D01*
X94276Y-62753D01*
X94344Y-62589D01*
X94344Y-62411D01*
X94344Y-66705D01*
X94282Y-66679D01*
X94104Y-66679D01*
X93940Y-66746D01*
X93814Y-66872D01*
X93746Y-67036D01*
X93745Y-67214D01*
X93813Y-67378D01*
X93939Y-67504D01*
X94103Y-67572D01*
X94281Y-67572D01*
X94445Y-67505D01*
X94571Y-67379D01*
X94639Y-67215D01*
X94639Y-67037D01*
X94639Y-79175D01*
X94500Y-79175D01*
X94500Y-77687D01*
X94372Y-77378D01*
X94344Y-77350D01*
X94344Y-72155D01*
X94344Y-70580D01*
X94276Y-70416D01*
X94151Y-70290D01*
X93986Y-70222D01*
X93809Y-70222D01*
X93644Y-70290D01*
X93553Y-70381D01*
X93462Y-70290D01*
X93297Y-70222D01*
X93120Y-70222D01*
X92955Y-70290D01*
X92830Y-70415D01*
X92815Y-70452D01*
X92800Y-70416D01*
X92674Y-70290D01*
X92510Y-70222D01*
X92332Y-70222D01*
X92168Y-70290D01*
X92076Y-70381D01*
X91985Y-70290D01*
X91821Y-70222D01*
X91643Y-70222D01*
X91479Y-70290D01*
X91353Y-70415D01*
X91285Y-70580D01*
X91285Y-70757D01*
X91353Y-70922D01*
X91478Y-71047D01*
X91643Y-71116D01*
X91820Y-71116D01*
X91985Y-71048D01*
X92076Y-70956D01*
X92167Y-71047D01*
X92331Y-71116D01*
X92509Y-71116D01*
X92674Y-71048D01*
X92799Y-70922D01*
X92814Y-70886D01*
X92829Y-70922D01*
X92955Y-71047D01*
X93119Y-71116D01*
X93297Y-71116D01*
X93461Y-71048D01*
X93553Y-70956D01*
X93644Y-71047D01*
X93808Y-71116D01*
X93986Y-71116D01*
X94150Y-71048D01*
X94276Y-70922D01*
X94344Y-70758D01*
X94344Y-70580D01*
X94344Y-72155D01*
X94276Y-71991D01*
X94151Y-71865D01*
X93986Y-71797D01*
X93809Y-71797D01*
X93644Y-71865D01*
X93553Y-71956D01*
X93462Y-71865D01*
X93297Y-71797D01*
X93120Y-71797D01*
X92955Y-71865D01*
X92830Y-71990D01*
X92815Y-72026D01*
X92800Y-71991D01*
X92674Y-71865D01*
X92510Y-71797D01*
X92332Y-71797D01*
X92168Y-71865D01*
X92076Y-71956D01*
X91985Y-71865D01*
X91821Y-71797D01*
X91643Y-71797D01*
X91479Y-71865D01*
X91353Y-71990D01*
X91285Y-72154D01*
X91285Y-72332D01*
X91353Y-72496D01*
X91478Y-72622D01*
X91643Y-72690D01*
X91820Y-72691D01*
X91985Y-72623D01*
X92076Y-72531D01*
X92167Y-72622D01*
X92331Y-72690D01*
X92509Y-72691D01*
X92674Y-72623D01*
X92799Y-72497D01*
X92814Y-72461D01*
X92829Y-72496D01*
X92955Y-72622D01*
X93119Y-72690D01*
X93297Y-72691D01*
X93461Y-72623D01*
X93553Y-72531D01*
X93644Y-72622D01*
X93808Y-72690D01*
X93986Y-72691D01*
X94150Y-72623D01*
X94276Y-72497D01*
X94344Y-72333D01*
X94344Y-72155D01*
X94344Y-77350D01*
X94136Y-77141D01*
X93827Y-77013D01*
X93557Y-77013D01*
X93557Y-76289D01*
X93489Y-76125D01*
X93363Y-75999D01*
X93199Y-75931D01*
X93021Y-75931D01*
X92857Y-75998D01*
X92731Y-76124D01*
X92663Y-76288D01*
X92663Y-76466D01*
X92731Y-76630D01*
X92856Y-76756D01*
X93020Y-76824D01*
X93198Y-76824D01*
X93363Y-76756D01*
X93488Y-76631D01*
X93557Y-76467D01*
X93557Y-76289D01*
X93557Y-77013D01*
X93493Y-77013D01*
X93184Y-77141D01*
X92947Y-77377D01*
X92819Y-77686D01*
X92819Y-78020D01*
X92947Y-78329D01*
X93183Y-78566D01*
X93492Y-78694D01*
X93826Y-78694D01*
X94135Y-78566D01*
X94372Y-78330D01*
X94500Y-78021D01*
X94500Y-77687D01*
X94500Y-79175D01*
X84797Y-79175D01*
X84797Y-72746D01*
X84797Y-63002D01*
X84797Y-53257D01*
X84729Y-53093D01*
X84603Y-52967D01*
X84439Y-52899D01*
X84261Y-52899D01*
X84097Y-52967D01*
X83971Y-53093D01*
X83903Y-53257D01*
X83903Y-53434D01*
X83971Y-53599D01*
X84096Y-53725D01*
X84261Y-53793D01*
X84438Y-53793D01*
X84603Y-53725D01*
X84728Y-53599D01*
X84797Y-53435D01*
X84797Y-53257D01*
X84797Y-63002D01*
X84729Y-62837D01*
X84603Y-62711D01*
X84439Y-62643D01*
X84261Y-62643D01*
X84097Y-62711D01*
X83971Y-62837D01*
X83903Y-63001D01*
X83903Y-63179D01*
X83971Y-63343D01*
X84096Y-63469D01*
X84261Y-63537D01*
X84438Y-63537D01*
X84603Y-63469D01*
X84728Y-63344D01*
X84797Y-63179D01*
X84797Y-63002D01*
X84797Y-72746D01*
X84729Y-72581D01*
X84603Y-72456D01*
X84439Y-72387D01*
X84261Y-72387D01*
X84097Y-72455D01*
X83971Y-72581D01*
X83903Y-72745D01*
X83903Y-72923D01*
X83971Y-73087D01*
X84096Y-73213D01*
X84261Y-73281D01*
X84438Y-73281D01*
X84603Y-73213D01*
X84728Y-73088D01*
X84797Y-72923D01*
X84797Y-72746D01*
X84797Y-79175D01*
X83517Y-79175D01*
X83517Y-73139D01*
X83517Y-62805D01*
X83517Y-52470D01*
X83449Y-52306D01*
X83324Y-52180D01*
X83160Y-52112D01*
X82982Y-52112D01*
X82818Y-52180D01*
X82726Y-52271D01*
X82635Y-52180D01*
X82471Y-52112D01*
X82293Y-52112D01*
X82129Y-52180D01*
X82003Y-52305D01*
X81935Y-52469D01*
X81934Y-52647D01*
X82002Y-52811D01*
X82128Y-52937D01*
X82292Y-53005D01*
X82470Y-53005D01*
X82634Y-52938D01*
X82726Y-52846D01*
X82817Y-52937D01*
X82981Y-53005D01*
X83159Y-53005D01*
X83323Y-52938D01*
X83449Y-52812D01*
X83517Y-52648D01*
X83517Y-52470D01*
X83517Y-62805D01*
X83449Y-62640D01*
X83324Y-62515D01*
X83160Y-62446D01*
X82982Y-62446D01*
X82828Y-62510D01*
X82828Y-56309D01*
X82760Y-56144D01*
X82635Y-56019D01*
X82471Y-55950D01*
X82293Y-55950D01*
X82129Y-56018D01*
X82003Y-56144D01*
X81935Y-56308D01*
X81934Y-56486D01*
X82002Y-56650D01*
X82128Y-56776D01*
X82292Y-56844D01*
X82470Y-56844D01*
X82634Y-56776D01*
X82760Y-56651D01*
X82828Y-56486D01*
X82828Y-56309D01*
X82828Y-62510D01*
X82818Y-62514D01*
X82726Y-62606D01*
X82635Y-62515D01*
X82471Y-62446D01*
X82293Y-62446D01*
X82129Y-62514D01*
X82003Y-62640D01*
X81935Y-62804D01*
X81934Y-62982D01*
X82002Y-63146D01*
X82128Y-63272D01*
X82292Y-63340D01*
X82470Y-63340D01*
X82634Y-63272D01*
X82726Y-63181D01*
X82817Y-63272D01*
X82981Y-63340D01*
X83159Y-63340D01*
X83323Y-63272D01*
X83449Y-63147D01*
X83517Y-62982D01*
X83517Y-62805D01*
X83517Y-73139D01*
X83449Y-72975D01*
X83324Y-72849D01*
X83160Y-72781D01*
X82982Y-72781D01*
X82828Y-72844D01*
X82828Y-66643D01*
X82828Y-64084D01*
X82760Y-63920D01*
X82635Y-63794D01*
X82471Y-63726D01*
X82293Y-63726D01*
X82129Y-63794D01*
X82003Y-63919D01*
X81935Y-64083D01*
X81934Y-64261D01*
X82002Y-64426D01*
X82128Y-64551D01*
X82292Y-64620D01*
X82470Y-64620D01*
X82634Y-64552D01*
X82760Y-64426D01*
X82828Y-64262D01*
X82828Y-64084D01*
X82828Y-66643D01*
X82760Y-66479D01*
X82635Y-66353D01*
X82471Y-66285D01*
X82293Y-66285D01*
X82129Y-66353D01*
X82003Y-66478D01*
X81935Y-66643D01*
X81934Y-66820D01*
X82002Y-66985D01*
X82128Y-67110D01*
X82292Y-67179D01*
X82470Y-67179D01*
X82634Y-67111D01*
X82760Y-66985D01*
X82828Y-66821D01*
X82828Y-66643D01*
X82828Y-72844D01*
X82818Y-72849D01*
X82726Y-72940D01*
X82635Y-72849D01*
X82471Y-72781D01*
X82293Y-72781D01*
X82129Y-72849D01*
X82003Y-72974D01*
X81935Y-73139D01*
X81934Y-73316D01*
X82002Y-73481D01*
X82128Y-73606D01*
X82292Y-73675D01*
X82470Y-73675D01*
X82634Y-73607D01*
X82726Y-73515D01*
X82817Y-73606D01*
X82981Y-73675D01*
X83159Y-73675D01*
X83323Y-73607D01*
X83449Y-73481D01*
X83517Y-73317D01*
X83517Y-73139D01*
X83517Y-79175D01*
X82828Y-79175D01*
X82828Y-76978D01*
X82760Y-76814D01*
X82635Y-76688D01*
X82471Y-76620D01*
X82293Y-76620D01*
X82129Y-76687D01*
X82003Y-76813D01*
X81935Y-76977D01*
X81934Y-77155D01*
X82002Y-77319D01*
X82128Y-77445D01*
X82292Y-77513D01*
X82470Y-77513D01*
X82634Y-77445D01*
X82760Y-77320D01*
X82828Y-77156D01*
X82828Y-76978D01*
X82828Y-79175D01*
X80761Y-79175D01*
X80761Y-72094D01*
X80694Y-71930D01*
X80568Y-71804D01*
X80487Y-71770D01*
X80567Y-71737D01*
X80693Y-71611D01*
X80761Y-71447D01*
X80761Y-71269D01*
X80761Y-61759D01*
X80761Y-60147D01*
X80761Y-51425D01*
X80694Y-51260D01*
X80568Y-51135D01*
X80487Y-51101D01*
X80567Y-51068D01*
X80693Y-50942D01*
X80761Y-50778D01*
X80761Y-50600D01*
X80694Y-50436D01*
X80568Y-50310D01*
X80404Y-50242D01*
X80304Y-50242D01*
X80368Y-50089D01*
X80368Y-49911D01*
X80300Y-49747D01*
X80174Y-49621D01*
X80010Y-49553D01*
X79832Y-49553D01*
X79668Y-49620D01*
X79542Y-49746D01*
X79527Y-49782D01*
X79512Y-49747D01*
X79387Y-49621D01*
X79223Y-49553D01*
X79045Y-49553D01*
X78881Y-49620D01*
X78755Y-49746D01*
X78740Y-49782D01*
X78725Y-49747D01*
X78637Y-49659D01*
X78730Y-49659D01*
X78894Y-49591D01*
X79020Y-49466D01*
X79088Y-49301D01*
X79088Y-49124D01*
X79020Y-48959D01*
X78895Y-48833D01*
X78731Y-48765D01*
X78553Y-48765D01*
X78388Y-48833D01*
X78263Y-48959D01*
X78194Y-49123D01*
X78194Y-49301D01*
X78262Y-49465D01*
X78350Y-49553D01*
X78257Y-49553D01*
X78093Y-49620D01*
X77967Y-49746D01*
X77952Y-49782D01*
X77938Y-49747D01*
X77812Y-49621D01*
X77648Y-49553D01*
X77470Y-49553D01*
X77306Y-49620D01*
X77180Y-49746D01*
X77112Y-49910D01*
X77112Y-50088D01*
X77180Y-50252D01*
X77276Y-50349D01*
X77254Y-50340D01*
X77076Y-50340D01*
X76912Y-50408D01*
X76786Y-50533D01*
X76771Y-50570D01*
X76756Y-50534D01*
X76631Y-50408D01*
X76467Y-50340D01*
X76289Y-50340D01*
X76125Y-50408D01*
X75999Y-50533D01*
X75984Y-50570D01*
X75969Y-50534D01*
X75844Y-50408D01*
X75679Y-50340D01*
X75502Y-50340D01*
X75337Y-50408D01*
X75211Y-50533D01*
X75196Y-50570D01*
X75182Y-50534D01*
X75056Y-50408D01*
X74892Y-50340D01*
X74714Y-50340D01*
X74550Y-50408D01*
X74424Y-50533D01*
X74356Y-50698D01*
X74356Y-50875D01*
X74424Y-51040D01*
X74549Y-51166D01*
X74713Y-51234D01*
X74891Y-51234D01*
X75055Y-51166D01*
X75181Y-51040D01*
X75196Y-51004D01*
X75211Y-51040D01*
X75337Y-51166D01*
X75501Y-51234D01*
X75679Y-51234D01*
X75843Y-51166D01*
X75969Y-51040D01*
X75984Y-51004D01*
X75998Y-51040D01*
X76124Y-51166D01*
X76288Y-51234D01*
X76466Y-51234D01*
X76630Y-51166D01*
X76756Y-51040D01*
X76771Y-51004D01*
X76786Y-51040D01*
X76911Y-51166D01*
X77076Y-51234D01*
X77253Y-51234D01*
X77418Y-51166D01*
X77543Y-51040D01*
X77559Y-51004D01*
X77573Y-51040D01*
X77699Y-51166D01*
X77863Y-51234D01*
X78041Y-51234D01*
X78205Y-51166D01*
X78331Y-51040D01*
X78346Y-51004D01*
X78361Y-51040D01*
X78486Y-51166D01*
X78650Y-51234D01*
X78828Y-51234D01*
X78992Y-51166D01*
X79118Y-51040D01*
X79133Y-51004D01*
X79148Y-51040D01*
X79274Y-51166D01*
X79438Y-51234D01*
X79616Y-51234D01*
X79780Y-51166D01*
X79906Y-51040D01*
X79943Y-50949D01*
X80061Y-51067D01*
X80142Y-51101D01*
X80062Y-51134D01*
X79936Y-51260D01*
X79868Y-51424D01*
X79868Y-51602D01*
X79935Y-51766D01*
X80061Y-51892D01*
X80225Y-51960D01*
X80403Y-51960D01*
X80567Y-51892D01*
X80693Y-51767D01*
X80761Y-51603D01*
X80761Y-51425D01*
X80761Y-60147D01*
X80694Y-59983D01*
X80568Y-59857D01*
X80404Y-59789D01*
X80226Y-59789D01*
X80062Y-59857D01*
X79936Y-59982D01*
X79921Y-60019D01*
X79906Y-59983D01*
X79781Y-59857D01*
X79616Y-59789D01*
X79439Y-59789D01*
X79274Y-59857D01*
X79148Y-59982D01*
X79133Y-60019D01*
X79119Y-59983D01*
X78993Y-59857D01*
X78972Y-59848D01*
X79020Y-59800D01*
X79088Y-59636D01*
X79088Y-59458D01*
X79020Y-59294D01*
X78990Y-59263D01*
X78990Y-52470D01*
X78922Y-52306D01*
X78796Y-52180D01*
X78632Y-52112D01*
X78454Y-52112D01*
X78290Y-52180D01*
X78198Y-52271D01*
X78107Y-52180D01*
X77943Y-52112D01*
X77765Y-52112D01*
X77601Y-52180D01*
X77475Y-52305D01*
X77407Y-52469D01*
X77407Y-52647D01*
X77475Y-52811D01*
X77600Y-52937D01*
X77765Y-53005D01*
X77942Y-53005D01*
X78107Y-52938D01*
X78198Y-52846D01*
X78289Y-52937D01*
X78454Y-53005D01*
X78631Y-53005D01*
X78796Y-52938D01*
X78921Y-52812D01*
X78990Y-52648D01*
X78990Y-52470D01*
X78990Y-59263D01*
X78895Y-59168D01*
X78731Y-59100D01*
X78694Y-59100D01*
X78694Y-55029D01*
X78627Y-54865D01*
X78501Y-54739D01*
X78337Y-54671D01*
X78159Y-54671D01*
X77995Y-54739D01*
X77869Y-54864D01*
X77805Y-55019D01*
X77741Y-54865D01*
X77615Y-54739D01*
X77451Y-54671D01*
X77273Y-54671D01*
X77109Y-54739D01*
X77066Y-54781D01*
X77025Y-54739D01*
X76860Y-54671D01*
X76683Y-54671D01*
X76518Y-54739D01*
X76393Y-54864D01*
X76324Y-55028D01*
X76324Y-55206D01*
X76392Y-55370D01*
X76518Y-55496D01*
X76682Y-55564D01*
X76860Y-55565D01*
X77024Y-55497D01*
X77066Y-55454D01*
X77108Y-55496D01*
X77272Y-55564D01*
X77450Y-55565D01*
X77614Y-55497D01*
X77740Y-55371D01*
X77805Y-55216D01*
X77868Y-55370D01*
X77994Y-55496D01*
X78158Y-55564D01*
X78336Y-55565D01*
X78500Y-55497D01*
X78626Y-55371D01*
X78694Y-55207D01*
X78694Y-55029D01*
X78694Y-59100D01*
X78553Y-59100D01*
X78388Y-59168D01*
X78263Y-59293D01*
X78194Y-59457D01*
X78194Y-59635D01*
X78262Y-59800D01*
X78388Y-59925D01*
X78409Y-59934D01*
X78361Y-59982D01*
X78346Y-60019D01*
X78331Y-59983D01*
X78206Y-59857D01*
X78042Y-59789D01*
X77864Y-59789D01*
X77699Y-59857D01*
X77574Y-59982D01*
X77559Y-60019D01*
X77544Y-59983D01*
X77418Y-59857D01*
X77254Y-59789D01*
X77076Y-59789D01*
X76912Y-59857D01*
X76786Y-59982D01*
X76718Y-60146D01*
X76718Y-60324D01*
X76786Y-60489D01*
X76883Y-60586D01*
X76860Y-60576D01*
X76683Y-60576D01*
X76518Y-60644D01*
X76427Y-60736D01*
X76336Y-60645D01*
X76171Y-60576D01*
X75994Y-60576D01*
X75829Y-60644D01*
X75704Y-60770D01*
X75635Y-60934D01*
X75635Y-61112D01*
X75703Y-61276D01*
X75829Y-61402D01*
X75993Y-61470D01*
X76171Y-61470D01*
X76335Y-61402D01*
X76427Y-61311D01*
X76518Y-61402D01*
X76682Y-61470D01*
X76860Y-61470D01*
X77024Y-61402D01*
X77150Y-61277D01*
X77165Y-61240D01*
X77180Y-61276D01*
X77305Y-61402D01*
X77469Y-61470D01*
X77647Y-61470D01*
X77811Y-61402D01*
X77937Y-61277D01*
X77952Y-61240D01*
X77967Y-61276D01*
X78093Y-61402D01*
X78257Y-61470D01*
X78434Y-61470D01*
X78599Y-61402D01*
X78725Y-61277D01*
X78740Y-61240D01*
X78754Y-61276D01*
X78880Y-61402D01*
X79044Y-61470D01*
X79222Y-61470D01*
X79386Y-61402D01*
X79512Y-61277D01*
X79527Y-61240D01*
X79542Y-61276D01*
X79667Y-61402D01*
X79831Y-61470D01*
X80009Y-61470D01*
X80174Y-61402D01*
X80299Y-61277D01*
X80368Y-61112D01*
X80368Y-60935D01*
X80300Y-60770D01*
X80203Y-60673D01*
X80225Y-60682D01*
X80403Y-60683D01*
X80567Y-60615D01*
X80693Y-60489D01*
X80761Y-60325D01*
X80761Y-60147D01*
X80761Y-61759D01*
X80694Y-61595D01*
X80568Y-61469D01*
X80404Y-61401D01*
X80226Y-61401D01*
X80062Y-61469D01*
X79936Y-61594D01*
X79868Y-61759D01*
X79868Y-61936D01*
X79935Y-62101D01*
X80061Y-62227D01*
X80225Y-62295D01*
X80403Y-62295D01*
X80567Y-62227D01*
X80693Y-62101D01*
X80761Y-61937D01*
X80761Y-61759D01*
X80761Y-71269D01*
X80694Y-71105D01*
X80568Y-70979D01*
X80404Y-70911D01*
X80226Y-70911D01*
X80062Y-70979D01*
X79943Y-71097D01*
X79906Y-71007D01*
X79809Y-70909D01*
X79831Y-70919D01*
X80009Y-70919D01*
X80174Y-70851D01*
X80299Y-70725D01*
X80368Y-70561D01*
X80368Y-70383D01*
X80300Y-70219D01*
X80174Y-70093D01*
X80010Y-70025D01*
X79832Y-70025D01*
X79668Y-70093D01*
X79542Y-70218D01*
X79527Y-70255D01*
X79512Y-70219D01*
X79387Y-70093D01*
X79223Y-70025D01*
X79065Y-70025D01*
X79088Y-69971D01*
X79088Y-69793D01*
X79024Y-69638D01*
X79118Y-69544D01*
X79133Y-69508D01*
X79148Y-69544D01*
X79274Y-69669D01*
X79438Y-69738D01*
X79616Y-69738D01*
X79780Y-69670D01*
X79906Y-69544D01*
X79974Y-69380D01*
X79974Y-69202D01*
X79906Y-69038D01*
X79781Y-68912D01*
X79616Y-68844D01*
X79439Y-68844D01*
X79274Y-68912D01*
X79148Y-69037D01*
X79133Y-69074D01*
X79119Y-69038D01*
X78993Y-68912D01*
X78990Y-68911D01*
X78990Y-62805D01*
X78922Y-62640D01*
X78796Y-62515D01*
X78632Y-62446D01*
X78454Y-62446D01*
X78290Y-62514D01*
X78198Y-62606D01*
X78107Y-62515D01*
X77943Y-62446D01*
X77765Y-62446D01*
X77601Y-62514D01*
X77475Y-62640D01*
X77407Y-62804D01*
X77407Y-62982D01*
X77475Y-63146D01*
X77600Y-63272D01*
X77765Y-63340D01*
X77942Y-63340D01*
X78107Y-63272D01*
X78198Y-63181D01*
X78289Y-63272D01*
X78454Y-63340D01*
X78631Y-63340D01*
X78796Y-63272D01*
X78921Y-63147D01*
X78990Y-62982D01*
X78990Y-62805D01*
X78990Y-68911D01*
X78829Y-68844D01*
X78694Y-68844D01*
X78694Y-65364D01*
X78627Y-65199D01*
X78501Y-65074D01*
X78337Y-65005D01*
X78159Y-65005D01*
X77995Y-65073D01*
X77869Y-65199D01*
X77805Y-65354D01*
X77741Y-65199D01*
X77615Y-65074D01*
X77451Y-65005D01*
X77273Y-65005D01*
X77109Y-65073D01*
X76983Y-65199D01*
X76915Y-65363D01*
X76915Y-65541D01*
X76983Y-65705D01*
X77108Y-65831D01*
X77272Y-65899D01*
X77450Y-65899D01*
X77614Y-65831D01*
X77740Y-65706D01*
X77805Y-65551D01*
X77868Y-65705D01*
X77994Y-65831D01*
X78158Y-65899D01*
X78336Y-65899D01*
X78500Y-65831D01*
X78626Y-65706D01*
X78694Y-65542D01*
X78694Y-65364D01*
X78694Y-68844D01*
X78651Y-68844D01*
X78487Y-68912D01*
X78361Y-69037D01*
X78346Y-69074D01*
X78331Y-69038D01*
X78206Y-68912D01*
X78042Y-68844D01*
X77864Y-68844D01*
X77699Y-68912D01*
X77574Y-69037D01*
X77505Y-69202D01*
X77505Y-69379D01*
X77573Y-69544D01*
X77699Y-69669D01*
X77863Y-69738D01*
X78041Y-69738D01*
X78205Y-69670D01*
X78331Y-69544D01*
X78346Y-69508D01*
X78357Y-69534D01*
X78263Y-69628D01*
X78194Y-69792D01*
X78194Y-69970D01*
X78223Y-70039D01*
X78093Y-70093D01*
X77967Y-70218D01*
X77952Y-70255D01*
X77938Y-70219D01*
X77812Y-70093D01*
X77648Y-70025D01*
X77470Y-70025D01*
X77306Y-70093D01*
X77180Y-70218D01*
X77165Y-70255D01*
X77150Y-70219D01*
X77025Y-70093D01*
X76860Y-70025D01*
X76683Y-70025D01*
X76518Y-70093D01*
X76393Y-70218D01*
X76324Y-70383D01*
X76324Y-70560D01*
X76392Y-70725D01*
X76489Y-70822D01*
X76467Y-70813D01*
X76289Y-70812D01*
X76125Y-70880D01*
X75999Y-71006D01*
X75984Y-71042D01*
X75969Y-71007D01*
X75844Y-70881D01*
X75679Y-70813D01*
X75545Y-70812D01*
X75545Y-63297D01*
X75545Y-53061D01*
X75477Y-52896D01*
X75351Y-52771D01*
X75187Y-52702D01*
X75009Y-52702D01*
X74845Y-52770D01*
X74719Y-52896D01*
X74651Y-53060D01*
X74651Y-53238D01*
X74719Y-53402D01*
X74844Y-53528D01*
X75009Y-53596D01*
X75186Y-53596D01*
X75351Y-53528D01*
X75477Y-53403D01*
X75545Y-53238D01*
X75545Y-53061D01*
X75545Y-63297D01*
X75477Y-63133D01*
X75351Y-63007D01*
X75187Y-62939D01*
X75009Y-62938D01*
X74845Y-63006D01*
X74719Y-63132D01*
X74651Y-63296D01*
X74651Y-63474D01*
X74719Y-63638D01*
X74844Y-63764D01*
X75009Y-63832D01*
X75186Y-63832D01*
X75351Y-63764D01*
X75477Y-63639D01*
X75545Y-63475D01*
X75545Y-63297D01*
X75545Y-70812D01*
X75502Y-70812D01*
X75337Y-70880D01*
X75211Y-71006D01*
X75143Y-71170D01*
X75143Y-71348D01*
X75211Y-71512D01*
X75337Y-71638D01*
X75501Y-71706D01*
X75679Y-71706D01*
X75843Y-71638D01*
X75969Y-71513D01*
X75984Y-71477D01*
X75998Y-71512D01*
X76124Y-71638D01*
X76288Y-71706D01*
X76466Y-71706D01*
X76630Y-71638D01*
X76756Y-71513D01*
X76771Y-71477D01*
X76786Y-71512D01*
X76911Y-71638D01*
X77076Y-71706D01*
X77253Y-71706D01*
X77418Y-71638D01*
X77543Y-71513D01*
X77559Y-71477D01*
X77573Y-71512D01*
X77699Y-71638D01*
X77863Y-71706D01*
X78041Y-71706D01*
X78205Y-71638D01*
X78331Y-71513D01*
X78346Y-71477D01*
X78361Y-71512D01*
X78486Y-71638D01*
X78650Y-71706D01*
X78828Y-71706D01*
X78992Y-71638D01*
X79118Y-71513D01*
X79133Y-71477D01*
X79148Y-71512D01*
X79274Y-71638D01*
X79438Y-71706D01*
X79616Y-71706D01*
X79780Y-71638D01*
X79898Y-71520D01*
X79935Y-71611D01*
X80061Y-71736D01*
X80142Y-71770D01*
X80062Y-71804D01*
X79936Y-71929D01*
X79868Y-72093D01*
X79868Y-72271D01*
X79935Y-72435D01*
X80061Y-72561D01*
X80225Y-72629D01*
X80403Y-72629D01*
X80567Y-72562D01*
X80693Y-72436D01*
X80761Y-72272D01*
X80761Y-72094D01*
X80761Y-79175D01*
X78990Y-79175D01*
X78990Y-73139D01*
X78922Y-72975D01*
X78796Y-72849D01*
X78632Y-72781D01*
X78454Y-72781D01*
X78290Y-72849D01*
X78198Y-72940D01*
X78107Y-72849D01*
X77943Y-72781D01*
X77765Y-72781D01*
X77601Y-72849D01*
X77475Y-72974D01*
X77407Y-73139D01*
X77407Y-73316D01*
X77475Y-73481D01*
X77600Y-73606D01*
X77765Y-73675D01*
X77942Y-73675D01*
X78107Y-73607D01*
X78198Y-73515D01*
X78289Y-73606D01*
X78454Y-73675D01*
X78631Y-73675D01*
X78796Y-73607D01*
X78921Y-73481D01*
X78990Y-73317D01*
X78990Y-73139D01*
X78990Y-79175D01*
X78694Y-79175D01*
X78694Y-75698D01*
X78627Y-75534D01*
X78501Y-75408D01*
X78337Y-75340D01*
X78159Y-75340D01*
X77995Y-75408D01*
X77869Y-75533D01*
X77854Y-75570D01*
X77839Y-75534D01*
X77714Y-75408D01*
X77549Y-75340D01*
X77372Y-75340D01*
X77207Y-75408D01*
X77082Y-75533D01*
X77013Y-75698D01*
X77013Y-75875D01*
X77081Y-76040D01*
X77207Y-76166D01*
X77371Y-76234D01*
X77549Y-76234D01*
X77713Y-76166D01*
X77839Y-76040D01*
X77854Y-76004D01*
X77868Y-76040D01*
X77994Y-76166D01*
X78158Y-76234D01*
X78336Y-76234D01*
X78500Y-76166D01*
X78626Y-76040D01*
X78694Y-75876D01*
X78694Y-75698D01*
X78694Y-79175D01*
X75545Y-79175D01*
X75545Y-74124D01*
X75480Y-73966D01*
X75545Y-73809D01*
X75545Y-73631D01*
X75477Y-73467D01*
X75351Y-73341D01*
X75187Y-73273D01*
X75009Y-73273D01*
X74845Y-73341D01*
X74719Y-73467D01*
X74651Y-73631D01*
X74651Y-73808D01*
X74716Y-73966D01*
X74651Y-74123D01*
X74651Y-74301D01*
X74719Y-74465D01*
X74844Y-74591D01*
X75009Y-74659D01*
X75186Y-74659D01*
X75351Y-74591D01*
X75477Y-74466D01*
X75545Y-74301D01*
X75545Y-74124D01*
X75545Y-79175D01*
X74459Y-79175D01*
X74459Y-72921D01*
X74615Y-72986D01*
X74793Y-72986D01*
X74957Y-72918D01*
X75083Y-72792D01*
X75151Y-72628D01*
X75151Y-72450D01*
X75083Y-72286D01*
X74958Y-72160D01*
X74793Y-72092D01*
X74616Y-72092D01*
X74459Y-72157D01*
X74459Y-62651D01*
X74596Y-62651D01*
X74760Y-62583D01*
X74886Y-62458D01*
X74954Y-62293D01*
X74954Y-62116D01*
X74886Y-61951D01*
X74761Y-61826D01*
X74597Y-61757D01*
X74561Y-61757D01*
X74561Y-51486D01*
X74493Y-51322D01*
X74367Y-51196D01*
X74203Y-51128D01*
X74025Y-51127D01*
X73861Y-51195D01*
X73735Y-51321D01*
X73667Y-51485D01*
X73667Y-51663D01*
X73735Y-51827D01*
X73860Y-51953D01*
X74024Y-52021D01*
X74202Y-52021D01*
X74366Y-51953D01*
X74492Y-51828D01*
X74560Y-51664D01*
X74561Y-51486D01*
X74561Y-61757D01*
X74459Y-61757D01*
X74459Y-60186D01*
X72666Y-60186D01*
X72690Y-60128D01*
X72691Y-59950D01*
X72623Y-59786D01*
X72580Y-59744D01*
X72622Y-59702D01*
X72690Y-59538D01*
X72691Y-59360D01*
X72623Y-59196D01*
X72580Y-59153D01*
X72622Y-59111D01*
X72690Y-58947D01*
X72691Y-58769D01*
X72623Y-58605D01*
X72580Y-58563D01*
X72622Y-58521D01*
X72690Y-58356D01*
X72691Y-58179D01*
X72623Y-58014D01*
X72580Y-57972D01*
X72622Y-57930D01*
X72690Y-57766D01*
X72691Y-57588D01*
X72623Y-57424D01*
X72497Y-57298D01*
X72333Y-57230D01*
X72155Y-57230D01*
X71991Y-57298D01*
X71865Y-57423D01*
X71797Y-57587D01*
X71797Y-57765D01*
X71865Y-57929D01*
X71907Y-57972D01*
X71865Y-58014D01*
X71797Y-58178D01*
X71797Y-58356D01*
X71865Y-58520D01*
X71907Y-58562D01*
X71865Y-58604D01*
X71797Y-58768D01*
X71797Y-58946D01*
X71865Y-59111D01*
X71907Y-59153D01*
X71865Y-59195D01*
X71797Y-59359D01*
X71797Y-59537D01*
X71865Y-59701D01*
X71907Y-59744D01*
X71865Y-59785D01*
X71797Y-59950D01*
X71797Y-60127D01*
X71821Y-60186D01*
X71706Y-60186D01*
X71706Y-51486D01*
X71638Y-51322D01*
X71513Y-51196D01*
X71349Y-51128D01*
X71171Y-51127D01*
X71147Y-51137D01*
X71214Y-50975D01*
X71214Y-50797D01*
X71146Y-50633D01*
X71021Y-50507D01*
X70856Y-50439D01*
X70679Y-50439D01*
X70514Y-50507D01*
X70389Y-50632D01*
X70320Y-50797D01*
X70320Y-50974D01*
X70384Y-51127D01*
X70383Y-51127D01*
X70219Y-51195D01*
X70093Y-51321D01*
X70025Y-51485D01*
X70025Y-51663D01*
X70093Y-51827D01*
X70218Y-51953D01*
X70383Y-52021D01*
X70560Y-52021D01*
X70725Y-51953D01*
X70851Y-51828D01*
X70866Y-51792D01*
X70880Y-51827D01*
X71006Y-51953D01*
X71170Y-52021D01*
X71348Y-52021D01*
X71512Y-51953D01*
X71638Y-51828D01*
X71706Y-51664D01*
X71706Y-51486D01*
X71706Y-60186D01*
X70916Y-60186D01*
X70916Y-56278D01*
X70820Y-56183D01*
X70820Y-54439D01*
X70753Y-54274D01*
X70627Y-54148D01*
X70463Y-54080D01*
X70285Y-54080D01*
X70121Y-54148D01*
X69995Y-54274D01*
X69927Y-54438D01*
X69927Y-54616D01*
X69994Y-54780D01*
X70120Y-54906D01*
X70284Y-54974D01*
X70462Y-54974D01*
X70626Y-54906D01*
X70752Y-54781D01*
X70820Y-54616D01*
X70820Y-54439D01*
X70820Y-56183D01*
X69344Y-54706D01*
X69344Y-49517D01*
X69276Y-49353D01*
X69151Y-49227D01*
X68986Y-49159D01*
X68809Y-49159D01*
X68644Y-49227D01*
X68519Y-49352D01*
X68450Y-49517D01*
X68450Y-49694D01*
X68518Y-49859D01*
X68644Y-49984D01*
X68808Y-50053D01*
X68986Y-50053D01*
X69150Y-49985D01*
X69276Y-49859D01*
X69344Y-49695D01*
X69344Y-49517D01*
X69344Y-54706D01*
X68553Y-53916D01*
X68553Y-51131D01*
X68163Y-51131D01*
X68163Y-50502D01*
X68095Y-50337D01*
X67969Y-50211D01*
X67805Y-50143D01*
X67628Y-50143D01*
X67534Y-50182D01*
X67572Y-50089D01*
X67572Y-49911D01*
X67505Y-49747D01*
X67379Y-49621D01*
X67215Y-49553D01*
X67037Y-49553D01*
X66873Y-49620D01*
X66747Y-49746D01*
X66679Y-49910D01*
X66679Y-50088D01*
X66717Y-50182D01*
X66624Y-50143D01*
X66446Y-50143D01*
X66352Y-50182D01*
X66391Y-50089D01*
X66391Y-49911D01*
X66323Y-49747D01*
X66198Y-49621D01*
X66034Y-49553D01*
X65856Y-49553D01*
X65692Y-49620D01*
X65566Y-49746D01*
X65498Y-49910D01*
X65497Y-50088D01*
X65536Y-50182D01*
X65443Y-50143D01*
X65265Y-50143D01*
X65171Y-50182D01*
X65210Y-50089D01*
X65210Y-49911D01*
X65142Y-49747D01*
X65017Y-49621D01*
X64853Y-49553D01*
X64675Y-49553D01*
X64510Y-49620D01*
X64385Y-49746D01*
X64317Y-49910D01*
X64316Y-50088D01*
X64384Y-50252D01*
X64510Y-50378D01*
X64674Y-50446D01*
X64852Y-50446D01*
X64946Y-50408D01*
X64907Y-50501D01*
X64907Y-50679D01*
X64975Y-50843D01*
X65100Y-50969D01*
X65265Y-51037D01*
X65442Y-51037D01*
X65607Y-50969D01*
X65732Y-50844D01*
X65801Y-50679D01*
X65801Y-50502D01*
X65762Y-50408D01*
X65855Y-50446D01*
X66033Y-50446D01*
X66127Y-50408D01*
X66088Y-50501D01*
X66088Y-50679D01*
X66156Y-50843D01*
X66281Y-50969D01*
X66446Y-51037D01*
X66623Y-51037D01*
X66788Y-50969D01*
X66914Y-50844D01*
X66982Y-50679D01*
X66982Y-50502D01*
X66943Y-50408D01*
X67036Y-50446D01*
X67214Y-50446D01*
X67308Y-50408D01*
X67269Y-50501D01*
X67269Y-50679D01*
X67337Y-50843D01*
X67463Y-50969D01*
X67627Y-51037D01*
X67805Y-51037D01*
X67969Y-50969D01*
X68095Y-50844D01*
X68163Y-50679D01*
X68163Y-50502D01*
X68163Y-51131D01*
X64135Y-51131D01*
X64135Y-50064D01*
X64022Y-49788D01*
X63811Y-49577D01*
X63535Y-49462D01*
X63237Y-49462D01*
X62961Y-49576D01*
X62750Y-49787D01*
X62635Y-50062D01*
X62635Y-50361D01*
X62749Y-50636D01*
X62960Y-50848D01*
X63235Y-50962D01*
X63534Y-50962D01*
X63810Y-50848D01*
X64021Y-50637D01*
X64135Y-50362D01*
X64135Y-50064D01*
X64135Y-51131D01*
X62225Y-51131D01*
X62225Y-47325D01*
X95175Y-47325D01*
X95175Y-79175D01*
X95175Y-79175D01*
G37*
G54D16*
X95175Y-79175D02*
X94639Y-79175D01*
X94639Y-67037D01*
X94639Y-57194D01*
X94571Y-57030D01*
X94462Y-56921D01*
X94462Y-48652D01*
X94334Y-48343D01*
X94098Y-48106D01*
X93789Y-47978D01*
X93455Y-47978D01*
X93146Y-48106D01*
X92909Y-48342D01*
X92781Y-48651D01*
X92781Y-48985D01*
X92909Y-49294D01*
X93145Y-49531D01*
X93454Y-49659D01*
X93788Y-49659D01*
X94097Y-49531D01*
X94334Y-49295D01*
X94462Y-48986D01*
X94462Y-48652D01*
X94462Y-56921D01*
X94446Y-56904D01*
X94344Y-56862D01*
X94344Y-52667D01*
X94344Y-51092D01*
X94276Y-50928D01*
X94151Y-50802D01*
X93986Y-50734D01*
X93809Y-50734D01*
X93644Y-50802D01*
X93553Y-50893D01*
X93462Y-50802D01*
X93297Y-50734D01*
X93120Y-50734D01*
X92955Y-50802D01*
X92830Y-50927D01*
X92815Y-50963D01*
X92800Y-50928D01*
X92674Y-50802D01*
X92510Y-50734D01*
X92332Y-50734D01*
X92168Y-50802D01*
X92076Y-50893D01*
X91985Y-50802D01*
X91821Y-50734D01*
X91643Y-50734D01*
X91479Y-50802D01*
X91353Y-50927D01*
X91285Y-51091D01*
X91285Y-51269D01*
X91353Y-51433D01*
X91478Y-51559D01*
X91643Y-51627D01*
X91820Y-51628D01*
X91985Y-51560D01*
X92076Y-51468D01*
X92167Y-51559D01*
X92331Y-51627D01*
X92509Y-51628D01*
X92674Y-51560D01*
X92799Y-51434D01*
X92814Y-51398D01*
X92829Y-51433D01*
X92955Y-51559D01*
X93119Y-51627D01*
X93297Y-51628D01*
X93461Y-51560D01*
X93553Y-51468D01*
X93644Y-51559D01*
X93808Y-51627D01*
X93986Y-51628D01*
X94150Y-51560D01*
X94276Y-51434D01*
X94344Y-51270D01*
X94344Y-51092D01*
X94344Y-52667D01*
X94276Y-52503D01*
X94151Y-52377D01*
X93986Y-52309D01*
X93809Y-52308D01*
X93644Y-52376D01*
X93553Y-52468D01*
X93462Y-52377D01*
X93297Y-52309D01*
X93120Y-52308D01*
X92955Y-52376D01*
X92830Y-52502D01*
X92815Y-52538D01*
X92800Y-52503D01*
X92674Y-52377D01*
X92510Y-52309D01*
X92332Y-52308D01*
X92168Y-52376D01*
X92076Y-52468D01*
X91985Y-52377D01*
X91821Y-52309D01*
X91643Y-52308D01*
X91479Y-52376D01*
X91353Y-52502D01*
X91285Y-52666D01*
X91285Y-52844D01*
X91353Y-53008D01*
X91478Y-53134D01*
X91643Y-53202D01*
X91820Y-53202D01*
X91985Y-53134D01*
X92076Y-53043D01*
X92167Y-53134D01*
X92331Y-53202D01*
X92509Y-53202D01*
X92674Y-53134D01*
X92799Y-53009D01*
X92814Y-52973D01*
X92829Y-53008D01*
X92955Y-53134D01*
X93119Y-53202D01*
X93297Y-53202D01*
X93461Y-53134D01*
X93553Y-53043D01*
X93644Y-53134D01*
X93808Y-53202D01*
X93986Y-53202D01*
X94150Y-53134D01*
X94276Y-53009D01*
X94344Y-52845D01*
X94344Y-52667D01*
X94344Y-56862D01*
X94282Y-56836D01*
X94104Y-56836D01*
X93940Y-56904D01*
X93814Y-57030D01*
X93746Y-57194D01*
X93745Y-57371D01*
X93813Y-57536D01*
X93939Y-57662D01*
X94103Y-57730D01*
X94281Y-57730D01*
X94445Y-57662D01*
X94571Y-57536D01*
X94639Y-57372D01*
X94639Y-57194D01*
X94639Y-67037D01*
X94571Y-66873D01*
X94446Y-66747D01*
X94344Y-66705D01*
X94344Y-62411D01*
X94344Y-60836D01*
X94276Y-60672D01*
X94151Y-60546D01*
X93986Y-60478D01*
X93809Y-60478D01*
X93644Y-60546D01*
X93553Y-60637D01*
X93462Y-60546D01*
X93297Y-60478D01*
X93120Y-60478D01*
X92955Y-60546D01*
X92830Y-60671D01*
X92815Y-60707D01*
X92800Y-60672D01*
X92674Y-60546D01*
X92510Y-60478D01*
X92332Y-60478D01*
X92168Y-60546D01*
X92076Y-60637D01*
X91985Y-60546D01*
X91821Y-60478D01*
X91643Y-60478D01*
X91479Y-60546D01*
X91353Y-60671D01*
X91285Y-60835D01*
X91285Y-61013D01*
X91353Y-61177D01*
X91478Y-61303D01*
X91643Y-61371D01*
X91820Y-61372D01*
X91985Y-61304D01*
X92076Y-61212D01*
X92167Y-61303D01*
X92331Y-61371D01*
X92509Y-61372D01*
X92674Y-61304D01*
X92799Y-61178D01*
X92814Y-61142D01*
X92829Y-61177D01*
X92955Y-61303D01*
X93119Y-61371D01*
X93297Y-61372D01*
X93461Y-61304D01*
X93553Y-61212D01*
X93644Y-61303D01*
X93808Y-61371D01*
X93986Y-61372D01*
X94150Y-61304D01*
X94276Y-61178D01*
X94344Y-61014D01*
X94344Y-60836D01*
X94344Y-62411D01*
X94276Y-62247D01*
X94151Y-62121D01*
X93986Y-62053D01*
X93809Y-62053D01*
X93644Y-62120D01*
X93553Y-62212D01*
X93462Y-62121D01*
X93297Y-62053D01*
X93120Y-62053D01*
X92955Y-62120D01*
X92830Y-62246D01*
X92815Y-62282D01*
X92800Y-62247D01*
X92674Y-62121D01*
X92510Y-62053D01*
X92332Y-62053D01*
X92168Y-62120D01*
X92076Y-62212D01*
X91985Y-62121D01*
X91821Y-62053D01*
X91643Y-62053D01*
X91479Y-62120D01*
X91353Y-62246D01*
X91285Y-62410D01*
X91285Y-62588D01*
X91353Y-62752D01*
X91478Y-62878D01*
X91643Y-62946D01*
X91820Y-62946D01*
X91985Y-62879D01*
X92076Y-62787D01*
X92167Y-62878D01*
X92331Y-62946D01*
X92509Y-62946D01*
X92674Y-62879D01*
X92799Y-62753D01*
X92814Y-62717D01*
X92829Y-62752D01*
X92955Y-62878D01*
X93119Y-62946D01*
X93297Y-62946D01*
X93461Y-62879D01*
X93553Y-62787D01*
X93644Y-62878D01*
X93808Y-62946D01*
X93986Y-62946D01*
X94150Y-62879D01*
X94276Y-62753D01*
X94344Y-62589D01*
X94344Y-62411D01*
X94344Y-66705D01*
X94282Y-66679D01*
X94104Y-66679D01*
X93940Y-66746D01*
X93814Y-66872D01*
X93746Y-67036D01*
X93745Y-67214D01*
X93813Y-67378D01*
X93939Y-67504D01*
X94103Y-67572D01*
X94281Y-67572D01*
X94445Y-67505D01*
X94571Y-67379D01*
X94639Y-67215D01*
X94639Y-67037D01*
X94639Y-79175D01*
X94500Y-79175D01*
X94500Y-77687D01*
X94372Y-77378D01*
X94344Y-77350D01*
X94344Y-72155D01*
X94344Y-70580D01*
X94276Y-70416D01*
X94151Y-70290D01*
X93986Y-70222D01*
X93809Y-70222D01*
X93644Y-70290D01*
X93553Y-70381D01*
X93462Y-70290D01*
X93297Y-70222D01*
X93120Y-70222D01*
X92955Y-70290D01*
X92830Y-70415D01*
X92815Y-70452D01*
X92800Y-70416D01*
X92674Y-70290D01*
X92510Y-70222D01*
X92332Y-70222D01*
X92168Y-70290D01*
X92076Y-70381D01*
X91985Y-70290D01*
X91821Y-70222D01*
X91643Y-70222D01*
X91479Y-70290D01*
X91353Y-70415D01*
X91285Y-70580D01*
X91285Y-70757D01*
X91353Y-70922D01*
X91478Y-71047D01*
X91643Y-71116D01*
X91820Y-71116D01*
X91985Y-71048D01*
X92076Y-70956D01*
X92167Y-71047D01*
X92331Y-71116D01*
X92509Y-71116D01*
X92674Y-71048D01*
X92799Y-70922D01*
X92814Y-70886D01*
X92829Y-70922D01*
X92955Y-71047D01*
X93119Y-71116D01*
X93297Y-71116D01*
X93461Y-71048D01*
X93553Y-70956D01*
X93644Y-71047D01*
X93808Y-71116D01*
X93986Y-71116D01*
X94150Y-71048D01*
X94276Y-70922D01*
X94344Y-70758D01*
X94344Y-70580D01*
X94344Y-72155D01*
X94276Y-71991D01*
X94151Y-71865D01*
X93986Y-71797D01*
X93809Y-71797D01*
X93644Y-71865D01*
X93553Y-71956D01*
X93462Y-71865D01*
X93297Y-71797D01*
X93120Y-71797D01*
X92955Y-71865D01*
X92830Y-71990D01*
X92815Y-72026D01*
X92800Y-71991D01*
X92674Y-71865D01*
X92510Y-71797D01*
X92332Y-71797D01*
X92168Y-71865D01*
X92076Y-71956D01*
X91985Y-71865D01*
X91821Y-71797D01*
X91643Y-71797D01*
X91479Y-71865D01*
X91353Y-71990D01*
X91285Y-72154D01*
X91285Y-72332D01*
X91353Y-72496D01*
X91478Y-72622D01*
X91643Y-72690D01*
X91820Y-72691D01*
X91985Y-72623D01*
X92076Y-72531D01*
X92167Y-72622D01*
X92331Y-72690D01*
X92509Y-72691D01*
X92674Y-72623D01*
X92799Y-72497D01*
X92814Y-72461D01*
X92829Y-72496D01*
X92955Y-72622D01*
X93119Y-72690D01*
X93297Y-72691D01*
X93461Y-72623D01*
X93553Y-72531D01*
X93644Y-72622D01*
X93808Y-72690D01*
X93986Y-72691D01*
X94150Y-72623D01*
X94276Y-72497D01*
X94344Y-72333D01*
X94344Y-72155D01*
X94344Y-77350D01*
X94136Y-77141D01*
X93827Y-77013D01*
X93557Y-77013D01*
X93557Y-76289D01*
X93489Y-76125D01*
X93363Y-75999D01*
X93199Y-75931D01*
X93021Y-75931D01*
X92857Y-75998D01*
X92731Y-76124D01*
X92663Y-76288D01*
X92663Y-76466D01*
X92731Y-76630D01*
X92856Y-76756D01*
X93020Y-76824D01*
X93198Y-76824D01*
X93363Y-76756D01*
X93488Y-76631D01*
X93557Y-76467D01*
X93557Y-76289D01*
X93557Y-77013D01*
X93493Y-77013D01*
X93184Y-77141D01*
X92947Y-77377D01*
X92819Y-77686D01*
X92819Y-78020D01*
X92947Y-78329D01*
X93183Y-78566D01*
X93492Y-78694D01*
X93826Y-78694D01*
X94135Y-78566D01*
X94372Y-78330D01*
X94500Y-78021D01*
X94500Y-77687D01*
X94500Y-79175D01*
X84797Y-79175D01*
X84797Y-72746D01*
X84797Y-63002D01*
X84797Y-53257D01*
X84729Y-53093D01*
X84603Y-52967D01*
X84439Y-52899D01*
X84261Y-52899D01*
X84097Y-52967D01*
X83971Y-53093D01*
X83903Y-53257D01*
X83903Y-53434D01*
X83971Y-53599D01*
X84096Y-53725D01*
X84261Y-53793D01*
X84438Y-53793D01*
X84603Y-53725D01*
X84728Y-53599D01*
X84797Y-53435D01*
X84797Y-53257D01*
X84797Y-63002D01*
X84729Y-62837D01*
X84603Y-62711D01*
X84439Y-62643D01*
X84261Y-62643D01*
X84097Y-62711D01*
X83971Y-62837D01*
X83903Y-63001D01*
X83903Y-63179D01*
X83971Y-63343D01*
X84096Y-63469D01*
X84261Y-63537D01*
X84438Y-63537D01*
X84603Y-63469D01*
X84728Y-63344D01*
X84797Y-63179D01*
X84797Y-63002D01*
X84797Y-72746D01*
X84729Y-72581D01*
X84603Y-72456D01*
X84439Y-72387D01*
X84261Y-72387D01*
X84097Y-72455D01*
X83971Y-72581D01*
X83903Y-72745D01*
X83903Y-72923D01*
X83971Y-73087D01*
X84096Y-73213D01*
X84261Y-73281D01*
X84438Y-73281D01*
X84603Y-73213D01*
X84728Y-73088D01*
X84797Y-72923D01*
X84797Y-72746D01*
X84797Y-79175D01*
X83517Y-79175D01*
X83517Y-73139D01*
X83517Y-62805D01*
X83517Y-52470D01*
X83449Y-52306D01*
X83324Y-52180D01*
X83160Y-52112D01*
X82982Y-52112D01*
X82818Y-52180D01*
X82726Y-52271D01*
X82635Y-52180D01*
X82471Y-52112D01*
X82293Y-52112D01*
X82129Y-52180D01*
X82003Y-52305D01*
X81935Y-52469D01*
X81934Y-52647D01*
X82002Y-52811D01*
X82128Y-52937D01*
X82292Y-53005D01*
X82470Y-53005D01*
X82634Y-52938D01*
X82726Y-52846D01*
X82817Y-52937D01*
X82981Y-53005D01*
X83159Y-53005D01*
X83323Y-52938D01*
X83449Y-52812D01*
X83517Y-52648D01*
X83517Y-52470D01*
X83517Y-62805D01*
X83449Y-62640D01*
X83324Y-62515D01*
X83160Y-62446D01*
X82982Y-62446D01*
X82828Y-62510D01*
X82828Y-56309D01*
X82760Y-56144D01*
X82635Y-56019D01*
X82471Y-55950D01*
X82293Y-55950D01*
X82129Y-56018D01*
X82003Y-56144D01*
X81935Y-56308D01*
X81934Y-56486D01*
X82002Y-56650D01*
X82128Y-56776D01*
X82292Y-56844D01*
X82470Y-56844D01*
X82634Y-56776D01*
X82760Y-56651D01*
X82828Y-56486D01*
X82828Y-56309D01*
X82828Y-62510D01*
X82818Y-62514D01*
X82726Y-62606D01*
X82635Y-62515D01*
X82471Y-62446D01*
X82293Y-62446D01*
X82129Y-62514D01*
X82003Y-62640D01*
X81935Y-62804D01*
X81934Y-62982D01*
X82002Y-63146D01*
X82128Y-63272D01*
X82292Y-63340D01*
X82470Y-63340D01*
X82634Y-63272D01*
X82726Y-63181D01*
X82817Y-63272D01*
X82981Y-63340D01*
X83159Y-63340D01*
X83323Y-63272D01*
X83449Y-63147D01*
X83517Y-62982D01*
X83517Y-62805D01*
X83517Y-73139D01*
X83449Y-72975D01*
X83324Y-72849D01*
X83160Y-72781D01*
X82982Y-72781D01*
X82828Y-72844D01*
X82828Y-66643D01*
X82828Y-64084D01*
X82760Y-63920D01*
X82635Y-63794D01*
X82471Y-63726D01*
X82293Y-63726D01*
X82129Y-63794D01*
X82003Y-63919D01*
X81935Y-64083D01*
X81934Y-64261D01*
X82002Y-64426D01*
X82128Y-64551D01*
X82292Y-64620D01*
X82470Y-64620D01*
X82634Y-64552D01*
X82760Y-64426D01*
X82828Y-64262D01*
X82828Y-64084D01*
X82828Y-66643D01*
X82760Y-66479D01*
X82635Y-66353D01*
X82471Y-66285D01*
X82293Y-66285D01*
X82129Y-66353D01*
X82003Y-66478D01*
X81935Y-66643D01*
X81934Y-66820D01*
X82002Y-66985D01*
X82128Y-67110D01*
X82292Y-67179D01*
X82470Y-67179D01*
X82634Y-67111D01*
X82760Y-66985D01*
X82828Y-66821D01*
X82828Y-66643D01*
X82828Y-72844D01*
X82818Y-72849D01*
X82726Y-72940D01*
X82635Y-72849D01*
X82471Y-72781D01*
X82293Y-72781D01*
X82129Y-72849D01*
X82003Y-72974D01*
X81935Y-73139D01*
X81934Y-73316D01*
X82002Y-73481D01*
X82128Y-73606D01*
X82292Y-73675D01*
X82470Y-73675D01*
X82634Y-73607D01*
X82726Y-73515D01*
X82817Y-73606D01*
X82981Y-73675D01*
X83159Y-73675D01*
X83323Y-73607D01*
X83449Y-73481D01*
X83517Y-73317D01*
X83517Y-73139D01*
X83517Y-79175D01*
X82828Y-79175D01*
X82828Y-76978D01*
X82760Y-76814D01*
X82635Y-76688D01*
X82471Y-76620D01*
X82293Y-76620D01*
X82129Y-76687D01*
X82003Y-76813D01*
X81935Y-76977D01*
X81934Y-77155D01*
X82002Y-77319D01*
X82128Y-77445D01*
X82292Y-77513D01*
X82470Y-77513D01*
X82634Y-77445D01*
X82760Y-77320D01*
X82828Y-77156D01*
X82828Y-76978D01*
X82828Y-79175D01*
X80761Y-79175D01*
X80761Y-72094D01*
X80694Y-71930D01*
X80568Y-71804D01*
X80487Y-71770D01*
X80567Y-71737D01*
X80693Y-71611D01*
X80761Y-71447D01*
X80761Y-71269D01*
X80761Y-61759D01*
X80761Y-60147D01*
X80761Y-51425D01*
X80694Y-51260D01*
X80568Y-51135D01*
X80487Y-51101D01*
X80567Y-51068D01*
X80693Y-50942D01*
X80761Y-50778D01*
X80761Y-50600D01*
X80694Y-50436D01*
X80568Y-50310D01*
X80404Y-50242D01*
X80304Y-50242D01*
X80368Y-50089D01*
X80368Y-49911D01*
X80300Y-49747D01*
X80174Y-49621D01*
X80010Y-49553D01*
X79832Y-49553D01*
X79668Y-49620D01*
X79542Y-49746D01*
X79527Y-49782D01*
X79512Y-49747D01*
X79387Y-49621D01*
X79223Y-49553D01*
X79045Y-49553D01*
X78881Y-49620D01*
X78755Y-49746D01*
X78740Y-49782D01*
X78725Y-49747D01*
X78637Y-49659D01*
X78730Y-49659D01*
X78894Y-49591D01*
X79020Y-49466D01*
X79088Y-49301D01*
X79088Y-49124D01*
X79020Y-48959D01*
X78895Y-48833D01*
X78731Y-48765D01*
X78553Y-48765D01*
X78388Y-48833D01*
X78263Y-48959D01*
X78194Y-49123D01*
X78194Y-49301D01*
X78262Y-49465D01*
X78350Y-49553D01*
X78257Y-49553D01*
X78093Y-49620D01*
X77967Y-49746D01*
X77952Y-49782D01*
X77938Y-49747D01*
X77812Y-49621D01*
X77648Y-49553D01*
X77470Y-49553D01*
X77306Y-49620D01*
X77180Y-49746D01*
X77112Y-49910D01*
X77112Y-50088D01*
X77180Y-50252D01*
X77276Y-50349D01*
X77254Y-50340D01*
X77076Y-50340D01*
X76912Y-50408D01*
X76786Y-50533D01*
X76771Y-50570D01*
X76756Y-50534D01*
X76631Y-50408D01*
X76467Y-50340D01*
X76289Y-50340D01*
X76125Y-50408D01*
X75999Y-50533D01*
X75984Y-50570D01*
X75969Y-50534D01*
X75844Y-50408D01*
X75679Y-50340D01*
X75502Y-50340D01*
X75337Y-50408D01*
X75211Y-50533D01*
X75196Y-50570D01*
X75182Y-50534D01*
X75056Y-50408D01*
X74892Y-50340D01*
X74714Y-50340D01*
X74550Y-50408D01*
X74424Y-50533D01*
X74356Y-50698D01*
X74356Y-50875D01*
X74424Y-51040D01*
X74549Y-51166D01*
X74713Y-51234D01*
X74891Y-51234D01*
X75055Y-51166D01*
X75181Y-51040D01*
X75196Y-51004D01*
X75211Y-51040D01*
X75337Y-51166D01*
X75501Y-51234D01*
X75679Y-51234D01*
X75843Y-51166D01*
X75969Y-51040D01*
X75984Y-51004D01*
X75998Y-51040D01*
X76124Y-51166D01*
X76288Y-51234D01*
X76466Y-51234D01*
X76630Y-51166D01*
X76756Y-51040D01*
X76771Y-51004D01*
X76786Y-51040D01*
X76911Y-51166D01*
X77076Y-51234D01*
X77253Y-51234D01*
X77418Y-51166D01*
X77543Y-51040D01*
X77559Y-51004D01*
X77573Y-51040D01*
X77699Y-51166D01*
X77863Y-51234D01*
X78041Y-51234D01*
X78205Y-51166D01*
X78331Y-51040D01*
X78346Y-51004D01*
X78361Y-51040D01*
X78486Y-51166D01*
X78650Y-51234D01*
X78828Y-51234D01*
X78992Y-51166D01*
X79118Y-51040D01*
X79133Y-51004D01*
X79148Y-51040D01*
X79274Y-51166D01*
X79438Y-51234D01*
X79616Y-51234D01*
X79780Y-51166D01*
X79906Y-51040D01*
X79943Y-50949D01*
X80061Y-51067D01*
X80142Y-51101D01*
X80062Y-51134D01*
X79936Y-51260D01*
X79868Y-51424D01*
X79868Y-51602D01*
X79935Y-51766D01*
X80061Y-51892D01*
X80225Y-51960D01*
X80403Y-51960D01*
X80567Y-51892D01*
X80693Y-51767D01*
X80761Y-51603D01*
X80761Y-51425D01*
X80761Y-60147D01*
X80694Y-59983D01*
X80568Y-59857D01*
X80404Y-59789D01*
X80226Y-59789D01*
X80062Y-59857D01*
X79936Y-59982D01*
X79921Y-60019D01*
X79906Y-59983D01*
X79781Y-59857D01*
X79616Y-59789D01*
X79439Y-59789D01*
X79274Y-59857D01*
X79148Y-59982D01*
X79133Y-60019D01*
X79119Y-59983D01*
X78993Y-59857D01*
X78972Y-59848D01*
X79020Y-59800D01*
X79088Y-59636D01*
X79088Y-59458D01*
X79020Y-59294D01*
X78990Y-59263D01*
X78990Y-52470D01*
X78922Y-52306D01*
X78796Y-52180D01*
X78632Y-52112D01*
X78454Y-52112D01*
X78290Y-52180D01*
X78198Y-52271D01*
X78107Y-52180D01*
X77943Y-52112D01*
X77765Y-52112D01*
X77601Y-52180D01*
X77475Y-52305D01*
X77407Y-52469D01*
X77407Y-52647D01*
X77475Y-52811D01*
X77600Y-52937D01*
X77765Y-53005D01*
X77942Y-53005D01*
X78107Y-52938D01*
X78198Y-52846D01*
X78289Y-52937D01*
X78454Y-53005D01*
X78631Y-53005D01*
X78796Y-52938D01*
X78921Y-52812D01*
X78990Y-52648D01*
X78990Y-52470D01*
X78990Y-59263D01*
X78895Y-59168D01*
X78731Y-59100D01*
X78694Y-59100D01*
X78694Y-55029D01*
X78627Y-54865D01*
X78501Y-54739D01*
X78337Y-54671D01*
X78159Y-54671D01*
X77995Y-54739D01*
X77869Y-54864D01*
X77805Y-55019D01*
X77741Y-54865D01*
X77615Y-54739D01*
X77451Y-54671D01*
X77273Y-54671D01*
X77109Y-54739D01*
X77066Y-54781D01*
X77025Y-54739D01*
X76860Y-54671D01*
X76683Y-54671D01*
X76518Y-54739D01*
X76393Y-54864D01*
X76324Y-55028D01*
X76324Y-55206D01*
X76392Y-55370D01*
X76518Y-55496D01*
X76682Y-55564D01*
X76860Y-55565D01*
X77024Y-55497D01*
X77066Y-55454D01*
X77108Y-55496D01*
X77272Y-55564D01*
X77450Y-55565D01*
X77614Y-55497D01*
X77740Y-55371D01*
X77805Y-55216D01*
X77868Y-55370D01*
X77994Y-55496D01*
X78158Y-55564D01*
X78336Y-55565D01*
X78500Y-55497D01*
X78626Y-55371D01*
X78694Y-55207D01*
X78694Y-55029D01*
X78694Y-59100D01*
X78553Y-59100D01*
X78388Y-59168D01*
X78263Y-59293D01*
X78194Y-59457D01*
X78194Y-59635D01*
X78262Y-59800D01*
X78388Y-59925D01*
X78409Y-59934D01*
X78361Y-59982D01*
X78346Y-60019D01*
X78331Y-59983D01*
X78206Y-59857D01*
X78042Y-59789D01*
X77864Y-59789D01*
X77699Y-59857D01*
X77574Y-59982D01*
X77559Y-60019D01*
X77544Y-59983D01*
X77418Y-59857D01*
X77254Y-59789D01*
X77076Y-59789D01*
X76912Y-59857D01*
X76786Y-59982D01*
X76718Y-60146D01*
X76718Y-60324D01*
X76786Y-60489D01*
X76883Y-60586D01*
X76860Y-60576D01*
X76683Y-60576D01*
X76518Y-60644D01*
X76427Y-60736D01*
X76336Y-60645D01*
X76171Y-60576D01*
X75994Y-60576D01*
X75829Y-60644D01*
X75704Y-60770D01*
X75635Y-60934D01*
X75635Y-61112D01*
X75703Y-61276D01*
X75829Y-61402D01*
X75993Y-61470D01*
X76171Y-61470D01*
X76335Y-61402D01*
X76427Y-61311D01*
X76518Y-61402D01*
X76682Y-61470D01*
X76860Y-61470D01*
X77024Y-61402D01*
X77150Y-61277D01*
X77165Y-61240D01*
X77180Y-61276D01*
X77305Y-61402D01*
X77469Y-61470D01*
X77647Y-61470D01*
X77811Y-61402D01*
X77937Y-61277D01*
X77952Y-61240D01*
X77967Y-61276D01*
X78093Y-61402D01*
X78257Y-61470D01*
X78434Y-61470D01*
X78599Y-61402D01*
X78725Y-61277D01*
X78740Y-61240D01*
X78754Y-61276D01*
X78880Y-61402D01*
X79044Y-61470D01*
X79222Y-61470D01*
X79386Y-61402D01*
X79512Y-61277D01*
X79527Y-61240D01*
X79542Y-61276D01*
X79667Y-61402D01*
X79831Y-61470D01*
X80009Y-61470D01*
X80174Y-61402D01*
X80299Y-61277D01*
X80368Y-61112D01*
X80368Y-60935D01*
X80300Y-60770D01*
X80203Y-60673D01*
X80225Y-60682D01*
X80403Y-60683D01*
X80567Y-60615D01*
X80693Y-60489D01*
X80761Y-60325D01*
X80761Y-60147D01*
X80761Y-61759D01*
X80694Y-61595D01*
X80568Y-61469D01*
X80404Y-61401D01*
X80226Y-61401D01*
X80062Y-61469D01*
X79936Y-61594D01*
X79868Y-61759D01*
X79868Y-61936D01*
X79935Y-62101D01*
X80061Y-62227D01*
X80225Y-62295D01*
X80403Y-62295D01*
X80567Y-62227D01*
X80693Y-62101D01*
X80761Y-61937D01*
X80761Y-61759D01*
X80761Y-71269D01*
X80694Y-71105D01*
X80568Y-70979D01*
X80404Y-70911D01*
X80226Y-70911D01*
X80062Y-70979D01*
X79943Y-71097D01*
X79906Y-71007D01*
X79809Y-70909D01*
X79831Y-70919D01*
X80009Y-70919D01*
X80174Y-70851D01*
X80299Y-70725D01*
X80368Y-70561D01*
X80368Y-70383D01*
X80300Y-70219D01*
X80174Y-70093D01*
X80010Y-70025D01*
X79832Y-70025D01*
X79668Y-70093D01*
X79542Y-70218D01*
X79527Y-70255D01*
X79512Y-70219D01*
X79387Y-70093D01*
X79223Y-70025D01*
X79065Y-70025D01*
X79088Y-69971D01*
X79088Y-69793D01*
X79024Y-69638D01*
X79118Y-69544D01*
X79133Y-69508D01*
X79148Y-69544D01*
X79274Y-69669D01*
X79438Y-69738D01*
X79616Y-69738D01*
X79780Y-69670D01*
X79906Y-69544D01*
X79974Y-69380D01*
X79974Y-69202D01*
X79906Y-69038D01*
X79781Y-68912D01*
X79616Y-68844D01*
X79439Y-68844D01*
X79274Y-68912D01*
X79148Y-69037D01*
X79133Y-69074D01*
X79119Y-69038D01*
X78993Y-68912D01*
X78990Y-68911D01*
X78990Y-62805D01*
X78922Y-62640D01*
X78796Y-62515D01*
X78632Y-62446D01*
X78454Y-62446D01*
X78290Y-62514D01*
X78198Y-62606D01*
X78107Y-62515D01*
X77943Y-62446D01*
X77765Y-62446D01*
X77601Y-62514D01*
X77475Y-62640D01*
X77407Y-62804D01*
X77407Y-62982D01*
X77475Y-63146D01*
X77600Y-63272D01*
X77765Y-63340D01*
X77942Y-63340D01*
X78107Y-63272D01*
X78198Y-63181D01*
X78289Y-63272D01*
X78454Y-63340D01*
X78631Y-63340D01*
X78796Y-63272D01*
X78921Y-63147D01*
X78990Y-62982D01*
X78990Y-62805D01*
X78990Y-68911D01*
X78829Y-68844D01*
X78694Y-68844D01*
X78694Y-65364D01*
X78627Y-65199D01*
X78501Y-65074D01*
X78337Y-65005D01*
X78159Y-65005D01*
X77995Y-65073D01*
X77869Y-65199D01*
X77805Y-65354D01*
X77741Y-65199D01*
X77615Y-65074D01*
X77451Y-65005D01*
X77273Y-65005D01*
X77109Y-65073D01*
X76983Y-65199D01*
X76915Y-65363D01*
X76915Y-65541D01*
X76983Y-65705D01*
X77108Y-65831D01*
X77272Y-65899D01*
X77450Y-65899D01*
X77614Y-65831D01*
X77740Y-65706D01*
X77805Y-65551D01*
X77868Y-65705D01*
X77994Y-65831D01*
X78158Y-65899D01*
X78336Y-65899D01*
X78500Y-65831D01*
X78626Y-65706D01*
X78694Y-65542D01*
X78694Y-65364D01*
X78694Y-68844D01*
X78651Y-68844D01*
X78487Y-68912D01*
X78361Y-69037D01*
X78346Y-69074D01*
X78331Y-69038D01*
X78206Y-68912D01*
X78042Y-68844D01*
X77864Y-68844D01*
X77699Y-68912D01*
X77574Y-69037D01*
X77505Y-69202D01*
X77505Y-69379D01*
X77573Y-69544D01*
X77699Y-69669D01*
X77863Y-69738D01*
X78041Y-69738D01*
X78205Y-69670D01*
X78331Y-69544D01*
X78346Y-69508D01*
X78357Y-69534D01*
X78263Y-69628D01*
X78194Y-69792D01*
X78194Y-69970D01*
X78223Y-70039D01*
X78093Y-70093D01*
X77967Y-70218D01*
X77952Y-70255D01*
X77938Y-70219D01*
X77812Y-70093D01*
X77648Y-70025D01*
X77470Y-70025D01*
X77306Y-70093D01*
X77180Y-70218D01*
X77165Y-70255D01*
X77150Y-70219D01*
X77025Y-70093D01*
X76860Y-70025D01*
X76683Y-70025D01*
X76518Y-70093D01*
X76393Y-70218D01*
X76324Y-70383D01*
X76324Y-70560D01*
X76392Y-70725D01*
X76489Y-70822D01*
X76467Y-70813D01*
X76289Y-70812D01*
X76125Y-70880D01*
X75999Y-71006D01*
X75984Y-71042D01*
X75969Y-71007D01*
X75844Y-70881D01*
X75679Y-70813D01*
X75545Y-70812D01*
X75545Y-63297D01*
X75545Y-53061D01*
X75477Y-52896D01*
X75351Y-52771D01*
X75187Y-52702D01*
X75009Y-52702D01*
X74845Y-52770D01*
X74719Y-52896D01*
X74651Y-53060D01*
X74651Y-53238D01*
X74719Y-53402D01*
X74844Y-53528D01*
X75009Y-53596D01*
X75186Y-53596D01*
X75351Y-53528D01*
X75477Y-53403D01*
X75545Y-53238D01*
X75545Y-53061D01*
X75545Y-63297D01*
X75477Y-63133D01*
X75351Y-63007D01*
X75187Y-62939D01*
X75009Y-62938D01*
X74845Y-63006D01*
X74719Y-63132D01*
X74651Y-63296D01*
X74651Y-63474D01*
X74719Y-63638D01*
X74844Y-63764D01*
X75009Y-63832D01*
X75186Y-63832D01*
X75351Y-63764D01*
X75477Y-63639D01*
X75545Y-63475D01*
X75545Y-63297D01*
X75545Y-70812D01*
X75502Y-70812D01*
X75337Y-70880D01*
X75211Y-71006D01*
X75143Y-71170D01*
X75143Y-71348D01*
X75211Y-71512D01*
X75337Y-71638D01*
X75501Y-71706D01*
X75679Y-71706D01*
X75843Y-71638D01*
X75969Y-71513D01*
X75984Y-71477D01*
X75998Y-71512D01*
X76124Y-71638D01*
X76288Y-71706D01*
X76466Y-71706D01*
X76630Y-71638D01*
X76756Y-71513D01*
X76771Y-71477D01*
X76786Y-71512D01*
X76911Y-71638D01*
X77076Y-71706D01*
X77253Y-71706D01*
X77418Y-71638D01*
X77543Y-71513D01*
X77559Y-71477D01*
X77573Y-71512D01*
X77699Y-71638D01*
X77863Y-71706D01*
X78041Y-71706D01*
X78205Y-71638D01*
X78331Y-71513D01*
X78346Y-71477D01*
X78361Y-71512D01*
X78486Y-71638D01*
X78650Y-71706D01*
X78828Y-71706D01*
X78992Y-71638D01*
X79118Y-71513D01*
X79133Y-71477D01*
X79148Y-71512D01*
X79274Y-71638D01*
X79438Y-71706D01*
X79616Y-71706D01*
X79780Y-71638D01*
X79898Y-71520D01*
X79935Y-71611D01*
X80061Y-71736D01*
X80142Y-71770D01*
X80062Y-71804D01*
X79936Y-71929D01*
X79868Y-72093D01*
X79868Y-72271D01*
X79935Y-72435D01*
X80061Y-72561D01*
X80225Y-72629D01*
X80403Y-72629D01*
X80567Y-72562D01*
X80693Y-72436D01*
X80761Y-72272D01*
X80761Y-72094D01*
X80761Y-79175D01*
X78990Y-79175D01*
X78990Y-73139D01*
X78922Y-72975D01*
X78796Y-72849D01*
X78632Y-72781D01*
X78454Y-72781D01*
X78290Y-72849D01*
X78198Y-72940D01*
X78107Y-72849D01*
X77943Y-72781D01*
X77765Y-72781D01*
X77601Y-72849D01*
X77475Y-72974D01*
X77407Y-73139D01*
X77407Y-73316D01*
X77475Y-73481D01*
X77600Y-73606D01*
X77765Y-73675D01*
X77942Y-73675D01*
X78107Y-73607D01*
X78198Y-73515D01*
X78289Y-73606D01*
X78454Y-73675D01*
X78631Y-73675D01*
X78796Y-73607D01*
X78921Y-73481D01*
X78990Y-73317D01*
X78990Y-73139D01*
X78990Y-79175D01*
X78694Y-79175D01*
X78694Y-75698D01*
X78627Y-75534D01*
X78501Y-75408D01*
X78337Y-75340D01*
X78159Y-75340D01*
X77995Y-75408D01*
X77869Y-75533D01*
X77854Y-75570D01*
X77839Y-75534D01*
X77714Y-75408D01*
X77549Y-75340D01*
X77372Y-75340D01*
X77207Y-75408D01*
X77082Y-75533D01*
X77013Y-75698D01*
X77013Y-75875D01*
X77081Y-76040D01*
X77207Y-76166D01*
X77371Y-76234D01*
X77549Y-76234D01*
X77713Y-76166D01*
X77839Y-76040D01*
X77854Y-76004D01*
X77868Y-76040D01*
X77994Y-76166D01*
X78158Y-76234D01*
X78336Y-76234D01*
X78500Y-76166D01*
X78626Y-76040D01*
X78694Y-75876D01*
X78694Y-75698D01*
X78694Y-79175D01*
X75545Y-79175D01*
X75545Y-74124D01*
X75480Y-73966D01*
X75545Y-73809D01*
X75545Y-73631D01*
X75477Y-73467D01*
X75351Y-73341D01*
X75187Y-73273D01*
X75009Y-73273D01*
X74845Y-73341D01*
X74719Y-73467D01*
X74651Y-73631D01*
X74651Y-73808D01*
X74716Y-73966D01*
X74651Y-74123D01*
X74651Y-74301D01*
X74719Y-74465D01*
X74844Y-74591D01*
X75009Y-74659D01*
X75186Y-74659D01*
X75351Y-74591D01*
X75477Y-74466D01*
X75545Y-74301D01*
X75545Y-74124D01*
X75545Y-79175D01*
X74459Y-79175D01*
X74459Y-72921D01*
X74615Y-72986D01*
X74793Y-72986D01*
X74957Y-72918D01*
X75083Y-72792D01*
X75151Y-72628D01*
X75151Y-72450D01*
X75083Y-72286D01*
X74958Y-72160D01*
X74793Y-72092D01*
X74616Y-72092D01*
X74459Y-72157D01*
X74459Y-62651D01*
X74596Y-62651D01*
X74760Y-62583D01*
X74886Y-62458D01*
X74954Y-62293D01*
X74954Y-62116D01*
X74886Y-61951D01*
X74761Y-61826D01*
X74597Y-61757D01*
X74561Y-61757D01*
X74561Y-51486D01*
X74493Y-51322D01*
X74367Y-51196D01*
X74203Y-51128D01*
X74025Y-51127D01*
X73861Y-51195D01*
X73735Y-51321D01*
X73667Y-51485D01*
X73667Y-51663D01*
X73735Y-51827D01*
X73860Y-51953D01*
X74024Y-52021D01*
X74202Y-52021D01*
X74366Y-51953D01*
X74492Y-51828D01*
X74560Y-51664D01*
X74561Y-51486D01*
X74561Y-61757D01*
X74459Y-61757D01*
X74459Y-60186D01*
X72666Y-60186D01*
X72690Y-60128D01*
X72691Y-59950D01*
X72623Y-59786D01*
X72580Y-59744D01*
X72622Y-59702D01*
X72690Y-59538D01*
X72691Y-59360D01*
X72623Y-59196D01*
X72580Y-59153D01*
X72622Y-59111D01*
X72690Y-58947D01*
X72691Y-58769D01*
X72623Y-58605D01*
X72580Y-58563D01*
X72622Y-58521D01*
X72690Y-58356D01*
X72691Y-58179D01*
X72623Y-58014D01*
X72580Y-57972D01*
X72622Y-57930D01*
X72690Y-57766D01*
X72691Y-57588D01*
X72623Y-57424D01*
X72497Y-57298D01*
X72333Y-57230D01*
X72155Y-57230D01*
X71991Y-57298D01*
X71865Y-57423D01*
X71797Y-57587D01*
X71797Y-57765D01*
X71865Y-57929D01*
X71907Y-57972D01*
X71865Y-58014D01*
X71797Y-58178D01*
X71797Y-58356D01*
X71865Y-58520D01*
X71907Y-58562D01*
X71865Y-58604D01*
X71797Y-58768D01*
X71797Y-58946D01*
X71865Y-59111D01*
X71907Y-59153D01*
X71865Y-59195D01*
X71797Y-59359D01*
X71797Y-59537D01*
X71865Y-59701D01*
X71907Y-59744D01*
X71865Y-59785D01*
X71797Y-59950D01*
X71797Y-60127D01*
X71821Y-60186D01*
X71706Y-60186D01*
X71706Y-51486D01*
X71638Y-51322D01*
X71513Y-51196D01*
X71349Y-51128D01*
X71171Y-51127D01*
X71147Y-51137D01*
X71214Y-50975D01*
X71214Y-50797D01*
X71146Y-50633D01*
X71021Y-50507D01*
X70856Y-50439D01*
X70679Y-50439D01*
X70514Y-50507D01*
X70389Y-50632D01*
X70320Y-50797D01*
X70320Y-50974D01*
X70384Y-51127D01*
X70383Y-51127D01*
X70219Y-51195D01*
X70093Y-51321D01*
X70025Y-51485D01*
X70025Y-51663D01*
X70093Y-51827D01*
X70218Y-51953D01*
X70383Y-52021D01*
X70560Y-52021D01*
X70725Y-51953D01*
X70851Y-51828D01*
X70866Y-51792D01*
X70880Y-51827D01*
X71006Y-51953D01*
X71170Y-52021D01*
X71348Y-52021D01*
X71512Y-51953D01*
X71638Y-51828D01*
X71706Y-51664D01*
X71706Y-51486D01*
X71706Y-60186D01*
X70916Y-60186D01*
X70916Y-56278D01*
X70820Y-56183D01*
X70820Y-54439D01*
X70753Y-54274D01*
X70627Y-54148D01*
X70463Y-54080D01*
X70285Y-54080D01*
X70121Y-54148D01*
X69995Y-54274D01*
X69927Y-54438D01*
X69927Y-54616D01*
X69994Y-54780D01*
X70120Y-54906D01*
X70284Y-54974D01*
X70462Y-54974D01*
X70626Y-54906D01*
X70752Y-54781D01*
X70820Y-54616D01*
X70820Y-54439D01*
X70820Y-56183D01*
X69344Y-54706D01*
X69344Y-49517D01*
X69276Y-49353D01*
X69151Y-49227D01*
X68986Y-49159D01*
X68809Y-49159D01*
X68644Y-49227D01*
X68519Y-49352D01*
X68450Y-49517D01*
X68450Y-49694D01*
X68518Y-49859D01*
X68644Y-49984D01*
X68808Y-50053D01*
X68986Y-50053D01*
X69150Y-49985D01*
X69276Y-49859D01*
X69344Y-49695D01*
X69344Y-49517D01*
X69344Y-54706D01*
X68553Y-53916D01*
X68553Y-51131D01*
X68163Y-51131D01*
X68163Y-50502D01*
X68095Y-50337D01*
X67969Y-50211D01*
X67805Y-50143D01*
X67628Y-50143D01*
X67534Y-50182D01*
X67572Y-50089D01*
X67572Y-49911D01*
X67505Y-49747D01*
X67379Y-49621D01*
X67215Y-49553D01*
X67037Y-49553D01*
X66873Y-49620D01*
X66747Y-49746D01*
X66679Y-49910D01*
X66679Y-50088D01*
X66717Y-50182D01*
X66624Y-50143D01*
X66446Y-50143D01*
X66352Y-50182D01*
X66391Y-50089D01*
X66391Y-49911D01*
X66323Y-49747D01*
X66198Y-49621D01*
X66034Y-49553D01*
X65856Y-49553D01*
X65692Y-49620D01*
X65566Y-49746D01*
X65498Y-49910D01*
X65497Y-50088D01*
X65536Y-50182D01*
X65443Y-50143D01*
X65265Y-50143D01*
X65171Y-50182D01*
X65210Y-50089D01*
X65210Y-49911D01*
X65142Y-49747D01*
X65017Y-49621D01*
X64853Y-49553D01*
X64675Y-49553D01*
X64510Y-49620D01*
X64385Y-49746D01*
X64317Y-49910D01*
X64316Y-50088D01*
X64384Y-50252D01*
X64510Y-50378D01*
X64674Y-50446D01*
X64852Y-50446D01*
X64946Y-50408D01*
X64907Y-50501D01*
X64907Y-50679D01*
X64975Y-50843D01*
X65100Y-50969D01*
X65265Y-51037D01*
X65442Y-51037D01*
X65607Y-50969D01*
X65732Y-50844D01*
X65801Y-50679D01*
X65801Y-50502D01*
X65762Y-50408D01*
X65855Y-50446D01*
X66033Y-50446D01*
X66127Y-50408D01*
X66088Y-50501D01*
X66088Y-50679D01*
X66156Y-50843D01*
X66281Y-50969D01*
X66446Y-51037D01*
X66623Y-51037D01*
X66788Y-50969D01*
X66914Y-50844D01*
X66982Y-50679D01*
X66982Y-50502D01*
X66943Y-50408D01*
X67036Y-50446D01*
X67214Y-50446D01*
X67308Y-50408D01*
X67269Y-50501D01*
X67269Y-50679D01*
X67337Y-50843D01*
X67463Y-50969D01*
X67627Y-51037D01*
X67805Y-51037D01*
X67969Y-50969D01*
X68095Y-50844D01*
X68163Y-50679D01*
X68163Y-50502D01*
X68163Y-51131D01*
X64135Y-51131D01*
X64135Y-50064D01*
X64022Y-49788D01*
X63811Y-49577D01*
X63535Y-49462D01*
X63237Y-49462D01*
X62961Y-49576D01*
X62750Y-49787D01*
X62635Y-50062D01*
X62635Y-50361D01*
X62749Y-50636D01*
X62960Y-50848D01*
X63235Y-50962D01*
X63534Y-50962D01*
X63810Y-50848D01*
X64021Y-50637D01*
X64135Y-50362D01*
X64135Y-50064D01*
X64135Y-51131D01*
X62225Y-51131D01*
X62225Y-47325D01*
X95175Y-47325D01*
X95175Y-79175D01*
M02*
