G04 (created by PCBNEW (2013-04-21 BZR 4107)-testing) date Thursday, 13 June 2013 16:51:55*
%MOIN*%
G04 Gerber Fmt 3.4, Leading zero omitted, Abs format*
%FSLAX34Y34*%
G01*
G70*
G90*
G04 APERTURE LIST*
%ADD10C,2.3622e-06*%
%ADD11C,0.012*%
%ADD12C,0.0001*%
%ADD13C,0.01*%
%ADD14C,0.006*%
G04 APERTURE END LIST*
G54D10*
G54D11*
X91279Y-78867D02*
X91193Y-78905D01*
X91050Y-78905D01*
X90993Y-78867D01*
X90965Y-78829D01*
X90936Y-78752D01*
X90936Y-78676D01*
X90965Y-78600D01*
X90993Y-78562D01*
X91050Y-78524D01*
X91165Y-78486D01*
X91222Y-78448D01*
X91250Y-78409D01*
X91279Y-78333D01*
X91279Y-78257D01*
X91250Y-78181D01*
X91222Y-78143D01*
X91165Y-78105D01*
X91022Y-78105D01*
X90936Y-78143D01*
X90393Y-78905D02*
X90679Y-78905D01*
X90679Y-78105D01*
X89907Y-78905D02*
X90193Y-78905D01*
X90193Y-78105D01*
X89707Y-78600D02*
X89250Y-78600D01*
X88850Y-78105D02*
X88793Y-78105D01*
X88736Y-78143D01*
X88707Y-78181D01*
X88679Y-78257D01*
X88650Y-78409D01*
X88650Y-78600D01*
X88679Y-78752D01*
X88707Y-78829D01*
X88736Y-78867D01*
X88793Y-78905D01*
X88850Y-78905D01*
X88907Y-78867D01*
X88936Y-78829D01*
X88965Y-78752D01*
X88993Y-78600D01*
X88993Y-78409D01*
X88965Y-78257D01*
X88936Y-78181D01*
X88907Y-78143D01*
X88850Y-78105D01*
X88079Y-78905D02*
X88422Y-78905D01*
X88250Y-78905D02*
X88250Y-78105D01*
X88307Y-78219D01*
X88365Y-78295D01*
X88422Y-78333D01*
X87022Y-78905D02*
X87222Y-78524D01*
X87365Y-78905D02*
X87365Y-78105D01*
X87136Y-78105D01*
X87079Y-78143D01*
X87050Y-78181D01*
X87022Y-78257D01*
X87022Y-78371D01*
X87050Y-78448D01*
X87079Y-78486D01*
X87136Y-78524D01*
X87365Y-78524D01*
X86765Y-78486D02*
X86565Y-78486D01*
X86479Y-78905D02*
X86765Y-78905D01*
X86765Y-78105D01*
X86479Y-78105D01*
X85936Y-78905D02*
X86222Y-78905D01*
X86222Y-78105D01*
X85736Y-78600D02*
X85279Y-78600D01*
X84679Y-78905D02*
X85022Y-78905D01*
X84850Y-78905D02*
X84850Y-78105D01*
X84907Y-78219D01*
X84965Y-78295D01*
X85022Y-78333D01*
X84422Y-78829D02*
X84393Y-78867D01*
X84422Y-78905D01*
X84450Y-78867D01*
X84422Y-78829D01*
X84422Y-78905D01*
X83822Y-78905D02*
X84165Y-78905D01*
X83993Y-78905D02*
X83993Y-78105D01*
X84050Y-78219D01*
X84107Y-78295D01*
X84165Y-78333D01*
X83450Y-78105D02*
X83393Y-78105D01*
X83336Y-78143D01*
X83307Y-78181D01*
X83279Y-78257D01*
X83250Y-78409D01*
X83250Y-78600D01*
X83279Y-78752D01*
X83307Y-78829D01*
X83336Y-78867D01*
X83393Y-78905D01*
X83450Y-78905D01*
X83507Y-78867D01*
X83536Y-78829D01*
X83565Y-78752D01*
X83593Y-78600D01*
X83593Y-78409D01*
X83565Y-78257D01*
X83536Y-78181D01*
X83507Y-78143D01*
X83450Y-78105D01*
X83022Y-78676D02*
X82736Y-78676D01*
X83079Y-78905D02*
X82879Y-78105D01*
X82679Y-78905D01*
G54D12*
G36*
X72232Y-72753D02*
X67773Y-72761D01*
X63315Y-72770D01*
X63306Y-75895D01*
X63298Y-79020D01*
X63290Y-75878D01*
X63282Y-72737D01*
X67757Y-72745D01*
X72232Y-72753D01*
X72232Y-72753D01*
X72232Y-72753D01*
G37*
G36*
X66582Y-77870D02*
X66290Y-77867D01*
X66126Y-77860D01*
X65959Y-77844D01*
X65821Y-77821D01*
X65803Y-77817D01*
X65466Y-77702D01*
X65149Y-77529D01*
X64861Y-77304D01*
X64609Y-77035D01*
X64403Y-76729D01*
X64330Y-76587D01*
X64198Y-76228D01*
X64131Y-75859D01*
X64128Y-75487D01*
X64190Y-75117D01*
X64317Y-74755D01*
X64349Y-74687D01*
X64543Y-74358D01*
X64783Y-74073D01*
X65063Y-73836D01*
X65376Y-73650D01*
X65717Y-73520D01*
X66079Y-73449D01*
X66307Y-73437D01*
X66582Y-73437D01*
X66582Y-73768D01*
X66582Y-74099D01*
X66469Y-74081D01*
X66379Y-74077D01*
X66251Y-74085D01*
X66117Y-74103D01*
X65817Y-74184D01*
X65545Y-74319D01*
X65307Y-74498D01*
X65108Y-74716D01*
X64952Y-74964D01*
X64844Y-75235D01*
X64790Y-75523D01*
X64794Y-75818D01*
X64831Y-76012D01*
X64913Y-76262D01*
X65025Y-76475D01*
X65182Y-76678D01*
X65224Y-76725D01*
X65441Y-76920D01*
X65649Y-77049D01*
X65828Y-77124D01*
X66025Y-77182D01*
X66218Y-77218D01*
X66386Y-77229D01*
X66467Y-77222D01*
X66582Y-77200D01*
X66582Y-77535D01*
X66582Y-77870D01*
X66582Y-77870D01*
X66582Y-77870D01*
G37*
G36*
X70415Y-77870D02*
X70107Y-77868D01*
X69846Y-77854D01*
X69615Y-77810D01*
X69548Y-77792D01*
X69186Y-77650D01*
X68860Y-77455D01*
X68576Y-77209D01*
X68336Y-76915D01*
X68144Y-76578D01*
X68055Y-76361D01*
X68020Y-76255D01*
X67995Y-76159D01*
X67980Y-76056D01*
X67972Y-75930D01*
X67968Y-75762D01*
X67968Y-75653D01*
X67968Y-75460D01*
X67973Y-75316D01*
X67983Y-75205D01*
X68002Y-75110D01*
X68030Y-75014D01*
X68055Y-74942D01*
X68180Y-74650D01*
X68332Y-74398D01*
X68529Y-74160D01*
X68599Y-74088D01*
X68882Y-73841D01*
X69178Y-73656D01*
X69494Y-73531D01*
X69840Y-73460D01*
X70057Y-73443D01*
X70415Y-73429D01*
X70415Y-73768D01*
X70415Y-74107D01*
X70273Y-74086D01*
X70117Y-74083D01*
X69927Y-74110D01*
X69722Y-74161D01*
X69526Y-74233D01*
X69453Y-74267D01*
X69252Y-74396D01*
X69062Y-74566D01*
X68894Y-74763D01*
X68762Y-74973D01*
X68678Y-75179D01*
X68666Y-75228D01*
X68643Y-75337D01*
X69296Y-75337D01*
X69948Y-75337D01*
X69948Y-75653D01*
X69948Y-75970D01*
X69296Y-75970D01*
X68643Y-75970D01*
X68666Y-76078D01*
X68718Y-76231D01*
X68807Y-76406D01*
X68922Y-76581D01*
X69049Y-76735D01*
X69070Y-76757D01*
X69245Y-76902D01*
X69455Y-77028D01*
X69682Y-77129D01*
X69912Y-77199D01*
X70127Y-77231D01*
X70300Y-77222D01*
X70415Y-77200D01*
X70415Y-77535D01*
X70415Y-77870D01*
X70415Y-77870D01*
X70415Y-77870D01*
G37*
G54D13*
X73434Y-61893D02*
X73434Y-64093D01*
X73434Y-64093D02*
X72234Y-64093D01*
X72234Y-64093D02*
X72234Y-61693D01*
X72234Y-61693D02*
X73434Y-61693D01*
X73434Y-61693D02*
X73434Y-61893D01*
G54D10*
X72630Y-61893D02*
G75*
G03X72630Y-61893I-195J0D01*
G74*
G01*
X73430Y-61893D02*
G75*
G03X73430Y-61893I-195J0D01*
G74*
G01*
X73030Y-63893D02*
G75*
G03X73030Y-63893I-195J0D01*
G74*
G01*
G54D14*
X73856Y-62376D02*
X73556Y-62376D01*
X73556Y-62491D01*
X73570Y-62519D01*
X73584Y-62534D01*
X73613Y-62548D01*
X73656Y-62548D01*
X73684Y-62534D01*
X73699Y-62519D01*
X73713Y-62491D01*
X73713Y-62376D01*
X73556Y-62819D02*
X73556Y-62676D01*
X73699Y-62662D01*
X73684Y-62676D01*
X73670Y-62705D01*
X73670Y-62776D01*
X73684Y-62805D01*
X73699Y-62819D01*
X73727Y-62834D01*
X73799Y-62834D01*
X73827Y-62819D01*
X73841Y-62805D01*
X73856Y-62776D01*
X73856Y-62705D01*
X73841Y-62676D01*
X73827Y-62662D01*
X68964Y-70603D02*
X68964Y-70846D01*
X68978Y-70874D01*
X68992Y-70889D01*
X69021Y-70903D01*
X69078Y-70903D01*
X69107Y-70889D01*
X69121Y-70874D01*
X69135Y-70846D01*
X69135Y-70603D01*
X69250Y-70603D02*
X69450Y-70603D01*
X69321Y-70903D01*
X72409Y-65879D02*
X72409Y-66121D01*
X72423Y-66150D01*
X72437Y-66164D01*
X72466Y-66179D01*
X72523Y-66179D01*
X72552Y-66164D01*
X72566Y-66150D01*
X72580Y-66121D01*
X72580Y-65879D01*
X72852Y-65879D02*
X72794Y-65879D01*
X72766Y-65893D01*
X72752Y-65907D01*
X72723Y-65950D01*
X72709Y-66007D01*
X72709Y-66121D01*
X72723Y-66150D01*
X72737Y-66164D01*
X72766Y-66179D01*
X72823Y-66179D01*
X72852Y-66164D01*
X72866Y-66150D01*
X72880Y-66121D01*
X72880Y-66050D01*
X72866Y-66021D01*
X72852Y-66007D01*
X72823Y-65993D01*
X72766Y-65993D01*
X72737Y-66007D01*
X72723Y-66021D01*
X72709Y-66050D01*
M02*
