M48
;DRILL file {Pcbnew (2013-04-21 BZR 4107)-testing} date Thursday, 13 June 2013 16:51:56
;FORMAT={-:-/ absolute / inch / decimal}
FMAT,2
INCH,TZ
T1C0.020
T2C0.039
T3C0.060
T4C0.118
%
G90
G05
M72
T1
X6.2402Y-5.1969
X6.2402Y-5.3051
X6.2402Y-5.4134
X6.2567Y-5.9161
X6.2567Y-6.1591
X6.2569Y-6.2719
X6.2575Y-5.8197
X6.2697Y-5.5512
X6.2697Y-5.7283
X6.3091Y-6.5551
X6.3091Y-7.4311
X6.3189Y-5.4429
X6.3484Y-5.5512
X6.3484Y-5.7283
X6.3878Y-5.4429
X6.3972Y-5.8681
X6.4173Y-5.7283
X6.4715Y-6.1636
X6.4717Y-6.2705
X6.4764Y-5.
X6.4764Y-6.5256
X6.4764Y-7.2047
X6.4961Y-4.7638
X6.5157Y-5.6102
X6.5354Y-5.0591
X6.5354Y-7.2244
X6.5551Y-4.8228
X6.5945Y-5.
X6.5945Y-5.561
X6.6043Y-7.0965
X6.6142Y-4.7638
X6.6142Y-5.7579
X6.6535Y-5.0591
X6.6634Y-5.561
X6.6732Y-4.8228
X6.6831Y-5.748
X6.6831Y-5.8465
X6.6831Y-5.9449
X6.6831Y-6.1516
X6.6831Y-6.3681
X6.7028Y-5.2264
X6.7028Y-5.6201
X6.7126Y-5.
X6.7126Y-6.1024
X6.7126Y-6.8701
X6.7323Y-4.7638
X6.7323Y-5.3839
X6.752Y-5.3051
X6.7717Y-5.0591
X6.7913Y-4.8228
X6.7913Y-5.2461
X6.7913Y-5.3642
X6.8012Y-5.4331
X6.8012Y-6.4961
X6.8504Y-4.7638
X6.8602Y-6.2402
X6.8799Y-5.2461
X6.8799Y-5.3642
X6.8799Y-5.7677
X6.8799Y-5.8465
X6.8799Y-5.935
X6.8799Y-5.9941
X6.8898Y-4.9606
X6.8996Y-5.3051
X6.9193Y-5.6102
X6.9587Y-5.6791
X6.9783Y-5.6102
X7.0079Y-6.4961
X7.0374Y-5.4528
X7.0472Y-5.1575
X7.0571Y-6.6043
X7.0571Y-6.7618
X7.0669Y-6.063
X7.0768Y-5.0886
X7.0866Y-4.9213
X7.0866Y-6.1417
X7.0866Y-6.2106
X7.0866Y-6.4075
X7.0866Y-7.0472
X7.0965Y-5.689
X7.1161Y-4.7736
X7.126Y-4.8425
X7.126Y-5.1575
X7.1654Y-4.9213
X7.185Y-6.4173
X7.185Y-7.0472
X7.2146Y-6.7126
X7.2244Y-5.7677
X7.2244Y-5.8268
X7.2244Y-5.8858
X7.2244Y-5.9449
X7.2244Y-6.0039
X7.2441Y-4.9213
X7.3031Y-6.1417
X7.3228Y-4.9213
X7.3228Y-6.4764
X7.3524Y-6.6732
X7.3622Y-4.8269
X7.372Y-6.3091
X7.4016Y-4.9213
X7.4114Y-5.1575
X7.4508Y-6.2205
X7.4705Y-5.4823
X7.4705Y-7.2539
X7.4803Y-5.0787
X7.4803Y-5.8661
X7.4902Y-6.0138
X7.5098Y-5.315
X7.5098Y-6.3386
X7.5098Y-7.372
X7.5098Y-7.4213
X7.5197Y-6.4469
X7.5197Y-6.7717
X7.5197Y-6.9291
X7.5591Y-5.0787
X7.5591Y-5.8661
X7.5591Y-6.8504
X7.5591Y-7.126
X7.5984Y-4.8425
X7.5984Y-6.7717
X7.5984Y-6.9291
X7.6083Y-6.1024
X7.6378Y-5.0787
X7.6378Y-6.8504
X7.6378Y-7.126
X7.6772Y-5.5118
X7.6772Y-6.1024
X7.6772Y-7.0472
X7.687Y-5.6594
X7.687Y-6.6831
X7.687Y-7.7264
X7.7165Y-5.0787
X7.7165Y-6.0236
X7.7165Y-7.126
X7.7362Y-5.5118
X7.7362Y-6.5453
X7.7461Y-7.5787
X7.7559Y-5.
X7.7559Y-6.1024
X7.7559Y-7.0472
X7.7854Y-5.2559
X7.7854Y-6.2894
X7.7854Y-7.3228
X7.7953Y-5.0787
X7.7953Y-6.0236
X7.7953Y-6.9291
X7.7953Y-7.126
X7.8248Y-5.5118
X7.8248Y-6.5453
X7.8248Y-7.5787
X7.8346Y-5.
X7.8346Y-6.1024
X7.8346Y-7.0472
X7.8543Y-5.2559
X7.8543Y-6.2894
X7.8543Y-7.3228
X7.8642Y-4.9213
X7.8642Y-5.9547
X7.8642Y-6.9882
X7.874Y-5.0787
X7.874Y-6.0236
X7.874Y-6.9291
X7.874Y-7.126
X7.9134Y-5.
X7.9134Y-6.1024
X7.9134Y-7.0472
X7.9528Y-5.0787
X7.9528Y-5.5118
X7.9528Y-6.0236
X7.9528Y-6.5453
X7.9528Y-6.9291
X7.9528Y-7.126
X7.9528Y-7.5787
X7.9921Y-5.
X7.9921Y-6.1024
X7.9921Y-7.0472
X8.0315Y-5.0689
X8.0315Y-5.1514
X8.0315Y-5.561
X8.0315Y-5.6102
X8.0315Y-5.6594
X8.0315Y-6.0236
X8.0315Y-6.1848
X8.0315Y-6.5945
X8.0315Y-6.6437
X8.0315Y-6.6929
X8.0315Y-7.1358
X8.0315Y-7.2183
X8.0315Y-7.628
X8.0315Y-7.6772
X8.0315Y-7.7264
X8.1496Y-4.8425
X8.1496Y-5.8661
X8.1496Y-6.0236
X8.1496Y-6.9291
X8.189Y-6.8504
X8.2087Y-6.9193
X8.2283Y-4.8031
X8.2283Y-5.8661
X8.2382Y-5.2559
X8.2382Y-5.6398
X8.2382Y-6.2894
X8.2382Y-6.4173
X8.2382Y-6.6732
X8.2382Y-7.3228
X8.2382Y-7.7067
X8.2677Y-6.8504
X8.3071Y-4.8425
X8.3071Y-5.2559
X8.3071Y-5.8661
X8.3071Y-6.2894
X8.3071Y-7.3228
X8.3858Y-5.6299
X8.3858Y-5.8268
X8.3858Y-6.6142
X8.3858Y-6.811
X8.3858Y-7.5984
X8.3858Y-7.7559
X8.435Y-5.3346
X8.435Y-6.3091
X8.435Y-7.2835
X8.4646Y-5.6299
X8.4646Y-5.8268
X8.4646Y-6.6142
X8.4646Y-6.811
X8.4646Y-7.5984
X8.4646Y-7.7559
X8.5433Y-5.6299
X8.5433Y-5.8268
X8.5433Y-6.6142
X8.5433Y-6.811
X8.5433Y-7.5984
X8.5433Y-7.7559
X8.622Y-5.6299
X8.622Y-5.8268
X8.622Y-6.6142
X8.622Y-6.811
X8.622Y-7.5984
X8.622Y-7.7559
X8.7008Y-5.6299
X8.7008Y-5.8268
X8.7008Y-6.6142
X8.7008Y-6.811
X8.7008Y-7.5984
X8.7008Y-7.7559
X8.7795Y-5.6299
X8.7795Y-5.8268
X8.7795Y-6.811
X8.8189Y-4.8425
X8.8583Y-5.6299
X8.8583Y-5.8268
X8.8583Y-6.6142
X8.8583Y-6.811
X8.8583Y-7.5984
X8.8583Y-7.7559
X8.8976Y-4.7638
X8.937Y-5.6299
X8.937Y-5.8268
X8.937Y-6.6142
X8.937Y-6.811
X8.937Y-7.5984
X8.937Y-7.7559
X8.9764Y-4.7638
X8.9764Y-5.9055
X8.9764Y-6.8898
X9.0157Y-5.6299
X9.0157Y-5.8268
X9.0157Y-6.6142
X9.0157Y-6.811
X9.0157Y-7.5984
X9.0157Y-7.7559
X9.0551Y-5.9055
X9.0551Y-6.8898
X9.0945Y-5.6299
X9.0945Y-5.8268
X9.0945Y-6.811
X9.1339Y-5.9055
X9.1339Y-6.8898
X9.1732Y-5.1181
X9.1732Y-5.2756
X9.1732Y-5.6299
X9.1732Y-6.0925
X9.1732Y-6.25
X9.1732Y-6.6142
X9.1732Y-7.0669
X9.1732Y-7.2244
X9.2126Y-5.7087
X9.2126Y-6.6929
X9.2421Y-5.1181
X9.2421Y-5.2756
X9.2421Y-6.0925
X9.2421Y-6.25
X9.2421Y-7.0669
X9.2421Y-7.2244
X9.252Y-5.6299
X9.252Y-6.6142
X9.2913Y-5.7087
X9.2913Y-6.6929
X9.311Y-7.5197
X9.311Y-7.6378
X9.3209Y-5.1181
X9.3209Y-5.2756
X9.3209Y-6.0925
X9.3209Y-6.25
X9.3209Y-7.0669
X9.3209Y-7.2244
X9.3307Y-5.6299
X9.3307Y-6.6142
X9.3406Y-6.5453
X9.3898Y-5.1181
X9.3898Y-5.2756
X9.3898Y-6.0925
X9.3898Y-6.25
X9.3898Y-7.0669
X9.3898Y-7.2244
X9.4193Y-5.7283
X9.4193Y-6.7126
T2
X7.2435Y-6.1894
X7.2835Y-6.3894
X7.3235Y-6.1894
T3
X6.3386Y-4.8213
X6.3386Y-5.0213
T4
X6.3779Y-7.7854
X9.3622Y-4.8819
X9.366Y-7.7854
T0
M30
